<svg width="77" height="28" viewBox="0 0 77 28" fill="none" xmlns="http://www.w3.org/2000/svg">
<path d="M69.4742 6.32386C68.8151 7.95835 66.9595 8.8903 65.3296 8.40541C63.6998 7.92053 62.9129 6.20244 63.572 4.56794C64.2311 2.93345 69.0001 1.06686 70.63 1.55174C70.9731 1.65383 70.1333 4.68937 69.4742 6.32386Z" fill="#B2533E"/>
<path d="M56.189 6.03074C56.6154 7.72127 58.1423 8.8719 59.5993 8.60074C61.0563 8.32958 61.8917 6.73931 61.4653 5.04878C61.0388 3.35825 57.0677 0.920838 55.6106 1.192C55.3039 1.24909 55.7625 4.3402 56.189 6.03074Z" fill="#B2533E"/>
<path d="M72.2999 13.2615C70.6756 14.284 68.6444 14.2758 67.7632 13.243C66.882 12.2103 67.4845 10.5442 69.1088 9.5217C70.7332 8.49919 75.5873 8.9363 76.4684 9.96902C76.654 10.1864 73.9243 12.239 72.2999 13.2615Z" fill="#B2533E"/>
<path d="M65.8719 8.94437C64.8448 9.8265 66.207 9.8146 64.9916 9.8146C63.7761 9.8146 64.4047 9.38958 64.4047 8.5544C64.4047 7.71922 68.0309 2.51737 69.2464 2.51737C69.3931 2.40325 63.7582 7.93623 65.8719 8.94437Z" fill="#FCE09B"/>
<path d="M59.5503 8.2033C60.5772 9.08665 59.2153 9.07473 60.4305 9.07473C61.6457 9.07473 61.0172 8.64912 61.0172 7.81278C61.0172 6.97645 57.3917 1.76737 56.1765 1.76737C56.0298 1.65309 61.6635 7.19376 59.5503 8.2033Z" fill="#FCE09B"/>
<path d="M68.3576 13.607C66.9249 13.8119 68.0412 14.4824 67.0523 13.8755C66.0633 13.2686 66.8625 13.2366 67.4277 12.5571C67.993 11.8776 74.4644 9.45576 75.4533 10.0627C75.6499 10.0431 67.3202 11.7313 68.3576 13.607Z" fill="#FCE09B"/>
<path d="M2.54403 21H0.447443L5.15838 7.90909H7.44034L12.1513 21H10.0547L6.35369 10.2869H6.25142L2.54403 21ZM2.8956 15.8736H9.69673V17.5355H2.8956V15.8736Z" fill="#A00606"/>
<path d="M16.7448 24.8864C15.965 24.8864 15.2938 24.7841 14.7313 24.5795C14.1731 24.375 13.7171 24.1044 13.3634 23.7678C13.0097 23.4311 12.7455 23.0625 12.5708 22.6619L14.2135 21.9844C14.3286 22.1719 14.482 22.37 14.6738 22.5788C14.8698 22.7919 15.134 22.973 15.4664 23.1222C15.803 23.2713 16.2356 23.3459 16.764 23.3459C17.4884 23.3459 18.0871 23.169 18.5601 22.8153C19.0331 22.4659 19.2697 21.9077 19.2697 21.1406V19.2102H19.1482C19.0331 19.419 18.867 19.6513 18.6496 19.907C18.4366 20.1626 18.1425 20.3842 17.7675 20.5717C17.3925 20.7592 16.9046 20.853 16.3037 20.853C15.5282 20.853 14.8293 20.6719 14.2072 20.3097C13.5893 19.9432 13.0992 19.4041 12.737 18.6925C12.379 17.9766 12.2 17.0966 12.2 16.0526C12.2 15.0085 12.3769 14.1136 12.7306 13.3679C13.0885 12.6222 13.5786 12.0511 14.2008 11.6548C14.8229 11.2543 15.5282 11.054 16.3165 11.054C16.9259 11.054 17.4181 11.1562 17.7931 11.3608C18.1681 11.5611 18.46 11.7955 18.6688 12.0639C18.8819 12.3324 19.0459 12.5689 19.161 12.7734H19.3016V11.1818H21.1745V21.2173C21.1745 22.0611 20.9785 22.7536 20.5864 23.2947C20.1944 23.8359 19.6638 24.2365 18.9948 24.4964C18.33 24.7564 17.58 24.8864 16.7448 24.8864ZM16.7256 19.2678C17.2753 19.2678 17.7398 19.1399 18.1191 18.8842C18.5026 18.6243 18.7924 18.2536 18.9884 17.772C19.1887 17.2862 19.2888 16.7045 19.2888 16.027C19.2888 15.3665 19.1908 14.7848 18.9948 14.282C18.7988 13.7791 18.5111 13.3871 18.1319 13.1058C17.7526 12.8203 17.2839 12.6776 16.7256 12.6776C16.1503 12.6776 15.6709 12.8267 15.2874 13.125C14.9039 13.419 14.6141 13.8196 14.4181 14.3267C14.2263 14.8338 14.1304 15.4006 14.1304 16.027C14.1304 16.6705 14.2285 17.2351 14.4245 17.7209C14.6205 18.2067 14.9103 18.5859 15.2938 18.8587C15.6816 19.1314 16.1589 19.2678 16.7256 19.2678ZM22.4777 21V11.1818H24.325V12.7415H24.4273C24.6062 12.2131 24.9216 11.7976 25.3733 11.495C25.8293 11.1882 26.3449 11.0348 26.9202 11.0348C27.0395 11.0348 27.1801 11.0391 27.342 11.0476C27.5082 11.0561 27.6382 11.0668 27.732 11.0795V12.9077C27.6552 12.8864 27.5189 12.8629 27.3229 12.8374C27.1268 12.8075 26.9308 12.7926 26.7348 12.7926C26.2831 12.7926 25.8804 12.8885 25.5267 13.0803C25.1773 13.2678 24.9003 13.5298 24.6957 13.8665C24.4912 14.1989 24.3889 14.5781 24.3889 15.0043V21H22.4777ZM28.1259 21V11.1818H30.0371V21H28.1259ZM29.0911 9.6669C28.7587 9.6669 28.4732 9.55611 28.2346 9.33452C28.0002 9.10866 27.883 8.8402 27.883 8.52912C27.883 8.21378 28.0002 7.94531 28.2346 7.72372C28.4732 7.49787 28.7587 7.38494 29.0911 7.38494C29.4235 7.38494 29.7069 7.49787 29.9412 7.72372C30.1799 7.94531 30.2992 8.21378 30.2992 8.52912C30.2992 8.8402 30.1799 9.10866 29.9412 9.33452C29.7069 9.55611 29.4235 9.6669 29.0911 9.6669Z" fill="#227F7F"/>
<path d="M31.0543 21V7.90909H34.2183V13.1634H39.3767V7.90909H42.5344V21H39.3767V15.7393H34.2183V21H31.0543ZM49.5936 16.7621V11.1818H52.713V21H49.7343V19.1719H49.632C49.4147 19.7727 49.0439 20.25 48.5198 20.6037C47.9999 20.9531 47.3713 21.1278 46.6341 21.1278C45.9651 21.1278 45.377 20.9744 44.8699 20.6676C44.3628 20.3608 43.9686 19.9325 43.6874 19.3828C43.4061 18.8288 43.2634 18.1811 43.2591 17.4396V11.1818H46.3848V16.826C46.3891 17.3587 46.5297 17.7784 46.8067 18.0852C47.0837 18.392 47.4608 18.5455 47.9381 18.5455C48.2492 18.5455 48.5283 18.4773 48.7755 18.3409C49.0269 18.2003 49.225 17.9979 49.3699 17.7337C49.5191 17.4652 49.5936 17.1413 49.5936 16.7621ZM53.4425 21V7.90909H56.5682V12.8629H56.6321C56.76 12.5646 56.9411 12.277 57.1754 12C57.4141 11.723 57.7166 11.4972 58.0831 11.3224C58.4538 11.1435 58.897 11.054 59.4127 11.054C60.0945 11.054 60.7315 11.233 61.3239 11.5909C61.9205 11.9489 62.402 12.5007 62.7685 13.2464C63.135 13.9922 63.3182 14.9425 63.3182 16.0973C63.3182 17.2095 63.1413 18.1406 62.7877 18.8906C62.4382 19.6406 61.9652 20.2031 61.3686 20.5781C60.7763 20.9531 60.1179 21.1406 59.3935 21.1406C58.8992 21.1406 58.4709 21.0597 58.1087 20.8977C57.7465 20.7358 57.4418 20.5227 57.1946 20.2585C56.9517 19.9943 56.7642 19.7109 56.6321 19.4084H56.5362V21H53.4425ZM56.5043 16.0909C56.5043 16.6193 56.5746 17.0795 56.7152 17.4716C56.8601 17.8636 57.0668 18.1683 57.3352 18.3857C57.608 18.5987 57.934 18.7053 58.3132 18.7053C58.6967 18.7053 59.0227 18.5987 59.2912 18.3857C59.5597 18.1683 59.7621 17.8636 59.8985 17.4716C60.0391 17.0795 60.1094 16.6193 60.1094 16.0909C60.1094 15.5625 60.0391 15.1044 59.8985 14.7166C59.7621 14.3288 59.5597 14.0284 59.2912 13.8153C59.027 13.6023 58.701 13.4957 58.3132 13.4957C57.9297 13.4957 57.6037 13.6001 57.3352 13.8089C57.0668 14.0178 56.8601 14.3161 56.7152 14.7038C56.5746 15.0916 56.5043 15.554 56.5043 16.0909Z" fill="#3E3E3E"/>
</svg>
