<svg
      width="35"
      height="35"
      viewBox="0 0 42 36"
      fill="none"
      xmlns="http://www.w3.org/2000/svg"
    >
      <path
        d="M27.842 14.1586C26.5744 17.818 23.0061 19.9046 19.8718 18.819C16.7376 17.7334 15.2243 13.8867 16.4918 10.2272C17.7593 6.56773 26.9303 2.3886 30.0646 3.47421C30.7245 3.70278 29.1095 10.4991 27.842 14.1586Z"
        fill="#B2533E"
      />
      <path
        d="M2.29187 13.5029C3.11198 17.2879 6.0482 19.8641 8.8501 19.2569C11.652 18.6498 13.2586 15.0894 12.4385 11.3044C11.6183 7.51948 3.98164 2.06234 1.17974 2.66944C0.589825 2.79726 1.47177 9.71799 2.29187 13.5029Z"
        fill="#B2533E"
      />
      <path
        d="M33.27 29.6969C30.1463 31.9862 26.2403 31.9677 24.5458 29.6555C22.8512 27.3433 24.0098 23.6131 27.1334 21.3238C30.2571 19.0345 39.5917 20.0131 41.2863 22.3253C41.6431 22.8121 36.3937 27.4076 33.27 29.6969Z"
        fill="#B2533E"
      />
      <path
        d="M20.9035 20.0223C18.9284 21.9973 21.548 21.9707 19.2106 21.9707C16.8732 21.9707 18.082 21.0191 18.082 19.1492C18.082 17.2793 25.0554 5.6328 27.3928 5.6328C27.675 5.3773 16.8389 17.7652 20.9035 20.0223Z"
        fill="#FCE09B"
      />
      <path
        d="M8.75145 18.3626C10.7261 20.3403 8.10708 20.3137 10.444 20.3137C12.7809 20.3137 11.5723 19.3607 11.5723 17.4883C11.5723 15.6158 4.60029 3.95312 2.26338 3.95312C1.98129 3.69726 12.8152 16.1023 8.75145 18.3626Z"
        fill="#FCE09B"
      />
      <path
        d="M25.6921 30.4628C22.9369 30.9216 25.0838 32.4228 23.182 31.064C21.2802 29.7051 22.8169 29.6336 23.904 28.1121C24.991 26.5907 37.4357 21.1685 39.3375 22.5274C39.7156 22.4835 23.6971 26.2633 25.6921 30.4628Z"
        fill="#FCE09B"
      />
    </svg>