<svg width="3864" height="1237" viewBox="0 0 3864 1237" fill="none" xmlns="http://www.w3.org/2000/svg">
<path d="M1515.18 334.442C1552.45 356.019 1567.43 399.263 1548.65 431.03C1529.87 462.797 1484.43 471.057 1447.16 449.479C1409.89 427.902 1384.33 319.281 1403.11 287.515C1407.07 280.827 1477.91 312.864 1515.18 334.442Z" fill="#89C26F"/>
<path d="M3451.5 252.545C3425.08 317.819 3350.7 355.036 3285.37 335.672C3220.04 316.308 3188.49 247.696 3214.91 182.422C3241.33 117.148 3432.49 42.6054 3497.82 61.9693C3511.58 66.0462 3477.92 187.271 3451.5 252.545Z" fill="#B2533E"/>
<path d="M2918.77 240.854C2935.86 308.366 2997.07 354.317 3055.47 343.488C3113.87 332.659 3147.36 269.151 3130.27 201.64C3113.17 134.128 2953.99 36.7891 2895.59 47.6179C2883.29 49.8978 2901.68 173.342 2918.77 240.854Z" fill="#B2533E"/>
<path d="M3564.71 529.664C3499.6 570.499 3418.18 570.168 3382.86 528.926C3347.54 487.684 3371.69 421.148 3436.8 380.314C3501.91 339.48 3696.48 356.936 3731.8 398.178C3739.24 406.861 3629.82 488.83 3564.71 529.664Z" fill="#B2533E"/>
<path d="M3306.89 357.339C3265.72 392.567 3320.32 392.092 3271.6 392.092C3222.88 392.092 3248.08 375.118 3248.08 341.765C3248.08 308.412 3393.43 100.675 3442.15 100.675C3448.03 96.1176 3222.16 317.079 3306.89 357.339Z" fill="#FCE09B"/>
<path d="M3053.58 327.567C3094.74 362.844 3040.15 362.368 3088.86 362.368C3137.57 362.368 3112.38 345.371 3112.38 311.971C3112.38 278.572 2967.05 70.5462 2918.34 70.5462C2912.46 65.9825 3138.29 287.25 3053.58 327.567Z" fill="#FCE09B"/>
<path d="M3406.64 543.374C3349.21 551.557 3393.96 578.334 3354.32 554.096C3314.68 529.859 3346.71 528.583 3369.37 501.445C3392.03 474.307 3651.43 377.592 3691.07 401.83C3698.95 401.047 3365.06 468.468 3406.64 543.374Z" fill="#FCE09B"/>
<path d="M131.28 1036.23H23.0895L266.189 360.698H383.945L627.045 1036.23H518.854L327.871 483.402H322.593L131.28 1036.23ZM149.422 771.691H500.382V857.452H149.422V771.691ZM855.921 1236.78C815.679 1236.78 781.045 1231.5 752.018 1220.95C723.211 1210.39 699.682 1196.43 681.43 1179.06C663.178 1161.68 649.545 1142.66 640.529 1121.99L725.3 1087.03C731.238 1096.7 739.154 1106.93 749.049 1117.7C759.165 1128.7 772.799 1138.04 789.951 1145.74C807.323 1153.44 829.643 1157.29 856.91 1157.29C894.293 1157.29 925.189 1148.16 949.598 1129.91C974.007 1111.88 986.211 1083.07 986.211 1043.49V943.873H979.944C974.007 954.648 965.431 966.632 954.216 979.826C943.221 993.02 928.048 1004.45 908.697 1014.13C889.346 1023.81 864.167 1028.64 833.161 1028.64C793.139 1028.64 757.076 1019.3 724.97 1000.61C693.085 981.695 667.796 953.878 649.105 917.155C630.633 880.211 621.398 834.802 621.398 780.927C621.398 727.051 630.523 680.872 648.775 642.39C667.247 603.907 692.535 574.441 724.641 553.99C756.746 533.319 793.139 522.984 833.821 522.984C865.266 522.984 890.665 528.262 910.016 538.817C929.367 549.152 944.43 561.247 955.206 575.1C966.201 588.954 974.667 601.159 980.604 611.714H987.861V529.581H1084.51V1047.45C1084.51 1090.99 1074.39 1126.72 1054.16 1154.65C1033.93 1182.57 1006.55 1203.24 972.028 1216.66C937.724 1230.07 899.021 1236.78 855.921 1236.78ZM854.931 946.841C883.298 946.841 907.267 940.244 926.838 927.05C946.629 913.636 961.583 894.505 971.698 869.656C982.033 844.588 987.201 814.571 987.201 779.607C987.201 745.523 982.143 715.506 972.028 689.558C961.913 663.61 947.069 643.379 927.498 628.866C907.927 614.133 883.738 606.766 854.931 606.766C825.245 606.766 800.506 614.462 780.715 629.855C760.924 645.029 745.971 665.699 735.855 691.867C725.96 718.035 721.012 747.282 721.012 779.607C721.012 812.812 726.07 841.949 736.185 867.017C746.301 892.086 761.254 911.657 781.045 925.731C801.056 939.804 825.685 946.841 854.931 946.841ZM1151.76 1036.23V529.581H1247.08V610.064H1252.36C1261.6 582.797 1277.87 561.357 1301.18 545.744C1324.71 529.911 1351.32 521.995 1381 521.995C1387.16 521.995 1394.42 522.214 1402.77 522.654C1411.35 523.094 1418.06 523.644 1422.89 524.303V618.641C1418.93 617.541 1411.9 616.332 1401.78 615.012C1391.67 613.473 1381.55 612.703 1371.44 612.703C1348.13 612.703 1327.35 617.651 1309.09 627.546C1291.06 637.222 1276.77 650.746 1266.21 668.118C1255.66 685.27 1250.38 704.841 1250.38 726.831V1036.23H1151.76ZM1443.22 1036.23V529.581H1541.85V1036.23H1443.22ZM1493.03 451.407C1475.88 451.407 1461.14 445.689 1448.83 434.254C1436.73 422.6 1430.69 408.746 1430.69 392.693C1430.69 376.421 1436.73 362.567 1448.83 351.132C1461.14 339.478 1475.88 333.65 1493.03 333.65C1510.18 333.65 1524.8 339.478 1536.9 351.132C1549.21 362.567 1555.37 376.421 1555.37 392.693C1555.37 408.746 1549.21 422.6 1536.9 434.254C1524.8 445.689 1510.18 451.407 1493.03 451.407Z" fill="#89C26F"/>
<path d="M1594.34 1036.23V360.698H1757.61V631.835H2023.8V360.698H2186.75V1036.23H2023.8V764.764H1757.61V1036.23H1594.34ZM2551.03 817.54V529.581H2711.99V1036.23H2558.28V941.893H2553C2541.79 972.899 2522.66 997.528 2495.61 1015.78C2468.78 1033.81 2436.35 1042.83 2398.31 1042.83C2363.78 1042.83 2333.43 1034.91 2307.27 1019.08C2281.1 1003.25 2260.76 981.146 2246.24 952.778C2231.73 924.191 2224.36 890.767 2224.14 852.504V529.581H2385.44V820.839C2385.66 848.326 2392.92 869.986 2407.21 885.819C2421.5 901.652 2440.97 909.568 2465.59 909.568C2481.65 909.568 2496.05 906.05 2508.8 899.013C2521.78 891.756 2532 881.311 2539.48 867.677C2547.18 853.823 2551.03 837.111 2551.03 817.54ZM2749.64 1036.23V360.698H2910.93V616.332H2914.23C2920.83 600.939 2930.18 586.095 2942.27 571.802C2954.58 557.508 2970.2 545.854 2989.11 536.838C3008.24 527.602 3031.11 522.984 3057.72 522.984C3092.9 522.984 3125.78 532.22 3156.34 550.691C3187.13 569.163 3211.98 597.64 3230.89 636.123C3249.8 674.605 3259.26 723.643 3259.26 783.236C3259.26 840.63 3250.13 888.678 3231.88 927.38C3213.85 966.082 3189.44 995.109 3158.65 1014.46C3128.09 1033.81 3094.11 1043.49 3056.73 1043.49C3031.22 1043.49 3009.12 1039.31 2990.43 1030.95C2971.74 1022.6 2956.01 1011.6 2943.26 997.968C2930.73 984.334 2921.05 969.711 2914.23 954.098H2909.29V1036.23H2749.64ZM2907.64 782.906C2907.64 810.173 2911.26 833.923 2918.52 854.153C2926 874.384 2936.66 890.107 2950.52 901.322C2964.59 912.317 2981.41 917.814 3000.98 917.814C3020.77 917.814 3037.6 912.317 3051.45 901.322C3065.3 890.107 3075.75 874.384 3082.79 854.153C3090.04 833.923 3093.67 810.173 3093.67 782.906C3093.67 755.638 3090.04 731.999 3082.79 711.988C3075.75 691.977 3065.3 676.474 3051.45 665.479C3037.82 654.484 3020.99 648.987 3000.98 648.987C2981.19 648.987 2964.37 654.374 2950.52 665.149C2936.66 675.924 2926 691.317 2918.52 711.328C2911.26 731.339 2907.64 755.198 2907.64 782.906Z" fill="#B2533E"/>
</svg>
