<svg width="49" height="42" viewBox="0 0 49 42" fill="none" xmlns="http://www.w3.org/2000/svg">
<path d="M32.2399 16.3956C30.7721 20.6333 26.6399 23.0495 23.0104 21.7924C19.3809 20.5353 17.6285 16.0808 19.0963 11.8431C20.5641 7.60545 31.1841 2.76601 34.8136 4.02315C35.5778 4.28783 33.7077 12.1579 32.2399 16.3956Z" fill="#89C26F"/>
<path d="M2.6541 15.6381C3.60378 20.0211 7.00393 23.0043 10.2485 22.3012C13.4931 21.5982 15.3535 17.4752 14.4039 13.0922C13.4542 8.70923 4.61085 2.38985 1.36625 3.09288C0.683123 3.24089 1.70441 11.2551 2.6541 15.6381Z" fill="#89C26F"/>
<path d="M38.5245 34.3866C34.9072 37.0377 30.3841 37.0162 28.4218 34.3387C26.4595 31.6612 27.8011 27.3416 31.4183 24.6905C35.0355 22.0395 45.845 23.1728 47.8073 25.8503C48.2205 26.414 42.1417 31.7356 38.5245 34.3866Z" fill="#89C26F"/>
<path d="M24.2082 23.1872C21.9211 25.4743 24.9545 25.4434 22.2479 25.4434C19.5412 25.4434 20.941 24.3415 20.941 22.1762C20.941 20.0108 29.0162 6.52417 31.7229 6.52417C32.0496 6.22829 19.5014 20.5735 24.2082 23.1872Z" fill="white"/>
<path d="M10.1333 21.2649C12.4199 23.5551 9.38709 23.5242 12.0932 23.5242C14.7994 23.5242 13.3999 22.4207 13.3999 20.2524C13.3999 18.0841 5.32622 4.57868 2.62007 4.57868C2.29341 4.28239 14.8391 18.6475 10.1333 21.2649Z" fill="white"/>
<path d="M29.7491 35.2749C26.5586 35.8062 29.0447 37.5446 26.8424 35.971C24.6401 34.3975 26.4196 34.3147 27.6784 32.5528C28.9373 30.791 43.3482 24.5121 45.5505 26.0856C45.9884 26.0349 27.4389 30.4119 29.7491 35.2749Z" fill="white"/>
</svg>
