<svg width="3934" height="1219" viewBox="0 0 3934 1219" fill="none" xmlns="http://www.w3.org/2000/svg">
<path d="M3435.21 255.636C3412.04 321.709 3346.82 359.382 3289.54 339.781C3232.26 320.18 3204.6 250.728 3227.76 184.655C3250.93 118.582 3418.55 43.1269 3475.83 62.7278C3487.89 66.8547 3458.38 189.563 3435.21 255.636Z" fill="#89C26F"/>
<path d="M2968.09 243.8C2983.08 312.138 3036.75 358.651 3087.96 347.69C3139.17 336.729 3168.53 272.444 3153.54 204.105C3138.55 135.767 2998.98 37.2369 2947.77 48.1984C2936.99 50.5062 2953.11 175.462 2968.09 243.8Z" fill="#89C26F"/>
<path d="M3534.48 536.145C3477.39 577.479 3406 577.145 3375.03 535.398C3344.06 493.651 3365.23 426.301 3422.33 384.967C3479.42 343.632 3650.02 361.302 3680.99 403.049C3687.51 411.838 3591.57 494.811 3534.48 536.145Z" fill="#89C26F"/>
<path d="M1514.09 285.333C1551.65 307.606 1566.75 352.243 1547.82 385.033C1528.89 417.822 1483.09 426.348 1445.53 404.076C1407.97 381.803 1382.21 269.685 1401.14 236.895C1405.13 229.991 1476.53 263.06 1514.09 285.333Z" fill="#89C26F"/>
<path d="M131.28 994.92H23.0895L266.189 319.387H383.945L627.045 994.92H518.854L327.871 442.092H322.593L131.28 994.92ZM149.422 730.38H500.382V816.141H149.422V730.38ZM855.921 1195.47C815.679 1195.47 781.045 1190.19 752.018 1179.64C723.211 1169.08 699.682 1155.12 681.43 1137.74C663.178 1120.37 649.545 1101.35 640.529 1080.68L725.3 1045.72C731.238 1055.39 739.154 1065.62 749.049 1076.39C759.165 1087.39 772.799 1096.73 789.951 1104.43C807.323 1112.13 829.643 1115.97 856.91 1115.97C894.293 1115.97 925.189 1106.85 949.598 1088.6C974.007 1070.57 986.211 1041.76 986.211 1002.18V902.562H979.944C974.007 913.337 965.431 925.322 954.216 938.516C943.221 951.71 928.048 963.144 908.697 972.82C889.346 982.496 864.167 987.333 833.161 987.333C793.139 987.333 757.076 977.988 724.97 959.296C693.085 940.385 667.796 912.567 649.105 875.844C630.633 838.901 621.398 793.492 621.398 739.616C621.398 685.741 630.523 639.562 648.775 601.079C667.247 562.597 692.535 533.13 724.641 512.679C756.746 492.009 793.139 481.674 833.821 481.674C865.266 481.674 890.665 486.951 910.016 497.506C929.367 507.842 944.43 519.936 955.206 533.79C966.201 547.644 974.667 559.848 980.604 570.403H987.861V488.271H1084.51V1006.13C1084.51 1049.67 1074.39 1085.41 1054.16 1113.34C1033.93 1141.26 1006.55 1161.93 972.028 1175.35C937.724 1188.76 899.021 1195.47 855.921 1195.47ZM854.931 905.531C883.298 905.531 907.267 898.934 926.838 885.74C946.629 872.326 961.583 853.194 971.698 828.346C982.033 803.277 987.201 773.261 987.201 738.297C987.201 704.212 982.143 674.196 972.028 648.248C961.913 622.3 947.069 602.069 927.498 587.555C907.927 572.822 883.738 565.455 854.931 565.455C825.245 565.455 800.506 573.152 780.715 588.545C760.924 603.718 745.971 624.389 735.855 650.557C725.96 676.725 721.012 705.971 721.012 738.297C721.012 771.502 726.07 800.638 736.185 825.707C746.301 850.776 761.254 870.347 781.045 884.42C801.056 898.494 825.685 905.531 854.931 905.531ZM1151.76 994.92V488.271H1247.08V568.754H1252.36C1261.6 541.486 1277.87 520.046 1301.18 504.433C1324.71 488.6 1351.32 480.684 1381 480.684C1387.16 480.684 1394.42 480.904 1402.77 481.344C1411.35 481.783 1418.06 482.333 1422.89 482.993V577.33C1418.93 576.231 1411.9 575.021 1401.78 573.702C1391.67 572.162 1381.55 571.393 1371.44 571.393C1348.13 571.393 1327.35 576.34 1309.09 586.236C1291.06 595.912 1276.77 609.435 1266.21 626.807C1255.66 643.96 1250.38 663.531 1250.38 685.521V994.92H1151.76ZM1443.22 994.92V488.271H1541.85V994.92H1443.22ZM1493.03 410.096C1475.88 410.096 1461.14 404.379 1448.83 392.944C1436.73 381.289 1430.69 367.436 1430.69 351.383C1430.69 335.11 1436.73 321.257 1448.83 309.822C1461.14 298.167 1475.88 292.34 1493.03 292.34C1510.18 292.34 1524.8 298.167 1536.9 309.822C1549.21 321.257 1555.37 335.11 1555.37 351.383C1555.37 367.436 1549.21 381.289 1536.9 392.944C1524.8 404.379 1510.18 410.096 1493.03 410.096Z" fill="#89C26F"/>
<path d="M1594.34 994.92V319.387H1757.61V590.524H2023.8V319.387H2186.75V994.92H2023.8V723.453H1757.61V994.92H1594.34ZM2551.03 776.229V488.271H2711.99V994.92H2558.28V900.583H2553C2541.79 931.589 2522.66 956.218 2495.61 974.469C2468.78 992.501 2436.35 1001.52 2398.31 1001.52C2363.78 1001.52 2333.43 993.601 2307.27 977.768C2281.1 961.935 2260.76 939.835 2246.24 911.468C2231.73 882.881 2224.36 849.456 2224.14 811.194V488.271H2385.44V779.528C2385.66 807.015 2392.92 828.676 2407.21 844.508C2421.5 860.341 2440.97 868.258 2465.59 868.258C2481.65 868.258 2496.05 864.739 2508.8 857.702C2521.78 850.446 2532 840 2539.48 826.367C2547.18 812.513 2551.03 795.801 2551.03 776.229ZM2749.64 994.92V319.387H2910.93V575.021H2914.23C2920.83 559.628 2930.18 544.785 2942.27 530.491C2954.58 516.198 2970.2 504.543 2989.11 495.527C3008.24 486.291 3031.11 481.674 3057.72 481.674C3092.9 481.674 3125.78 490.909 3156.34 509.381C3187.13 527.853 3211.98 556.33 3230.89 594.812C3249.8 633.295 3259.26 682.332 3259.26 741.925C3259.26 799.319 3250.13 847.367 3231.88 886.069C3213.85 924.772 3189.44 953.799 3158.65 973.15C3128.09 992.501 3094.11 1002.18 3056.73 1002.18C3031.22 1002.18 3009.12 997.999 2990.43 989.642C2971.74 981.286 2956.01 970.291 2943.26 956.657C2930.73 943.024 2921.05 928.4 2914.23 912.787H2909.29V994.92H2749.64ZM2907.64 741.595C2907.64 768.863 2911.26 792.612 2918.52 812.843C2926 833.074 2936.66 848.796 2950.52 860.011C2964.59 871.006 2981.41 876.504 3000.98 876.504C3020.77 876.504 3037.6 871.006 3051.45 860.011C3065.3 848.796 3075.75 833.074 3082.79 812.843C3090.04 792.612 3093.67 768.863 3093.67 741.595C3093.67 714.328 3090.04 690.688 3082.79 670.678C3075.75 650.667 3065.3 635.164 3051.45 624.169C3037.82 613.174 3020.99 607.676 3000.98 607.676C2981.19 607.676 2964.37 613.064 2950.52 623.839C2936.66 634.614 2926 650.007 2918.52 670.018C2911.26 690.029 2907.64 713.888 2907.64 741.595Z" fill="#89C26F"/>
</svg>
