<?xml version="1.0" encoding="UTF-8"?>
<svg version="1.1" xmlns="http://www.w3.org/2000/svg" width="1175" height="579">
<path d="M0 0 C2.23046875 1.70703125 2.23046875 1.70703125 3.8125 3.1875 C3.8125 3.8475 3.8125 4.5075 3.8125 5.1875 C4.8025 5.5175 5.7925 5.8475 6.8125 6.1875 C7.02003906 5.47464844 7.22757812 4.76179688 7.44140625 4.02734375 C9.87853951 -3.54918351 12.70986789 -8.6767415 19.5859375 -12.90234375 C26.09618502 -15.88277352 34.44382175 -16.11470217 41.25 -14.0859375 C45.54225294 -12.08613784 48.68460258 -9.3872399 51.8125 -5.8125 C52.6478125 -4.9153125 52.6478125 -4.9153125 53.5 -4 C57.47142209 2.61903681 57.09967687 10.35271768 57.07128906 17.80981445 C57.07654602 19.52143013 57.07654602 19.52143013 57.08190918 21.2676239 C57.0906879 25.02873887 57.0848865 28.78966445 57.078125 32.55078125 C57.07947377 35.18426041 57.08141608 37.81773934 57.08392334 40.45121765 C57.08755619 45.97311425 57.08278771 51.49495726 57.07324219 57.0168457 C57.06241832 63.35029394 57.06584147 69.68361276 57.076895 76.01705772 C57.08605891 81.49179174 57.08720755 86.96648742 57.08201766 92.44122666 C57.07893968 95.69405585 57.07918451 98.94681304 57.08509064 102.19964027 C57.15230928 149.66884248 57.15230928 149.66884248 46.8125 169.1875 C46.39355469 169.98414063 45.97460938 170.78078125 45.54296875 171.6015625 C36.77940882 187.19731929 23.05646673 198.12303225 5.99609375 203.44921875 C2.28269261 204.4737366 -1.41480758 205.41778782 -5.1875 206.1875 C-5.97519775 206.36482666 -6.76289551 206.54215332 -7.57446289 206.72485352 C-16.84881799 208.5751133 -26.11264328 208.5250853 -35.53051758 208.50317383 C-38.35212306 208.50002553 -41.17266486 208.52350246 -43.99414062 208.54882812 C-58.44321431 208.59979767 -72.20491277 207.11553269 -86.0625 202.8125 C-87.11026611 202.49333618 -87.11026611 202.49333618 -88.17919922 202.16772461 C-108.60691405 195.76434017 -108.60691405 195.76434017 -113.3125 187.12109375 C-115.67525945 181.05597464 -115.82545933 175.27836394 -113.39453125 169.20703125 C-110.62189851 163.89942001 -106.65282412 160.4820691 -101.1875 158.1875 C-92.37842369 157.0528395 -84.850907 159.1221325 -76.625 162.0625 C-64.45896687 166.30524476 -53.60088149 168.5396116 -40.6875 168.5 C-39.63691406 168.51611328 -38.58632813 168.53222656 -37.50390625 168.54882812 C-25.23586561 168.55641035 -12.63133584 165.49663657 -3.375 157 C6.66759609 146.08104529 7.14535185 133.22275315 6.8125 119.1875 C6.20664062 119.82816406 5.60078125 120.46882812 4.9765625 121.12890625 C-0.65729473 126.94478041 -6.30503378 131.91168212 -13.1875 136.1875 C-13.81914062 136.58710938 -14.45078125 136.98671875 -15.1015625 137.3984375 C-29.74984439 145.68874172 -51.75988273 145.55445675 -67.75 141.6875 C-80.85256908 137.82339863 -94.05293478 130.50724615 -103.1875 120.1875 C-103.1875 119.5275 -103.1875 118.8675 -103.1875 118.1875 C-103.8475 118.1875 -104.5075 118.1875 -105.1875 118.1875 C-106.73357948 116.13416066 -108.12994776 114.10501597 -109.5 111.9375 C-109.90299316 111.30142822 -110.30598633 110.66535645 -110.72119141 110.01000977 C-115.56953889 102.17513491 -118.81095213 94.32408176 -120.8203125 85.31640625 C-121.0795752 84.16342041 -121.33883789 83.01043457 -121.60595703 81.82250977 C-121.79786621 80.95295654 -121.98977539 80.08340332 -122.1875 79.1875 C-122.19114563 79.95900391 -122.19479126 80.73050781 -122.19854736 81.52539062 C-122.23653017 88.82238479 -122.29349822 96.11887419 -122.37140274 103.4155426 C-122.41078838 107.16620547 -122.44302003 110.9166367 -122.45849609 114.66748047 C-122.47372219 118.29229954 -122.50827094 121.91648143 -122.55580902 125.54101562 C-122.57056199 126.91872597 -122.5785375 128.29652733 -122.57938385 129.67431641 C-122.59057193 138.7611174 -123.00419638 145.3267383 -129.1171875 152.4296875 C-135.63829283 157.90322571 -140.75527768 159.69392555 -149.30859375 159.49609375 C-155.74169995 158.80652063 -161.2126647 156.7003125 -165.625 151.875 C-168.17469953 148.53799948 -169.74375559 145.11769312 -171.1875 141.1875 C-171.6515625 141.6721875 -172.115625 142.156875 -172.59375 142.65625 C-186.99101858 156.62374937 -204.69087252 160.69190025 -224.22900391 160.61206055 C-240.1527167 160.23886803 -254.19375866 155.73443054 -265.86328125 144.6328125 C-274.597184 135.44386608 -279.35600636 124.86777808 -280.1875 112.1875 C-280.2390625 111.55199219 -280.290625 110.91648437 -280.34375 110.26171875 C-280.97438144 96.30899808 -276.99154225 83.41478368 -268.4375 72.4375 C-256.72835951 59.75765357 -238.20293801 53.88426133 -221.3293457 53.04541016 C-203.66000607 52.52201193 -186.9656598 53.27519607 -170.1875 59.1875 C-171.75559984 45.63186581 -171.75559984 45.63186581 -179.5 34.875 C-188.16591518 28.04618461 -197.61370311 27.97687804 -208.20507812 27.94726562 C-210.28557325 27.93762478 -212.36505138 27.9065939 -214.4453125 27.875 C-222.51991267 27.81145373 -229.51831646 28.66132103 -237.1875 31.1875 C-245.44084139 33.37026259 -250.55892291 33.54716675 -258.375 29.5625 C-263.0016401 25.65555947 -265.68664688 22.17002383 -266.70703125 16.09375 C-267.0430862 9.40391188 -266.32716207 4.38638408 -262.1328125 -0.94921875 C-255.23582143 -7.55537285 -245.21389702 -9.65501593 -236.1875 -11.8125 C-234.97707031 -12.11414063 -233.76664063 -12.41578125 -232.51953125 -12.7265625 C-211.79095771 -17.29523536 -185.37290733 -17.62284208 -165.1875 -10.8125 C-163.53234375 -10.26916016 -163.53234375 -10.26916016 -161.84375 -9.71484375 C-146.45413052 -3.98259912 -135.4397112 6.86086787 -128.65625 21.6328125 C-126.55042485 26.72935741 -125.21804254 31.78078035 -124.1875 37.1875 C-123.98382813 38.24066406 -123.78015625 39.29382813 -123.5703125 40.37890625 C-123.08559582 42.97844845 -122.62388166 45.57947781 -122.1875 48.1875 C-121.9915625 47.218125 -121.795625 46.24875 -121.59375 45.25 C-118.36998575 30.39899324 -112.51075005 17.50093934 -102.1875 6.1875 C-101.65898437 5.56746094 -101.13046875 4.94742187 -100.5859375 4.30859375 C-74.26562795 -24.66967809 -28.80096498 -21.63452768 0 0 Z M-64 36.9375 C-70.59624801 45.03076884 -73.37494186 53.12328469 -73.4375 63.375 C-73.458125 64.20064453 -73.47875 65.02628906 -73.5 65.87695312 C-73.56630894 76.39520888 -69.28567948 84.25744975 -62.51171875 92.13671875 C-55.34128379 99.2150282 -44.63969097 102.70266477 -34.6796875 103.2578125 C-21.93899953 102.89835735 -11.60749416 99.3956292 -2.3828125 90.546875 C0.62100858 87.31856907 2.90429915 84.15903998 4.8125 80.1875 C5.28816406 79.2284375 5.28816406 79.2284375 5.7734375 78.25 C9.26645223 69.78985423 9.38273136 58.30626809 6.1875 49.75 C5.44362496 48.20522815 4.65158607 46.68269387 3.8125 45.1875 C3.17634766 44.01960938 3.17634766 44.01960938 2.52734375 42.828125 C-2.28120959 34.84512281 -9.29579979 29.10029834 -18.1875 26.1875 C-34.66965664 22.32373034 -51.90005851 24.08455786 -64 36.9375 Z M-226.84765625 90.671875 C-231.65127997 96.10571175 -232.67341703 101.37388634 -232.484375 108.40625 C-232.02429849 112.71644046 -231.03688137 115.87527496 -228.1875 119.1875 C-218.51739781 126.54448804 -208.96463139 127.17498166 -197.1875 126.1875 C-186.5769347 124.11743431 -178.52125205 119.05721763 -172.375 110.171875 C-168.28007266 103.3290359 -168.97895815 95.89196266 -169.1875 88.1875 C-186.74235061 82.18035843 -211.3572554 76.82163424 -226.84765625 90.671875 Z " fill="#404D3B" transform="translate(322.1875,340.8125)"/>
<path d="M0 0 C-0.52368409 18.7478906 -4.40755981 35.5624593 -11.23535156 52.98388672 C-12.72925609 56.92279592 -13.86990032 60.94493645 -15 65 C-19.11429516 64.36055944 -22.87555317 63.05001327 -26.78686523 61.67675781 C-78.28731155 43.67033853 -136.59396354 43.31693763 -189 58 C-188.32759277 57.88930176 -187.65518555 57.77860352 -186.96240234 57.66455078 C-129.42470275 48.27841442 -70.8656264 49.21731904 -17 74 C-17.02094727 74.81976318 -17.04189453 75.63952637 -17.06347656 76.48413086 C-17.63005292 102.04640647 -16.76370092 125.3218887 2 145 C15.56026751 158.09903392 35.94089802 162.91414628 54 165 C45.7003332 183.43895048 23.79439696 198.58932293 5.51171875 205.81640625 C-19.09658992 214.11041907 -42.96664732 209.97924682 -66 199 C-76.77318757 193.38979409 -85.98743364 186.06642884 -95 178 C-95.84433594 177.27683594 -96.68867187 176.55367187 -97.55859375 175.80859375 C-105.20214806 169.22198962 -111.35193257 161.68834693 -117.375 153.625 C-122.30250499 147.10925582 -127.3554876 140.9149082 -133 135 C-133.53238281 134.41605469 -134.06476563 133.83210937 -134.61328125 133.23046875 C-143.10007569 124.23825727 -153.75278543 116.83147638 -164 110 C-165.56621094 108.95585937 -165.56621094 108.95585937 -167.1640625 107.890625 C-190.31178088 92.64716772 -215.40037939 80.51704159 -241 70 C-236.63026923 65.12957091 -231.52397057 61.89184278 -226 58.4375 C-225.02377686 57.82326172 -224.04755371 57.20902344 -223.04174805 56.57617188 C-162.27190992 18.61889324 -73.24170563 -28.68838975 0 0 Z M-198 59 C-194 60 -194 60 -194 60 Z " fill="#2B983F" transform="translate(836,88)"/>
<path d="M0 0 C4.12674628 0.63382016 7.44549474 1.99972277 11.19921875 3.80859375 C11.7870665 4.09067184 12.37491425 4.37274994 12.98057556 4.66337585 C14.88632589 5.58116014 16.78724966 6.50838673 18.6875 7.4375 C19.33893982 7.75434753 19.99037964 8.07119507 20.66156006 8.39764404 C57.22093993 26.19710246 97.56296309 49.35291861 123 82 C123.39074707 82.48952148 123.78149414 82.97904297 124.18408203 83.48339844 C144.52201339 109.14094411 154.27451433 138.90673273 150.5 171.734375 C147.86724785 191.63933548 141.04396532 208.96577156 125.36328125 222.23046875 C114.46050308 230.52031292 103.14321552 234.04813604 90 237 C91.12411015 231.11098162 92.39106604 225.2844383 93.8527832 219.47021484 C106.11222682 170.31220442 96.03242583 123.29260039 71 80 C67.61158195 74.46212628 63.89413473 69.19124377 60 64 C59.55301758 63.39897461 59.10603516 62.79794922 58.64550781 62.17871094 C51.97486052 53.2701071 44.66891609 45.05704622 37 37 C40.27580884 41.4833619 43.67123355 45.81629043 47.25 50.0625 C57.07419769 62.04242616 64.82151861 75.30846706 72 89 C72.48895752 89.9266748 72.48895752 89.9266748 72.98779297 90.87207031 C86.7246078 117.31892256 93.45137429 147.6330281 93.375 177.3125 C93.37518127 178.40843979 93.37518127 178.40843979 93.37536621 179.52651978 C93.26290036 227.73709964 93.26290036 227.73709964 84 237 C57.43571037 238.88833317 29.98878513 235.79598055 8.79296875 218.1640625 C-4.66816024 205.55229729 -11.59226979 187.32583554 -12.28515625 169.1484375 C-12.7084287 149.78335141 -9.37849032 133.66973803 -3.31503296 115.44073486 C0.03127521 105.37641287 2.84993823 95.58503456 4 85 C4.08846191 84.19409424 4.17692383 83.38818848 4.26806641 82.55786133 C6.5257012 60.30030908 4.6491044 38.13015948 2 16 C1.83250244 14.58025879 1.83250244 14.58025879 1.66162109 13.13183594 C1.14106157 8.74983729 0.59375063 4.37279874 0 0 Z " fill="#82CD2C" transform="translate(843,6)"/>
<path d="M0 0 C5.40001348 4.00188616 8.38624604 8.43033614 10 15 C10.46729848 20.07071282 10.48963542 25.13137962 10.51171875 30.21875 C10.52858811 31.68706746 10.54674135 33.15537069 10.56611633 34.62365723 C10.61337805 38.46386259 10.64334065 42.30401018 10.66955566 46.14440918 C10.69948237 50.07295129 10.74597069 54.0012948 10.79101562 57.9296875 C10.87677711 65.6196926 10.94424207 73.30971257 11 81 C11.54500656 80.37877258 12.09001312 79.75754517 12.65153503 79.11749268 C13.36876236 78.3043158 14.08598969 77.49113892 14.82495117 76.65332031 C15.53495773 75.8464679 16.24496429 75.03961548 16.97648621 74.20831299 C27.97943906 62.2005057 43.18474865 57.01877386 59 56 C59.75796875 55.94585937 60.5159375 55.89171875 61.296875 55.8359375 C81.12734145 55.10394042 99.49551322 63.02531746 114.203125 75.93359375 C129.60272342 90.53970141 139.13235578 112.17385506 140.16113281 133.31054688 C140.5472758 164.65098935 136.54581726 190.78421044 113.84375 214.2265625 C97.04157677 229.99381927 76.91224571 233.7377204 54.6640625 233.12304688 C38.20812167 232.36298509 24.76875228 224.04955075 13 213 C12.34 212.01 11.68 211.02 11 210 C10.76925781 210.72445312 10.53851562 211.44890625 10.30078125 212.1953125 C7.75797978 219.73326154 5.46058091 225.08064356 -1.5625 229.3125 C-8.58602753 232.76041351 -16.72578769 233.33290353 -24.25 230.9375 C-30.82326839 228.07603614 -35.37360329 222.56599177 -38 216 C-39.29707299 212.10782796 -39.15120126 208.16335628 -39.15390015 204.10739136 C-39.16047353 202.90615857 -39.16047353 202.90615857 -39.1671797 201.68065846 C-39.18054704 198.99397172 -39.18674194 196.30731777 -39.19287109 193.62060547 C-39.20077373 191.69537712 -39.20904278 189.77015025 -39.21765137 187.84492493 C-39.24385426 181.51902681 -39.25917797 175.19312213 -39.2734375 168.8671875 C-39.27879802 166.68813193 -39.28417553 164.50907639 -39.28956985 162.3300209 C-39.31119664 153.26427471 -39.3299325 144.19853028 -39.34119225 135.13276482 C-39.35742616 122.14819033 -39.39059294 109.16391533 -39.44759309 96.17945373 C-39.4863202 87.04553439 -39.50582827 77.91169505 -39.51111281 68.77769578 C-39.51476262 63.32453977 -39.52674488 57.87170331 -39.55921555 52.41863632 C-39.58934446 47.2852726 -39.59559067 42.15242099 -39.58383179 37.01898766 C-39.58361145 35.1396983 -39.59188309 33.26038484 -39.60948563 31.3811779 C-39.7866231 11.37385823 -39.7866231 11.37385823 -32.28987694 3.1163311 C-23.04165732 -5.85170316 -10.91095831 -6.11374358 0 0 Z M35 101 C34.25105469 101.32871094 33.50210938 101.65742188 32.73046875 101.99609375 C21.13607629 107.70440622 15.05624133 118.39454233 10.85546875 130.22265625 C9.77766942 134.98170625 9.67004476 139.44946974 9.6875 144.3125 C9.67138672 145.19873047 9.65527344 146.08496094 9.63867188 146.99804688 C9.62946809 159.61644215 14.36438736 171.89057283 22.9765625 181.1796875 C30.9796929 188.37941485 40.32586388 191.83439281 51 192 C62.07109829 191.33484723 71.89237852 187.23664028 79.4453125 178.9609375 C89.72345912 165.99704402 92.86276951 151.22147544 91 135 C88.87320577 123.0165957 82.97446764 112.41049316 73.1875 105.0625 C61.31151181 97.53138554 48.13497334 95.00307132 35 101 Z " fill="#404D3B" transform="translate(918,268)"/>
<path d="M0 0 C2.8125 2.375 2.8125 2.375 5 5 C5.721875 5.825 6.44375 6.65 7.1875 7.5 C10.56333246 12.15632064 11.25435522 16.01043676 11.31884766 21.71801758 C11.32889328 22.37223694 11.3389389 23.0264563 11.34928894 23.70050049 C11.3800145 25.84850235 11.39712596 27.99638019 11.4140625 30.14453125 C11.43278275 31.6395524 11.45235681 33.13456308 11.4727478 34.62956238 C11.52398463 38.55363786 11.56365535 42.47774756 11.60089111 46.40197754 C11.64098391 50.41064868 11.69205213 54.41917849 11.7421875 58.42773438 C11.83884667 66.28505955 11.92328323 74.14245492 12 82 C12.54246872 81.38131042 13.08493744 80.76262085 13.6438446 80.12518311 C14.71672478 78.9083786 14.71672478 78.9083786 15.8112793 77.66699219 C16.51874802 76.86267761 17.22621674 76.05836304 17.9551239 75.22967529 C28.56456812 63.66143619 41.61769648 58.29838904 57 57 C58.26263672 56.89171875 58.26263672 56.89171875 59.55078125 56.78125 C75.09609315 56.15421221 90.78150076 60.93972782 102.375 71.4375 C115.61639527 85.76961976 119.13656901 104.89270859 119.16113281 123.76733398 C119.16609772 124.69868164 119.17106262 125.6300293 119.17617798 126.58959961 C119.19067119 129.64177208 119.19757844 132.69389266 119.203125 135.74609375 C119.20736607 137.32022883 119.20736607 137.32022883 119.21169281 138.92616463 C119.22662988 144.47494886 119.23589515 150.02370744 119.24023438 155.57250977 C119.24572453 161.28287968 119.26977993 166.99301184 119.29820633 172.70330715 C119.3168831 177.11555153 119.3220409 181.52773905 119.32357025 185.94001961 C119.32658368 188.04462045 119.33456757 190.1492206 119.34775543 192.25378227 C119.36492884 195.2037939 119.3629087 198.15322931 119.35644531 201.10327148 C119.3656601 201.96020096 119.37487488 202.81713043 119.3843689 203.70002747 C119.32114822 212.9735748 117.23804145 220.62051356 110.76953125 227.375 C104.84387485 232.81666239 98.96551893 233.42538374 91.171875 233.33984375 C83.60709497 232.5293316 77.93409804 228.7053799 73.15625 222.94140625 C70.17011014 217.92751601 69.70491 212.92628081 69.71289062 207.21313477 C69.70605759 206.45606735 69.69922455 205.69899994 69.69218445 204.91899109 C69.67864661 203.28216557 69.66956121 201.64529836 69.66447449 200.00842476 C69.65612854 197.40349614 69.63556553 194.79890868 69.61193848 192.19407654 C69.56382626 186.65026909 69.53089376 181.10642655 69.5 175.5625 C69.464114 169.16292245 69.42173332 162.76350933 69.36405945 156.36408806 C69.34429258 153.82363892 69.33572973 151.28332229 69.32775879 148.74281311 C69.77862438 128.21580307 69.77862438 128.21580307 61.5 110.296875 C54.54441266 103.66330559 46.59637027 102.4210259 37.23046875 102.640625 C30.76711463 103.35964384 25.56582687 105.39458504 21 110 C20.34 110 19.68 110 19 110 C17.41528154 113.03441606 16.13086675 116.10447607 14.9375 119.3125 C14.59589844 120.21613281 14.25429688 121.11976563 13.90234375 122.05078125 C12.06988718 128.03997914 11.85625841 134.03468511 11.87402344 140.25512695 C11.8721553 141.04963257 11.87028717 141.84413818 11.86836243 142.66271973 C11.86437944 144.37704967 11.86228553 146.09138485 11.86190033 147.80571938 C11.85845676 151.46369596 11.8370612 155.12149921 11.81666946 158.77941418 C11.77879972 165.57586767 11.74738291 172.3721298 11.74951172 179.16870117 C11.7503019 183.91030226 11.72681058 188.65125826 11.6876297 193.39269066 C11.67722031 195.19022911 11.67560807 196.98784246 11.68328094 198.78539467 C11.75566397 217.61946522 11.75566397 217.61946522 6 225 C0.19989171 230.5386685 -5.33260015 233.03593879 -13.375 233.3125 C-20.58553981 233.13663318 -25.51968543 231.6819722 -30.8125 226.6875 C-37.14465077 219.83608402 -38.14942935 213.09514978 -38.14717102 204.06306458 C-38.15084771 203.2695554 -38.1545244 202.47604622 -38.1583125 201.65849131 C-38.16931562 199.00254554 -38.17318743 196.34663894 -38.17700195 193.69067383 C-38.18326913 191.78500241 -38.18991615 189.8793322 -38.19691467 187.97366333 C-38.2179264 181.71812791 -38.22831403 175.46259233 -38.23828125 169.20703125 C-38.24232981 167.05118993 -38.24644677 164.89534874 -38.25063133 162.73950768 C-38.26967626 152.61074109 -38.28390904 142.48198177 -38.2922433 132.35320073 C-38.30201495 120.67131065 -38.32833562 108.98961008 -38.36874419 97.30778676 C-38.39892631 88.2715094 -38.41371415 79.23528631 -38.41702431 70.19895953 C-38.41937228 64.80511382 -38.42830008 59.41147074 -38.45348549 54.01767921 C-38.47680796 48.9409847 -38.48098259 43.86462565 -38.47072411 38.78789139 C-38.47022966 36.9295725 -38.476523 35.07123686 -38.49028015 33.21296883 C-38.63160292 12.98410881 -38.63160292 12.98410881 -32.140625 4.59765625 C-22.30351584 -3.38991379 -11.78634713 -5.76680922 0 0 Z " fill="#404D3B" transform="translate(588,267)"/>
<path d="M0 0 C5.3438098 4.01993648 9.48632299 9.92485478 10.44604492 16.61914062 C10.68408203 18.62109375 10.92211914 20.62304688 11.16015625 22.625 C11.97806641 21.26568359 11.97806641 21.26568359 12.8125 19.87890625 C25.44289492 -0.69568467 25.44289492 -0.69568467 36.16015625 -3.375 C43.2668452 -4.00447566 50.96676836 -4.43808818 57.16015625 -0.375 C59.40743611 1.79686779 61.27820626 4.1377094 63.16015625 6.625 C64.15015625 7.615 64.15015625 7.615 65.16015625 8.625 C65.60746094 8.08230469 66.05476563 7.53960937 66.515625 6.98046875 C71.71408347 0.82877482 75.84630768 -2.87097642 84.04296875 -3.6484375 C91.86980914 -3.89361563 97.779538 -3.14027186 104.16015625 1.625 C110.52947413 7.83541597 112.21852178 14.8437229 112.42085266 23.53770447 C112.4356992 25.86094966 112.43964555 28.18428076 112.43481445 30.50756836 C112.43992538 31.78175125 112.44503632 33.05593414 112.45030212 34.36872864 C112.46362264 37.84398452 112.46427866 41.31913119 112.46173882 44.79440761 C112.4606645 47.70428886 112.46556417 50.61414844 112.47034425 53.52402502 C112.48141514 60.39290513 112.48189032 67.26173054 112.47583008 74.13061523 C112.4697901 81.1982 112.48210738 88.26558569 112.50340015 95.3331365 C112.52105632 101.41917588 112.52701124 107.50515212 112.5237624 113.59121615 C112.52195598 117.21822917 112.52452133 120.84510012 112.53847694 124.47208977 C112.55346844 128.5192023 112.54405021 132.56591334 112.5324707 136.61303711 C112.54011444 137.80240875 112.54775818 138.9917804 112.55563354 140.2171936 C112.49215843 150.27537895 110.92419517 157.55802826 103.9296875 164.96484375 C98.06118516 170.47061305 92.11012922 171.04468838 84.3359375 170.96875 C78.03055508 170.28624858 72.48751798 167.4718112 68.22265625 162.75 C63.33522015 155.34479378 62.71615232 149.73687885 62.7277832 140.99829102 C62.71249573 139.27037575 62.71249573 139.27037575 62.69689941 137.5075531 C62.66679828 133.71462115 62.65750753 129.9219419 62.6484375 126.12890625 C62.63158875 123.49331322 62.61343825 120.85772821 62.59403992 118.22215271 C62.55045752 112.00336862 62.52186001 105.78461058 62.49871653 99.5657205 C62.47162038 92.48218162 62.42771173 85.3987777 62.38242781 78.31533539 C62.28970003 63.75196947 62.21796512 49.18854589 62.16015625 34.625 C61.68139195 35.04405641 61.20262766 35.46311281 60.70935535 35.8948679 C59.76579701 36.71376704 59.76579701 36.71376704 58.80317688 37.54920959 C58.18003758 38.092016 57.55689829 38.63482241 56.91487598 39.19407749 C54.98618806 40.76686596 53.25072378 41.71172081 50.890625 42.49609375 C50.15183105 42.75632324 49.41303711 43.01655273 48.65185547 43.28466797 C47.89146973 43.54135254 47.13108398 43.79803711 46.34765625 44.0625 C34.30154235 48.46579838 24.09978397 54.8005609 17.66015625 66.3046875 C9.35435225 84.54779271 10.71541026 104.56498508 10.72351074 124.12591553 C10.72491486 127.51796543 10.71915346 130.9095716 10.69261169 134.30152893 C10.67406447 136.8235456 10.67188414 139.34575485 10.68885803 141.86778259 C10.61431009 150.40241821 9.37072665 156.82300874 3.78515625 163.4375 C-4.06202835 169.9768205 -9.77927629 171.39138672 -19.83984375 170.625 C-25.52978721 169.40846327 -29.02289591 167.07810581 -32.83984375 162.625 C-33.56171875 161.820625 -34.28359375 161.01625 -35.02734375 160.1875 C-38.22945311 155.66037987 -39.08833019 151.24371465 -39.11399841 145.76971436 C-39.12397354 144.62317886 -39.13394867 143.47664337 -39.14422607 142.29536438 C-39.14489075 141.05159531 -39.14555542 139.80782623 -39.14624023 138.52636719 C-39.15386899 137.19196615 -39.16229772 135.85756947 -39.17146301 134.5231781 C-39.19334618 130.90933225 -39.20219871 127.29557099 -39.20728946 123.68166637 C-39.2109408 121.41982977 -39.21718492 119.15801505 -39.22429085 116.89618683 C-39.24876528 108.99376967 -39.26183259 101.09141795 -39.26538086 93.18896484 C-39.2690131 85.84186296 -39.29889092 78.49517959 -39.34078544 71.14820552 C-39.37556686 64.82524854 -39.39093066 58.50242972 -39.39162689 52.17937779 C-39.39241714 48.40965997 -39.40103811 44.64036874 -39.42962456 40.87075043 C-39.45594034 37.32136421 -39.45793659 33.77275414 -39.44196892 30.22331429 C-39.43931091 28.31440952 -39.46124653 26.40551895 -39.48416138 24.49674988 C-39.41453873 16.24059556 -37.9985557 9.3844822 -32.43251705 3.01436996 C-23.32310902 -5.22111398 -10.54923514 -6.03793621 0 0 Z " fill="#404D3B" transform="translate(426.83984375,329.375)"/>
<path d="M0 0 C5.881359 3.55411157 10.43957941 8.98100788 12.5625 15.5 C12.75680029 18.09354188 12.85321213 20.58101908 12.84960938 23.17333984 C12.85644241 23.93026123 12.86327545 24.68718262 12.87031555 25.46704102 C12.88387233 27.10661238 12.89294564 28.74622565 12.89802551 30.38584518 C12.90635846 32.9948949 12.92691057 35.60360185 12.95056152 38.21255493 C12.99872317 43.76665175 13.03161654 49.32078386 13.0625 54.875 C13.09837603 61.28243132 13.14076962 67.68969824 13.19844055 74.09697342 C13.21821323 76.64185201 13.22677219 79.18659828 13.23474121 81.73153687 C12.92409004 103.97755792 12.92409004 103.97755792 22.9375 122.9375 C32.32857921 128.5274281 41.74733996 129.89993535 52.32421875 127.32421875 C58.14445773 125.18098939 63.28790995 120.71508785 66.5625 115.5 C69.87862891 107.59805317 70.708177 99.74064072 70.72021484 91.21313477 C70.72529556 90.41541656 70.73037628 89.61769836 70.73561096 88.79580688 C70.74625568 87.07493219 70.75489862 85.35404416 70.76173019 83.6331501 C70.77359967 80.90411979 70.79307104 78.17524207 70.81484985 75.4462738 C70.87620735 67.6910411 70.93049985 59.93582783 70.96386719 52.18041992 C70.98486691 47.42598184 71.02020513 42.67182926 71.06462479 37.91755486 C71.07873426 36.1127859 71.08749575 34.30796652 71.09067917 32.50314522 C71.09561439 29.97388113 71.11883648 27.44536961 71.14599609 24.91625977 C71.14148689 23.8117321 71.14148689 23.8117321 71.1368866 22.68489075 C71.24270609 16.01446822 72.81927834 9.50110238 77.75 4.6875 C84.1956806 -1.18195552 90.7113435 -2.14533923 99.30859375 -1.90625 C106.33612583 -1.02886304 111.61600718 1.86777757 116.0625 7.375 C121.30199168 14.65545646 120.85945135 22.84573299 120.85302734 31.43676758 C120.85974457 32.72870529 120.86646179 34.02064301 120.87338257 35.35173035 C120.89097866 38.88081949 120.89573524 42.40981151 120.89701414 45.93894029 C120.89843997 48.1483518 120.90271771 50.35773895 120.90800858 52.56714439 C120.92648793 60.2880242 120.93468185 68.00883514 120.93310547 75.72973633 C120.93190473 82.90582351 120.95299894 90.0816096 120.9845928 97.25762063 C121.01081768 103.43622516 121.02147017 109.61473171 121.02019465 115.79339141 C121.01968682 119.47583636 121.02526982 123.15801352 121.04655075 126.8404026 C121.06966639 130.95215787 121.06037447 135.06324611 121.04833984 139.17504883 C121.05957886 140.38109772 121.07081787 141.58714661 121.08239746 142.82974243 C121.01487354 151.93432628 119.50517576 159.50376402 113.3125 166.4375 C107.29354399 171.84435879 101.2110348 173.03878465 93.23828125 172.78515625 C86.75409469 172.09414075 80.82787426 169.59676077 76.5625 164.5 C73.62877538 159.68710583 71.48913855 155.079759 70.5625 149.5 C69.83546875 150.2734375 69.1084375 151.046875 68.359375 151.84375 C56.09146194 164.65795729 43.88951694 173.35978759 25.61547852 173.96801758 C7.71685584 174.1677892 -7.65838701 170.76339558 -21.01171875 158.19921875 C-33.88882568 143.87058607 -36.59270717 125.3106688 -36.58276367 106.67919922 C-36.58612228 105.75424652 -36.5894809 104.82929382 -36.59294128 103.87631226 C-36.60235524 100.85242328 -36.60438908 97.82859017 -36.60546875 94.8046875 C-36.60868635 92.68580096 -36.61205079 90.56691465 -36.61555481 88.44802856 C-36.62152097 84.021825 -36.62339714 79.59564089 -36.62280273 75.16943359 C-36.62270088 69.50939309 -36.63638842 63.84947737 -36.65357494 58.18946648 C-36.66470949 53.81934031 -36.66672155 49.44924427 -36.66619301 45.07910538 C-36.66736956 42.99239799 -36.67177304 40.90568974 -36.67952538 38.81899643 C-36.6893612 35.89991287 -36.68643376 32.98109996 -36.68041992 30.06201172 C-36.68603943 29.20881348 -36.69165894 28.35561523 -36.69744873 27.4765625 C-36.65297949 18.94946638 -35.11301812 11.1403562 -29.4375 4.5 C-21.27745579 -1.93878488 -9.8293316 -4.39224069 0 0 Z " fill="#404D3B" transform="translate(749.4375,327.5)"/>
<path d="M0 0 C6.27623778 3.78370685 10.08462375 8.59690488 12.52734375 15.50390625 C14.35894052 23.35360669 14.41878399 32.24273744 10.18359375 39.31640625 C5.37350162 46.22614177 0.06550227 49.68910341 -7.81640625 52.31640625 C-18.03608553 53.19074066 -25.52349827 51.71185665 -34.12890625 46.19140625 C-39.72161865 40.20850461 -42.43114721 33.22845899 -43.06640625 25.12890625 C-42.50293279 16.53593602 -39.78073405 9.58548073 -33.81640625 3.31640625 C-24.24679654 -4.25953477 -11.00115291 -5.18445137 0 0 Z " fill="#424E3D" transform="translate(1098.81640625,447.68359375)"/>
<path d="M0 0 C4.74629656 4.74629656 6.22549432 9.40660266 6.6796875 15.97265625 C6.54832269 22.3438493 4.86306436 27.73176198 0.5625 32.5 C-7.01221407 39.16133899 -14.94324407 40.25547403 -24.8203125 39.9375 C-33.57068062 39.16823687 -39.48715883 36.23154479 -45.375 29.625 C-49.3085113 23.47888859 -49.16772535 16.75952812 -48.375 9.625 C-46.79733336 4.24736211 -44.16884445 0.60783655 -39.375 -2.375 C-26.32922937 -9.22955745 -11.9700053 -9.11720305 0 0 Z " fill="#434F3E" transform="translate(535.375,271.375)"/>
<path d="M0 0 C0.66 0.33 1.32 0.66 2 1 C-2.29 5.29 -6.58 9.58 -11 14 C-11.66 13.67 -12.32 13.34 -13 13 C-8.96476648 8.18876004 -4.95532767 3.86757281 0 0 Z " fill="#8F968C" transform="translate(614,335)"/>
<path d="M0 0 C0.66 0.33 1.32 0.66 2 1 C-1.96 4.96 -5.92 8.92 -10 13 C-10.66 12.67 -11.32 12.34 -12 12 C-8.27653164 7.57905197 -4.70478962 3.42166518 0 0 Z " fill="#8E958B" transform="translate(942,336)"/>
<path d="M0 0 C0.66 0.33 1.32 0.66 2 1 C-1.3 4.3 -4.6 7.6 -8 11 C-8 7.0234755 -6.61988497 5.9109833 -4 3 C-1.75 1.1875 -1.75 1.1875 0 0 Z " fill="#7A8377" transform="translate(1069,448)"/>
<path d="M0 0 C0.66 0.33 1.32 0.66 2 1 C-0.97 3.97 -3.94 6.94 -7 10 C-7 5.69032084 -4.83274712 4.10253255 -2 1 C-1.34 0.67 -0.68 0.34 0 0 Z " fill="#7F877C" transform="translate(217,501)"/>
<path d="M0 0 C0.66 0.33 1.32 0.66 2 1 C-1.3 4.3 -4.6 7.6 -8 11 C-8.66 10.67 -9.32 10.34 -10 10 C-6.92118304 6.12948725 -3.99926986 2.97088618 0 0 Z " fill="#7C8579" transform="translate(62,406)"/>
<path d="M0 0 C0.66 0.33 1.32 0.66 2 1 C-0.97 3.97 -3.94 6.94 -7 10 C-7 5.69032084 -4.83274712 4.10253255 -2 1 C-1.34 0.67 -0.68 0.34 0 0 Z " fill="#80897D" transform="translate(399,329)"/>
<path d="M0 0 C0.66 0.33 1.32 0.66 2 1 C-0.64 3.64 -3.28 6.28 -6 9 C-6 5.06368636 -4.57142871 3.87394974 -2 1 C-1.34 0.67 -0.68 0.34 0 0 Z " fill="#7B8478" transform="translate(65,336)"/>
<path d="M0 0 C0.66 0.33 1.32 0.66 2 1 C-0.64 3.64 -3.28 6.28 -6 9 C-6 5.06368636 -4.57142871 3.87394974 -2 1 C-1.34 0.67 -0.68 0.34 0 0 Z " fill="#899085" transform="translate(496,269)"/>
</svg>
