<svg width="22" height="16" viewBox="0 0 22 16" fill="none" xmlns="http://www.w3.org/2000/svg">
<path d="M14.4781 6.32386C13.819 7.95835 11.9634 8.8903 10.3335 8.40541C8.70369 7.92053 7.91677 6.20244 8.5759 4.56794C9.23502 2.93345 14.004 1.06686 15.6339 1.55174C15.977 1.65383 15.1372 4.68937 14.4781 6.32386Z" fill="#40B23E"/>
<path d="M1.19287 6.03172C1.61934 7.72225 3.1462 8.87288 4.60321 8.60172C6.06022 8.33056 6.89565 6.74029 6.46919 5.04976C6.04272 3.35922 2.07157 0.921815 0.614555 1.19298C0.307793 1.25007 0.76641 4.34118 1.19287 6.03172Z" fill="#40B23E"/>
<path d="M17.3038 13.2625C15.6795 14.285 13.6483 14.2767 12.7671 13.244C11.886 12.2113 12.4884 10.5452 14.1128 9.52268C15.7371 8.50016 20.5912 8.93727 21.4724 9.96999C21.6579 10.1874 18.9282 12.24 17.3038 13.2625Z" fill="#40B23E"/>
<path d="M10.8758 8.94242C9.84874 9.82455 11.2109 9.81265 9.99546 9.81265C8.78 9.81265 9.40859 9.38762 9.40859 8.55245C9.40859 7.71727 13.0348 2.51541 14.2503 2.51541C14.397 2.40129 8.76215 7.93428 10.8758 8.94242Z" fill="#FCE09B"/>
<path d="M4.55424 8.20232C5.58107 9.08568 4.21916 9.07376 5.43438 9.07376C6.64959 9.07376 6.02113 8.64814 6.02113 7.81181C6.02113 6.97547 2.3956 1.76639 1.18038 1.76639C1.03369 1.65211 6.66744 7.19278 4.55424 8.20232Z" fill="#FCE09B"/>
<path d="M13.3615 13.606C11.9288 13.811 13.0452 14.4815 12.0562 13.8745C11.0672 13.2676 11.8664 13.2357 12.4316 12.5561C12.9969 11.8766 19.4683 9.45479 20.4572 10.0617C20.6538 10.0421 12.3241 11.7304 13.3615 13.606Z" fill="#FCE09B"/>
</svg>
