<svg class="animated" id="freepik_stories-reforestation" xmlns="http://www.w3.org/2000/svg" viewBox="0 0 750 500" version="1.1" xmlns:xlink="http://www.w3.org/1999/xlink" xmlns:svgjs="http://svgjs.com/svgjs"><style>svg#freepik_stories-reforestation:not(.animated) .animable {opacity: 0;}svg#freepik_stories-reforestation.animated #freepik--background-simple--inject-16 {animation: 1s 1 forwards cubic-bezier(.36,-0.01,.5,1.38) zoomOut;animation-delay: 0s;}svg#freepik_stories-reforestation.animated #freepik--Floor--inject-16 {animation: 1s 1 forwards cubic-bezier(.36,-0.01,.5,1.38) slideDown;animation-delay: 0s;}svg#freepik_stories-reforestation.animated #freepik--Clouds--inject-16 {animation: 1s 1 forwards cubic-bezier(.36,-0.01,.5,1.38) zoomOut;animation-delay: 0s;}svg#freepik_stories-reforestation.animated #freepik--Tree--inject-16 {animation: 1s 1 forwards cubic-bezier(.36,-0.01,.5,1.38) fadeIn;animation-delay: 0s;}svg#freepik_stories-reforestation.animated #freepik--character-3--inject-16 {animation: 1s 1 forwards cubic-bezier(.36,-0.01,.5,1.38) zoomOut;animation-delay: 0s;}svg#freepik_stories-reforestation.animated #freepik--character-2--inject-16 {animation: 1s 1 forwards cubic-bezier(.36,-0.01,.5,1.38) slideRight;animation-delay: 0s;}svg#freepik_stories-reforestation.animated #freepik--Plants--inject-16 {animation: 1s 1 forwards cubic-bezier(.36,-0.01,.5,1.38) slideUp;animation-delay: 0s;}svg#freepik_stories-reforestation.animated #freepik--character-1--inject-16 {animation: 1s 1 forwards cubic-bezier(.36,-0.01,.5,1.38) fadeIn;animation-delay: 0s;}            @keyframes zoomOut {                0% {                    opacity: 0;                    transform: scale(1.5);                }                100% {                    opacity: 1;                    transform: scale(1);                }            }                    @keyframes slideDown {                0% {                    opacity: 0;                    transform: translateY(-30px);                }                100% {                    opacity: 1;                    transform: translateY(0);                }            }                    @keyframes fadeIn {                0% {                    opacity: 0;                }                100% {                    opacity: 1;                }            }                    @keyframes slideRight {                0% {                    opacity: 0;                    transform: translateX(30px);                }                100% {                    opacity: 1;                    transform: translateX(0);                }            }                    @keyframes slideUp {                0% {                    opacity: 0;                    transform: translateY(30px);                }                100% {                    opacity: 1;                    transform: inherit;                }            }        </style><g id="freepik--background-simple--inject-16" class="animable" style="transform-origin: 372.819px 247.962px;"><path d="M560.85,100.32S501,31.56,443.31,20.07s-141.92,8.83-173.63,50S164.91,93.3,101.85,127.76s-96.51,101-81.13,160.55,55,72.06,75,98.62S202.6,488.16,311,478.11s125.36-44.51,182.26-35.18,144.58,38.77,195.34-23,7.18-61.58,27.18-121.16,16.39-108.66-9-148.86S580.07,119.7,560.85,100.32Z" style="fill: #16A348; transform-origin: 372.819px 247.962px;" id="eldb4f7vr4vsv" class="animable"></path><g id="el86wrj0loy6"><path d="M560.85,100.32S501,31.56,443.31,20.07s-141.92,8.83-173.63,50S164.91,93.3,101.85,127.76s-96.51,101-81.13,160.55,55,72.06,75,98.62S202.6,488.16,311,478.11s125.36-44.51,182.26-35.18,144.58,38.77,195.34-23,7.18-61.58,27.18-121.16,16.39-108.66-9-148.86S580.07,119.7,560.85,100.32Z" style="fill: rgb(255, 255, 255); opacity: 0.7; transform-origin: 372.819px 247.962px;" class="animable" id="elt2wd5d9jhy"></path></g></g><g id="freepik--Floor--inject-16" class="animable" style="transform-origin: 377.71px 438px;"><path d="M724.51,438.5h-10a.51.51,0,0,1-.5-.5.5.5,0,0,1,.5-.5h10a.5.5,0,0,1,.5.5A.51.51,0,0,1,724.51,438.5Z" style="fill: rgb(38, 50, 56); transform-origin: 719.51px 438px;" id="elor8s4f97ps" class="animable"></path><path d="M705.91,438.5h-675a.5.5,0,0,1-.5-.5.5.5,0,0,1,.5-.5h675a.5.5,0,0,1,.5.5A.51.51,0,0,1,705.91,438.5Z" style="fill: rgb(38, 50, 56); transform-origin: 368.41px 438px;" id="elgqz1s4w4gq" class="animable"></path></g><g id="freepik--Clouds--inject-16" class="animable" style="transform-origin: 363.487px 212.965px;"><path d="M644.73,188.11H545.12a.49.49,0,0,1-.49-.41.51.51,0,0,1,.31-.56l8.92-3.39a12.37,12.37,0,0,1,4.9-5.69c2.6-1.73,5.15-.53,7,.36.88.41,1.79.84,2.05.57a7.9,7.9,0,0,0,.88-2.22c1-3.2,2.7-8.55,8.11-9.23,4.3-.54,7.48,2.37,9.82,4.49,1.46,1.32,2.72,2.48,3.51,2.08.58-.29,1.51-1.76,2.49-3.33,2.94-4.67,7.86-12.5,16.13-10.18C619,163.47,621,171.79,621.27,173c.4.44,2.14,2.24,3.79,1.91a7.49,7.49,0,0,0,1.68-.72c2.25-1.14,5.64-2.87,10.83-.1,6.69,3.57,7.62,13,7.66,13.44a.54.54,0,0,1-.13.39A.51.51,0,0,1,644.73,188.11Zm-96.89-1h96.32c-.3-2-1.73-9.27-7.06-12.11-4.73-2.52-7.72-1-9.91.12a8.63,8.63,0,0,1-1.93.8c-2.44.49-4.74-2.23-4.84-2.34a.57.57,0,0,1-.11-.25c0-.36-1.4-8.86-11.82-11.77-7.55-2.11-12,5-15,9.76-1.2,1.9-2.06,3.27-2.9,3.69-1.39.7-2.82-.6-4.63-2.24-2.31-2.1-5.18-4.72-9-4.24-4.78.6-6.29,5.38-7.28,8.54a7.46,7.46,0,0,1-1.13,2.63c-.77.76-1.89.24-3.19-.38-1.73-.82-3.89-1.84-6-.43a11.14,11.14,0,0,0-4.58,5.38.53.53,0,0,1-.31.33Z" style="fill: rgb(38, 50, 56); transform-origin: 594.927px 174.145px;" id="el4v6g1kelwnr" class="animable"></path><path d="M412.67,290.28h-99.6a.5.5,0,0,1-.18-1l8.91-3.39a12.35,12.35,0,0,1,4.91-5.69c2.6-1.73,5.14-.53,7,.35.88.42,1.79.85,2.06.58a8,8,0,0,0,.87-2.22c1-3.2,2.7-8.55,8.12-9.23,4.28-.54,7.48,2.37,9.81,4.48,1.46,1.33,2.72,2.49,3.51,2.09.58-.29,1.51-1.77,2.49-3.33,2.94-4.67,7.86-12.5,16.14-10.19C387,265.64,389,274,389.22,275.2c.4.44,2.14,2.24,3.78,1.91a7.3,7.3,0,0,0,1.68-.72c2.25-1.14,5.64-2.87,10.83-.1,6.69,3.56,7.63,13,7.66,13.44a.52.52,0,0,1-.13.39A.51.51,0,0,1,412.67,290.28Zm-96.89-1h96.33c-.31-2-1.74-9.27-7.07-12.11-4.73-2.52-7.72-1-9.9.11a8.31,8.31,0,0,1-1.94.81c-2.44.49-4.74-2.23-4.83-2.34a.51.51,0,0,1-.11-.25c-.06-.36-1.41-8.86-11.82-11.77-7.56-2.12-12.05,5-15,9.75-1.19,1.91-2.06,3.28-2.89,3.7-1.4.69-2.83-.6-4.63-2.25-2.31-2.1-5.19-4.71-9-4.23-4.78.6-6.28,5.38-7.28,8.54a7.28,7.28,0,0,1-1.13,2.63c-.76.77-1.88.23-3.18-.38-1.74-.83-3.9-1.85-6-.43a11,11,0,0,0-4.58,5.38.52.52,0,0,1-.3.33Z" style="fill: rgb(38, 50, 56); transform-origin: 362.822px 276.301px;" id="elgmtcxlzfuj7" class="animable"></path><path d="M249.36,181.83H82.24a.51.51,0,0,1-.49-.41.5.5,0,0,1,.32-.56l15.1-5.75c.38-1.1,2.24-5.59,8.15-9.52,4.2-2.81,8.37-.83,11.42.62,1.72.81,3.21,1.52,3.83.9a13.1,13.1,0,0,0,1.56-3.86c1.66-5.29,4.46-14.15,13.32-15.26,7.05-.89,12.33,3.93,16.2,7.44,2.65,2.41,4.75,4.32,6.26,3.56,1.07-.54,2.58-2.94,4.32-5.71,4.89-7.77,13.06-20.77,26.69-16.95,17.37,4.86,20.47,19.06,20.77,20.69.55.62,3.71,4,6.73,3.38a12.59,12.59,0,0,0,2.91-1.23c3.7-1.89,9.3-4.74,17.86-.18,11.05,5.9,12.6,21.62,12.67,22.29a.52.52,0,0,1-.13.38A.5.5,0,0,1,249.36,181.83Zm-164.4-1H248.79c-.38-2.84-2.62-15.91-12.07-21-8.1-4.33-13.21-1.72-16.94.18a13,13,0,0,1-3.16,1.32c-3.9.79-7.63-3.63-7.78-3.82a.44.44,0,0,1-.11-.24c0-.15-2.38-15.07-20.08-20-12.91-3.61-20.53,8.5-25.57,16.52-2,3.14-3.4,5.41-4.72,6.07-2.13,1.07-4.45-1-7.39-3.71-3.92-3.57-8.82-8-15.39-7.19-8.23,1-10.8,9.18-12.5,14.57-.66,2.08-1.13,3.59-1.81,4.26-1.11,1.12-2.89.28-5-.7-3-1.42-6.71-3.18-10.44-.69-6.34,4.23-7.81,9.16-7.82,9.21a.52.52,0,0,1-.3.33Z" style="fill: rgb(38, 50, 56); transform-origin: 165.801px 158.736px;" id="elhqlnhu3xel" class="animable"></path></g><g id="freepik--Tree--inject-16" class="animable" style="transform-origin: 377.98px 231.37px;"><path d="M378,24.74C300.57,24.86,237.86,84.46,237.86,158v1.11a71.91,71.91,0,0,0,73.58,71.11,106.46,106.46,0,0,1,19.45,1.24c13.25,2.13,23.51,9.9,30.46,18.89a20.34,20.34,0,0,0,15.89,8.12h1.48a20.33,20.33,0,0,0,15.89-8.12c6.95-9,17.21-16.76,30.46-18.89a106.46,106.46,0,0,1,19.45-1.24,71.91,71.91,0,0,0,73.58-71.11c0-.37,0-.74,0-1.11C518.11,84.46,455.39,24.86,378,24.74Z" style="fill: #16A348; transform-origin: 377.98px 141.605px;" id="el4ra5eereend" class="animable"></path><polygon points="426.45 188.48 395.46 195.18 432.44 149.1 381.93 196.19 381.62 199.45 379.36 149.95 375.8 228.13 325.99 181.7 362.98 227.78 331.98 221.08 371.17 237.98 375.12 242.91 368.24 438 390.49 438 382.18 211.72 387.27 205.38 426.45 188.48" style="fill: rgb(38, 50, 56); transform-origin: 379.215px 293.55px;" id="eldwyr4fdu72j" class="animable"></polygon><path d="M350.12,143.08s-3.15-9-9.93-12.19a55.34,55.34,0,0,0-11.28-4.06S332.52,145.33,350.12,143.08Z" style="fill: rgb(38, 50, 56); transform-origin: 339.515px 135.05px;" id="el0qopv37ncm3h" class="animable"></path><path d="M300.32,107.64s-3.16-9-9.94-12.19a55.34,55.34,0,0,0-11.28-4.06S282.71,109.89,300.32,107.64Z" style="fill: rgb(38, 50, 56); transform-origin: 289.71px 99.6099px;" id="eliedu06m8lt" class="animable"></path><path d="M358.3,119.08s-.52-9.55-6.14-14.47a55.1,55.1,0,0,0-9.71-7S340.77,116.35,358.3,119.08Z" style="fill: rgb(38, 50, 56); transform-origin: 350.353px 108.345px;" id="elusz7wb3bmst" class="animable"></path><path d="M433.54,192.21s-6.06-7.4-13.5-8.05a55.91,55.91,0,0,0-12,0S417.77,200.36,433.54,192.21Z" style="fill: rgb(38, 50, 56); transform-origin: 420.79px 189.17px;" id="eliw8foxfvuc" class="animable"></path><path d="M439.29,215.68s-6.06-7.4-13.51-8.05a55,55,0,0,0-12,0S423.51,223.82,439.29,215.68Z" style="fill: rgb(38, 50, 56); transform-origin: 426.535px 212.635px;" id="el8j5e1nndwsg" class="animable"></path><path d="M315.33,190s6.05-7.4,13.5-8a55,55,0,0,1,12,0S331.1,198.1,315.33,190Z" style="fill: rgb(38, 50, 56); transform-origin: 328.08px 186.975px;" id="elmabsevrs8f9" class="animable"></path><path d="M290.42,211s6.06-7.41,13.5-8.06a55.91,55.91,0,0,1,12,0S306.19,219.17,290.42,211Z" style="fill: rgb(38, 50, 56); transform-origin: 303.17px 207.958px;" id="elcc2s418o8c4" class="animable"></path><path d="M331.67,111s-.52-9.55-6.14-14.48a55.54,55.54,0,0,0-9.71-7S314.13,108.22,331.67,111Z" style="fill: rgb(38, 50, 56); transform-origin: 323.723px 100.26px;" id="el1dhdohs7zxri" class="animable"></path><path d="M420.14,116.37s.52-9.55,6.15-14.47a55.3,55.3,0,0,1,9.7-7S437.68,113.64,420.14,116.37Z" style="fill: rgb(38, 50, 56); transform-origin: 428.087px 105.635px;" id="eln822vvynsj" class="animable"></path><path d="M376.1,104.09s5.51-7.82,4.15-15.17A55,55,0,0,0,377,77.38S364,91.06,376.1,104.09Z" style="fill: rgb(38, 50, 56); transform-origin: 375.706px 90.735px;" id="elql64xqpwck" class="animable"></path><path d="M382.24,140s.9-9.52-3.94-15.22a55.61,55.61,0,0,0-8.56-8.4S365.3,134.75,382.24,140Z" style="fill: rgb(38, 50, 56); transform-origin: 375.76px 128.19px;" id="el57linxjgs93" class="animable"></path><path d="M359.52,96.54s2.86-9.13-.69-15.7a55.4,55.4,0,0,0-6.62-10S344.05,87.84,359.52,96.54Z" style="fill: rgb(38, 50, 56); transform-origin: 355.334px 83.69px;" id="eldsyitblgjge" class="animable"></path><path d="M335.91,80.73s1.16-9.5-3.51-15.33a55.31,55.31,0,0,0-8.33-8.63S319.13,75,335.91,80.73Z" style="fill: rgb(38, 50, 56); transform-origin: 329.715px 68.75px;" id="elgn9rlz9d1r9" class="animable"></path><path d="M366.74,167.41s2.86-9.13-.69-15.71a55.51,55.51,0,0,0-6.62-10S351.27,158.71,366.74,167.41Z" style="fill: rgb(38, 50, 56); transform-origin: 362.554px 154.555px;" id="elbeguui3cmc7" class="animable"></path><path d="M388.14,156.69s8.08-5.12,9.63-12.43a55.75,55.75,0,0,0,1.4-11.91S382,140.05,388.14,156.69Z" style="fill: rgb(38, 50, 56); transform-origin: 392.992px 144.52px;" id="elbwcdt9quacj" class="animable"></path><path d="M389.1,96.54s-2.86-9.13.69-15.7a55.05,55.05,0,0,1,6.63-10S404.57,87.84,389.1,96.54Z" style="fill: rgb(38, 50, 56); transform-origin: 393.288px 83.69px;" id="elteiv1gnk3za" class="animable"></path><path d="M382.63,64.15s-5.19-8-3.53-15.32a55.08,55.08,0,0,1,3.71-11.41S395.21,51.63,382.63,64.15Z" style="fill: rgb(38, 50, 56); transform-origin: 383.52px 50.785px;" id="elq45u3wwxhlr" class="animable"></path><path d="M400.36,119.49s8.06-5.15,9.58-12.47a55.33,55.33,0,0,0,1.36-11.91S394.12,102.88,400.36,119.49Z" style="fill: rgb(38, 50, 56); transform-origin: 405.148px 107.3px;" id="el9d4xfoihrx9" class="animable"></path><path d="M426.23,78.3s8.06-5.15,9.57-12.46a55.44,55.44,0,0,0,1.36-11.92S420,61.69,426.23,78.3Z" style="fill: rgb(38, 50, 56); transform-origin: 431.014px 66.11px;" id="elmyj213iwh08" class="animable"></path><path d="M422.1,144.49s9.26-2.4,13-8.88a55.42,55.42,0,0,0,5-10.91S421.31,126.76,422.1,144.49Z" style="fill: rgb(38, 50, 56); transform-origin: 431.088px 134.595px;" id="el3twkz4lwlp5" class="animable"></path><path d="M456.58,120.07s9.26-2.4,13-8.89a55.92,55.92,0,0,0,5-10.91S455.79,102.33,456.58,120.07Z" style="fill: rgb(38, 50, 56); transform-origin: 465.568px 110.17px;" id="elw5gydpfni" class="animable"></path><path d="M424.18,166.82s8.68,4,15.66,1.34a55.44,55.44,0,0,0,10.77-5.29S434.8,152.6,424.18,166.82Z" style="fill: rgb(38, 50, 56); transform-origin: 437.395px 164.178px;" id="elz8upq0rm0r" class="animable"></path><path d="M462,168.47s6.6,6.92,14.07,7a55.09,55.09,0,0,0,12-.94S477.09,159.16,462,168.47Z" style="fill: rgb(38, 50, 56); transform-origin: 475.035px 170.486px;" id="el74n9s5vd1fl" class="animable"></path><path d="M447.24,187.19s5.21,8,12.54,9.48a55.24,55.24,0,0,0,11.92,1.26S463.8,180.81,447.24,187.19Z" style="fill: rgb(38, 50, 56); transform-origin: 459.47px 191.848px;" id="ell7btuppegkh" class="animable"></path><path d="M436.37,146.51s8.68,4,15.66,1.33a55.84,55.84,0,0,0,10.77-5.28S447,132.28,436.37,146.51Z" style="fill: rgb(38, 50, 56); transform-origin: 449.585px 143.864px;" id="elz0jdu4y6sj8" class="animable"></path><path d="M472.77,141.24s8.68,4,15.66,1.33a55.13,55.13,0,0,0,10.77-5.28S483.38,127,472.77,141.24Z" style="fill: rgb(38, 50, 56); transform-origin: 485.985px 138.592px;" id="elvxpg2hy334" class="animable"></path><path d="M314.77,159.48s5.84,7.58,13.26,8.46a55.62,55.62,0,0,0,12,.31S330.78,151.81,314.77,159.48Z" style="fill: rgb(38, 50, 56); transform-origin: 327.4px 162.94px;" id="el3utjpvfnqpt" class="animable"></path><path d="M295.81,133.3s5.84,7.58,13.26,8.45a55.31,55.31,0,0,0,12,.32S311.82,125.63,295.81,133.3Z" style="fill: rgb(38, 50, 56); transform-origin: 308.44px 136.759px;" id="elxcvy6rlvn4h" class="animable"></path><path d="M253.23,141.81s7.94,5.33,15.25,3.79A55.8,55.8,0,0,0,280,142.09S266,129.44,253.23,141.81Z" style="fill: rgb(38, 50, 56); transform-origin: 266.615px 141.132px;" id="elvfl93z5yxfr" class="animable"></path><path d="M271.44,171.35s7.25,6.23,14.7,5.58a55.27,55.27,0,0,0,11.8-2.13S285.55,160.58,271.44,171.35Z" style="fill: rgb(38, 50, 56); transform-origin: 284.69px 172.148px;" id="el6v5uvx2pb4" class="animable"></path></g><g id="freepik--character-3--inject-16" class="animable" style="transform-origin: 465.745px 332.703px;"><path d="M419.14,324.62,414,378.39s-2.91,8.16-2.91,8.7S407.83,421,407.83,421s-2.9,1.63-2.54,2.72,1.82,7.07,1.82,7.07-3.09,9.07-3.09,9.8,6.17,1.08,8,.9,4.53.55,5.44-2a55.16,55.16,0,0,0,1.63-8.16l5.81-7.8L423.06,415l8.71-45.88,7.79-19,5.08.18,1.81,42.43s-4.17,25-2.72,27.57,2.72,9.43,2.72,9.43v5.44s-.36,2.54.91,3.62,12.51.91,13.6,1.09,7.07,1.09,8.52.73,4.72-2,4-3.45-6.89-4.17-8.52-5.62-3.81-5.8-3.81-5.8,1.09-8.34,1.27-9.61-.18-6-.18-8.16,4.9-28.29,4.9-31.19-.73-39.17-.73-39.17Z" style="fill: rgb(38, 50, 56); transform-origin: 438.801px 383.078px;" id="el1wskj91616r" class="animable"></path><path d="M410.77,442c-2.25,0-6.24-.24-7-.94a.7.7,0,0,1-.24-.5c0-.74,2.29-7.52,3.07-9.82-.23-.91-1.45-5.93-1.77-6.89-.42-1.26,1.61-2.63,2.54-3.18,1.12-11.5,3.21-33,3.23-33.62s1.82-5.71,2.91-8.8l5.14-53.71a.47.47,0,0,1,.22-.36.5.5,0,0,1,.41-.07l47.26,13a.49.49,0,0,1,.37.47c0,.36.73,36.3.73,39.18,0,1.59-1.38,9.67-2.72,17.49-1.07,6.26-2.18,12.73-2.18,13.7s0,2,.11,3.32a40.35,40.35,0,0,1,.07,4.91c-.17,1.16-1.1,8.31-1.25,9.45.38.74,2.24,4.29,3.62,5.52a28.5,28.5,0,0,0,3.6,2.23c2.75,1.54,4.58,2.62,5,3.54a1.5,1.5,0,0,1,0,1.34c-.64,1.38-3.12,2.51-4.31,2.81-1.73.43-8.66-.7-8.73-.72-.27,0-1.43-.06-2.78-.09-6.49-.13-10.18-.35-11.06-1.11-1.46-1.25-1.1-4-1.08-4.07v-5.37h0s-1.27-6.75-2.66-9.18c-1.49-2.61,2.19-25,2.65-27.85l-1.79-41.91-4.27-.16-7.64,18.67L423.57,415l1.8,8.43a.52.52,0,0,1-.09.4l-5.73,7.69a53.72,53.72,0,0,1-1.64,8.14c-.83,2.32-3,2.3-4.63,2.29-.44,0-.86,0-1.23,0S411.33,442,410.77,442Zm-6.22-1.61a28.78,28.78,0,0,0,7.4.58,11.64,11.64,0,0,1,1.34,0c1.86,0,3.13-.09,3.68-1.63a55.75,55.75,0,0,0,1.61-8.06.5.5,0,0,1,.09-.23l5.67-7.62-1.77-8.3a.61.61,0,0,1,0-.19l8.71-45.88a.3.3,0,0,1,0-.1l7.8-19a.52.52,0,0,1,.48-.31l5.08.18a.5.5,0,0,1,.48.48L447,392.69s0,.07,0,.11c-1.6,9.6-3.77,25.49-2.78,27.23,1.47,2.58,2.72,9.3,2.78,9.59v5.53c-.1.7-.14,2.5.73,3.24s7.54.81,10.43.87c1.7,0,2.6.05,2.92.11,2.12.35,7.15,1,8.32.73s3.23-1.34,3.65-2.26a.49.49,0,0,0,0-.47c-.36-.71-2.73-2.05-4.64-3.12a26.14,26.14,0,0,1-3.77-2.36c-1.69-1.49-3.83-5.77-3.92-5.95a.42.42,0,0,1-.05-.29s1.09-8.34,1.27-9.61a42.13,42.13,0,0,0-.08-4.72c0-1.29-.11-2.51-.11-3.37,0-1.06,1-7,2.19-13.87,1.27-7.41,2.71-15.81,2.71-17.32,0-2.71-.64-34.93-.72-38.79l-46.33-12.71-5.09,53.18a.5.5,0,0,1,0,.12c-1.08,3-2.81,8-2.88,8.56s-2.93,30.51-3.26,33.93a.52.52,0,0,1-.25.39c-1.31.73-2.43,1.77-2.31,2.12.36,1.1,1.76,6.87,1.82,7.12a.53.53,0,0,1,0,.28C406.5,434.14,404.8,439.27,404.55,440.42Zm9.45-62h0Z" style="fill: rgb(38, 50, 56); transform-origin: 438.789px 383.047px;" id="elw65cgv5ql1" class="animable"></path><path d="M407.11,430.79s-3.09,9.07-3.09,9.8,6.17,1.08,8,.9,4.53.55,5.44-2a55.16,55.16,0,0,0,1.63-8.16s-6.79-2.65-8.61-2.65S407.11,430.79,407.11,430.79Z" style="fill: rgb(255, 255, 255); transform-origin: 411.555px 435.108px;" id="el3sdfj3vk0ld" class="animable"></path><path d="M410.77,442c-2.25,0-6.24-.24-7-.94a.7.7,0,0,1-.24-.5c0-.75,2.38-7.81,3.11-10a.83.83,0,0,1,.07-.13c.07-.09,1.7-2.31,3.76-2.31h0c1.86,0,8.09,2.41,8.8,2.68a.5.5,0,0,1,.31.53,54.62,54.62,0,0,1-1.66,8.27c-.83,2.32-3,2.3-4.63,2.29-.44,0-.86,0-1.23,0S411.33,442,410.77,442Zm-6.22-1.61a28.78,28.78,0,0,0,7.4.58,11.57,11.57,0,0,1,1.34,0c1.87,0,3.13-.09,3.68-1.63a52.68,52.68,0,0,0,1.56-7.67c-2.1-.8-6.74-2.47-8.07-2.47s-2.66,1.53-2.91,1.84C406.47,434.22,404.8,439.28,404.55,440.42Z" style="fill: rgb(38, 50, 56); transform-origin: 411.557px 435.06px;" id="el5cy97ma34wa" class="animable"></path><path d="M469.48,440.59c1.46-.37,4.72-2,4-3.45s-6.89-4.17-8.52-5.62a11.56,11.56,0,0,1-1.68-2.1l-1,.41s-10.5,2.06-13.47,2.29l-2.34.18v2.85s-.36,2.54.91,3.62,12.51.91,13.6,1.09S468,441,469.48,440.59Z" style="fill: rgb(255, 255, 255); transform-origin: 460.003px 435.055px;" id="elonuj3vzu5ld" class="animable"></path><path d="M468.43,441.17a64.06,64.06,0,0,1-7.55-.82c-.27,0-1.43-.06-2.78-.09-6.49-.13-10.18-.35-11.06-1.11-1.46-1.25-1.1-4-1.08-4.07V432.3a.5.5,0,0,1,.46-.5l2.34-.18c2.9-.23,13.3-2.26,13.4-2.28l.92-.38a.51.51,0,0,1,.61.18,11.13,11.13,0,0,0,1.59,2,28.5,28.5,0,0,0,3.6,2.23c2.75,1.54,4.58,2.62,5,3.54a1.5,1.5,0,0,1,0,1.34c-.64,1.38-3.12,2.51-4.31,2.81h0A5.27,5.27,0,0,1,468.43,441.17Zm1.05-.58h0ZM447,432.76v2.39c-.1.7-.14,2.5.73,3.24s7.54.81,10.43.87c1.7,0,2.6.05,2.92.11,2.12.35,7.15,1,8.32.73s3.23-1.34,3.65-2.26a.49.49,0,0,0,0-.47c-.36-.71-2.73-2.05-4.64-3.12a26.14,26.14,0,0,1-3.77-2.36,10.51,10.51,0,0,1-1.53-1.85l-.64.26c-.53.11-10.66,2.09-13.62,2.32Z" style="fill: rgb(38, 50, 56); transform-origin: 459.972px 435.046px;" id="elx7et8uw0pxl" class="animable"></path><path d="M477.37,243.84a47.75,47.75,0,0,0-4.48,2.63c-1.24.93-10.5,1.54-16.37,1.54s-14.06,7-15.6,10.66-21.78,65.95-21.78,65.95l46.33,14.67,13.29-41.7,1.85-3.4.15,10.2s8.65,1.54,10,1.23a22.75,22.75,0,0,1,3.71-.3l1.85-20.08a78.76,78.76,0,0,0-2.31-13.44,65.32,65.32,0,0,0-5.1-12.67l-4.17-8,1.24-8S480.76,241.22,477.37,243.84Z" style="fill: rgb(255, 255, 255); transform-origin: 457.73px 290.874px;" id="elhsmho1a13f8" class="animable"></path><path d="M465.47,339.79a.39.39,0,0,1-.15,0L419,325.1a.53.53,0,0,1-.3-.25.5.5,0,0,1,0-.38c.83-2.55,20.26-62.31,21.79-66s9.78-11,16.07-11,15.05-.68,16.07-1.44a47.07,47.07,0,0,1,4.51-2.65c3.57-2.72,8.86-.9,9.08-.82a.5.5,0,0,1,.33.55L485.3,251l4.09,7.88a65.91,65.91,0,0,1,5.14,12.77,79.66,79.66,0,0,1,2.33,13.53L495,305.36a.5.5,0,0,1-.5.46,21.82,21.82,0,0,0-3.6.29c-1.44.32-9.34-1.07-10.23-1.23a.5.5,0,0,1-.42-.48l-.12-8.3-.94,1.73L466,339.45A.5.5,0,0,1,465.47,339.79Zm-45.7-15.49,45.38,14.37,13.13-41.23,1.89-3.48a.51.51,0,0,1,.56-.25.49.49,0,0,1,.38.48l.15,9.78c3.34.58,8.54,1.37,9.44,1.17a19.85,19.85,0,0,1,3.35-.32l1.82-19.63h0a80.67,80.67,0,0,0-2.31-13.26,63.94,63.94,0,0,0-5.05-12.55l-4.17-8a.45.45,0,0,1,0-.3l1.17-7.61c-1.25-.34-5.16-1.21-7.79.82l-.07,0a47.85,47.85,0,0,0-4.41,2.58c-1.46,1.09-11.48,1.64-16.67,1.64-5.82,0-13.72,7-15.14,10.35S421.66,318.49,419.77,324.3Zm57.6-80.46h0Z" style="fill: rgb(38, 50, 56); transform-origin: 457.761px 290.844px;" id="elq05l1cn8ptp" class="animable"></path><path d="M476.76,261.16a9.19,9.19,0,0,1-1.65-.14c-5.7-1-8.25-11.32-8.7-13.36a.54.54,0,0,1,.08-.41.53.53,0,0,1,.36-.2c4.79-.43,5.62-.89,5.74-1a48.76,48.76,0,0,1,4.54-2.67c3.51-2.71,8.83-.88,9.05-.8a.5.5,0,0,1,.33.55L485.3,251l2.66,5.13a.49.49,0,0,1-.15.64C485.88,258.19,481.23,261.16,476.76,261.16ZM467.51,248c.62,2.49,3.08,11.18,7.79,12,4.37.82,9.6-2.43,11.58-3.8l-2.54-4.9a.45.45,0,0,1,0-.3l1.17-7.61c-1.25-.34-5.16-1.21-7.79.82-.1.06-3.29,1.74-4.48,2.63C473,247,472.3,247.53,467.51,248Z" style="fill: rgb(38, 50, 56); transform-origin: 477.21px 251.531px;" id="elt8u3yuz9thl" class="animable"></path><path d="M503.78,242s2.31-.46,2.47-2.16.31-6.64-6.8-11.74-11.74-5.56-17.91-1.24-6,13.6-5.72,15,.47,2.31,1.55,2a15.86,15.86,0,0,0,3.39-2.16A20.38,20.38,0,0,0,492.81,246C500.38,246.32,503.78,242,503.78,242Z" style="fill: rgb(38, 50, 56); transform-origin: 491.006px 234.968px;" id="el5vml0ket9s6" class="animable"></path><path d="M493.59,246.52h-.8a21.11,21.11,0,0,1-12-4.19,13.88,13.88,0,0,1-3.26,2,1.49,1.49,0,0,1-1.15-.09c-.59-.36-.76-1.14-1-2.12l0-.18c-.27-1.22-.57-10.95,5.92-15.5,6.27-4.38,11.11-4.06,18.49,1.24,3.48,2.5,7.51,6.63,7,12.19-.16,1.76-2.09,2.41-2.7,2.57C503.4,243.18,500.11,246.52,493.59,246.52Zm-12.83-5.34a.5.5,0,0,1,.34.13,20.07,20.07,0,0,0,11.73,4.2c7.19.28,10.52-3.79,10.55-3.83a.52.52,0,0,1,.3-.18s1.95-.41,2.07-1.72c.46-5.09-3.33-8.94-6.59-11.28-7.05-5.06-11.43-5.38-17.34-1.24s-5.76,13.32-5.51,14.47l0,.17c.14.66.3,1.35.52,1.48a.51.51,0,0,0,.36,0,14.87,14.87,0,0,0,3.22-2.07A.51.51,0,0,1,480.76,241.18Z" style="fill: rgb(38, 50, 56); transform-origin: 491.051px 234.963px;" id="elyx040r4bwzk" class="animable"></path><path d="M503.78,242s-2.32,8.5-3.4,9-1.85.15-2.47.62-1.39,5.4-1.85,5.71a17.82,17.82,0,0,1-3.09.77s-4.17,2-4.33,2.63,0,1.85-.93,2c-3.39.56-7.62-3.73-9.11-6.49-1.08-2,1.24-9.11,1.24-9.11s-2.16-4.79-1.24-7.73,3.55-4,4.64-2.78,1.54,4.95,1.54,4.95l1.24,1.54,2.93-.77s4.33,1.54,7.57.93S503.78,242,503.78,242Z" style="fill: rgb(255, 255, 255); transform-origin: 491.047px 249.451px;" id="elcisunm3e7rj" class="animable"></path><path d="M487.08,263.24c-3.66,0-7.61-4.37-8.92-6.8-1.08-2,.73-8,1.14-9.33-.39-.92-2.05-5.11-1.17-7.9a5,5,0,0,1,3.39-3.57,2.11,2.11,0,0,1,2.09.62c1.06,1.21,1.54,4.29,1.65,5.06l.94,1.19,2.62-.69a.44.44,0,0,1,.3,0s4.24,1.49,7.3.9c3.22-.61,7.24-1.23,7.28-1.23a.48.48,0,0,1,.45.16.51.51,0,0,1,.11.46c-.89,3.26-2.55,8.8-3.68,9.29a4.91,4.91,0,0,1-1.53.34,1.54,1.54,0,0,0-.84.22,15.87,15.87,0,0,0-.86,2.89c-.51,2.07-.68,2.61-1,2.84a14.21,14.21,0,0,1-3.21.83,19.87,19.87,0,0,0-4,2.34c0,.06,0,.22,0,.38-.07.66-.18,1.75-1.26,1.93A4.37,4.37,0,0,1,487.08,263.24Zm-5-26.66a1.59,1.59,0,0,0-.34,0,4,4,0,0,0-2.64,2.9c-.86,2.71,1.19,7.32,1.21,7.36a.5.5,0,0,1,0,.36c-.87,2.67-2,7.4-1.27,8.72,1.55,2.87,5.65,6.73,8.59,6.23.29,0,.36-.34.44-1a4.1,4.1,0,0,1,.09-.59c0-.21.21-.85,4.59-3l.13,0a17.35,17.35,0,0,0,2.9-.69c.08-.16.38-1.37.6-2.25.52-2.15.8-3.13,1.23-3.45a2.39,2.39,0,0,1,1.35-.41,4,4,0,0,0,1.22-.27c.54-.37,1.88-4.25,2.91-7.89-1.32.21-4.12.67-6.48,1.12-3,.58-6.87-.63-7.68-.9l-2.79.74a.48.48,0,0,1-.51-.18l-1.24-1.54a.57.57,0,0,1-.11-.25c-.12-1-.62-3.76-1.42-4.68A1,1,0,0,0,482.06,236.58Z" style="fill: rgb(38, 50, 56); transform-origin: 491.048px 249.406px;" id="el891db6r3z75" class="animable"></path><path d="M479.84,247.09l-1.47,6.5a5.13,5.13,0,0,0,.23,2.61c1.49,2.76,5.72,7.05,9.11,6.49.93-.16.78-1.39.93-2s4.33-2.63,4.33-2.63l.9-.17-.29-.91a5.38,5.38,0,0,0-3.7-2.16,26.94,26.94,0,0,1-6.34-1.85l2.48-9.89-1.24-1.54-2.47,3.7Z" style="fill: rgb(38, 50, 56); transform-origin: 486.083px 252.14px;" id="el1n2u1dp5z7e" class="animable"></path><path d="M487.08,263.24c-3.66,0-7.61-4.37-8.92-6.8a5.41,5.41,0,0,1-.29-2.89l1.48-6.57a.48.48,0,0,1,.19-.29l2.4-1.8,2.42-3.64a.51.51,0,0,1,.81,0l1.24,1.55a.51.51,0,0,1,.09.43l-2.37,9.47a24.58,24.58,0,0,0,5.78,1.65,5.91,5.91,0,0,1,4.09,2.38.52.52,0,0,1,.06.13l.29.91a.47.47,0,0,1-.05.4.48.48,0,0,1-.33.24l-.85.16a19.87,19.87,0,0,0-4,2.34c0,.06,0,.22,0,.38-.07.66-.18,1.75-1.26,1.93A4.37,4.37,0,0,1,487.08,263.24Zm-6.79-15.86-1.43,6.33A4.32,4.32,0,0,0,479,256c1.55,2.87,5.65,6.72,8.59,6.23.29,0,.36-.34.44-1a4.1,4.1,0,0,1,.09-.59c0-.21.21-.85,4.59-3l.13,0,.35-.06-.1-.3a4.88,4.88,0,0,0-3.29-1.89,27.3,27.3,0,0,1-6.49-1.89.5.5,0,0,1-.29-.58l2.41-9.65-.65-.82-2.1,3.14a.43.43,0,0,1-.11.12Z" style="fill: rgb(38, 50, 56); transform-origin: 486.082px 252.149px;" id="elc898m7fq3ud" class="animable"></path><path d="M496.67,250.68a.52.52,0,0,1-.39-.19,3.68,3.68,0,0,0-2.85-1.2.5.5,0,0,1-.5-.5.5.5,0,0,1,.5-.5,4.7,4.7,0,0,1,3.64,1.58.5.5,0,0,1-.09.7A.51.51,0,0,1,496.67,250.68Z" style="fill: rgb(38, 50, 56); transform-origin: 495.052px 249.484px;" id="elg5sy2rirctf" class="animable"></path><path d="M494.67,253.3a3.33,3.33,0,0,1-2.93-1.68.5.5,0,1,1,.91-.41,2.14,2.14,0,0,0,1.73,1.07l.62-1.11a.49.49,0,0,1,.68-.19.5.5,0,0,1,.2.68L495.1,253A.49.49,0,0,1,494.67,253.3Z" style="fill: rgb(38, 50, 56); transform-origin: 493.812px 252.094px;" id="el5xkke71iq5h" class="animable"></path><path d="M488.33,258.09a.39.39,0,0,1-.18,0,3.12,3.12,0,0,1-1.86-2.93.5.5,0,0,1,.5-.5.5.5,0,0,1,.5.5,2.15,2.15,0,0,0,1.23,2,.49.49,0,0,1,.27.65A.5.5,0,0,1,488.33,258.09Z" style="fill: rgb(255, 255, 255); transform-origin: 487.56px 256.38px;" id="elugyer2corxc" class="animable"></path><path d="M480.61,294.19s6-8.64,6.95-13.12" style="fill: rgb(255, 255, 255); transform-origin: 484.085px 287.63px;" id="elsktbjkpumq" class="animable"></path><path d="M480.61,294.69a.45.45,0,0,1-.29-.09.5.5,0,0,1-.12-.69c.06-.09,6-8.62,6.87-13a.5.5,0,0,1,1,.21c-.94,4.53-6.78,12.95-7,13.31A.49.49,0,0,1,480.61,294.69Z" style="fill: rgb(38, 50, 56); transform-origin: 484.096px 287.599px;" id="elfeffc02tkrq" class="animable"></path><path d="M482.18,305.13s-.91,11.42-.91,20.67a70.67,70.67,0,0,1-2.72,18.14l-1.09,2.53s1.64,7.26,1.64,10.34a41.92,41.92,0,0,1-.91,7.25s4.71-8,5.08-10.88,1.08-9.79,1.08-9.79,8.53-28.11,8.53-29.92v-8S484,305,482.18,305.13Z" style="fill: rgb(255, 255, 255); transform-origin: 485.17px 334.584px;" id="elfiwp4n7exop" class="animable"></path><path d="M478.19,364.56a.57.57,0,0,1-.18,0,.5.5,0,0,1-.31-.57,42,42,0,0,0,.89-7.15c0-3-1.6-10.15-1.62-10.23a.51.51,0,0,1,0-.3l1.09-2.54a70.91,70.91,0,0,0,2.68-17.94c0-9.16.9-20.59.91-20.71a.51.51,0,0,1,.45-.46c1.83-.18,10.41.34,10.78.36a.51.51,0,0,1,.47.5v8c0,1.84-7.67,27.18-8.55,30.07h0s-.71,6.84-1.07,9.71-4.95,10.74-5.14,11.07A.51.51,0,0,1,478.19,364.56Zm-.2-18c.24,1.11,1.6,7.4,1.6,10.29a30.92,30.92,0,0,1-.39,4.44c1.4-2.56,3.35-6.37,3.57-8.13.36-2.86,1.08-9.71,1.09-9.78,3.43-11.36,8.52-28.59,8.52-29.87V306c-1.72-.1-7.66-.44-9.74-.36-.16,2.17-.87,12.09-.87,20.2A71.64,71.64,0,0,1,479,344.08Z" style="fill: rgb(38, 50, 56); transform-origin: 485.149px 334.595px;" id="el2939y5ctdnm" class="animable"></path><path d="M473.83,370.26a1.9,1.9,0,0,1-.93-.26,1.84,1.84,0,0,1-.65-2.52,22.53,22.53,0,1,0-41.57-7,1.84,1.84,0,0,1-3.61.71,26.81,26.81,0,0,1-.49-5.07,26.22,26.22,0,1,1,48.84,13.27A1.84,1.84,0,0,1,473.83,370.26Z" style="fill: #16A348; transform-origin: 452.8px 350.085px;" id="elsi3l0q20vi" class="animable"></path><path d="M473.83,370.76a2.36,2.36,0,0,1-1.18-.33,2.33,2.33,0,0,1-.83-3.2,22,22,0,1,0-41.06-11.15,22.47,22.47,0,0,0,.41,4.27,2.34,2.34,0,0,1-3.59,2.4,2.34,2.34,0,0,1-1-1.5,27,27,0,0,1-.5-5.17,26.72,26.72,0,1,1,49.77,13.52A2.35,2.35,0,0,1,473.83,370.76ZM452.8,333a23.05,23.05,0,0,1,19.88,34.7,1.34,1.34,0,0,0,.48,1.83,1.37,1.37,0,0,0,1.83-.48,25.71,25.71,0,1,0-47.43-8,1.35,1.35,0,0,0,.58.87,1.28,1.28,0,0,0,1,.19,1.32,1.32,0,0,0,.86-.57,1.31,1.31,0,0,0,.2-1,23.66,23.66,0,0,1-.43-4.46A23.07,23.07,0,0,1,452.8,333Z" style="fill: rgb(38, 50, 56); transform-origin: 452.8px 350.062px;" id="elilm42gk47f" class="animable"></path><path d="M448.71,336.66l-26.82,21.08a2.92,2.92,0,0,0-.5,4.08l21.51,27.74a2.92,2.92,0,0,0,4,.57l27.9-20.46a2.92,2.92,0,0,0,.56-4.17l-22.6-28.37A2.92,2.92,0,0,0,448.71,336.66Z" style="fill: #16A348; transform-origin: 448.386px 363.365px;" id="elee61ga9c2q7" class="animable"></path><path d="M445.2,391.2a3.38,3.38,0,0,1-2.69-1.33L421,362.12a3.4,3.4,0,0,1,.59-4.77l26.81-21.08a3.42,3.42,0,0,1,4.78.55l22.6,28.37a3.4,3.4,0,0,1-.65,4.88l-27.9,20.46A3.45,3.45,0,0,1,445.2,391.2Zm5.31-54.66a2.44,2.44,0,0,0-1.49.51h0L422.2,358.13a2.42,2.42,0,0,0-.41,3.38l21.51,27.75a2.4,2.4,0,0,0,3.33.47l27.91-20.47a2.4,2.4,0,0,0,.46-3.45l-22.6-28.36A2.4,2.4,0,0,0,450.51,336.54Zm-1.8.12h0Z" style="fill: rgb(38, 50, 56); transform-origin: 448.406px 363.37px;" id="elzxhqk3e1sm" class="animable"></path><path d="M454.43,249.1s-6.89-.55-11.24,3.44S431,278.65,431,278.65L445.91,285l6.71-11.24" style="fill: rgb(255, 255, 255); transform-origin: 442.715px 267.037px;" id="el558ci8iyay7" class="animable"></path><path d="M445.91,285.5a.48.48,0,0,1-.2,0l-14.86-6.34a.5.5,0,0,1-.28-.63c.32-.91,7.89-22.29,12.28-26.32s11.34-3.6,11.62-3.57a.5.5,0,0,1-.08,1c-.06,0-6.72-.48-10.86,3.31-3.88,3.55-10.73,22.34-11.86,25.47l14,6,6.48-10.87a.5.5,0,0,1,.86.51l-6.71,11.25A.51.51,0,0,1,445.91,285.5Z" style="fill: rgb(38, 50, 56); transform-origin: 442.736px 267.062px;" id="el9tv4s0sycr4" class="animable"></path><path d="M431,278.65l-3.63,17.05,23.76,29.56,1.63,4.17s3.81,4.53,4,5.08,2.54,1.81,4.53,1.81a17.47,17.47,0,0,0,4-.54s1.09,2.72,2.18,1.45,1.09-4.54.73-6.71.54-4.54-1.64-6.53a22,22,0,0,0-7.07-4c-1.27-.36-18.5-27.38-18.5-27.38l3.45-8.71Z" style="fill: rgb(255, 255, 255); transform-origin: 447.892px 308.109px;" id="elyr21805avf7" class="animable"></path><path d="M466.88,338.06h-.18c-.79-.13-1.38-1.1-1.67-1.69a17.54,17.54,0,0,1-3.71.46c-2,0-4.71-1.29-5-2.16-.16-.36-2.11-2.78-3.9-4.91a.39.39,0,0,1-.08-.14l-1.61-4.1L427,296a.44.44,0,0,1-.1-.41l3.62-17.05a.54.54,0,0,1,.25-.34.56.56,0,0,1,.42,0l13.42,5.26a.48.48,0,0,1,.28.26.53.53,0,0,1,0,.39l-3.35,8.46c6.46,10.12,17,26.21,18.15,27a22.3,22.3,0,0,1,7.2,4.07c1.71,1.56,1.7,3.37,1.69,5a11.11,11.11,0,0,0,.1,1.85c.29,1.78.5,5.56-.84,7.12A1.27,1.27,0,0,1,466.88,338.06Zm-1.57-2.78a.51.51,0,0,1,.47.31c.26.66.77,1.42,1.08,1.47.06,0,.18-.08.25-.16.9-1,1-4,.61-6.3a12.56,12.56,0,0,1-.11-2c0-1.52,0-3-1.36-4.22a21.83,21.83,0,0,0-6.88-3.88c-1.31-.37-13.57-19.42-18.78-27.59a.53.53,0,0,1,0-.46l3.26-8.23-12.4-4.86L428,295.57l23.61,29.37a.64.64,0,0,1,.08.14l1.6,4.09a52.6,52.6,0,0,1,4,5.18,7,7,0,0,0,4.05,1.47,16.56,16.56,0,0,0,3.86-.53Z" style="fill: rgb(38, 50, 56); transform-origin: 447.89px 308.11px;" id="elusz8pilkxa" class="animable"></path><path d="M521.77,430.62a.38.38,0,0,1-.36-.26c-.2-.64-.42-1.26-.64-1.88a.38.38,0,0,1,.71-.25c.22.62.44,1.26.65,1.9a.38.38,0,0,1-.25.47A.2.2,0,0,1,521.77,430.62Zm-1.35-3.76a.38.38,0,0,1-.35-.24c-.25-.62-.51-1.23-.77-1.83a.37.37,0,0,1,.19-.49.38.38,0,0,1,.5.19l.78,1.86a.37.37,0,0,1-.21.48Zm-1.62-3.66a.37.37,0,0,1-.33-.21q-.45-.92-.9-1.77a.38.38,0,0,1,.16-.51.36.36,0,0,1,.5.16c.31.58.61,1.18.91,1.79a.38.38,0,0,1-.17.5A.35.35,0,0,1,518.8,423.2Zm-1.86-3.54a.37.37,0,0,1-.33-.19c-.33-.58-.67-1.15-1-1.7a.37.37,0,0,1,.12-.52.36.36,0,0,1,.51.12c.35.56.7,1.14,1,1.73a.36.36,0,0,1-.13.51A.34.34,0,0,1,516.94,419.66Zm-2.11-3.4a.37.37,0,0,1-.31-.17c-.37-.56-.75-1.1-1.13-1.63A.38.38,0,0,1,514,414c.38.54.76,1.09,1.14,1.66a.37.37,0,0,1-.31.58ZM512.5,413a.37.37,0,0,1-.3-.14c-.42-.54-.83-1.06-1.24-1.55a.38.38,0,1,1,.58-.48c.41.5.83,1,1.25,1.57a.38.38,0,0,1-.06.53A.39.39,0,0,1,512.5,413Zm-2.56-3.07a.41.41,0,0,1-.28-.13c-.46-.52-.91-1-1.35-1.46a.37.37,0,0,1,.54-.52c.45.46.91,1,1.37,1.48a.37.37,0,0,1,0,.53A.39.39,0,0,1,509.94,409.94Zm-2.77-2.9a.39.39,0,0,1-.26-.1c-.52-.5-1-.95-1.45-1.35a.38.38,0,0,1,.5-.56c.45.41,1,.86,1.47,1.37a.37.37,0,0,1,0,.53A.35.35,0,0,1,507.17,407Zm-3-2.66a.41.41,0,0,1-.24-.08c-1-.79-1.56-1.2-1.57-1.2a.37.37,0,1,1,.42-.62s.62.42,1.62,1.23a.38.38,0,0,1,.06.53A.4.4,0,0,1,504.19,404.38Z" style="fill: rgb(38, 50, 56); transform-origin: 512.171px 416.513px;" id="el06b6gjmuvoh4" class="animable"></path><path d="M527.58,415.49a.37.37,0,0,1-.32-.19c-.23-.4-.48-.8-.74-1.19a.38.38,0,0,1,.11-.52.38.38,0,0,1,.52.11c.26.4.52.81.76,1.22a.37.37,0,0,1-.14.51A.33.33,0,0,1,527.58,415.49Zm-1.89-2.85a.37.37,0,0,1-.3-.15c-.39-.53-.81-1-1.23-1.55a.38.38,0,1,1,.58-.48c.43.52.85,1,1.25,1.58a.38.38,0,0,1-.07.53A.39.39,0,0,1,525.69,412.64Zm-2.56-3.07a.39.39,0,0,1-.28-.12c-.45-.49-.91-1-1.38-1.43a.39.39,0,0,1,0-.53.38.38,0,0,1,.53,0c.48.47.94.95,1.4,1.45a.36.36,0,0,1,0,.53A.35.35,0,0,1,523.13,409.57Zm-2.84-2.82a.35.35,0,0,1-.25-.1c-.5-.45-1-.89-1.5-1.31a.39.39,0,0,1,0-.53.37.37,0,0,1,.53,0c.5.42,1,.87,1.51,1.33a.37.37,0,0,1,0,.53A.39.39,0,0,1,520.29,406.75Zm-3-2.59a.4.4,0,0,1-.23-.08c-.54-.43-1.07-.83-1.58-1.21a.38.38,0,0,1-.08-.53.37.37,0,0,1,.52-.08c.52.39,1.06.8,1.6,1.23a.38.38,0,0,1,.06.53A.37.37,0,0,1,517.24,404.16ZM514,401.77a.43.43,0,0,1-.22-.06l-1.65-1.12a.37.37,0,0,1-.11-.51.37.37,0,0,1,.52-.11c.52.33,1.08.71,1.67,1.12a.37.37,0,0,1,.09.52A.35.35,0,0,1,514,401.77Zm-3.36-2.18a.46.46,0,0,1-.2,0c-1.07-.65-1.71-1-1.72-1a.37.37,0,1,1,.35-.66s.66.35,1.76,1a.39.39,0,0,1,.13.52A.37.37,0,0,1,510.67,399.59Z" style="fill: rgb(38, 50, 56); transform-origin: 518.241px 406.688px;" id="elyvrjtbmmck" class="animable"></path><path d="M525.47,401.05a.36.36,0,0,1-.3-.15c-.12-.17-.24-.33-.37-.49a.37.37,0,1,1,.58-.47c.14.17.27.35.4.52a.37.37,0,0,1-.09.52A.36.36,0,0,1,525.47,401.05Zm-1.76-1.95a.39.39,0,0,1-.25-.1c-.45-.42-1-.85-1.51-1.28a.37.37,0,0,1-.06-.52.36.36,0,0,1,.52-.07c.57.44,1.1.89,1.56,1.32a.38.38,0,0,1,0,.53A.39.39,0,0,1,523.71,399.1Zm-3.15-2.47a.42.42,0,0,1-.21-.06c-.55-.37-1.11-.73-1.67-1.07a.37.37,0,1,1,.39-.64c.57.34,1.14.71,1.7,1.09a.37.37,0,0,1,.1.52A.36.36,0,0,1,520.56,396.63Zm-3.42-2.08a.41.41,0,0,1-.18-.05c-.61-.34-1.2-.65-1.76-.94a.38.38,0,0,1-.16-.5.36.36,0,0,1,.5-.16c.56.28,1.16.6,1.78.94a.37.37,0,0,1,.15.51A.38.38,0,0,1,517.14,394.55Zm-3.57-1.83-.16,0c-1.1-.52-1.81-.82-1.81-.82a.37.37,0,1,1,.29-.69s.72.3,1.84.83a.37.37,0,0,1,.18.5A.38.38,0,0,1,513.57,392.72Z" style="fill: rgb(38, 50, 56); transform-origin: 518.61px 396.115px;" id="el0djd6o9dnp66" class="animable"></path><path d="M467.85,374.94l6.53,7.8,34.45,5.62a15.22,15.22,0,0,1-2,7.07c-2,3.27-7.44,6.35-7.44,6.35l-5.07-10.52L451,387.09Z" style="fill: #16A348; transform-origin: 479.915px 388.36px;" id="elzh02mvcsf2" class="animable"></path><path d="M499.4,402.28l-.14,0A.51.51,0,0,1,499,402L494,391.73l-43.06-4.14a.49.49,0,0,1-.43-.37.48.48,0,0,1,.19-.53l16.86-12.15a.51.51,0,0,1,.68.08l6.4,7.66,34.27,5.59a.49.49,0,0,1,.42.49,15.61,15.61,0,0,1-2.06,7.34c-2,3.33-7.39,6.39-7.62,6.52A.51.51,0,0,1,499.4,402.28Zm-47-15.56,42,4a.49.49,0,0,1,.4.28l4.84,10c1.33-.81,5.22-3.32,6.79-5.9a14.69,14.69,0,0,0,1.91-6.39l-34-5.55a.44.44,0,0,1-.3-.17l-6.23-7.44Z" style="fill: rgb(38, 50, 56); transform-origin: 479.911px 388.363px;" id="ely3b5sy2yedd" class="animable"></path></g><g id="freepik--character-2--inject-16" class="animable" style="transform-origin: 306.976px 372.45px;"><path d="M304.39,355.08l-8.53,16.41s-18.79,4.92-23.84,6a22.14,22.14,0,0,1-8.48.41l-7.79-1.06s-7.72,4.52-8.18,4.76-.37,1.13.79,1.1a10,10,0,0,0,3.22-1.18s-3.65,2.07-3.37,2.65a1.42,1.42,0,0,0,1.95.56,29.92,29.92,0,0,1,4.1-1.28s-4.62,3.87-2.88,4.09,3.43-1.89,3.43-1.89-1.78,2.78-.55,2.48a16.76,16.76,0,0,0,3.64-2.07s5.84-.54,7.86-.78a9,9,0,0,0,3.68-1.44s13.27-.43,18.75-1.4,12.39-2.42,13.1-3.24,11.78-21.12,11.78-21.12Z" style="fill: rgb(255, 255, 255); transform-origin: 280.191px 371.616px;" id="elak15yhujorf" class="animable"></path><path d="M254.09,388.69a.75.75,0,0,1-.62-.3,1,1,0,0,1-.1-.81,3.34,3.34,0,0,1-2.05.5.87.87,0,0,1-.8-.6c-.2-.7.7-1.85,1.85-3a13.23,13.23,0,0,0-2,.69,1.91,1.91,0,0,1-1.53.17,1.89,1.89,0,0,1-1.13-.95c-.08-.19-.23-.5.47-1.18a1.36,1.36,0,0,1-1.38-.9,1,1,0,0,1,.5-1.14c.35-.19,5.49-3.19,8.15-4.75a.51.51,0,0,1,.32-.06l7.8,1.05a21.69,21.69,0,0,0,8.3-.4c4.69-1,21.5-5.43,23.61-6L304,354.85a.48.48,0,0,1,.61-.24l8.68,3a.51.51,0,0,1,.3.29.51.51,0,0,1,0,.42c-1.13,2.08-11.13,20.36-11.84,21.2-.92,1.08-8.79,2.6-13.39,3.42-5.21.92-17.15,1.35-18.68,1.4a9.47,9.47,0,0,1-3.78,1.43c-1.83.22-6.85.69-7.74.77a15.13,15.13,0,0,1-3.7,2.07A1.11,1.11,0,0,1,254.09,388.69Zm.72-3.5a.46.46,0,0,1,.29.1.48.48,0,0,1,.13.67,9.49,9.49,0,0,0-.84,1.64,17.32,17.32,0,0,0,3.21-1.91.58.58,0,0,1,.25-.09c.06,0,5.86-.54,7.85-.78a8.39,8.39,0,0,0,3.44-1.34.56.56,0,0,1,.28-.1c.13,0,13.3-.44,18.68-1.39,7.79-1.37,12.34-2.59,12.81-3.08.52-.64,7-12.42,11.44-20.51l-7.71-2.71-8.34,16a.51.51,0,0,1-.32.25c-.18,0-18.85,4.93-23.85,6a22.45,22.45,0,0,1-8.69.41l-7.59-1c-1.11.65-7.61,4.45-8,4.68a.6.6,0,0,0,.55.16,8.93,8.93,0,0,0,3-1.12.5.5,0,0,1,.68.19.5.5,0,0,1-.19.68,16.31,16.31,0,0,0-3.08,2.14,1,1,0,0,0,.44.28.86.86,0,0,0,.73-.08,29.26,29.26,0,0,1,4.23-1.33.5.5,0,0,1,.45.87,14.61,14.61,0,0,0-3.06,3.22c1.18.05,2.49-1.21,2.89-1.71A.51.51,0,0,1,254.81,385.19Zm41.05-13.7h0Z" style="fill: rgb(38, 50, 56); transform-origin: 280.201px 371.633px;" id="elw0f3lfdufse" class="animable"></path><path d="M251.83,384h-.05c-1,0-1.28-.52-1.37-.81a2,2,0,0,1,.87-2c.79-.6,6.55-3.1,7.2-3.38a.5.5,0,0,1,.66.26.51.51,0,0,1-.26.66c-2.43,1.05-6.48,2.86-7,3.26a1.14,1.14,0,0,0-.52.87c0,.05.14.12.44.12,1.13.06,4.85-1.11,6.2-1.55a.51.51,0,0,1,.51.12,3.76,3.76,0,0,0,4.5.6l2.85-1.61a.5.5,0,1,1,.49.87L263.51,383a4.75,4.75,0,0,1-5.48-.55A33.45,33.45,0,0,1,251.83,384Z" style="fill: rgb(38, 50, 56); transform-origin: 258.506px 380.884px;" id="el752eokp0btv" class="animable"></path><path d="M308.28,415.25l3.4,13.49s-5.17,3.54-6.55,4.29-6.44,2-7.7,2.53-2.14,1.76-.63,2.64,9.46,1.52,13,1.39,8.83-.76,8.83-.76,5.17,0,5.68-1.13.12-5.05-.89-6.31a19.88,19.88,0,0,1-3-5.55C320.13,424.58,319,417,319,417Z" style="fill: rgb(255, 255, 255); transform-origin: 310.269px 427.428px;" id="el2uytgphie8q" class="animable"></path><path d="M308.8,440.11c-3.8,0-10.7-.57-12.25-1.47a1.74,1.74,0,0,1-1-1.64,2.51,2.51,0,0,1,1.74-1.91c.5-.2,1.54-.51,2.74-.86a35.68,35.68,0,0,0,4.9-1.64c1.16-.63,5.12-3.31,6.22-4.06l-3.32-13.16a.52.52,0,0,1,.12-.46.5.5,0,0,1,.45-.15l10.72,1.76a.51.51,0,0,1,.41.42c0,.08,1.14,7.57,1.39,8.81a20.06,20.06,0,0,0,2.92,5.33c1.11,1.38,1.55,5.48.95,6.82s-4.48,1.43-6.13,1.43c0,0-5.3.63-8.81.76Zm.15-24.24,3.22,12.75a.51.51,0,0,1-.2.54c-.22.14-5.21,3.55-6.6,4.31a36,36,0,0,1-5.1,1.72c-1.13.33-2.19.64-2.65.83-.62.25-1.09.69-1.11,1.06s.28.54.54.69c1.3.76,8.92,1.46,12.72,1.32,3.47-.12,8.74-.75,8.79-.75,2.58,0,5.07-.41,5.28-.84.42-.94.1-4.65-.82-5.79a20.29,20.29,0,0,1-3.12-5.77c-.23-1.11-1.11-6.95-1.34-8.49Z" style="fill: rgb(38, 50, 56); transform-origin: 310.304px 427.431px;" id="el0ay6175ip4li" class="animable"></path><path d="M324.3,437.7c.5-1.14.12-5.05-.89-6.31-.2-.25-.44-.6-.69-1-2.94,1.33-9.14,1.6-9.14,1.6a19.88,19.88,0,0,1-.63-2.27c-.13-.75-1.27-1-1.27-1s-5.17,3.54-6.55,4.29-6.44,2-7.7,2.53-2.14,1.76-.63,2.64,9.46,1.52,13,1.39,8.83-.76,8.83-.76S323.79,438.83,324.3,437.7Z" style="fill: rgb(255, 255, 255); transform-origin: 310.261px 434.153px;" id="eloqpoixom69" class="animable"></path><path d="M308.8,440.11c-3.8,0-10.7-.57-12.25-1.47a1.74,1.74,0,0,1-1-1.64,2.51,2.51,0,0,1,1.74-1.91c.5-.2,1.54-.51,2.74-.86a37.11,37.11,0,0,0,4.9-1.64c1.35-.73,6.46-4.22,6.51-4.26a.5.5,0,0,1,.39-.07c.15,0,1.47.35,1.65,1.41a17.05,17.05,0,0,0,.49,1.83c1.38-.08,6.17-.45,8.58-1.54a.51.51,0,0,1,.62.18c.24.36.48.69.67.94,1.11,1.38,1.55,5.48.95,6.82s-4.48,1.43-6.13,1.43c0,0-5.3.63-8.81.76Zm3-10.82c-1,.66-5.15,3.5-6.4,4.18a36,36,0,0,1-5.1,1.72c-1.12.33-2.19.64-2.65.83-.62.25-1.09.69-1.11,1.06s.28.54.54.69c1.3.76,8.92,1.46,12.72,1.32,3.47-.12,8.74-.75,8.79-.75,2.58,0,5.07-.41,5.28-.84l.46.2-.46-.2c.42-.94.1-4.65-.82-5.79-.15-.19-.31-.42-.49-.67-3.1,1.21-8.69,1.47-8.93,1.48a.47.47,0,0,1-.5-.34,21.56,21.56,0,0,1-.65-2.34C312.41,429.59,312.05,429.39,311.77,429.29Z" style="fill: rgb(38, 50, 56); transform-origin: 310.304px 434.178px;" id="elx2p7qhva7fh" class="animable"></path><path d="M339.3,422.31l7.82,3.28a14.15,14.15,0,0,1-1.51,6.56c-1.64,2.9-2.65,5-4.54,6.05s-3.91,2.53-2.65,3.54,13.24.88,14.63.37,5.68-7.06,6.68-8.82,2.65-7.19,2-8-4.16-4.67-4.16-4.67l-1.13-.63-14.38-2Z" style="fill: rgb(255, 255, 255); transform-origin: 349.953px 430.244px;" id="els675e4zjqc9" class="animable"></path><path d="M346.31,443c-3.6,0-7.4-.23-8.2-.87a1.39,1.39,0,0,1-.58-1.24c.11-1.19,1.86-2.36,3.3-3.13s2.47-2.5,3.77-4.83l.57-1a13.38,13.38,0,0,0,1.45-6l-7.51-3.15a.46.46,0,0,1-.28-.31.48.48,0,0,1,.05-.42l2.78-4.29a.52.52,0,0,1,.49-.22l14.38,2a.58.58,0,0,1,.17.06l1.13.63a.41.41,0,0,1,.13.1c.15.16,3.55,3.92,4.18,4.68.92,1.11-1.09,7-2,8.51-.48.84-5.2,8.42-6.95,9.05A37.4,37.4,0,0,1,346.31,443Zm-6.26-20.92,7.27,3.05a.49.49,0,0,1,.3.44A14.51,14.51,0,0,1,346,432.4l-.57,1c-1.32,2.38-2.37,4.27-4.17,5.23-2,1.05-2.73,1.92-2.77,2.34,0,.05,0,.18.2.35,1,.8,12.63.86,14.15.3,1.07-.39,5.11-6.31,6.42-8.6,1-1.8,2.39-6.71,2.05-7.4-.56-.67-3.62-4.07-4.07-4.57l-1-.54-14-2Z" style="fill: rgb(38, 50, 56); transform-origin: 349.951px 430.276px;" id="el6ntrdctvkoh" class="animable"></path><path d="M361.75,425.34c-.63-.76-4.16-4.67-4.16-4.67l-1.13-.63h-.09c0,1,0,2.07,0,2.91,0,2.15-2.65,4.67-2.65,4.67a21.65,21.65,0,0,0-4.67-2.4c-2.52-.88-1.89.38-1.89.38a14.15,14.15,0,0,1-1.51,6.56c-1.64,2.9-2.65,5-4.54,6.05s-3.91,2.53-2.65,3.54,13.24.88,14.63.37,5.68-7.06,6.68-8.82S362.38,426.1,361.75,425.34Z" style="fill: rgb(255, 255, 255); transform-origin: 349.98px 431.274px;" id="elja45ozuwc6" class="animable"></path><path d="M346.31,443c-3.6,0-7.4-.23-8.2-.87a1.39,1.39,0,0,1-.58-1.24c.12-1.19,1.86-2.36,3.3-3.13s2.47-2.5,3.77-4.83l.57-1a13.43,13.43,0,0,0,1.45-6.2,1,1,0,0,1,.14-1c.39-.44,1.13-.44,2.42,0a22.53,22.53,0,0,1,4.44,2.22c.65-.69,2.21-2.5,2.21-4,0-.84,0-1.92,0-2.92a.53.53,0,0,1,.18-.37.5.5,0,0,1,.39-.11.84.84,0,0,1,.26.07l1.13.63a.41.41,0,0,1,.13.1c.15.16,3.55,3.92,4.18,4.68.92,1.11-1.09,7-2,8.51-.48.84-5.2,8.42-6.95,9.05A37.4,37.4,0,0,1,346.31,443Zm1.28-17.6a.61.61,0,0,1,0,.17A14.51,14.51,0,0,1,346,432.4l-.57,1c-1.32,2.38-2.37,4.27-4.17,5.23-2,1.05-2.73,1.92-2.77,2.34,0,.05,0,.18.2.35,1,.8,12.63.86,14.15.3,1.07-.39,5.11-6.31,6.42-8.6,1-1.79,2.38-6.67,2.06-7.39-.6-.72-3.63-4.08-4.08-4.58l-.42-.23c0,.74,0,1.49,0,2.1,0,2.34-2.69,4.92-2.8,5a.5.5,0,0,1-.64,0,20.56,20.56,0,0,0-4.54-2.33A3.86,3.86,0,0,0,347.59,425.4Zm13.78.26Zm0,0Z" style="fill: rgb(38, 50, 56); transform-origin: 349.931px 431.282px;" id="eliwxdk0q7zyj" class="animable"></path><path d="M331.74,388.39l-.76,2.27s-9.71-7.32-19.42-10.72-17-4.16-19.8-.51-1,11.23,1.76,15,9.71,21.82,9.71,21.82l4.17.25,4.28,3.53s13,3,14.51,3.66,9.83,4.79,9.83,4.79a54.32,54.32,0,0,0,5.05-4.92,39.49,39.49,0,0,0,2.77-5l14.76,1.64s6.94-5.3,7.82-13.37-.63-13.62-1.51-15-2.78-4.41-2.78-4.41l-1.51-1.89Z" style="fill: rgb(38, 50, 56); transform-origin: 328.52px 402.75px;" id="ell7uy9wyeyao" class="animable"></path><path d="M336,429a.59.59,0,0,1-.22-.05c-.08,0-8.32-4.16-9.8-4.78-1.17-.48-9.95-2.59-14.43-3.63a.54.54,0,0,1-.2-.1L307.2,417l-4-.24a.5.5,0,0,1-.43-.32c-.07-.18-6.95-18-9.65-21.7s-4.77-11.65-1.76-15.61c2.74-3.62,9.4-3.51,20.36.34,8.35,2.92,16.79,8.78,19,10.38l.54-1.62a.5.5,0,0,1,.43-.34l28.88-2.9a.5.5,0,0,1,.44.18l1.51,1.9s1.92,3.07,2.81,4.45,2.49,7.06,1.59,15.34-7.73,13.48-8,13.71a.56.56,0,0,1-.36.1l-14.4-1.6a34.74,34.74,0,0,1-2.67,4.8,53.42,53.42,0,0,1-5.12,5A.5.5,0,0,1,336,429Zm-24.11-9.41c1.37.32,13,3,14.47,3.66s8,3.89,9.57,4.65a49.44,49.44,0,0,0,4.72-4.62,39.65,39.65,0,0,0,2.72-4.95.5.5,0,0,1,.51-.29l14.55,1.62c1-.83,6.7-5.8,7.47-12.9.87-7.94-.62-13.41-1.44-14.69s-2.77-4.42-2.77-4.42L360.4,386l-28.29,2.84-.66,2a.47.47,0,0,1-.32.31.52.52,0,0,1-.45-.07c-.1-.08-9.76-7.31-19.29-10.65-10.35-3.63-16.82-3.86-19.23-.68s-1.06,10.56,1.77,14.41c2.61,3.57,8.71,19.19,9.65,21.64l3.85.23a.5.5,0,0,1,.28.12Z" style="fill: rgb(38, 50, 56); transform-origin: 328.531px 402.749px;" id="el7sx627efc9n" class="animable"></path><path d="M359,407.05a.49.49,0,0,1-.28-.09,34.17,34.17,0,0,0-3.39-2,.5.5,0,0,1-.22-.67.49.49,0,0,1,.67-.22,36.39,36.39,0,0,1,3.5,2,.5.5,0,0,1,.13.7A.49.49,0,0,1,359,407.05Z" style="fill: rgb(255, 255, 255); transform-origin: 357.278px 405.532px;" id="elqlvokzg5k5" class="animable"></path><path d="M306.13,414.87a.52.52,0,0,1-.39-.19c-.15-.19-3.71-4.71-1.81-8.36,2-3.82,23.31-7.82,35.67-6.7a42.4,42.4,0,0,1,14.23,3.55.5.5,0,1,1-.4.91,42.3,42.3,0,0,0-13.89-3.46c-12.43-1.14-33.1,3-34.73,6.16s1.68,7.23,1.72,7.27a.52.52,0,0,1-.08.71A.56.56,0,0,1,306.13,414.87Z" style="fill: rgb(255, 255, 255); transform-origin: 328.777px 407.149px;" id="el5cw4ho5ee8b" class="animable"></path><path d="M358.1,400.49H358a90.53,90.53,0,0,0-16.42-.75.49.49,0,0,1-.53-.47.52.52,0,0,1,.47-.53,90.75,90.75,0,0,1,16.63.77.5.5,0,0,1-.07,1Z" style="fill: rgb(255, 255, 255); transform-origin: 349.833px 399.578px;" id="elcbxgv4d3dhe" class="animable"></path><path d="M337.29,397.84a.5.5,0,0,1-.45-.27c-1.08-2.15-5.13-5.48-5.17-5.52a.5.5,0,1,1,.64-.77c.17.14,4.25,3.5,5.42,5.84a.49.49,0,0,1-.22.67A.44.44,0,0,1,337.29,397.84Z" style="fill: rgb(38, 50, 56); transform-origin: 334.638px 394.502px;" id="elk46ir6kzmk" class="animable"></path><path d="M314.71,402.38a.53.53,0,0,1-.4-.19c-3.19-4.18-16.53-13.68-16.66-13.77a.5.5,0,0,1,.58-.82c.55.39,13.59,9.68,16.88,14a.5.5,0,0,1-.1.7A.47.47,0,0,1,314.71,402.38Z" style="fill: rgb(255, 255, 255); transform-origin: 306.324px 394.945px;" id="elq78imsdo8sq" class="animable"></path><path d="M343.84,419a.46.46,0,0,1-.2,0c-.09,0-9.09-4.15-13.9-5.13-1.71-.35-2.94-.51-3.92-.63a13.8,13.8,0,0,1-5.41-1.56.5.5,0,1,1,.45-.89,12.79,12.79,0,0,0,5.08,1.46c1,.12,2.25.28,4,.64,4.91,1,13.73,5,14.1,5.21a.5.5,0,0,1,.25.66A.52.52,0,0,1,343.84,419Z" style="fill: rgb(255, 255, 255); transform-origin: 332.218px 414.865px;" id="eliww2f0te9dm" class="animable"></path><path d="M316.78,414.05c-1,0-1.78-.06-1.86-.07a.5.5,0,1,1,.08-1c.05,0,4.57.35,6.95-.72a.5.5,0,0,1,.41.91A15,15,0,0,1,316.78,414.05Z" style="fill: rgb(255, 255, 255); transform-origin: 318.543px 413.143px;" id="el56lg66ryuno" class="animable"></path><path d="M318.87,334s-6.61,4.5-8,7.78-6.48,13.27-6.48,13.27l8.93,4.8s8.71,14.89,10.85,19.68a13.42,13.42,0,0,0,6.31,6.56s.75,1.76,2,2,28.13-2.65,28.13-2.65a38.14,38.14,0,0,0-1.26-5.3c-.76-2.14-4.42-6.94-5.05-9.71s-2.65-17.66-6.18-24.09-11.6-12-13-13.37-.75-1.26-2.14-1.76S323.92,330.75,318.87,334Z" style="fill: rgb(255, 255, 255); transform-origin: 332.5px 359.54px;" id="eln0kbxqyogxj" class="animable"></path><path d="M332.74,388.64a1.39,1.39,0,0,1-.34,0,3.85,3.85,0,0,1-2.3-2.12,14,14,0,0,1-6.39-6.74c-2-4.48-9.91-18.07-10.75-19.5l-8.8-4.74a.5.5,0,0,1-.21-.67c.05-.1,5.1-10,6.46-13.24s7.91-7.81,8.18-8h0c5.08-3.3,13-3.4,14.57-2.82,1,.35,1.09.45,1.48.93a10,10,0,0,0,.85.95c.27.28.88.77,1.66,1.4,3,2.42,8.59,6.94,11.41,12.08s4.71,15.72,5.7,21.35c.23,1.31.41,2.33.53,2.87a25.27,25.27,0,0,0,2.95,5.82,26.32,26.32,0,0,1,2.08,3.83,37.7,37.7,0,0,1,1.28,5.39.52.52,0,0,1-.09.38.49.49,0,0,1-.35.19C356.4,386.45,335.87,388.64,332.74,388.64Zm-27.68-33.77,8.5,4.57a.61.61,0,0,1,.2.19c.35.61,8.74,15,10.87,19.72a13,13,0,0,0,6,6.31.53.53,0,0,1,.27.26c.18.42.83,1.56,1.65,1.72,1,.16,16.77-1.44,27.44-2.59a32,32,0,0,0-1.15-4.69,24.92,24.92,0,0,0-2-3.65,25.68,25.68,0,0,1-3.07-6.12c-.12-.56-.3-1.6-.54-2.91-.9-5.18-2.79-16-5.59-21.05s-8.21-9.4-11.16-11.79c-.83-.67-1.43-1.15-1.74-1.46a11.43,11.43,0,0,1-.93-1c-.25-.32-.26-.33-1-.61-1.31-.48-8.85-.42-13.68,2.72-.19.13-6.52,4.48-7.82,7.55C310.1,344.91,306.07,352.89,305.06,354.87Z" style="fill: rgb(38, 50, 56); transform-origin: 332.5px 359.594px;" id="elgeu7u4xry46" class="animable"></path><path d="M354.87,386h-.11c-1.91-.4-14-1.52-19.13-2a.5.5,0,0,1-.45-.54.51.51,0,0,1,.54-.45c6.38.57,17.36,1.59,19.25,2a.5.5,0,0,1-.1,1Z" style="fill: rgb(38, 50, 56); transform-origin: 345.299px 384.511px;" id="el74chhln6fd4" class="animable"></path><path d="M334.21,383.89h0l-2.1-.18a.51.51,0,0,1-.46-.54.5.5,0,0,1,.54-.46l2.1.19a.5.5,0,0,1,0,1Z" style="fill: rgb(38, 50, 56); transform-origin: 333.219px 383.304px;" id="elxa4toh54ywm" class="animable"></path><path d="M357,384.66l-.11,0-2.38-.52a.52.52,0,0,1-.39-.6.5.5,0,0,1,.6-.38l2.39.53a.49.49,0,0,1,.38.59A.5.5,0,0,1,357,384.66Z" style="fill: rgb(38, 50, 56); transform-origin: 355.807px 383.904px;" id="el5dp8qdbcbge" class="animable"></path><path d="M351.25,383.39h-.11l-9.66-2.12a.5.5,0,0,1,.22-1l9.65,2.12a.5.5,0,0,1-.1,1Z" style="fill: rgb(38, 50, 56); transform-origin: 346.439px 381.825px;" id="elryezx0pdq7" class="animable"></path><path d="M350.67,368.27l-.13,0c-.52-.14-1.58-.51-3.17-1.1a.5.5,0,0,1,.35-.94c1.56.58,2.59.94,3.08,1.07a.52.52,0,0,1,.35.62A.5.5,0,0,1,350.67,368.27Z" style="fill: rgb(38, 50, 56); transform-origin: 349.105px 367.235px;" id="el8antxln1l2s" class="animable"></path><path d="M345.42,366.37a.57.57,0,0,1-.18,0c-3.45-1.33-7.22-2.85-7.22-2.85a.5.5,0,0,1-.28-.65.5.5,0,0,1,.65-.28s3.77,1.52,7.21,2.85a.49.49,0,0,1,.29.64A.51.51,0,0,1,345.42,366.37Z" style="fill: rgb(38, 50, 56); transform-origin: 341.814px 364.466px;" id="elwmeqotgj9sg" class="animable"></path><path d="M304.24,311a39.29,39.29,0,0,0-1,5.05c-.5,3.4,1.39,4.54,1.77,6.68s-2.14,5.17-2,6.05,2.4.89,2.4.89,4.46,7.82,5.72,7.95,5.5-3.54,5.5-3.54l4.79,5.3s-.5,4.16.64,3.65a19.12,19.12,0,0,0,5.67-5,24,24,0,0,1,5.3-4.67s-3.16-4-3.79-6.43,2-.5,2.53-6.3-1.77-11.48-5.8-14.63-11.86-4.54-17.41-1.52S303.86,309.94,304.24,311Z" style="fill: rgb(255, 255, 255); transform-origin: 318.017px 322.937px;" id="elcvhtlx9srua" class="animable"></path><path d="M321.85,343.53a.81.81,0,0,1-.48-.16c-.73-.54-.64-2.57-.5-3.87l-4.31-4.77c-1.33,1.11-4.27,3.48-5.51,3.33s-4.23-4.92-6-7.95c-.82,0-2.44-.24-2.59-1.31a4.3,4.3,0,0,1,.76-2.1c.62-1.17,1.46-2.78,1.26-3.93a6.69,6.69,0,0,0-.78-1.95,7.19,7.19,0,0,1-1-4.9,41,41,0,0,1,1-4.95c-.58-1.68-.62-4.18,4.57-7,5.81-3.16,13.84-1.65,17.95,1.56s6.51,9.16,6,15.07c-.31,3.57-1.42,4.44-2.16,5-.46.36-.55.43-.37,1.12.6,2.27,3.66,6.22,3.69,6.26a.46.46,0,0,1,.1.39.51.51,0,0,1-.23.34,23.52,23.52,0,0,0-5.17,4.56c-2.49,3-4.66,4.65-5.86,5.18A.92.92,0,0,1,321.85,343.53Zm-5.25-10a.52.52,0,0,1,.37.16l4.8,5.3a.52.52,0,0,1,.12.4,9,9,0,0,0,0,3.09,19.14,19.14,0,0,0,5.4-4.86,24.34,24.34,0,0,1,4.95-4.47c-.84-1.13-3-4.16-3.54-6.18a1.73,1.73,0,0,1,.72-2.17c.64-.49,1.52-1.17,1.79-4.31.48-5.58-1.72-11.15-5.61-14.19s-11.41-4.44-16.86-1.47c-5.22,2.85-4.38,5.1-4.06,5.95a.5.5,0,0,1,0,.32,39,39,0,0,0-1,5,6.17,6.17,0,0,0,.89,4.29,7.74,7.74,0,0,1,.87,2.23c.26,1.49-.63,3.2-1.35,4.57a6.56,6.56,0,0,0-.66,1.51c0,.17.88.45,1.9.45a.48.48,0,0,1,.43.25c2,3.54,4.64,7.49,5.36,7.7s3.14-1.72,5.11-3.42A.49.49,0,0,1,316.6,333.53Z" style="fill: rgb(38, 50, 56); transform-origin: 317.975px 322.879px;" id="elluba7gljf2" class="animable"></path><path d="M325.94,305.91c-4-3.16-11.86-4.54-17.41-1.52s-4.67,5.55-4.29,6.56a19.76,19.76,0,0,0,4.54,1.89c1.9.38,5.05-1.13,5.17,2.53s4.29,7.31,5.93,5.29,4.16-2.14,4.79.13-1.13,3.91-.12,5,4.16.13,4.16.13l.44,0c.22-1.13,2.16-.57,2.59-5.45C332.24,314.73,330,309.06,325.94,305.91Z" style="fill: rgb(38, 50, 56); transform-origin: 317.879px 314.51px;" id="el8jj1pyo57nk" class="animable"></path><path d="M326.25,326.87a2.76,2.76,0,0,1-2.08-.7c-.69-.78-.43-1.71-.17-2.6a4.61,4.61,0,0,0,.19-2.65,1.59,1.59,0,0,0-1.19-1.27,3,3,0,0,0-2.73,1.33,2.16,2.16,0,0,1-2.51.6,7.36,7.36,0,0,1-4.31-6.2,2.23,2.23,0,0,0-.54-1.64,3.38,3.38,0,0,0-2.4-.36,7.31,7.31,0,0,1-1.82-.05,20.07,20.07,0,0,1-4.69-1.94.47.47,0,0,1-.22-.26c-.63-1.68-.85-4.25,4.51-7.18,5.81-3.16,13.84-1.65,17.95,1.56h0c4.16,3.25,6.51,9.16,6,15.07-.31,3.57-1.42,4.44-2.16,5-.29.23-.4.33-.43.49a.51.51,0,0,1-.52.4l-.35,0A9.41,9.41,0,0,1,326.25,326.87Zm-3.6-8.25a2.5,2.5,0,0,1,.55.05,2.59,2.59,0,0,1,2,2,5.67,5.67,0,0,1-.2,3.2c-.24.84-.35,1.3,0,1.65.6.67,2.71.28,3.64,0a.55.55,0,0,1,.18,0h.08a2.47,2.47,0,0,1,.64-.65c.63-.5,1.51-1.18,1.78-4.32.48-5.58-1.72-11.15-5.61-14.19h0c-3.87-3-11.41-4.44-16.86-1.47-4.9,2.67-4.46,4.82-4.12,5.77a17.77,17.77,0,0,0,4.23,1.75,6.78,6.78,0,0,0,1.58,0,4.18,4.18,0,0,1,3.13.62,3.17,3.17,0,0,1,.86,2.35,6.43,6.43,0,0,0,3.63,5.28,1.18,1.18,0,0,0,1.41-.28A4.27,4.27,0,0,1,322.65,318.62Z" style="fill: rgb(38, 50, 56); transform-origin: 317.885px 314.544px;" id="el5vj0ia388fj" class="animable"></path><path d="M337.54,308.81a6.5,6.5,0,1,1-6.5-6.43A6.47,6.47,0,0,1,337.54,308.81Z" style="fill: rgb(38, 50, 56); transform-origin: 331.04px 308.88px;" id="elufyw63sahkh" class="animable"></path><path d="M331,315.74a6.93,6.93,0,1,1,7-6.93A7,7,0,0,1,331,315.74Zm0-12.86a5.93,5.93,0,1,0,6,5.93A6,6,0,0,0,331,302.88Z" style="fill: rgb(38, 50, 56); transform-origin: 331.07px 308.81px;" id="el3lbflwt79os" class="animable"></path><path d="M308.49,323.89c.25.68.17,1.34-.18,1.48s-.86-.31-1.12-1-.18-1.35.18-1.49S308.23,323.2,308.49,323.89Z" style="fill: rgb(38, 50, 56); transform-origin: 307.836px 324.125px;" id="el9ak14t8f2z" class="animable"></path><path d="M308.15,332.51a.5.5,0,0,1-.15-1,3,3,0,0,0,1.82-1.94.49.49,0,0,1,.61-.34.51.51,0,0,1,.35.62,4,4,0,0,1-2.48,2.61A.39.39,0,0,1,308.15,332.51Z" style="fill: rgb(38, 50, 56); transform-origin: 309.183px 330.863px;" id="els47k3jbr8xj" class="animable"></path><path d="M308.78,322.55a.5.5,0,0,1-.35-.15A1.89,1.89,0,0,0,306,322a.5.5,0,0,1-.55-.83,2.89,2.89,0,0,1,3.66.57.5.5,0,0,1,0,.7A.51.51,0,0,1,308.78,322.55Z" style="fill: rgb(38, 50, 56); transform-origin: 307.258px 321.654px;" id="elz0esoci4m5e" class="animable"></path><path d="M321.4,327h-1.14a.5.5,0,0,1-.5-.5.5.5,0,0,1,.5-.5h1.14c.61,0,1.76-1.07,2.38-1.83a.5.5,0,0,1,.78.63C324.26,325.13,322.7,327,321.4,327Z" style="fill: rgb(38, 50, 56); transform-origin: 322.216px 325.492px;" id="elhmmaw5k9nq5" class="animable"></path><path d="M334.33,340.32s-4.91,2.23-6.51,3.65S317,353.35,317,353.35l18.12,11.57,12.63-9.43" style="fill: rgb(255, 255, 255); transform-origin: 332.375px 352.62px;" id="elngr2tqgtoie" class="animable"></path><path d="M335.11,365.42a.5.5,0,0,1-.27-.08l-18.12-11.57a.47.47,0,0,1-.23-.38.52.52,0,0,1,.17-.42c.09-.08,9.25-8,10.82-9.37s6.44-3.65,6.64-3.74a.5.5,0,0,1,.66.25.49.49,0,0,1-.25.66s-4.85,2.22-6.38,3.58c-1.37,1.22-8.37,7.25-10.33,8.94l17.26,11,12.36-9.22a.5.5,0,1,1,.6.8l-12.64,9.43A.51.51,0,0,1,335.11,365.42Z" style="fill: rgb(38, 50, 56); transform-origin: 332.365px 352.618px;" id="elu3v7xhgy3bf" class="animable"></path><path d="M317,353.35l-15.5,6.22S292,360.7,283.41,361s-16.8.31-17.62.12-8.63-4.53-9.33-4.74-7.51,2.21-7.51,2.21-1.09,3.51-.95,4.12,1.35.19,1.35.19a12.06,12.06,0,0,0,.9,2.64c.36.43,1,1.84,1.61,1.3a28,28,0,0,0,2.44-3.32,62.39,62.39,0,0,0,6,2.18c1.65.38,10.85,1.39,13,1.65s27.11,3.16,27.75,2.61,25-10.87,25-10.87Z" style="fill: rgb(255, 255, 255); transform-origin: 287.019px 361.69px;" id="elivamjd65pld" class="animable"></path><path d="M300.2,370.46c-5.25,0-26.75-2.6-27-2.63l-2-.24c-3.61-.42-9.66-1.11-11-1.42a55.06,55.06,0,0,1-5.68-2.05,22.66,22.66,0,0,1-2.31,3.08.93.93,0,0,1-.76.23c-.58-.09-1-.72-1.31-1.22a4,4,0,0,0-.24-.37,8.21,8.21,0,0,1-.88-2.35,1.67,1.67,0,0,1-1-.11.85.85,0,0,1-.44-.57c-.16-.65.53-3,.95-4.39a.49.49,0,0,1,.31-.32c3.18-1.14,7.11-2.44,7.83-2.22.34.1,1.65.8,3.94,2,2,1.05,4.93,2.62,5.35,2.72.73.17,8.7.15,17.49-.13,8.13-.26,17.13-1.29,18-1.4l15.43-6.19a.48.48,0,0,1,.45,0l9.05,5.72a.53.53,0,0,1,.23.46.5.5,0,0,1-.3.42c-9.6,4.07-24.15,10.3-24.9,10.81A2.84,2.84,0,0,1,300.2,370.46ZM254.3,363a.43.43,0,0,1,.19,0s4.31,1.79,5.9,2.15c1.29.3,7.54,1,10.89,1.41l2.05.23c4.49.55,25.86,3,27.48,2.66,1.57-.91,17.8-7.81,24.15-10.51l-8-5.07L301.68,360a.5.5,0,0,1-.13,0c-.09,0-9.58,1.13-18.13,1.41-8.37.27-16.83.32-17.74.11a57.45,57.45,0,0,1-5.6-2.81c-1.64-.87-3.49-1.86-3.77-1.95a47.82,47.82,0,0,0-7,2.12,19.4,19.4,0,0,0-.86,3.63s.42-.07.69-.17a.53.53,0,0,1,.41,0,.51.51,0,0,1,.24.32,12.06,12.06,0,0,0,.8,2.44,5.08,5.08,0,0,1,.33.47c.13.21.46.72.62.77a33.06,33.06,0,0,0,2.3-3.21A.48.48,0,0,1,254.3,363Zm47.19-3.43h0Z" style="fill: rgb(38, 50, 56); transform-origin: 287.083px 361.646px;" id="el5xqmboe27aj" class="animable"></path><path d="M249.35,363.38a.53.53,0,0,1-.24-.06.49.49,0,0,1-.2-.67l1.52-2.84a.51.51,0,0,1,.25-.23l3.19-1.29a.5.5,0,0,1,.38.93l-3,1.22-1.43,2.68A.49.49,0,0,1,249.35,363.38Z" style="fill: rgb(38, 50, 56); transform-origin: 251.704px 360.817px;" id="elvmj9hm09l4" class="animable"></path><path d="M250.25,366a.43.43,0,0,1-.19,0,.51.51,0,0,1-.28-.65l1.37-3.44a.49.49,0,0,1,.16-.21l2.95-2.28a.51.51,0,0,1,.62.8L252,362.38l-1.32,3.32A.49.49,0,0,1,250.25,366Z" style="fill: rgb(38, 50, 56); transform-origin: 252.389px 362.68px;" id="el6atax4jr3k3" class="animable"></path><path d="M251.86,367.32h-.1a.51.51,0,0,1-.39-.59l.7-3.54a.5.5,0,0,1,.16-.28l2.89-2.52a.5.5,0,0,1,.71,0,.51.51,0,0,1-.05.71L253,363.54l-.67,3.37A.51.51,0,0,1,251.86,367.32Z" style="fill: rgb(38, 50, 56); transform-origin: 253.656px 363.781px;" id="elluxh598lqe" class="animable"></path></g><g id="freepik--Plants--inject-16" class="animable" style="transform-origin: 441.16px 391.635px;"><path d="M538.73,437.34a.5.5,0,0,1-.5-.5V360a.5.5,0,0,1,.5-.5.5.5,0,0,1,.5.5v76.88A.5.5,0,0,1,538.73,437.34Z" style="fill: rgb(38, 50, 56); transform-origin: 538.73px 398.42px;" id="elhex4jojupg" class="animable"></path><path d="M539.25,412.3a.46.46,0,0,1-.33-.13.5.5,0,0,1,0-.71L560.37,388a.5.5,0,0,1,.73.67l-21.48,23.48A.49.49,0,0,1,539.25,412.3Z" style="fill: rgb(38, 50, 56); transform-origin: 549.981px 400.093px;" id="eltvlmvll6fum" class="animable"></path><path d="M538.59,389.71a.47.47,0,0,1-.35-.14l-14.39-13.73a.49.49,0,0,1,0-.7.5.5,0,0,1,.71,0l14.39,13.73a.5.5,0,0,1-.34.86Z" style="fill: rgb(38, 50, 56); transform-origin: 531.403px 382.361px;" id="el5jljh6lj47q" class="animable"></path><path d="M551,399.68h0a.52.52,0,0,1-.46-.54L551.6,385a.48.48,0,0,1,.54-.46.5.5,0,0,1,.46.53l-1.11,14.18A.5.5,0,0,1,551,399.68Z" style="fill: rgb(38, 50, 56); transform-origin: 551.57px 392.108px;" id="elliitz3xtpgn" class="animable"></path><path d="M538.81,426.25a.54.54,0,0,1-.25-.06l-16.39-9.53a.5.5,0,0,1,.5-.86l16.39,9.52a.5.5,0,0,1,.18.68A.48.48,0,0,1,538.81,426.25Z" style="fill: rgb(38, 50, 56); transform-origin: 530.635px 421.003px;" id="el8e1bsrqzwwi" class="animable"></path><path d="M519.1,384a.5.5,0,0,1-.5-.48.51.51,0,0,1,.48-.52l13.07-.44a.5.5,0,1,1,0,1l-13.06.44Z" style="fill: rgb(38, 50, 56); transform-origin: 525.625px 383.28px;" id="elfniggmpksvq" class="animable"></path><path d="M542.31,353.32c0,4.52-3.74,8.19-3.74,8.19s-3.73-3.67-3.73-8.19,3.73-8.19,3.73-8.19S542.31,348.79,542.31,353.32Z" style="fill: #16A348; transform-origin: 538.575px 353.32px;" id="el6t9nslf1e2i" class="animable"></path><path d="M522.81,369c3.53,2.83,4.06,8,4.06,8s-5.2.63-8.73-2.2-4.06-8-4.06-8S519.28,366.21,522.81,369Z" style="fill: #16A348; transform-origin: 520.475px 371.904px;" id="elnzbkbzqut27" class="animable"></path><path d="M516.75,379.57c4.52,0,8.16,3.79,8.16,3.79s-3.69,3.71-8.21,3.68-8.17-3.79-8.17-3.79S512.22,379.54,516.75,379.57Z" style="fill: #16A348; transform-origin: 516.72px 383.305px;" id="elw6q1fqr1ck" class="animable"></path><path d="M556.24,384.63c-.47,4.5-4.56,7.76-4.56,7.76s-3.34-4-2.88-8.53,4.55-7.76,4.55-7.76S556.7,380.13,556.24,384.63Z" style="fill: #16A348; transform-origin: 552.52px 384.245px;" id="elpedt6ctsz2e" class="animable"></path><path d="M531.56,407.62c2.3,3.89,7.38,5.15,7.38,5.15s1.35-5.06-1-9-7.38-5.15-7.38-5.15S529.26,403.72,531.56,407.62Z" style="fill: #16A348; transform-origin: 534.76px 405.695px;" id="elepilgc5xro9" class="animable"></path><path d="M546.17,384.77c-2.3,3.89-7.38,5.15-7.38,5.15s-1.35-5.06,1-9,7.38-5.15,7.38-5.15S548.47,380.87,546.17,384.77Z" style="fill: #16A348; transform-origin: 542.97px 382.845px;" id="eldag0nph8cjw" class="animable"></path><path d="M521.94,410.4c3.71,2.59,4.59,7.75,4.59,7.75s-5.14,1-8.86-1.61-4.59-7.74-4.59-7.74S518.22,407.82,521.94,410.4Z" style="fill: #16A348; transform-origin: 519.805px 413.478px;" id="elbmhweopla89" class="animable"></path><path d="M567.24,386.6c-3,3.37-8.24,3.63-8.24,3.63s-.35-5.23,2.66-8.61S569.9,378,569.9,378,570.25,383.22,567.24,386.6Z" style="fill: #16A348; transform-origin: 564.45px 384.115px;" id="el7mzdzv1lnne" class="animable"></path><path d="M516.92,437.74s16.25-6.5,22.75-6.5,21.93,6.9,21.93,6.9Z" style="fill: rgb(38, 50, 56); transform-origin: 539.26px 434.69px;" id="el7d9s0ndndhp" class="animable"></path><path d="M634,437.34a.5.5,0,0,1-.5-.5V360a.5.5,0,0,1,.5-.5.5.5,0,0,1,.5.5v76.88A.5.5,0,0,1,634,437.34Z" style="fill: rgb(38, 50, 56); transform-origin: 634px 398.42px;" id="elt5crfjkmq1" class="animable"></path><path d="M633.47,430a.52.52,0,0,1-.37-.16l-21.48-23.48a.5.5,0,1,1,.74-.67l21.48,23.47a.51.51,0,0,1,0,.71A.5.5,0,0,1,633.47,430Z" style="fill: rgb(38, 50, 56); transform-origin: 622.727px 417.752px;" id="elskegvqt6dd" class="animable"></path><path d="M634.13,389.71a.5.5,0,0,1-.34-.86l14.39-13.73a.5.5,0,0,1,.71,0,.49.49,0,0,1,0,.7l-14.39,13.73A.47.47,0,0,1,634.13,389.71Z" style="fill: rgb(38, 50, 56); transform-origin: 641.337px 382.341px;" id="elkjl6zu12el8" class="animable"></path><path d="M621.73,417.4a.5.5,0,0,1-.5-.47l-1.1-14.17a.5.5,0,0,1,.45-.54.51.51,0,0,1,.54.46l1.11,14.18a.49.49,0,0,1-.46.53Z" style="fill: rgb(38, 50, 56); transform-origin: 621.18px 409.809px;" id="elquefe9ygea9" class="animable"></path><path d="M633.91,426.25a.48.48,0,0,1-.43-.25.5.5,0,0,1,.18-.68l16.39-9.52a.5.5,0,1,1,.5.86l-16.39,9.53A.54.54,0,0,1,633.91,426.25Z" style="fill: rgb(38, 50, 56); transform-origin: 642.129px 420.977px;" id="el3ty12yfk671" class="animable"></path><path d="M653.62,384h0l-13.06-.44a.51.51,0,0,1-.49-.51.53.53,0,0,1,.52-.49l13.07.44a.51.51,0,0,1,.48.52A.5.5,0,0,1,653.62,384Z" style="fill: rgb(38, 50, 56); transform-origin: 647.105px 383.28px;" id="elq9umsun3el8" class="animable"></path><path d="M630.41,367c0,4.53,3.74,8.19,3.74,8.19s3.73-3.66,3.73-8.19-3.73-8.19-3.73-8.19S630.41,362.5,630.41,367Z" style="fill: #16A348; transform-origin: 634.145px 367px;" id="elbg179oe4h9u" class="animable"></path><path d="M649.91,369c-3.53,2.83-4.06,8-4.06,8s5.2.63,8.73-2.2,4.06-8,4.06-8S653.44,366.21,649.91,369Z" style="fill: #16A348; transform-origin: 652.245px 371.904px;" id="elhsowfm85w2t" class="animable"></path><path d="M656,379.57c-4.52,0-8.16,3.79-8.16,3.79s3.69,3.71,8.22,3.68,8.16-3.79,8.16-3.79S660.5,379.54,656,379.57Z" style="fill: #16A348; transform-origin: 656.03px 383.305px;" id="el4r3uitl83xb" class="animable"></path><path d="M634.34,395.14A.49.49,0,0,1,634,395l-14.4-13.73a.5.5,0,0,1,.69-.72l14.4,13.73a.49.49,0,0,1,0,.7A.48.48,0,0,1,634.34,395.14Z" style="fill: rgb(38, 50, 56); transform-origin: 627.154px 387.788px;" id="elps2eyohdf9r" class="animable"></path><path d="M614.85,389.38a.5.5,0,0,1-.5-.48.5.5,0,0,1,.49-.52l13.06-.44a.49.49,0,0,1,.52.48.5.5,0,0,1-.48.52l-13.07.44Z" style="fill: rgb(38, 50, 56); transform-origin: 621.385px 388.66px;" id="elcepl4q2czyt" class="animable"></path><path d="M618.56,374.46c3.53,2.83,4.06,8,4.06,8s-5.2.63-8.73-2.2-4-8-4-8S615,371.64,618.56,374.46Z" style="fill: #16A348; transform-origin: 616.255px 377.361px;" id="el4nyhgx4o3f4" class="animable"></path><path d="M612.5,385c4.52,0,8.16,3.79,8.16,3.79s-3.69,3.71-8.21,3.68-8.17-3.79-8.17-3.79S608,385,612.5,385Z" style="fill: #16A348; transform-origin: 612.47px 388.735px;" id="eltxo9ehgmu2e" class="animable"></path><path d="M616.48,402.34c.47,4.5,4.56,7.77,4.56,7.77s3.34-4,2.88-8.53-4.55-7.77-4.55-7.77S616,397.84,616.48,402.34Z" style="fill: #16A348; transform-origin: 620.198px 401.96px;" id="el46opn6pooqf" class="animable"></path><path d="M641.68,396.92c-4.31,1.36-8.93-1.1-8.93-1.1s2.37-4.67,6.69-6,8.93,1.1,8.93,1.1S646,395.56,641.68,396.92Z" style="fill: #16A348; transform-origin: 640.56px 393.376px;" id="els0if6ixlxpa" class="animable"></path><path d="M650.78,410.4c-3.71,2.59-4.59,7.75-4.59,7.75s5.15,1,8.86-1.61,4.59-7.74,4.59-7.74S654.5,407.82,650.78,410.4Z" style="fill: #16A348; transform-origin: 652.915px 413.478px;" id="elpy6g6ya4zp" class="animable"></path><path d="M605.48,404.31c3,3.38,8.24,3.63,8.24,3.63s.35-5.22-2.66-8.6-8.24-3.63-8.24-3.63S602.47,400.94,605.48,404.31Z" style="fill: #16A348; transform-origin: 608.27px 401.825px;" id="elnrxe3n9lr18" class="animable"></path><path d="M610.76,437.74s16.25-6.5,22.75-6.5,21.94,6.9,21.94,6.9Z" style="fill: rgb(38, 50, 56); transform-origin: 633.105px 434.69px;" id="elrgg90fmo74a" class="animable"></path><path d="M248.29,437.34a.5.5,0,0,1-.5-.5V360a.5.5,0,0,1,.5-.5.5.5,0,0,1,.5.5v76.88A.5.5,0,0,1,248.29,437.34Z" style="fill: rgb(38, 50, 56); transform-origin: 248.29px 398.42px;" id="elxzy0lhho5bo" class="animable"></path><path d="M248.82,412.3a.5.5,0,0,1-.37-.84L269.93,388a.5.5,0,0,1,.71,0,.49.49,0,0,1,0,.7l-21.48,23.48A.5.5,0,0,1,248.82,412.3Z" style="fill: rgb(38, 50, 56); transform-origin: 259.552px 400.076px;" id="ell4itemllmyl" class="animable"></path><path d="M248.15,389.71a.47.47,0,0,1-.34-.14l-14.4-13.73a.5.5,0,0,1,.69-.72l14.4,13.73a.5.5,0,0,1,0,.71A.51.51,0,0,1,248.15,389.71Z" style="fill: rgb(38, 50, 56); transform-origin: 240.965px 382.358px;" id="elzplkx17t19o" class="animable"></path><path d="M260.56,399.68h0a.51.51,0,0,1-.46-.54l1.1-14.17a.5.5,0,0,1,1,.07l-1.11,14.18A.5.5,0,0,1,260.56,399.68Z" style="fill: rgb(38, 50, 56); transform-origin: 261.15px 392.093px;" id="elfviwmw0q0w6" class="animable"></path><path d="M248.37,426.25a.57.57,0,0,1-.25-.06l-16.38-9.53a.5.5,0,1,1,.5-.86l16.39,9.52a.5.5,0,0,1,.18.68A.49.49,0,0,1,248.37,426.25Z" style="fill: rgb(38, 50, 56); transform-origin: 240.161px 420.977px;" id="el5277nwo04cu" class="animable"></path><path d="M228.66,384a.49.49,0,0,1-.49-.48.5.5,0,0,1,.48-.52l13.06-.44a.52.52,0,0,1,.52.49.5.5,0,0,1-.48.51l-13.07.44Z" style="fill: rgb(38, 50, 56); transform-origin: 235.2px 383.28px;" id="elo28dsh1lrr" class="animable"></path><path d="M251.88,353.32c0,4.52-3.74,8.19-3.74,8.19s-3.74-3.67-3.74-8.19,3.74-8.19,3.74-8.19S251.88,348.79,251.88,353.32Z" style="fill: #16A348; transform-origin: 248.14px 353.32px;" id="eloiujbbi25ue" class="animable"></path><path d="M232.38,369c3.53,2.83,4.05,8,4.05,8s-5.2.63-8.73-2.2-4-8-4-8S228.85,366.21,232.38,369Z" style="fill: #16A348; transform-origin: 230.065px 371.904px;" id="elkdbt1k03u9g" class="animable"></path><path d="M226.31,379.57c4.53,0,8.17,3.79,8.17,3.79s-3.7,3.71-8.22,3.68-8.16-3.79-8.16-3.79S221.79,379.54,226.31,379.57Z" style="fill: #16A348; transform-origin: 226.29px 383.305px;" id="el03xzewdgrsf4" class="animable"></path><path d="M265.8,384.63c-.46,4.5-4.55,7.76-4.55,7.76s-3.35-4-2.88-8.53,4.55-7.76,4.55-7.76S266.26,380.13,265.8,384.63Z" style="fill: #16A348; transform-origin: 262.084px 384.245px;" id="el5ai5enwu74h" class="animable"></path><path d="M241.12,407.62c2.3,3.89,7.38,5.15,7.38,5.15s1.36-5.06-.94-9-7.38-5.15-7.38-5.15S238.82,403.72,241.12,407.62Z" style="fill: #16A348; transform-origin: 244.34px 405.695px;" id="el6vli4xejhn8" class="animable"></path><path d="M255.74,384.77c-2.3,3.89-7.38,5.15-7.38,5.15s-1.36-5.06.94-9,7.39-5.15,7.39-5.15S258,380.87,255.74,384.77Z" style="fill: #16A348; transform-origin: 252.514px 382.845px;" id="eligmm8196vm" class="animable"></path><path d="M231.5,410.4c3.72,2.59,4.6,7.75,4.6,7.75s-5.15,1-8.86-1.61-4.59-7.74-4.59-7.74S227.79,407.82,231.5,410.4Z" style="fill: #16A348; transform-origin: 229.375px 413.478px;" id="el6en6gn4dcf" class="animable"></path><path d="M276.81,386.6c-3,3.37-8.24,3.63-8.24,3.63s-.35-5.23,2.66-8.61,8.23-3.62,8.23-3.62S279.82,383.22,276.81,386.6Z" style="fill: #16A348; transform-origin: 274.015px 384.115px;" id="elcsq01jhjqug" class="animable"></path><path d="M226,437.74s16.25-6.5,22.75-6.5,21.94,6.9,21.94,6.9Z" style="fill: rgb(38, 50, 56); transform-origin: 248.345px 434.69px;" id="els68mw4h2g2" class="animable"></path></g><g id="freepik--character-1--inject-16" class="animable" style="transform-origin: 162.445px 356.525px;"><path d="M189.32,389.49s-14.43,20-14,21,6.59,5.3,13.16,8,16.49,1.43,23.06-1.64c0,0,.31-9.43-9.68-20.07C195.67,390.19,189.32,389.49,189.32,389.49Z" style="fill: rgb(173, 173, 173); transform-origin: 193.426px 404.729px;" id="elggk5qp9sgj8" class="animable"></path><path d="M197,420.46a23.46,23.46,0,0,1-8.75-1.52c-6.38-2.59-12.88-7-13.43-8.23-.13-.32-.54-1.27,14-21.51a.49.49,0,0,1,.46-.2c.27,0,6.61.79,12.85,7.43,10,10.67,9.83,20,9.82,20.43a.51.51,0,0,1-.29.44A36.55,36.55,0,0,1,197,420.46Zm-21.21-10.07c.66.92,6.32,5,12.84,7.63s16.19,1.3,22.36-1.49c-.06-1.69-.81-10.12-9.54-19.42-5.24-5.58-10.67-6.85-12-7.07C184.35,397.24,176.3,408.77,175.83,410.39Z" style="fill: rgb(38, 50, 56); transform-origin: 193.369px 404.73px;" id="elnl7b4i8zal8" class="animable"></path><path d="M206.52,408.49s-3.56-.82-4.92.55-2.73,4.37-1.91,5.46,1.91,2.73,1.91,2.73-2.73-.27-2.73,1.91-1.64,6,1.64,8.47,6-1.09,6.82-1.64,1.1-4.1,1.1-4.1,3.28-.27,4.37-2.45a7.56,7.56,0,0,0-.28-7.93C210.61,408.49,206.52,408.49,206.52,408.49Z" style="fill: rgb(38, 50, 56); transform-origin: 206.124px 418.36px;" id="elgfcrxhnv2ie" class="animable"></path><path d="M210.34,425.15s-5.19,5.19-3.82,6.29a54.37,54.37,0,0,0,4.64,3s3.28,0,3.82-2.46,1.1-4.37-.27-5.46S213.34,424.33,210.34,425.15Z" style="fill: rgb(38, 50, 56); transform-origin: 210.927px 429.652px;" id="elwn9m61aars" class="animable"></path><path d="M211.16,434.44a58.06,58.06,0,0,0-6.83,1.91,28.52,28.52,0,0,1-4.92,1.37H233s-1.09-3.83-4.1-4.37-10.1.82-10.1.82S218,432.53,215,432A3.36,3.36,0,0,0,211.16,434.44Z" style="fill: rgb(38, 50, 56); transform-origin: 216.205px 434.834px;" id="elo9ub5o1fid" class="animable"></path><path d="M202.69,432.66a1.23,1.23,0,1,1-1.23-1.22A1.23,1.23,0,0,1,202.69,432.66Z" style="fill: rgb(38, 50, 56); transform-origin: 201.46px 432.67px;" id="el1iipydevlak" class="animable"></path><path d="M198.32,426a2.19,2.19,0,1,1-2.18-2.18A2.19,2.19,0,0,1,198.32,426Z" style="fill: rgb(38, 50, 56); transform-origin: 196.13px 426.01px;" id="eljcpcfghtnsc" class="animable"></path><path d="M157.61,427.6s5.23,5,6.68,5.89,4.55,2.27,4.25,4.59-7.74,3.9-9.32,2.31S145,434.23,144.61,433s.52-3.31.52-3.31l11.29-1.7Z" style="fill: rgb(255, 255, 255); transform-origin: 156.537px 434.317px;" id="eluyei88tz79" class="animable"></path><path d="M161.64,441.53a4,4,0,0,1-2.77-.79c-.7-.71-4.22-2.25-7.31-3.6-5.43-2.38-7.17-3.23-7.42-3.93-.49-1.35.43-3.45.54-3.69a.52.52,0,0,1,.38-.29l11.29-1.69,1.09-.41a.5.5,0,0,1,.52.11c0,.05,5.21,4.95,6.6,5.83.21.14.47.28.74.44,1.6.93,4,2.33,3.74,4.63-.19,1.43-2.16,2.3-3.31,2.69A13.57,13.57,0,0,1,161.64,441.53Zm-16.15-11.35a4.74,4.74,0,0,0-.41,2.69c.35.5,4.12,2.15,6.88,3.35,3.49,1.53,6.78,3,7.62,3.81s3.48.65,5.83-.15c1.52-.51,2.55-1.25,2.63-1.87.22-1.63-1.78-2.79-3.24-3.64-.29-.16-.55-.31-.77-.45-1.32-.84-5.5-4.77-6.54-5.74l-.9.32Z" style="fill: rgb(38, 50, 56); transform-origin: 156.528px 434.323px;" id="el2u66ljrl7lm" class="animable"></path><path d="M146.61,333.78s8.79,39.08,9,47.11-1.53,35.49-1.53,35.49,3.92,7.4,4,8.08-.48,2.47-.52,3.14c0,0-13.4,3.74-14.75,3.83s-3.5,0-3.5,0-1.25-13.26-2.5-17.68-6.14-29.91-6.14-29.91L120.29,356s-4.65-15.13-5.46-18.52,0-11.69,0-11.69,20.1,2,23.87,3.2S146.61,333.78,146.61,333.78Z" style="fill: rgb(38, 50, 56); transform-origin: 136.279px 378.63px;" id="ela2p4of23fp6" class="animable"></path><path d="M141.66,432c-1.13,0-2.26-.07-2.33-.07a.49.49,0,0,1-.47-.45c0-.13-1.25-13.27-2.48-17.59s-5.95-28.92-6.15-30l-10.41-27.74c-.2-.64-4.67-15.21-5.48-18.57s0-11.52,0-11.86a.57.57,0,0,1,.18-.34.6.6,0,0,1,.37-.11c.82.08,20.19,2,24,3.23s7.91,4.74,8.08,4.89a.48.48,0,0,1,.17.27c.35,1.59,8.8,39.22,9,47.21.2,7.66-1.39,33.25-1.52,35.39,1,1.88,3.9,7.41,4,8.09a6.3,6.3,0,0,1-.29,2.19,10.31,10.31,0,0,0-.22,1.08.5.5,0,0,1-.36.45c-1.38.39-13.5,3.76-14.85,3.85C142.52,432,142.09,432,141.66,432Zm-1.84-1.05a29.86,29.86,0,0,0,3,0c.93-.06,9-2.22,14.33-3.72.05-.26.12-.56.19-.89a6.9,6.9,0,0,0,.29-1.77c-.12-.47-2.15-4.44-4-7.94a.6.6,0,0,1-.06-.27c0-.27,1.73-27.52,1.53-35.44-.2-7.62-8.33-44.08-9-46.85-.71-.59-4.34-3.54-7.62-4.59s-20.13-2.82-23.26-3.13c-.15,1.83-.63,8.23,0,11,.79,3.33,5.4,18.33,5.44,18.48l10.43,27.79c.07.34,4.92,25.61,6.15,29.95C138.48,417.59,139.59,428.57,139.82,430.92Z" style="fill: rgb(38, 50, 56); transform-origin: 136.303px 378.635px;" id="elnaw1me06k" class="animable"></path><path d="M145.13,429.73a20.83,20.83,0,0,0,5.05,2.29c2.47.64,10,3.08,10.27,4.43a5.36,5.36,0,0,1-1.23,3.94c-.71.79-7.09,1.43-11.43,1.35s-11.7-2.84-12.84-3.24-2.94-1.17-2.94-1.17S142.81,429.43,145.13,429.73Z" style="fill: rgb(255, 255, 255); transform-origin: 146.242px 435.734px;" id="elli1vjsu76le" class="animable"></path><path d="M148.44,442.24h-.66c-2.71-.05-6.95-1.11-12.62-3.14l-.38-.13c-1.15-.4-2.9-1.15-3-1.18a.5.5,0,0,1-.3-.41.52.52,0,0,1,.2-.46c1.83-1.34,11.11-8,13.49-7.69a.5.5,0,0,1,.2.08,21,21,0,0,0,4.91,2.22c.1,0,10.24,2.79,10.63,4.82a5.86,5.86,0,0,1-1.35,4.37C158.66,441.76,152.12,442.24,148.44,442.24Zm-15.42-5c.61.25,1.46.59,2.09.82l.39.13c5.56,2,9.7,3,12.3,3.08,4.65.08,10.46-.63,11-1.19a4.9,4.9,0,0,0,1.11-3.51c-.3-.88-6.21-3.08-9.91-4a21.1,21.1,0,0,1-5.08-2.28h0C143.33,430.22,137.1,434.28,133,437.21Z" style="fill: rgb(38, 50, 56); transform-origin: 146.209px 435.73px;" id="eldql70yz5izr" class="animable"></path><path d="M141.07,343l-5.13,2-.16,2.83,5.67,26.55s.33,8.87,1,11.75,1.72,34.17,1.72,34.17,2.63,3.66,2.93,4.17.35,5.54.35,5.54-9.93,4.27-12.7,6.12-3.9.94-3.9.94a36.56,36.56,0,0,1-4.09-1.57c-.48-.36-.49-3-.49-3s-6.19-29.08-7.06-34.31-3.26-21.9-3.26-21.9-8.49-32.55-9.18-35.09-.61-15.74-.61-15.74,17.39,2.67,21,2.88S141.87,332,141.87,332l1.11.9" style="fill: rgb(38, 50, 56); transform-origin: 126.804px 381.377px;" id="el91hjpvmxrrk" class="animable"></path><path d="M131.73,437.81a2.09,2.09,0,0,1-1.1-.26,31.37,31.37,0,0,1-4.17-1.63c-.55-.41-.68-2.05-.69-3.38-.29-1.36-6.21-29.2-7-34.28s-3.24-21.74-3.26-21.9-8.49-32.53-9.17-35-.63-15.33-.63-15.87a.55.55,0,0,1,.18-.38.48.48,0,0,1,.4-.11c.17,0,17.4,2.66,21,2.87s14.32,3.55,14.78,3.7a.4.4,0,0,1,.16.08l1.12.9a.5.5,0,0,1-.63.78l-1-.84c-1.06-.33-11.06-3.43-14.45-3.63s-17.43-2.32-20.52-2.79c0,2.57,0,12.87.59,15,.68,2.51,9.1,34.77,9.19,35.1s2.4,16.78,3.26,21.94,7,34,7.06,34.29a.31.31,0,0,1,0,.1,8.07,8.07,0,0,0,.33,2.66,38.7,38.7,0,0,0,3.91,1.47.53.53,0,0,1,.15.08h0s1,.59,3.31-1c2.54-1.69,10.76-5.28,12.48-6a33.45,33.45,0,0,0-.29-5c-.23-.39-2.17-3.11-2.9-4.12a.47.47,0,0,1-.09-.28c0-.31-1.06-31.27-1.71-34.07s-1-11.48-1-11.84L135.29,348a.57.57,0,0,1,0-.13l.16-2.83a.52.52,0,0,1,.32-.44l5.13-2.05a.52.52,0,0,1,.65.28.51.51,0,0,1-.28.65l-4.84,1.93-.13,2.45,5.65,26.48c0,.17.34,8.94,1,11.74s1.64,31.47,1.73,34.11c.51.71,2.59,3.6,2.87,4.09s.41,3.86.42,5.78a.49.49,0,0,1-.3.47c-.1,0-9.92,4.27-12.63,6.07A6.09,6.09,0,0,1,131.73,437.81Z" style="fill: rgb(38, 50, 56); transform-origin: 126.84px 381.402px;" id="elhq1niw5ickc" class="animable"></path><path d="M142.87,424.42a.49.49,0,0,1-.5-.49c0-.35-.36-35.16-.42-37.77,0-2.05-5.78-25.09-8.8-37a.51.51,0,0,1,.3-.59l6-2.48a.49.49,0,0,1,.65.27.49.49,0,0,1-.27.65l-5.63,2.32c1,4.13,8.65,34.26,8.72,36.8s.41,37.43.42,37.78a.5.5,0,0,1-.5.5Z" style="fill: rgb(255, 255, 255); transform-origin: 138.238px 385.235px;" id="elgh33e0r8aa7" class="animable"></path><path d="M172.91,278.8s-12.8-4-15-4.12-12.16-.9-17.65,2.45-21.53,20.56-26.41,27.61-8.76,21.49-8.76,21.49,11.61,3.31,14.66,3.48,10.53,1,10.53,1,7.47,4.7,13.15,5,.28,2.25,10.63-4.28a118.77,118.77,0,0,1,17-9.21l-7.36,11.19a14.68,14.68,0,0,0,6.07,4.21c3.4,1,9.78,3.41,9.78,3.41s3.89-14.64,5.54-18.62,3.89-11,3.7-14.85-2.49-13.38-2.49-13.38S176.9,280.25,172.91,278.8Z" style="fill: rgb(255, 255, 255); transform-origin: 146.946px 307.773px;" id="ells05prbs5k" class="animable"></path><path d="M179.53,341.57l-.18,0c-.06,0-6.4-2.41-9.74-3.4a15.22,15.22,0,0,1-6.32-4.37.51.51,0,0,1,0-.6l6.43-9.77a132.38,132.38,0,0,0-15.41,8.49c-3.14,2-4.81,3.18-5.81,3.89-1.4,1-1.58,1.12-2.52.86a11.26,11.26,0,0,0-2.59-.39c-5.46-.31-12.35-4.46-13.29-5-.95-.11-7.6-.84-10.39-1-3.06-.17-14.3-3.37-14.77-3.5a.51.51,0,0,1-.35-.61c.16-.59,4-14.6,8.84-21.64,5-7.23,21.18-24.47,26.56-27.75,3.57-2.18,9.5-3,17.61-2.55l.33,0c2.27.13,14.63,4,15.16,4.14h0c4.09,1.49,13.23,15,13.61,15.61a.37.37,0,0,1,.07.16c.1.39,2.33,9.59,2.51,13.48.21,4.3-2.35,11.74-3.74,15.06-1.62,3.91-5.48,18.41-5.52,18.56a.5.5,0,0,1-.25.32A.59.59,0,0,1,179.53,341.57Zm-15.22-8.17a13.76,13.76,0,0,0,5.58,3.78c2.82.84,7.71,2.64,9.3,3.23.72-2.7,3.93-14.57,5.42-18.15,1.57-3.78,3.85-10.8,3.66-14.64-.17-3.59-2.23-12.23-2.46-13.19-3.23-4.81-10-14-13.06-15.16-4.41-1.37-13.19-4-14.91-4.09l-.33,0c-7.91-.48-13.63.33-17,2.4-5.3,3.24-21.3,20.3-26.26,27.46-4.28,6.19-7.84,18.31-8.56,20.86,2.22.62,11.47,3.18,14.08,3.33,3,.18,10.48,1,10.55,1a.38.38,0,0,1,.21.07c.08.05,7.43,4.64,12.92,4.95a11.61,11.61,0,0,1,2.79.43c.49.13.49.14,1.68-.71,1-.72,2.69-1.92,5.86-3.92a119.41,119.41,0,0,1,17.1-9.25.5.5,0,0,1,.6.74Z" style="fill: rgb(38, 50, 56); transform-origin: 146.934px 307.844px;" id="el5zhvcnhozco" class="animable"></path><path d="M132.24,326.94a.48.48,0,0,1-.36-.16,19.2,19.2,0,0,1-3.1-5.19.5.5,0,0,1,.26-.66.51.51,0,0,1,.66.25,18.32,18.32,0,0,0,2.91,4.92.49.49,0,0,1-.37.84Z" style="fill: rgb(38, 50, 56); transform-origin: 130.748px 323.915px;" id="elldxrqaefzm" class="animable"></path><path d="M127.88,318.52a.52.52,0,0,1-.47-.33c-1.47-4-2.46-7.84-2.47-7.88a.49.49,0,0,1,.36-.6.5.5,0,0,1,.61.36s1,3.8,2.44,7.77a.51.51,0,0,1-.3.65A.47.47,0,0,1,127.88,318.52Z" style="fill: rgb(38, 50, 56); transform-origin: 126.652px 314.107px;" id="elr42l9f0kqe" class="animable"></path><path d="M129.1,330.27a.51.51,0,0,1-.33-.13c-4.58-4.16-8.94-13.2-9.13-13.58a.51.51,0,0,1,.91-.44c0,.1,4.46,9.26,8.89,13.28a.49.49,0,0,1,0,.7A.48.48,0,0,1,129.1,330.27Z" style="fill: rgb(38, 50, 56); transform-origin: 124.601px 323.081px;" id="elmip50jrpxx" class="animable"></path><path d="M176.21,313.16h0l-10.36-.09a.48.48,0,0,1-.44-.27.49.49,0,0,1,0-.52L172.88,302l7.18-8.7a.51.51,0,0,1,.89.3l.35,6.87-.48,8.36a.5.5,0,0,1-.84.34l-2.31-2.14-1,5.7A.5.5,0,0,1,176.21,313.16Zm-9.38-1.08,9,.08,1.05-6.18a.51.51,0,0,1,.33-.4.53.53,0,0,1,.5.11l2.21,2.05.42-7.25L180,295l-6.35,7.68Z" style="fill: rgb(38, 50, 56); transform-origin: 173.318px 303.144px;" id="elbsd1qqim5f4" class="animable"></path><path d="M176.65,279.93s8.21-6.9,13-8.19,11.11.86,13,3,3.58,11.59,3.65,14.28-.32,5.56-2.15,6.35-4.42,3.09-5.32,3.27a13.3,13.3,0,0,1-2.46.08l-1.61,4.82-4.19-.91s-8,3.78-9.13,3.49-4.58-5.84-4.58-5.84-1.76,7.27-4.08,8.92a39.8,39.8,0,0,1-6.9,3.4s4.56-5.54,6.25-15.49A93,93,0,0,1,176.65,279.93Z" style="fill: rgb(255, 255, 255); transform-origin: 186.094px 291.975px;" id="el0klrwug49vlq" class="animable"></path><path d="M165.86,313.07a.51.51,0,0,1-.41-.2.5.5,0,0,1,0-.61c0-.06,4.49-5.58,6.13-15.26a94.84,94.84,0,0,1,4.59-17.26.66.66,0,0,1,.14-.2c.34-.28,8.35-7,13.16-8.28,5-1.36,11.54.92,13.5,3.12s3.71,12,3.78,14.59c.1,3.79-.73,6.08-2.45,6.83a19,19,0,0,0-3,1.85,8.61,8.61,0,0,1-2.45,1.45,11.23,11.23,0,0,1-2.2.1l-1.49,4.47a.5.5,0,0,1-.58.33l-4-.88c-2.54,1.2-8.18,3.75-9.31,3.46-1-.26-3-3.16-4.26-5.1-.61,2.15-2.09,6.75-4,8.1a40.27,40.27,0,0,1-7,3.46A.51.51,0,0,1,165.86,313.07Zm11.21-32.84a95.12,95.12,0,0,0-4.48,16.93,38.1,38.1,0,0,1-5.33,14.3,31.34,31.34,0,0,0,5.2-2.7c1.78-1.26,3.41-6.65,3.88-8.63a.5.5,0,0,1,.41-.37.48.48,0,0,1,.5.23c1.6,2.56,3.7,5.43,4.28,5.62s5-1.68,8.79-3.46a.5.5,0,0,1,.32,0l3.75.81,1.48-4.39a.5.5,0,0,1,.5-.34,12.92,12.92,0,0,0,2.34-.08,10,10,0,0,0,2.06-1.28,20.3,20.3,0,0,1,3.15-1.95c1.64-.71,1.91-3.59,1.85-5.88-.07-2.89-1.81-12-3.52-13.95s-7.91-4.07-12.5-2.83C185.42,273.39,178,279.45,177.07,280.23Z" style="fill: rgb(38, 50, 56); transform-origin: 186.052px 291.96px;" id="elw2qkur5uqg" class="animable"></path><path d="M202.62,274.71c-1.89-2.11-8.24-4.26-13-3s-13,8.19-13,8.19-1.13,4.17.41,4.49l1.55.31s3.79-3.81,5-2,2.48,3.49,1.75,4.57-2,3.23-2,3.23l1.52.76,3-2.06,2.36,1.7,4.55-1.53s4.52,2.94,6.89,4.41a5.53,5.53,0,0,0,3.06,1c1.24-1.15,1.52-3.59,1.46-5.89C206.2,286.3,204.51,276.83,202.62,274.71Z" style="fill: rgb(38, 50, 56); transform-origin: 191.199px 283.058px;" id="eld1lkrvdz1xe" class="animable"></path><path d="M204.66,295.38a6.2,6.2,0,0,1-3.17-1.09c-2.07-1.29-5.79-3.7-6.7-4.29l-4.32,1.45a.5.5,0,0,1-.46-.07l-2.07-1.49-2.73,1.86a.52.52,0,0,1-.51,0l-1.51-.76a.48.48,0,0,1-.26-.3.55.55,0,0,1,0-.4c.06-.09,1.26-2.19,2-3.27.47-.69-.45-2.05-1.41-3.49l-.35-.51a.53.53,0,0,0-.46-.28c-1-.13-2.85,1.36-3.79,2.3a.51.51,0,0,1-.45.14l-1.55-.31a1.32,1.32,0,0,1-.86-.62c-.78-1.26,0-4.17.07-4.49a.48.48,0,0,1,.16-.26c.34-.28,8.35-7,13.16-8.28,5-1.36,11.54.92,13.5,3.12s3.71,12,3.78,14.59c.08,3.09-.47,5.2-1.62,6.27a.48.48,0,0,1-.32.13Zm.15-.5h0ZM194.86,289a.53.53,0,0,1,.27.08c.05,0,4.54,3,6.88,4.41a5.48,5.48,0,0,0,2.59.94c.83-.91,1.24-2.76,1.17-5.38-.07-2.89-1.81-12-3.52-13.95s-7.91-4.07-12.5-2.83c-4.29,1.16-11.62,7.14-12.66,8-.27,1.1-.54,2.91-.14,3.55a.31.31,0,0,0,.21.16l1.29.26c.69-.65,2.83-2.58,4.4-2.4a1.6,1.6,0,0,1,1.2.72l.34.51c1.21,1.8,2.26,3.36,1.4,4.62-.51.75-1.28,2.05-1.68,2.74l.78.39,2.78-1.89a.5.5,0,0,1,.57,0l2.15,1.55L194.7,289A.45.45,0,0,1,194.86,289Z" style="fill: rgb(38, 50, 56); transform-origin: 191.227px 283.095px;" id="el3qo26b7enad" class="animable"></path><path d="M196.14,297.89a.49.49,0,0,1-.42-.24,4.3,4.3,0,0,0-2.29-1.73.5.5,0,1,1,.22-1,5.31,5.31,0,0,1,2.92,2.18.51.51,0,0,1-.16.69A.56.56,0,0,1,196.14,297.89Z" style="fill: rgb(38, 50, 56); transform-origin: 194.835px 296.399px;" id="el6p934ma98mk" class="animable"></path><path d="M193,299l-.18,0a2.8,2.8,0,0,1-1.47-1.83.5.5,0,1,1,1-.3,2.24,2.24,0,0,0,.71,1.09l1.06-.6a.5.5,0,0,1,.68.19.5.5,0,0,1-.19.68l-1.31.74A.54.54,0,0,1,193,299Z" style="fill: rgb(38, 50, 56); transform-origin: 193.096px 297.752px;" id="elqhvwfgxhzy" class="animable"></path><path d="M187.09,302.71a.5.5,0,0,1-.41-.22,3.47,3.47,0,0,1-.67-2.61.5.5,0,0,1,.6-.36.49.49,0,0,1,.37.59,2.55,2.55,0,0,0,.53,1.82.5.5,0,0,1-.14.69A.47.47,0,0,1,187.09,302.71Z" style="fill: rgb(38, 50, 56); transform-origin: 186.782px 301.108px;" id="elcu8ltophd5" class="animable"></path><path d="M176.83,300.75a.5.5,0,0,1-.5-.5l0-5a.5.5,0,0,1,.5-.51h0a.5.5,0,0,1,.5.5l0,5a.5.5,0,0,1-.5.5Z" style="fill: rgb(38, 50, 56); transform-origin: 176.83px 297.745px;" id="elgniynpsai1g" class="animable"></path><path d="M178.61,284.73a7,7,0,0,0-1.23,3.32c.09,1.38,1.75,2.33,1.75,2.33" style="fill: rgb(255, 255, 255); transform-origin: 178.255px 287.555px;" id="elylaluo4fkp" class="animable"></path><path d="M179.13,290.88a.57.57,0,0,1-.25-.06c-.07-.05-1.89-1.11-2-2.73a7.47,7.47,0,0,1,1.31-3.64.51.51,0,0,1,.7-.14.5.5,0,0,1,.13.7,6.27,6.27,0,0,0-1.14,3c.06.9,1.11,1.7,1.5,1.93a.51.51,0,0,1,.19.68A.51.51,0,0,1,179.13,290.88Z" style="fill: rgb(38, 50, 56); transform-origin: 178.255px 287.554px;" id="elmtr9eucq5zp" class="animable"></path><polygon points="177.04 278.81 173.6 277.32 163.26 296.18 170.95 301.06 177.04 278.81" style="fill: rgb(255, 255, 255); transform-origin: 170.15px 289.19px;" id="eldptvvyo1z0j" class="animable"></polygon><path d="M171,301.56a.52.52,0,0,1-.27-.07L163,296.6a.49.49,0,0,1-.17-.66l10.33-18.86a.51.51,0,0,1,.64-.22l3.44,1.5a.51.51,0,0,1,.28.59l-6.09,22.25a.49.49,0,0,1-.3.33A.57.57,0,0,1,171,301.56Zm-7-5.55,6.72,4.27,5.79-21.18L173.82,278Z" style="fill: rgb(38, 50, 56); transform-origin: 170.151px 289.19px;" id="elolguzzfcb18" class="animable"></path><path d="M165.85,313.07h-.06a.48.48,0,0,1-.41-.35L163,305a.49.49,0,0,1,.25-.59l7.44-3.83a.52.52,0,0,1,.5,0,.51.51,0,0,1,.23.45c-.23,4-5,11.44-5.17,11.75A.51.51,0,0,1,165.85,313.07Zm-1.74-7.92,1.9,6.22c1.16-1.93,3.71-6.42,4.32-9.42Z" style="fill: rgb(38, 50, 56); transform-origin: 167.198px 306.793px;" id="el1mk4juia5ibj" class="animable"></path><path d="M120.94,294s-14.07,11-15,12.58S94,338,94,338s-1.86,4-1.53,5.41,2.94,5.46,3.73,5.91,4.27,0,5.58-1.51a10.52,10.52,0,0,0,2.61-6.37,10.24,10.24,0,0,0-1.38-4.35l-.08-2.25,17.5-24.65,8.37-4Z" style="fill: rgb(255, 255, 255); transform-origin: 110.615px 321.743px;" id="elehpwriqu6g6" class="animable"></path><path d="M97.27,350a2.85,2.85,0,0,1-1.33-.25c-1-.55-3.64-4.75-4-6.23s1.37-5.31,1.57-5.74c.43-1.18,11.08-29.92,12-31.52s13.65-11.59,15.1-12.72a.46.46,0,0,1,.39-.1.49.49,0,0,1,.34.22l7.85,12.26a.48.48,0,0,1,.06.4.51.51,0,0,1-.27.32l-8.25,3.94L103.43,335l.06,1.95a10.43,10.43,0,0,1,1.39,4.48c.08,2.47-1.42,5.16-2.72,6.71C101.09,349.42,98.81,350,97.27,350Zm23.54-55.34c-5.62,4.41-13.8,11-14.41,12.1-.7,1.22-8.12,21.08-11.94,31.41-.71,1.51-1.72,4.2-1.52,5.13a18.2,18.2,0,0,0,3.5,5.59c.54.3,3.77,0,5-1.41a10,10,0,0,0,2.49-6,9.6,9.6,0,0,0-1.31-4.11.55.55,0,0,1-.07-.25l-.08-2.24a.5.5,0,0,1,.1-.31L120,309.92a.42.42,0,0,1,.19-.16l7.86-3.76Z" style="fill: rgb(38, 50, 56); transform-origin: 110.58px 321.717px;" id="el2kt3cxqae5y" class="animable"></path><path d="M151.05,276.53s-8.3-.88-13.55,1.87-18,15.27-18,15.27,1.08,6,3.16,8.73a66.55,66.55,0,0,0,7.13,7.12s17.34-7.76,21.94-13.4" style="fill: rgb(255, 255, 255); transform-origin: 135.615px 292.958px;" id="el8sixc0qkums" class="animable"></path><path d="M129.82,310a.52.52,0,0,1-.33-.12,65.4,65.4,0,0,1-7.19-7.2c-2.13-2.83-3.22-8.7-3.26-8.95a.48.48,0,0,1,.14-.44c.52-.51,12.84-12.59,18.09-15.35s13.49-2,13.83-1.93a.5.5,0,1,1-.1,1c-.09,0-8.21-.83-13.26,1.82-4.78,2.5-16.06,13.41-17.67,15,.24,1.17,1.28,5.95,3,8.27a61.19,61.19,0,0,0,6.82,6.83c2.28-1,17.32-8,21.46-13.13a.52.52,0,0,1,.71-.07.5.5,0,0,1,.07.7C147.53,302.1,130.74,309.66,130,310A.52.52,0,0,1,129.82,310Z" style="fill: rgb(38, 50, 56); transform-origin: 135.636px 292.935px;" id="ely5j1esbaah" class="animable"></path><path d="M114.7,354.79l-.15,0c-.28,0-.82-.09-1.49-.13a71.8,71.8,0,0,1-9.08-1.12c-6.7-1.23-8.45-3.31-8.63-3.54a1.07,1.07,0,0,1,0-1.24l9.06-13a1.06,1.06,0,0,1,1-.44c2.34.33,6.84,4.28,8.59,7.55,1.63,3.06,3.33,7.17,3.4,7.34a1.06,1.06,0,0,1,0,.89l-1.66,3.19A1,1,0,0,1,114.7,354.79Zm-17.1-5.64c.86.58,2.83,1.57,6.76,2.29a70.73,70.73,0,0,0,8.83,1.1l1,.06,1.09-2.09c-.49-1.16-1.84-4.32-3.12-6.7a17.41,17.41,0,0,0-6.44-6.28Z" style="fill: rgb(38, 50, 56); transform-origin: 106.325px 345.058px;" id="eldbxp91251z4" class="animable"></path><path d="M114.76,353.74l70,49.93s12.62,6,11.41,4.26-8.26-7.69-9-8.23l-70.67-49.15Z" style="fill: rgb(255, 255, 255); transform-origin: 155.506px 379.398px;" id="el054kfgdpbyvn" class="animable"></path><path d="M196.05,408.71c-.89,0-3.43-.76-11.53-4.59l-70.05-50a.5.5,0,0,1-.16-.64l1.66-3.19a.51.51,0,0,1,.73-.18l70.67,49.15c.74.5,7.9,6.55,9.17,8.35a.66.66,0,0,1,0,.86A.58.58,0,0,1,196.05,408.71ZM115.4,353.59,185,403.26a105.66,105.66,0,0,0,10.15,4.3,106.42,106.42,0,0,0-8.36-7.45c-.76-.51-63.61-44.22-70.21-48.82Z" style="fill: rgb(38, 50, 56); transform-origin: 155.477px 379.367px;" id="elff9hvty6dvc" class="animable"></path><path d="M175.47,397.06l9.26,6.61s12.62,6,11.41,4.26-8.26-7.69-9-8.23L178,393.41Z" style="fill: rgb(173, 173, 173); transform-origin: 185.846px 400.828px;" id="elsy7fqyuhgu" class="animable"></path><path d="M196.05,408.71c-.89,0-3.43-.76-11.53-4.59l-9.34-6.65a.51.51,0,0,1-.12-.7l2.57-3.65a.5.5,0,0,1,.69-.12l9.05,6.29c.74.5,7.9,6.55,9.17,8.35a.66.66,0,0,1,0,.86A.58.58,0,0,1,196.05,408.71Zm-19.88-11.77,8.85,6.32a105.66,105.66,0,0,0,10.15,4.3,106.42,106.42,0,0,0-8.36-7.45l-8.65-6Z" style="fill: rgb(38, 50, 56); transform-origin: 185.835px 400.812px;" id="el9101fsd5yih" class="animable"></path><path d="M162.32,388.28a6,6,0,0,0,2.57,3.76,3.28,3.28,0,0,0,4-.11Z" style="fill: rgb(255, 255, 255); transform-origin: 165.605px 390.473px;" id="elokajtnov4l" class="animable"></path><path d="M166.83,393.14a4,4,0,0,1-2.21-.69,6.42,6.42,0,0,1-2.79-4.09.5.5,0,0,1,.21-.49.51.51,0,0,1,.53,0l6.51,3.66a.48.48,0,0,1,.25.38.5.5,0,0,1-.16.43A3.65,3.65,0,0,1,166.83,393.14Zm-3.62-3.79a5.48,5.48,0,0,0,2,2.27,2.8,2.8,0,0,0,2.67.33Z" style="fill: rgb(38, 50, 56); transform-origin: 165.579px 390.468px;" id="el60m7dzab4h7" class="animable"></path><path d="M166.91,371.77l9.64-31.8c-2.12-.76-4.92-1.75-6.8-2.31a13.17,13.17,0,0,1-5-3.07c-1.18,4.07-4.13,14.46-4.25,16.52-.15,2.58.2,22.33.2,22.33s-1.5,3.6-1.18,4.54a9.09,9.09,0,0,0,1.53,2.3,18.07,18.07,0,0,1-.58,3.66c-.44,1.27-.21,3.68.93,3a28.62,28.62,0,0,0,3.45-2.94l6.2,4.41s-1.73-7.66-2.15-10.08A45.47,45.47,0,0,0,166.91,371.77Z" style="fill: rgb(255, 255, 255); transform-origin: 168.013px 361.5px;" id="eln2ptb390ew" class="animable"></path><path d="M171.08,388.92a.52.52,0,0,1-.29-.09l-5.86-4.17a25.42,25.42,0,0,1-3.24,2.72,1.06,1.06,0,0,1-1.26-.05c-.78-.64-.76-2.53-.4-3.55a15.94,15.94,0,0,0,.53-3.32,8.94,8.94,0,0,1-1.49-2.32c-.33-1,.75-3.81,1.16-4.79,0-1.72-.34-19.77-.2-22.27.12-2.09,3-12.33,4.27-16.63a.5.5,0,0,1,.82-.23,12.67,12.67,0,0,0,4.77,3c1.93.58,4.78,1.58,6.83,2.32a.51.51,0,0,1,.31.62l-9.59,31.63a45.23,45.23,0,0,1,2,6.5c.4,2.38,2.12,10,2.14,10.06a.51.51,0,0,1-.21.53A.54.54,0,0,1,171.08,388.92Zm-6.2-5.41a.52.52,0,0,1,.29.09l5.14,3.66c-.51-2.29-1.56-7-1.87-8.84a45.25,45.25,0,0,0-2-6.47.53.53,0,0,1,0-.33l9.5-31.34c-2-.71-4.55-1.61-6.32-2.14a12.81,12.81,0,0,1-4.57-2.65c-2.44,8.48-3.93,14.31-4,15.65-.15,2.53.2,22.09.2,22.29a.45.45,0,0,1,0,.2c-.69,1.66-1.32,3.74-1.17,4.2a8.42,8.42,0,0,0,1.43,2.12.48.48,0,0,1,.12.36,17.43,17.43,0,0,1-.6,3.79,3.15,3.15,0,0,0,.11,2.46l.1-.05a27.67,27.67,0,0,0,3.35-2.86A.52.52,0,0,1,164.88,383.51Z" style="fill: rgb(38, 50, 56); transform-origin: 168.029px 361.506px;" id="eljg6b9pmll3" class="animable"></path><path d="M98.56,343.22s.93,5.38,1.86,5.71,3.46,1.56,3.16-.23l-.31-1.79s1.81-3.82,1.11-5.45a7.08,7.08,0,0,0-2.28-2.68" style="fill: rgb(255, 255, 255); transform-origin: 101.55px 344.215px;" id="eli9oiad5f0y8" class="animable"></path><path d="M102.87,350.15a6.86,6.86,0,0,1-2.19-.59l-.42-.16c-1-.35-1.74-3.51-2.19-6.09a.51.51,0,0,1,.41-.58.5.5,0,0,1,.58.41c.4,2.33,1.12,5,1.56,5.33l.43.16c1.48.58,1.92.58,2,.48h0s0-.07,0-.33l-.3-1.79a.45.45,0,0,1,0-.3c.66-1.4,1.55-4,1.1-5a6.63,6.63,0,0,0-2.1-2.46.5.5,0,0,1-.14-.69.49.49,0,0,1,.69-.14,7.46,7.46,0,0,1,2.47,2.89c.71,1.66-.68,4.91-1,5.71l.28,1.64a1.26,1.26,0,0,1-.36,1.28A1.32,1.32,0,0,1,102.87,350.15Z" style="fill: rgb(38, 50, 56); transform-origin: 101.517px 344.233px;" id="el88aqqv266n3" class="animable"></path></g><defs>     <filter id="active" height="200%">         <feMorphology in="SourceAlpha" result="DILATED" operator="dilate" radius="2"></feMorphology>                <feFlood flood-color="#32DFEC" flood-opacity="1" result="PINK"></feFlood>        <feComposite in="PINK" in2="DILATED" operator="in" result="OUTLINE"></feComposite>        <feMerge>            <feMergeNode in="OUTLINE"></feMergeNode>            <feMergeNode in="SourceGraphic"></feMergeNode>        </feMerge>    </filter>    <filter id="hover" height="200%">        <feMorphology in="SourceAlpha" result="DILATED" operator="dilate" radius="2"></feMorphology>                <feFlood flood-color="#ff0000" flood-opacity="0.5" result="PINK"></feFlood>        <feComposite in="PINK" in2="DILATED" operator="in" result="OUTLINE"></feComposite>        <feMerge>            <feMergeNode in="OUTLINE"></feMergeNode>            <feMergeNode in="SourceGraphic"></feMergeNode>        </feMerge>            <feColorMatrix type="matrix" values="0   0   0   0   0                0   1   0   0   0                0   0   0   0   0                0   0   0   1   0 "></feColorMatrix>    </filter></defs></svg>