<svg class="animated" id="freepik_stories-seeding" xmlns="http://www.w3.org/2000/svg" viewBox="0 0 500 500" version="1.1" xmlns:xlink="http://www.w3.org/1999/xlink" xmlns:svgjs="http://svgjs.com/svgjs"><style>svg#freepik_stories-seeding:not(.animated) .animable {opacity: 0;}svg#freepik_stories-seeding.animated #freepik--background-simple--inject-229 {animation: 1s 1 forwards cubic-bezier(.36,-0.01,.5,1.38) fadeIn;animation-delay: 0s;}svg#freepik_stories-seeding.animated #freepik--plant-2--inject-229 {animation: 1s 1 forwards cubic-bezier(.36,-0.01,.5,1.38) lightSpeedLeft;animation-delay: 0s;}svg#freepik_stories-seeding.animated #freepik--plant-1--inject-229 {animation: 1s 1 forwards cubic-bezier(.36,-0.01,.5,1.38) slideLeft;animation-delay: 0s;}svg#freepik_stories-seeding.animated #freepik--Floor--inject-229 {animation: 1s 1 forwards cubic-bezier(.36,-0.01,.5,1.38) slideDown;animation-delay: 0s;}svg#freepik_stories-seeding.animated #freepik--Clouds--inject-229 {animation: 1s 1 forwards cubic-bezier(.36,-0.01,.5,1.38) fadeIn;animation-delay: 0s;}svg#freepik_stories-seeding.animated #freepik--Sun--inject-229 {animation: 1s 1 forwards cubic-bezier(.36,-0.01,.5,1.38) lightSpeedLeft;animation-delay: 0s;}svg#freepik_stories-seeding.animated #freepik--Character--inject-229 {animation: 1s 1 forwards cubic-bezier(.36,-0.01,.5,1.38) slideRight;animation-delay: 0s;}            @keyframes fadeIn {                0% {                    opacity: 0;                }                100% {                    opacity: 1;                }            }                    @keyframes lightSpeedLeft {              from {                transform: translate3d(-50%, 0, 0) skewX(20deg);                opacity: 0;              }              60% {                transform: skewX(-10deg);                opacity: 1;              }              80% {                transform: skewX(2deg);              }              to {                opacity: 1;                transform: translate3d(0, 0, 0);              }            }                    @keyframes slideLeft {                0% {                    opacity: 0;                    transform: translateX(-30px);                }                100% {                    opacity: 1;                    transform: translateX(0);                }            }                    @keyframes slideDown {                0% {                    opacity: 0;                    transform: translateY(-30px);                }                100% {                    opacity: 1;                    transform: translateY(0);                }            }                    @keyframes slideRight {                0% {                    opacity: 0;                    transform: translateX(30px);                }                100% {                    opacity: 1;                    transform: translateX(0);                }            }        </style><g id="freepik--background-simple--inject-229" class="animable" style="transform-origin: 252.3px 248.056px;"><path d="M432.29,123.05q-4.41-2.52-8.76-5.14C392.31,99,246.43,13.5,188.3,26.29,123,40.65-1.89,266.86,38.19,328.55s226,160.76,272,139.68,159-225.88,163.67-274.55C477.86,152.12,442.67,128.94,432.29,123.05Z" style="fill: #16A34A; transform-origin: 252.3px 248.056px;" id="elqzcrrkeeeca" class="animable"></path><g id="elgt0y1n4675m"><path d="M432.29,123.05q-4.41-2.52-8.76-5.14C392.31,99,246.43,13.5,188.3,26.29,123,40.65-1.89,266.86,38.19,328.55s226,160.76,272,139.68,159-225.88,163.67-274.55C477.86,152.12,442.67,128.94,432.29,123.05Z" style="fill: rgb(255, 255, 255); opacity: 0.7; transform-origin: 252.3px 248.056px;" class="animable" id="elx074508lxz"></path></g></g><g id="freepik--plant-2--inject-229" class="animable" style="transform-origin: 378.28px 400.585px;"><path d="M376.38,422.14s-1.26-6.77-5.77-11.28-10-5-14.05-6.27a29,29,0,0,1-8-4.52s4.76,11,7.77,14.8,7,6.27,9.53,6.77S376.38,422.14,376.38,422.14Z" style="fill: #16A34A; stroke: rgb(38, 50, 56); stroke-miterlimit: 10; transform-origin: 362.47px 411.105px;" id="elb4xxdhn7hv" class="animable"></path><path d="M383.9,381s0-6.27,2.51-9.28,15.8-7.28,15.8-7.28-3.76,7.78-9,12S383.9,381,383.9,381Z" style="fill: #16A34A; stroke: rgb(38, 50, 56); stroke-miterlimit: 10; transform-origin: 393.055px 372.72px;" id="eltuzdbfie6dd" class="animable"></path><path d="M380.39,386.28s-3-.25-4-8.28,3.76-22.83,3.76-22.83,5,12,4.26,19.57S382.9,382,380.39,386.28Z" style="fill: #16A34A; stroke: rgb(38, 50, 56); stroke-miterlimit: 10; transform-origin: 380.368px 370.725px;" id="elrsxlytg6did" class="animable"></path><path d="M384.4,407.85s.5-10.54,7.28-14.3A166.59,166.59,0,0,1,408,386s-2.76,9.28-6.52,13.29-7.53,8.78-11,10A5.83,5.83,0,0,1,384.4,407.85Z" style="fill: #16A34A; stroke: rgb(38, 50, 56); stroke-miterlimit: 10; transform-origin: 396.2px 397.805px;" id="elc5z7gkynzsg" class="animable"></path><path d="M374.62,390.29A33,33,0,0,0,364.34,377c-7.53-5.77-11.79-6-11.79-6s1.75,10.53,7.77,15.8S374.62,390.29,374.62,390.29Z" style="fill: #16A34A; stroke: rgb(38, 50, 56); stroke-miterlimit: 10; transform-origin: 363.585px 380.79px;" id="elp0fu0xde7m" class="animable"></path><line x1="380.64" y1="439.95" x2="380.64" y2="378.75" style="fill: none; stroke: rgb(38, 50, 56); stroke-miterlimit: 10; transform-origin: 380.64px 409.35px;" id="elji9zfa95ek" class="animable"></line><line x1="380.89" y1="425.91" x2="367.85" y2="414.12" style="fill: none; stroke: rgb(38, 50, 56); stroke-miterlimit: 10; transform-origin: 374.37px 420.015px;" id="elayhl4lh9k44" class="animable"></line><line x1="381.14" y1="411.61" x2="395.19" y2="398.82" style="fill: none; stroke: rgb(38, 50, 56); stroke-miterlimit: 10; transform-origin: 388.165px 405.215px;" id="elj8nmxrk5p48" class="animable"></line><line x1="380.64" y1="395.05" x2="364.34" y2="383.27" style="fill: none; stroke: rgb(38, 50, 56); stroke-miterlimit: 10; transform-origin: 372.49px 389.16px;" id="el7k0xm69lvww" class="animable"></line><line x1="381.14" y1="383.77" x2="389.42" y2="375.74" style="fill: none; stroke: rgb(38, 50, 56); stroke-miterlimit: 10; transform-origin: 385.28px 379.755px;" id="els6c3di9vm3" class="animable"></line><path d="M359.19,445.73s17.82-8.41,21.54-8.66S402.51,446,402.51,446Z" style="fill: rgb(38, 50, 56); stroke: rgb(38, 50, 56); stroke-miterlimit: 10; transform-origin: 380.85px 441.533px;" id="el6qnm2780v9" class="animable"></path></g><g id="freepik--plant-1--inject-229" class="animable" style="transform-origin: 116.65px 400.585px;"><path d="M114.73,422.14s-1.25-6.77-5.77-11.28-10-5-14-6.27a29,29,0,0,1-8-4.52s4.77,11,7.78,14.8,7,6.27,9.53,6.77S114.73,422.14,114.73,422.14Z" style="fill: #16A34A; stroke: rgb(38, 50, 56); stroke-miterlimit: 10; transform-origin: 100.845px 411.105px;" id="el0885sz7kdql5" class="animable"></path><path d="M122.26,381s0-6.27,2.5-9.28,15.81-7.28,15.81-7.28-3.77,7.78-9,12S122.26,381,122.26,381Z" style="fill: #16A34A; stroke: rgb(38, 50, 56); stroke-miterlimit: 10; transform-origin: 131.415px 372.72px;" id="elwskz8wcjoi9" class="animable"></path><path d="M118.74,386.28s-3-.25-4-8.28,3.76-22.83,3.76-22.83,5,12,4.27,19.57S121.25,382,118.74,386.28Z" style="fill: #16A34A; stroke: rgb(38, 50, 56); stroke-miterlimit: 10; transform-origin: 118.722px 370.725px;" id="elf76tjni13bq" class="animable"></path><path d="M122.76,407.85s.5-10.54,7.27-14.3A166.27,166.27,0,0,1,146.34,386s-2.76,9.28-6.53,13.29-7.52,8.78-11,10A5.83,5.83,0,0,1,122.76,407.85Z" style="fill: #16A34A; stroke: rgb(38, 50, 56); stroke-miterlimit: 10; transform-origin: 134.55px 397.801px;" id="el6hu5c9alx8" class="animable"></path><path d="M113,390.29A32.94,32.94,0,0,0,102.69,377c-7.52-5.77-11.79-6-11.79-6s1.76,10.53,7.78,15.8S113,390.29,113,390.29Z" style="fill: #16A34A; stroke: rgb(38, 50, 56); stroke-miterlimit: 10; transform-origin: 101.95px 380.79px;" id="ellnsbekz70u" class="animable"></path><line x1="119" y1="439.95" x2="119" y2="378.75" style="fill: none; stroke: rgb(38, 50, 56); stroke-miterlimit: 10; transform-origin: 119px 409.35px;" id="el5aos8y0lgst" class="animable"></line><line x1="119.25" y1="425.91" x2="106.2" y2="414.12" style="fill: none; stroke: rgb(38, 50, 56); stroke-miterlimit: 10; transform-origin: 112.725px 420.015px;" id="elicn8byqa5m" class="animable"></line><line x1="119.5" y1="411.61" x2="133.54" y2="398.82" style="fill: none; stroke: rgb(38, 50, 56); stroke-miterlimit: 10; transform-origin: 126.52px 405.215px;" id="elyun7m1n655e" class="animable"></line><line x1="119" y1="395.05" x2="102.69" y2="383.27" style="fill: none; stroke: rgb(38, 50, 56); stroke-miterlimit: 10; transform-origin: 110.845px 389.16px;" id="ell5njb4fhhpf" class="animable"></line><line x1="119.5" y1="383.77" x2="127.77" y2="375.74" style="fill: none; stroke: rgb(38, 50, 56); stroke-miterlimit: 10; transform-origin: 123.635px 379.755px;" id="elt4eymvh0jdo" class="animable"></line><path d="M97.54,445.73s17.83-8.41,21.54-8.66S140.87,446,140.87,446Z" style="fill: rgb(38, 50, 56); stroke: rgb(38, 50, 56); stroke-miterlimit: 10; transform-origin: 119.205px 441.533px;" id="eljov1j40ydq" class="animable"></path></g><g id="freepik--Floor--inject-229" class="animable" style="transform-origin: 247.245px 445.95px;"><line x1="450.65" y1="445.95" x2="43.84" y2="445.95" style="fill: none; stroke: rgb(38, 50, 56); stroke-miterlimit: 10; transform-origin: 247.245px 445.95px;" id="els2cwdfed84g" class="animable"></line></g><g id="freepik--Clouds--inject-229" class="animable" style="transform-origin: 254.79px 117.365px;"><path d="M173.31,73.1S162,59.83,150.75,59.83s-15.26,6.63-19.24,8.62-13.27-3.31-20.57-4-11.94,8-14.6,9.29-8.62-2.65-15.26,0-6.63,6-9.29,6-8.62-3.31-13.27-3.31-11.94,6.63-11.94,6.63H204.49s-3.31-6.63-12.6-8.62S182.6,76.42,173.31,73.1Z" style="fill: none; stroke: rgb(38, 50, 56); stroke-miterlimit: 10; transform-origin: 125.535px 71.445px;" id="el0a5h3htajb3" class="animable"></path><path d="M443.35,168.64s-7.09-8.34-14.18-8.34-9.59,4.17-12.09,5.42-8.34-2.08-12.93-2.5-7.51,5-9.18,5.84-5.42-1.67-9.59,0-4.17,3.75-5.84,3.75-5.42-2.08-8.34-2.08-7.5,4.17-7.5,4.17H463a11.63,11.63,0,0,0-7.92-5.42C449.19,168.23,449.19,170.73,443.35,168.64Z" style="fill: none; stroke: rgb(38, 50, 56); stroke-miterlimit: 10; transform-origin: 413.35px 167.6px;" id="el7rs6k0vndt3" class="animable"></path><path d="M137,170.92s-4.51-5.3-9-5.3-6.1,2.65-7.69,3.45-5.3-1.33-8.21-1.59-4.77,3.18-5.83,3.71-3.45-1.06-6.1,0-2.65,2.38-3.71,2.38-3.44-1.32-5.3-1.32-4.77,2.65-4.77,2.65h63.07a7.4,7.4,0,0,0-5-3.45C140.68,170.66,140.68,172.25,137,170.92Z" style="fill: none; stroke: rgb(38, 50, 56); stroke-miterlimit: 10; transform-origin: 117.925px 170.26px;" id="el5kr29c0w0a" class="animable"></path></g><g id="freepik--Sun--inject-229" class="animable" style="transform-origin: 384.3px 82.06px;"><circle cx="384.3" cy="82.4" r="31.86" style="fill: none; stroke: rgb(38, 50, 56); stroke-miterlimit: 10; transform-origin: 384.3px 82.4px;" id="elvx5kqoz09d" class="animable"></circle><line x1="384.3" y1="125.52" x2="384.3" y2="140.78" style="fill: none; stroke: rgb(38, 50, 56); stroke-miterlimit: 10; transform-origin: 384.3px 133.15px;" id="elkszuw9w0yaf" class="animable"></line><line x1="384.3" y1="23.34" x2="384.3" y2="38.6" style="fill: none; stroke: rgb(38, 50, 56); stroke-miterlimit: 10; transform-origin: 384.3px 30.97px;" id="elq9qgd77ibj" class="animable"></line><line x1="427.76" y1="82.06" x2="443.02" y2="82.06" style="fill: none; stroke: rgb(38, 50, 56); stroke-miterlimit: 10; transform-origin: 435.39px 82.06px;" id="elc37k20tqutp" class="animable"></line><line x1="325.58" y1="82.06" x2="340.84" y2="82.06" style="fill: none; stroke: rgb(38, 50, 56); stroke-miterlimit: 10; transform-origin: 333.21px 82.06px;" id="ellknm5hovek" class="animable"></line><line x1="415.03" y1="51.33" x2="425.82" y2="40.53" style="fill: none; stroke: rgb(38, 50, 56); stroke-miterlimit: 10; transform-origin: 420.425px 45.93px;" id="el1qybyzlyucx" class="animable"></line><line x1="342.78" y1="123.58" x2="353.57" y2="112.79" style="fill: none; stroke: rgb(38, 50, 56); stroke-miterlimit: 10; transform-origin: 348.175px 118.185px;" id="elrm74plngun" class="animable"></line><line x1="353.57" y1="51.33" x2="342.78" y2="40.53" style="fill: none; stroke: rgb(38, 50, 56); stroke-miterlimit: 10; transform-origin: 348.175px 45.93px;" id="elopc2uiz3rff" class="animable"></line><line x1="425.82" y1="123.58" x2="415.03" y2="112.79" style="fill: none; stroke: rgb(38, 50, 56); stroke-miterlimit: 10; transform-origin: 420.425px 118.185px;" id="elwkdw0p0agpb" class="animable"></line></g><g id="freepik--Character--inject-229" class="animable" style="transform-origin: 247.981px 277.681px;"><path d="M316.06,209s4.1-3.42,4.44-13.33-9.91-16.74-9.91-16.74,1.37-6.83.34-12.29S299,156.69,299,156.69a28.8,28.8,0,0,0-.69-11.62c-1.71-5.46-9.56-7.17-9.56-7.17-15.81-22-34.14-16.18-37.41-14.9-3.27-1.28-21.6-7.11-37.41,14.9,0,0-7.86,1.71-9.57,7.17a28.91,28.91,0,0,0-.68,11.62s-10.93,4.44-12,9.91.34,12.29.34,12.29-10.24,6.84-9.9,16.74S186.58,209,186.58,209s-6.15,3.76-6.15,8.54,5.81,12.3,10.93,13.66c4.84,1.29,54.41.15,60,0,5.54.13,55.12,1.27,59.95,0,5.13-1.36,10.94-8.88,10.94-13.66S316.06,209,316.06,209Z" style="fill: rgb(38, 50, 56); stroke: rgb(38, 50, 56); stroke-miterlimit: 10; transform-origin: 251.34px 176.577px;" id="eld6fr45z5c5t" class="animable"></path><path d="M229,201s-32.86,17.55-38.13,24.33,11.54,79.51,12,82.26,1.51,11.29,33.61,13.8,47.66-4.26,49.92-6.77a55.65,55.65,0,0,1,4.26-4.27s25.58-79.26,22.32-85-25.08-18.82-31.85-22.08-9.78-3.51-9.78-3.51Z" style="fill: #16A34A; transform-origin: 251.558px 260.849px;" id="elo23im2i382" class="animable"></path><g id="el0r7t69t8xu6s"><path d="M229,201s-32.86,17.55-38.13,24.33,11.54,79.51,12,82.26,1.51,11.29,33.61,13.8,47.66-4.26,49.92-6.77a55.65,55.65,0,0,1,4.26-4.27s25.58-79.26,22.32-85-25.08-18.82-31.85-22.08-9.78-3.51-9.78-3.51Z" style="fill: rgb(255, 255, 255); opacity: 0.3; transform-origin: 251.558px 260.849px;" class="animable" id="elxs12hgrcgi"></path></g><g id="elkkigobq3xnc"><path d="M308.77,246v-1.64h1.3l.67-2.74h-2v-8.75h3.83c.18-1,.32-1.91.42-2.74h-4.25v-6h3.3c-3.66-4.35-14.25-11.3-22.45-16.13v1.36h-6v-1.64h5.54c-1.76-1-3.4-2-4.83-2.73h-.71v-.39c-1-.51-1.81-.95-2.49-1.28l-.25-.11V205h-8.75v-5c-.52-.1-.78-.13-.78-.13l-2,.06V205h-1.64v-5.07l-14.77.44V205h-6v-4.46l-2.73.08V205h-8.76v-4.12l-2.73.08v4h-1.64v-4L229,201s-5.65,3-12.64,7v1.26h-2.18c-9.45,5.5-20.45,12.36-23.31,16-2.57,3.3.12,22.34,3.61,41.28v-5.89h1.64v6h-1.62l.51,2.73h1.11v5.78c1.64,8.38,3.3,16.24,4.57,22.12h6.92v6H202c.25,1.12.45,2,.6,2.74h5v8.28a28.27,28.27,0,0,0,6.94,3.21h1.81v.55a103.18,103.18,0,0,0,20.16,3.22c18,1.4,30.73-.1,38.9-2.13h-3.25v-1.64h8.67a18.31,18.31,0,0,0,5.33-2.74h-2.51v-8.75h6v5.17l1-.95s7.41-22.95,13.75-45.06v-4.57h1.29c1.46-5.17,2.82-10.2,4-14.77Zm-112.7,0h-1.64v-1.64h1.64Zm0-4.38h-1.64v-8.75h1.64Zm0-11.49h-1.64v-6h1.64Zm11.49,52.52h-8.75V281h8.75Zm0-4.37h-8.75V269.5h8.75Zm0-11.49h-8.75v-6h8.75Zm0-20.79h-8.75v-1.64h8.75Zm0-4.38h-8.75v-8.75h8.75Zm0-11.49h-8.75v-6h8.75Zm8.75,84.8h-6v-8.75h6Zm0-11.49h-6v-6h6Zm0-20.79h-6V281h6Zm0-4.37h-6V269.5h6Zm0-11.49h-6v-6h6Zm0-20.79h-6v-1.64h6Zm0-4.38h-6v-8.75h6Zm0-11.49h-6v-6h6Zm16.42,89.18h-1.64v-1.64h1.64Zm0-4.38h-1.64v-8.75h1.64Zm0-11.49h-1.64v-6h1.64Zm0-20.79h-1.64V281h1.64Zm0-4.37h-1.64V269.5h1.64Zm0-11.49h-1.64v-6h1.64Zm0-20.79h-1.64v-1.64h1.64Zm0-4.38h-1.64v-8.75h1.64Zm0-11.49h-1.64v-6h1.64Zm0-20.79h-1.64v-1.64h1.64Zm11.49,110h-8.76v-1.64h8.76Zm0-4.38h-8.76v-8.75h8.76Zm0-11.49h-8.76v-6h8.76Zm0-20.79h-8.76V281h8.76Zm0-4.37h-8.76V269.5h8.76Zm0-11.49h-8.76v-6h8.76Zm0-20.79h-8.76v-1.64h8.76Zm0-4.38h-8.76v-8.75h8.76Zm0-11.49h-8.76v-6h8.76Zm0-20.79h-8.76v-1.64h8.76Zm8.75,110h-6v-1.64h6Zm0-4.38h-6v-8.75h6Zm0-11.49h-6v-6h6Zm0-20.79h-6V281h6Zm0-4.37h-6V269.5h6Zm0-11.49h-6v-6h6ZM253,246h-6v-1.64h6Zm0-4.38h-6v-8.75h6Zm0-11.49h-6v-6h6Zm0-20.79h-6v-1.64h6Zm16.41,110h-1.64v-1.64h1.64Zm0-4.38h-1.64v-8.75h1.64Zm0-11.49h-1.64v-6h1.64Zm0-20.79h-1.64V281h1.64Zm0-4.37h-1.64V269.5h1.64Zm0-11.49h-1.64v-6h1.64Zm0-20.79h-1.64v-1.64h1.64Zm0-4.38h-1.64v-8.75h1.64Zm0-11.49h-1.64v-6h1.64Zm0-20.79h-1.64v-1.64h1.64Zm11.49,105.59h-8.75v-8.75h8.75Zm0-11.49h-8.75v-6h8.75Zm0-20.79h-8.75V281h8.75Zm0-4.37h-8.75V269.5h8.75Zm0-11.49h-8.75v-6h8.75Zm0-20.79h-8.75v-1.64h8.75Zm0-4.38h-8.75v-8.75h8.75Zm0-11.49h-8.75v-6h8.75Zm0-20.79h-8.75v-1.64h8.75Zm8.75,94.1h-6v-6h6Zm0-20.79h-6V281h6Zm0-4.37h-6V269.5h6Zm0-11.49h-6v-6h6Zm0-20.79h-6v-1.64h6Zm0-4.38h-6v-8.75h6Zm0-11.49h-6v-6h6ZM306,246H304.4v-1.64H306Zm0-4.38H304.4v-8.75H306Zm0-11.49H304.4v-6H306Z" style="opacity: 0.15; transform-origin: 251.42px 260.848px;" class="animable" id="elca46bbbjykd"></path></g><path d="M229,201s-32.86,17.55-38.13,24.33,11.54,79.51,12,82.26,1.51,11.29,33.61,13.8,47.66-4.26,49.92-6.77a55.65,55.65,0,0,1,4.26-4.27s25.58-79.26,22.32-85-25.08-18.82-31.85-22.08-9.78-3.51-9.78-3.51Z" style="fill: none; stroke: rgb(38, 50, 56); stroke-miterlimit: 10; transform-origin: 251.558px 260.849px;" id="eldr4iqcobxx" class="animable"></path><path d="M188.92,395.49s-5.56.6-8.51,3.12-5.1,11.34-5.1,11.34l-11.65,25.54c-2.1,4.63-.84,8.83.42,9.25s7.15.42,7.15.42h21.94a6.21,6.21,0,0,0,.57-4c-.76-2.64-3.13-5.55-1.91-7.74,2.1-3.78,10.37-17.32,7-27.41S188.92,395.49,188.92,395.49Z" style="fill: rgb(38, 50, 56); stroke: rgb(38, 50, 56); stroke-miterlimit: 10; transform-origin: 181.082px 420.325px;" id="el4wiqzlsu3hk" class="animable"></path><path d="M307.05,395.49s5.56.6,8.5,3.12S320.66,410,320.66,410s9.54,20.92,11.64,25.54.85,8.83-.42,9.25-7.14.42-7.14.42H302.8a6.21,6.21,0,0,1-.57-4c.76-2.64,3.12-5.55,1.91-7.74-2.11-3.78-10.37-17.32-7-27.41S307.05,395.49,307.05,395.49Z" style="fill: rgb(38, 50, 56); stroke: rgb(38, 50, 56); stroke-miterlimit: 10; transform-origin: 314.884px 420.35px;" id="elvnn4dgsb4ai" class="animable"></path><path d="M198,445.94H299.19c.82-1.56,11.52-18.35,12.18-38.54a215,215,0,0,0-3.4-43.65L186.56,374.84s-2.76,14.8-.75,35.12C187.71,429.24,195.26,443.47,198,445.94Z" style="fill: rgb(161, 161, 161); stroke: rgb(38, 50, 56); stroke-miterlimit: 10; transform-origin: 248.255px 404.845px;" id="el2hz0oh0u2fl" class="animable"></path><path d="M211.14,210.81l9.53,96.06-16-5.52s-15.05,53.43-17.81,71.24,3,38.87,11.29,50.66,33.61,20.32,50.66,19.32,32.61-5.77,41.89-18.56,16.81-30.6,17.56-56.44-13.8-64.21-13.8-64.21l-17,3.76,18.94-94.94-6-4-6.42,42.27s-9.28,2.76-31.1,2.76-32.36-6-32.36-6l-4-39.13Z" style="fill: rgb(255, 255, 255); stroke: rgb(38, 50, 56); stroke-miterlimit: 10; transform-origin: 247.225px 325.365px;" id="el0fyd40yqoeuo" class="animable"></path><path d="M215.38,316.51s18.07,8.41,31.11,10.94" style="fill: none; stroke: rgb(38, 50, 56); stroke-miterlimit: 10; transform-origin: 230.935px 321.98px;" id="elqw1lcq8l3i" class="animable"></path><path d="M281.38,325.34a59.89,59.89,0,0,1-45,5.89" style="fill: none; stroke: rgb(38, 50, 56); stroke-miterlimit: 10; transform-origin: 258.88px 329.28px;" id="eldteq90zaabm" class="animable"></path><path d="M249.85,327.45a21.39,21.39,0,0,0,10.93-1.69" style="fill: none; stroke: rgb(38, 50, 56); stroke-miterlimit: 10; transform-origin: 255.315px 326.667px;" id="el5ltlls84nzo" class="animable"></path><path d="M246,391.4s-1.25-6.77-5.76-11.29-10-5-14.05-6.27a28.94,28.94,0,0,1-8-4.51s4.77,11,7.78,14.79,7,6.28,9.53,6.78S246,391.4,246,391.4Z" style="fill: #16A34A; stroke: rgb(38, 50, 56); stroke-miterlimit: 10; transform-origin: 232.095px 380.365px;" id="el4mvp57qu1i" class="animable"></path><path d="M253.53,350.26s0-6.27,2.51-9.28,15.8-7.27,15.8-7.27-3.76,7.78-9,12S253.53,350.26,253.53,350.26Z" style="fill: #16A34A; stroke: rgb(38, 50, 56); stroke-miterlimit: 10; transform-origin: 262.685px 341.985px;" id="el64l3xicys6j" class="animable"></path><path d="M250,355.53s-3-.25-4-8.28,3.77-22.82,3.77-22.82,5,12,4.26,19.56S252.53,351.27,250,355.53Z" style="fill: #16A34A; stroke: rgb(38, 50, 56); stroke-miterlimit: 10; transform-origin: 249.983px 339.98px;" id="elk8e70njncni" class="animable"></path><path d="M254,377.1s.5-10.53,7.27-14.29a166,166,0,0,1,16.31-7.53s-2.76,9.28-6.52,13.29-7.53,8.78-11,10A5.85,5.85,0,0,1,254,377.1Z" style="fill: #16A34A; stroke: rgb(38, 50, 56); stroke-miterlimit: 10; transform-origin: 265.79px 367.077px;" id="el5yvxm87lstd" class="animable"></path><path d="M244.25,359.54A33,33,0,0,0,234,346.25c-7.53-5.77-11.79-6-11.79-6s1.75,10.54,7.77,15.8S244.25,359.54,244.25,359.54Z" style="fill: #16A34A; stroke: rgb(38, 50, 56); stroke-miterlimit: 10; transform-origin: 233.23px 350.038px;" id="eleug56ehfcfb" class="animable"></path><line x1="250.27" y1="409.21" x2="250.27" y2="348.01" style="fill: none; stroke: rgb(38, 50, 56); stroke-miterlimit: 10; transform-origin: 250.27px 378.61px;" id="el6769pgvxgl" class="animable"></line><line x1="250.52" y1="395.16" x2="237.48" y2="383.37" style="fill: none; stroke: rgb(38, 50, 56); stroke-miterlimit: 10; transform-origin: 244px 389.265px;" id="el0w4t0uf77blp" class="animable"></line><line x1="250.77" y1="380.86" x2="264.82" y2="368.07" style="fill: none; stroke: rgb(38, 50, 56); stroke-miterlimit: 10; transform-origin: 257.795px 374.465px;" id="elvr5t5ez4w9j" class="animable"></line><line x1="250.27" y1="364.31" x2="233.97" y2="352.52" style="fill: none; stroke: rgb(38, 50, 56); stroke-miterlimit: 10; transform-origin: 242.12px 358.415px;" id="elcv96p7finnq" class="animable"></line><line x1="250.77" y1="353.02" x2="259.05" y2="345" style="fill: none; stroke: rgb(38, 50, 56); stroke-miterlimit: 10; transform-origin: 254.91px 349.01px;" id="elb3a3132kb3a" class="animable"></line><path d="M308.72,447.32s-30.64-20.7-34.07-24.82-9.2-8.83-14.35-10.89-8.93-4.81-18.89,0-10.81,11.37-13,12.9L195.39,448l-10,3.78s15.11-.69,18.89-1.38,12.7-.68,12.7-.68-9.27,4.12-4.12,4.46,14.77-3.43,17.17-3.78,4.12-.34,12.37,2.06,9.61,3.44,10.64,2.75a28.43,28.43,0,0,0,3.44-3.78s-5.84,1,11.67,3.09S285,451.44,285,451.44s6.18,0,12-.34,8.59,1.72,14.43,1.72S308.72,447.32,308.72,447.32Z" style="fill: rgb(38, 50, 56); stroke: rgb(38, 50, 56); stroke-miterlimit: 10; transform-origin: 249.43px 432.179px;" id="elff1bt2s1c9b" class="animable"></path><path d="M260.3,233.13l-3.51,72.49,16.8-1.76,3-86.78S270.58,231.63,260.3,233.13Z" style="fill: rgb(161, 161, 161); stroke: rgb(38, 50, 56); stroke-miterlimit: 10; transform-origin: 266.69px 261.35px;" id="elfaek7clzw3" class="animable"></path><path d="M229.45,196s-3.51,3.26-3.26,5-2,2.76-.75,7.27,13.29,30.35,16.55,32.61,12.29,5,16.81,1.75,17.3-19.81,18.81-28.34,2.26-13.29-2.26-18.81L270.84,190s-1.51,8.53-14.3,12.79S229.45,196,229.45,196Z" style="fill: rgb(161, 161, 161); stroke: rgb(38, 50, 56); stroke-miterlimit: 10; transform-origin: 251.919px 217.062px;" id="eluyuz720njdf" class="animable"></path><path d="M236,204s14.05,25.33,17.81,23.32,10.79-25.58,10.79-25.58Z" style="fill: rgb(255, 255, 255); stroke: rgb(38, 50, 56); stroke-miterlimit: 10; transform-origin: 250.3px 214.587px;" id="eli65tg1aeuca" class="animable"></path><path d="M253.78,227.36s-6.77,3.26-10.28,3.26-10-10-13.05-15.05" style="fill: none; stroke: rgb(38, 50, 56); stroke-miterlimit: 10; transform-origin: 242.115px 223.095px;" id="ela7zsboed1gl" class="animable"></path><path d="M273.09,193s2.51,9,.5,17.81-5.26,17.81-12,20.31" style="fill: none; stroke: rgb(38, 50, 56); stroke-miterlimit: 10; transform-origin: 267.98px 212.06px;" id="eliwa6ng1odt8" class="animable"></path><path d="M280.83,165.16s.33-7,4.48-4.55-.63,13.53-2.76,16a19.23,19.23,0,0,1-5,4.05l2.14-13.54Z" style="fill: rgb(255, 255, 255); stroke: rgb(38, 50, 56); stroke-miterlimit: 10; transform-origin: 282.25px 170.375px;" id="elmfno1f0jr3m" class="animable"></path><path d="M218.19,162.37s3.23,22.63,5.49,27.87,12,17.58,19.33,21a15.13,15.13,0,0,0,15.88-1.38c2.86-2,10.82-11.1,15.19-18.65s6-30.85,6-30.85l-1.74-16.51s-35.17-21-42.5-20-20.91,28.21-20.06,31.46A60.26,60.26,0,0,0,218.19,162.37Z" style="fill: rgb(255, 255, 255); stroke: rgb(38, 50, 56); stroke-miterlimit: 10; transform-origin: 247.911px 168.341px;" id="eln3d5z90qaae" class="animable"></path><path d="M245.78,189.72s3.36,3.23,9.28.18" style="fill: none; stroke: rgb(38, 50, 56); stroke-miterlimit: 10; transform-origin: 250.42px 190.465px;" id="elvoo4ir5ljmf" class="animable"></path><path d="M242.92,197s6.54,5.21,15.11-.87" style="fill: none; stroke: rgb(38, 50, 56); stroke-miterlimit: 10; transform-origin: 250.475px 197.604px;" id="eljyqrrj16xjr" class="animable"></path><path d="M228.28,166.56s6-4.06,12.14-1.85" style="fill: none; stroke: rgb(38, 50, 56); stroke-miterlimit: 10; transform-origin: 234.35px 165.306px;" id="elo06mculj6v" class="animable"></path><path d="M257.48,165.08s7.92-2.81,12.19,2.41" style="fill: none; stroke: rgb(38, 50, 56); stroke-miterlimit: 10; transform-origin: 263.575px 165.907px;" id="elsqtvmgqxwg" class="animable"></path><path d="M237.21,174.38c-.08,1.59-.92,2.88-1.9,2.89s-1.69-1.28-1.62-2.87.92-2.88,1.9-2.89S237.28,172.79,237.21,174.38Z" style="fill: rgb(38, 50, 56); transform-origin: 235.45px 174.39px;" id="elgv9o9wvpsmr" class="animable"></path><path d="M263.83,174.18c-.07,1.59-.92,2.88-1.89,2.89s-1.7-1.28-1.62-2.87.92-2.88,1.89-2.89S263.91,172.58,263.83,174.18Z" style="fill: rgb(38, 50, 56); transform-origin: 262.075px 174.19px;" id="el2vnj1tulyt" class="animable"></path><path d="M240.09,134.41s-1.67,3.52-4,9.29-8.08,11.59-11.4,12.86a37.51,37.51,0,0,1-6.62,1.81s2.08,4,.07,4-3.78-5.23-3.78-5.23-6.71-17.48-2.53-31.54a27.31,27.31,0,0,1,16.66-17.9s6.48-9.57,24.71-7.45,27.42,9.56,33.8,28.79-3.16,29.83-4.48,31.09-.45,4.27-1.74,5-2.86-3.24-2.86-3.24A62.58,62.58,0,0,1,261.52,154c-7.29-5.2-15.79-16.66-17.69-19.15S240.09,134.41,240.09,134.41Z" style="fill: rgb(38, 50, 56); stroke: rgb(38, 50, 56); stroke-miterlimit: 10; transform-origin: 249.818px 132.582px;" id="elenin3hnhs9" class="animable"></path><path d="M218.19,162.37s-2.83-4-5-.46-1.19,9.28.9,12.77,7.08,5.78,7.08,5.78Z" style="fill: rgb(255, 255, 255); stroke: rgb(38, 50, 56); stroke-miterlimit: 10; transform-origin: 216.569px 170.454px;" id="elc2egeqqct8g" class="animable"></path><path d="M209.13,213.32s-31.85,18.06-33.61,26.33,6.53,58.19,6.53,58.19l-.26,38.63s9-4.77,16.56-4.77,12.79.25,12.79.25-4.77-32.1-4.77-33.1.26-54.43.26-54.43" style="fill: #16A34A; transform-origin: 193.207px 274.895px;" id="el76n02kpzmnj" class="animable"></path><g id="elq5xxmx8qrp"><path d="M209.13,213.32s-31.85,18.06-33.61,26.33,6.53,58.19,6.53,58.19l-.26,38.63s9-4.77,16.56-4.77,12.79.25,12.79.25-4.77-32.1-4.77-33.1.26-54.43.26-54.43" style="fill: rgb(255, 255, 255); opacity: 0.3; transform-origin: 193.207px 274.895px;" class="animable" id="elu0daamlayvr"></path></g><g id="eltzb7xklg3dl"><path d="M207.56,307.52v7.39h-8.75v-8.75h8.55c-.14-1-.27-1.91-.38-2.74h-8.17v-6h7.57c0-2.53,0-8.12.07-14.77h-7.64V281h7.65c0-.9,0-1.81,0-2.73h-7.66V269.5h7.7c0-.91,0-1.83,0-2.73h-7.71v-6h7.74c0-6.61.06-12.18.07-14.77h-7.81v-1.64h7.82l.22-2.74h-8v-8.75h8.75l1.57-19.53s-20.44,11.59-29.47,20.46v7.82h-4.35c0,.79,0,1.71,0,2.74h4.36V246h-4.31c.19,4,.69,9.18,1.35,14.77h3v6h-2.21l.36,2.73h1.85v8.76H179c.13.92.27,1.84.4,2.73h.23v1.56c1.3,8.74,2.39,15.29,2.39,15.29l-.26,38.63s9-4.77,16.56-4.77,12.79.25,12.79.25S209,317.34,207.56,307.52Zm-8.75-83.43h8.75v6h-8.75Zm-2.74,95.2h-1.64v-1.64h1.64Zm0-4.38h-1.64v-8.75h1.64Zm0-11.49h-1.64v-6h1.64Zm0-20.79h-1.64V281h1.64Zm0-4.37h-1.64V269.5h1.64Zm0-11.49h-1.64v-6h1.64Zm0-20.79h-1.64v-1.64h1.64Zm0-4.38h-1.64v-8.75h1.64Zm0-11.49h-1.64v-6h1.64Zm11.49,89.18h-8.75v-1.64h8.75Z" style="opacity: 0.15; transform-origin: 193.22px 274.905px;" class="animable" id="el55ov5qs66fu"></path></g><path d="M209.13,213.32s-31.85,18.06-33.61,26.33,6.53,58.19,6.53,58.19l-.26,38.63s9-4.77,16.56-4.77,12.79.25,12.79.25-4.77-32.1-4.77-33.1.26-54.43.26-54.43" style="fill: none; stroke: rgb(38, 50, 56); stroke-miterlimit: 10; transform-origin: 193.207px 274.895px;" id="elgw2s287a0fa" class="animable"></path><path d="M193.58,323.93s-10,5-12.79,7.77-3.51,3.77-2.76,4.77,2.26,17,4.27,18.81,8.52,4.77,19.31,1.25,13.54-7.27,14-9.78-.76-4.51-2-12S209.13,320.92,193.58,323.93Z" style="fill: rgb(161, 161, 161); stroke: rgb(38, 50, 56); stroke-miterlimit: 10; transform-origin: 196.731px 340.669px;" id="elr5bqvblwlck" class="animable"></path><path d="M210.64,346.25s-4.52-1.5-13.29-.5-10.29,5.77-10.29,5.77,14.55,39.63,17.81,46.9-1,17.31-1.5,20.07-.51,12.29-.51,12.29,3.77,9.28,3.51,12.29,3,2.51,3.27.25-2-10-2-10,10,8,10.78,8.77,3.77,0,2.26-2.25a61.55,61.55,0,0,0-4.76-5.77s6.27,4.51,8,4a1.56,1.56,0,0,0,1.26-2s2.5,0,2.76-2-3.52-9.78-3.77-11.54,3-8.53,3-8.53,6.52,4.77,8.53,5,7.53-1.51,6.27-4-3.51-1.76-7.52-5a27,27,0,0,0-11.29-5c-1.76-.25-4-3-4-3Z" style="fill: rgb(255, 255, 255); stroke: rgb(38, 50, 56); stroke-miterlimit: 10; transform-origin: 214.607px 395.289px;" id="el3jt358tsgr9" class="animable"></path><polyline points="218.92 414.47 215.91 421.25 225.19 436.04" style="fill: none; stroke: rgb(38, 50, 56); stroke-miterlimit: 10; transform-origin: 220.55px 425.255px;" id="elqoyljklpjtl" class="animable"></polyline><path d="M212.65,420.24s-4.27,8.53-2.26,9,5.52,4.77,5.52,4.77" style="fill: none; stroke: rgb(38, 50, 56); stroke-miterlimit: 10; transform-origin: 212.881px 427.125px;" id="eljm3iykyqca" class="animable"></path><path d="M207.88,422.75s-4,4.52-3,6.27,2.76,4.27,2.76,4.27" style="fill: none; stroke: rgb(38, 50, 56); stroke-miterlimit: 10; transform-origin: 206.3px 428.02px;" id="elnluuz2fcy6k" class="animable"></path><line x1="206.37" y1="298.85" x2="196.09" y2="270.75" style="fill: rgb(255, 255, 255); stroke: rgb(38, 50, 56); stroke-miterlimit: 10; transform-origin: 201.23px 284.8px;" id="el2za325020hk" class="animable"></line><path d="M298.7,213.94s25.93,12.92,27.69,21.2-9.6,62.7-9.6,62.7l.25,38.63s-9-4.77-16.56-4.77-12.79.25-12.79.25,4.77-32.1,4.77-33.1-.25-54.43-.25-54.43" style="fill: #16A34A; transform-origin: 307.133px 275.205px;" id="ely8a0b1tcorc" class="animable"></path><g id="ellm6bzcdron8"><path d="M298.7,213.94s25.93,12.92,27.69,21.2-9.6,62.7-9.6,62.7l.25,38.63s-9-4.77-16.56-4.77-12.79.25-12.79.25,4.77-32.1,4.77-33.1-.25-54.43-.25-54.43" style="fill: rgb(255, 255, 255); opacity: 0.3; transform-origin: 307.133px 275.205px;" class="animable" id="el5jf29h7f217"></path></g><g id="el0kzws225n4ei"><path d="M326.28,234.78v6.82h-6v-8.75h5.12a17.14,17.14,0,0,0-2.2-2.74h-2.92v-2.68c-.86-.72-1.78-1.44-2.73-2.14v4.82h-8.76v-6h7.1a156.27,156.27,0,0,0-17.17-10.15l-6.49,30.48s.25,53.42.25,54.43c0,.56-1.51,11-2.84,20v.44h-.06c-1,6.79-1.87,12.66-1.87,12.66s5.27-.25,12.79-.25a33.65,33.65,0,0,1,11,2.36H317l-.09-14.77h-8.16v-1.64h8.15l0-2.74h-8.13v-8.75h8.07l0-2.74h-8.05v-6h8.11c.39-1.87,2-9.64,3.77-19.14h-.39V269.5h2c.16-.91.33-1.82.49-2.73h-2.49v-6h3.51c.88-5.33,1.65-10.46,2.16-14.77h-5.67v-1.64h5.86c.45-4.3.6-7.61.27-9.2C326.36,235,326.31,234.9,326.28,234.78ZM306,319.29H304.4v-1.64H306Zm0-4.38H304.4v-8.75H306Zm0-11.49H304.4v-6H306Zm0-20.79H304.4V281H306Zm0-4.37H304.4V269.5H306Zm0-11.49H304.4v-6H306ZM306,246H304.4v-1.64H306Zm0-4.38H304.4v-8.75H306Zm0-11.49H304.4v-6H306Zm11.49,52.52h-8.76V281h8.76Zm0-4.37h-8.76V269.5h8.76Zm0-11.49h-8.76v-6h8.76Zm0-20.79h-8.76v-1.64h8.76Zm0-4.38h-8.76v-8.75h8.76Z" style="opacity: 0.15; transform-origin: 307.149px 274.02px;" class="animable" id="elxl1mvq4zjsg"></path></g><path d="M298.7,213.94s25.93,12.92,27.69,21.2-9.6,62.7-9.6,62.7l.25,38.63s-9-4.77-16.56-4.77-12.79.25-12.79.25,4.77-32.1,4.77-33.1-.25-54.43-.25-54.43" style="fill: none; stroke: rgb(38, 50, 56); stroke-miterlimit: 10; transform-origin: 307.133px 275.205px;" id="el1byttxxtn9s" class="animable"></path><path d="M305.25,323.93s6.12.7,12.79,7.77c2.68,2.84,3.51,3.77,2.76,4.77s-2.26,17-4.26,18.81-8.53,4.77-19.32,1.25-13.54-7.27-14-9.78.75-4.51,2-12S289.7,320.92,305.25,323.93Z" style="fill: rgb(161, 161, 161); stroke: rgb(38, 50, 56); stroke-miterlimit: 10; transform-origin: 302.092px 340.669px;" id="elf9rb2nz5we" class="animable"></path><path d="M288.19,346.25s4.52-1.5,13.3-.5,10.28,5.77,10.28,5.77-14.55,39.63-17.81,46.9,1,17.31,1.51,20.07.5,12.29.5,12.29-3.76,9.28-3.51,12.29-3,2.51-3.26.25,2-10,2-10-10,8-10.78,8.77-3.76,0-2.26-2.25a62.74,62.74,0,0,1,4.77-5.77s-6.27,4.51-8,4a1.55,1.55,0,0,1-1.25-2s-2.51,0-2.76-2,3.51-9.78,3.76-11.54-3-8.53-3-8.53-6.52,4.77-8.53,5-7.52-1.51-6.27-4,3.51-1.76,7.53-5a27,27,0,0,1,11.28-5c1.76-.25,4-3,4-3Z" style="fill: rgb(255, 255, 255); stroke: rgb(38, 50, 56); stroke-miterlimit: 10; transform-origin: 284.234px 395.289px;" id="elto1ucdk7ips" class="animable"></path><polyline points="279.92 414.47 282.93 421.25 273.65 436.04" style="fill: none; stroke: rgb(38, 50, 56); stroke-miterlimit: 10; transform-origin: 278.29px 425.255px;" id="elkdmst4iwsw9" class="animable"></polyline><path d="M286.19,420.24s4.26,8.53,2.25,9-5.51,4.77-5.51,4.77" style="fill: none; stroke: rgb(38, 50, 56); stroke-miterlimit: 10; transform-origin: 285.954px 427.125px;" id="el2idtdr2neky" class="animable"></path><path d="M291,422.75s4,4.52,3,6.27-2.76,4.27-2.76,4.27" style="fill: none; stroke: rgb(38, 50, 56); stroke-miterlimit: 10; transform-origin: 292.58px 428.02px;" id="el15puor6d1j9" class="animable"></path><line x1="292.46" y1="298.85" x2="302.74" y2="270.75" style="fill: rgb(255, 255, 255); stroke: rgb(38, 50, 56); stroke-miterlimit: 10; transform-origin: 297.6px 284.8px;" id="elaxvrtcd6hhc" class="animable"></line></g><defs>     <filter id="active" height="200%">         <feMorphology in="SourceAlpha" result="DILATED" operator="dilate" radius="2"></feMorphology>                <feFlood flood-color="#32DFEC" flood-opacity="1" result="PINK"></feFlood>        <feComposite in="PINK" in2="DILATED" operator="in" result="OUTLINE"></feComposite>        <feMerge>            <feMergeNode in="OUTLINE"></feMergeNode>            <feMergeNode in="SourceGraphic"></feMergeNode>        </feMerge>    </filter>    <filter id="hover" height="200%">        <feMorphology in="SourceAlpha" result="DILATED" operator="dilate" radius="2"></feMorphology>                <feFlood flood-color="#ff0000" flood-opacity="0.5" result="PINK"></feFlood>        <feComposite in="PINK" in2="DILATED" operator="in" result="OUTLINE"></feComposite>        <feMerge>            <feMergeNode in="OUTLINE"></feMergeNode>            <feMergeNode in="SourceGraphic"></feMergeNode>        </feMerge>            <feColorMatrix type="matrix" values="0   0   0   0   0                0   1   0   0   0                0   0   0   0   0                0   0   0   1   0 "></feColorMatrix>    </filter></defs></svg>