<svg class="animated" id="freepik_stories-curiosity-search" xmlns="http://www.w3.org/2000/svg" viewBox="0 0 500 500" version="1.1" xmlns:xlink="http://www.w3.org/1999/xlink" xmlns:svgjs="http://svgjs.com/svgjs"><style>svg#freepik_stories-curiosity-search:not(.animated) .animable {opacity: 0;}svg#freepik_stories-curiosity-search.animated #freepik--background-simple--inject-241 {animation: 1s 1 forwards cubic-bezier(.36,-0.01,.5,1.38) zoomIn;animation-delay: 0s;}svg#freepik_stories-curiosity-search.animated #freepik--plants-2--inject-241 {animation: 1s 1 forwards cubic-bezier(.36,-0.01,.5,1.38) lightSpeedRight;animation-delay: 0s;}svg#freepik_stories-curiosity-search.animated #freepik--plant-1--inject-241 {animation: 1s 1 forwards cubic-bezier(.36,-0.01,.5,1.38) fadeIn;animation-delay: 0s;}svg#freepik_stories-curiosity-search.animated #freepik--Clouds--inject-241 {animation: 1s 1 forwards cubic-bezier(.36,-0.01,.5,1.38) fadeIn;animation-delay: 0s;}svg#freepik_stories-curiosity-search.animated #freepik--Globe--inject-241 {animation: 1s 1 forwards cubic-bezier(.36,-0.01,.5,1.38) slideLeft;animation-delay: 0s;}svg#freepik_stories-curiosity-search.animated #freepik--search-bar--inject-241 {animation: 1s 1 forwards cubic-bezier(.36,-0.01,.5,1.38) slideRight;animation-delay: 0s;}svg#freepik_stories-curiosity-search.animated #freepik--magnifying-glass--inject-241 {animation: 1s 1 forwards cubic-bezier(.36,-0.01,.5,1.38) zoomIn;animation-delay: 0s;}svg#freepik_stories-curiosity-search.animated #freepik--Character--inject-241 {animation: 1s 1 forwards cubic-bezier(.36,-0.01,.5,1.38) fadeIn;animation-delay: 0s;}svg#freepik_stories-curiosity-search.animated #freepik--Floor--inject-241 {animation: 1s 1 forwards cubic-bezier(.36,-0.01,.5,1.38) zoomIn;animation-delay: 0s;}            @keyframes zoomIn {                0% {                    opacity: 0;                    transform: scale(0.5);                }                100% {                    opacity: 1;                    transform: scale(1);                }            }                    @keyframes lightSpeedRight {              from {                transform: translate3d(50%, 0, 0) skewX(-20deg);                opacity: 0;              }              60% {                transform: skewX(10deg);                opacity: 1;              }              80% {                transform: skewX(-2deg);              }              to {                opacity: 1;                transform: translate3d(0, 0, 0);              }            }                    @keyframes fadeIn {                0% {                    opacity: 0;                }                100% {                    opacity: 1;                }            }                    @keyframes slideLeft {                0% {                    opacity: 0;                    transform: translateX(-30px);                }                100% {                    opacity: 1;                    transform: translateX(0);                }            }                    @keyframes slideRight {                0% {                    opacity: 0;                    transform: translateX(30px);                }                100% {                    opacity: 1;                    transform: translateX(0);                }            }        </style><g id="freepik--background-simple--inject-241" class="animable" style="transform-origin: 249.414px 251.253px;"><path d="M480.55,186.69c-1.75-21.7-1.94-40.92-10.76-61.47-7.08-16.5-15-33.2-25.75-47.65-33-44.11-84.59-63.77-138.34-65.78-88.12-3.28-173.9,53-203.36,136.58C97.58,161.86,89.75,173.24,80.9,184c-.93-.56-1.45-2.06-1.45-4.65,0-23.06-26.07,2.73-30.15,9C-3.55,269.59,7.83,403.24,95.9,455.21c36.16,21.34,76.24,31.59,117.84,34.92,37.83,3,78.81-2.68,107.35-29.88,24.72-23.55,33.15-58.52,53.81-84.4a54.74,54.74,0,0,0-5.76,23.8c.07,13.85,35,8.29,70.73-52.84C473.39,289.46,484.54,236.31,480.55,186.69Z" style="fill: #16A34A; transform-origin: 249.414px 251.253px;" id="eljnwwrxt3sal" class="animable"></path><g id="elghxcevhps2j"><path d="M480.55,186.69c-1.75-21.7-1.94-40.92-10.76-61.47-7.08-16.5-15-33.2-25.75-47.65-33-44.11-84.59-63.77-138.34-65.78-88.12-3.28-173.9,53-203.36,136.58C97.58,161.86,89.75,173.24,80.9,184c-.93-.56-1.45-2.06-1.45-4.65,0-23.06-26.07,2.73-30.15,9C-3.55,269.59,7.83,403.24,95.9,455.21c36.16,21.34,76.24,31.59,117.84,34.92,37.83,3,78.81-2.68,107.35-29.88,24.72-23.55,33.15-58.52,53.81-84.4a54.74,54.74,0,0,0-5.76,23.8c.07,13.85,35,8.29,70.73-52.84C473.39,289.46,484.54,236.31,480.55,186.69Z" style="fill: rgb(255, 255, 255); opacity: 0.7; transform-origin: 249.414px 251.253px;" class="animable" id="el31zvt2a8k86"></path></g></g><g id="freepik--plants-2--inject-241" class="animable" style="transform-origin: 263.922px 414.75px;"><path d="M448.43,380c.07,0,.78-5.18.78-5.51.08-3.87-2-11.38-6.14-12.79a5.11,5.11,0,0,0-6.55,3.89c-.7,3,1,6.32,2.87,8.54C441.56,376.75,448.42,380,448.43,380Z" style="fill: rgb(38, 50, 56); transform-origin: 442.786px 370.732px;" id="elscurgdtk78" class="animable"></path><path d="M371.91,387.42c3.24,1,10.77-.08,10.77-.08s-2.2-4.75-2.38-5c-2.07-3.27-8-8.36-12.18-7.28a5.12,5.12,0,0,0-3.32,6.86C365.86,384.76,369.14,386.59,371.91,387.42Z" style="fill: rgb(38, 50, 56); transform-origin: 373.549px 381.379px;" id="elfg9go2gtkkw" class="animable"></path><path d="M410.89,445.8c.72,1.34,1.45,2.69,2.09,4,.42.92.88,1.78,1.25,2.73l1.14,2.76c.66,1.79,1.35,3.63,1.95,5.38.42,1.22.81,2.39,1.2,3.57-.78-1.29-2.37-3.77-2.52-4-2.43-3-8.89-7.39-12.93-5.83a5.12,5.12,0,0,0-2.52,7.19c1.38,2.73,4.86,4.17,7.7,4.69,3.13.56,9.72-1.08,10.54-1.29.63,1.95,1.24,3.85,1.78,5.66,1,3.2,1.78,6.14,2.47,8.74h2.87c-.79-2.79-1.75-6-2.9-9.51-.64-2-1.36-4.09-2.12-6.24a56.06,56.06,0,0,0,5.55-3.46c2.48,2.12,8.45,4.23,9.22,4.5-.54,2-1.09,3.9-1.63,5.7-1,3.35-2,6.38-2.89,9h2.91c.77-2.48,1.6-5.24,2.44-8.3.56-2,1.12-4.16,1.67-6.38.83.08,7.61.63,10.61-.43,2.72-1,5.92-3,6.84-5.86a5.12,5.12,0,0,0-3.64-6.7c-4.24-.88-9.91,4.48-11.82,7.84-.11.2-1.1,2.49-1.69,3.94.22-.9.44-1.78.66-2.72.44-1.85.82-3.71,1.24-5.71l.51-2.94c.2-1,.28-2,.42-3.07.27-2.4.44-4.83.55-7.29,1.62.38,7.4,1.65,10.25,1.1s6.3-2,7.65-4.76a5.13,5.13,0,0,0-2.59-7.17c-4-1.51-10.47,2.93-12.87,6-.15.19-1.63,2.56-2.41,3.88.05-1.48.12-3,.12-4.46,0-4.32-.09-8.7-.18-13.07,0-1.34,0-2.67-.06-4,.58.15,7.41,1.8,10.6,1.2,2.84-.55,6.3-2,7.65-4.76a5.13,5.13,0,0,0-2.58-7.18c-4.06-1.51-10.48,2.94-12.87,6-.19.23-2.31,3.64-2.8,4.53,0-2.94-.05-5.87.05-8.76a93.27,93.27,0,0,1,1.13-11.65c.27.07,7.39,1.83,10.66,1.21,2.84-.54,6.3-2,7.66-4.76a5.13,5.13,0,0,0-2.59-7.17c-4.06-1.52-10.47,2.93-12.87,6-.16.2-1.78,2.8-2.52,4.05l-.23-.09a66.19,66.19,0,0,1,3.23-11.31c.75-2,1.58-3.93,2.43-5.76,1.29.46,7.22,2.52,10.23,2.29s6.48-1.32,8.13-3.89a5.13,5.13,0,0,0-1.79-7.42c-3.86-1.95-10.73,1.77-13.44,4.52-.15.15-1.49,1.83-2.44,3.07.4-.82.79-1.67,1.18-2.45,1.48-2.92,3-5.5,4.39-7.78.79-1.29,1.53-2.44,2.24-3.51,1.5-.2,7.57-1.11,10.08-2.68s5.14-4.15,5.42-7.2a5.11,5.11,0,0,0-5-5.75c-4.33.05-8.71,6.51-9.86,10.2-.09.32-1.07,5.49-1,5.48h.09c-.7,1-1.44,2.11-2.22,3.32-1.43,2.25-3,4.81-4.57,7.71a92.69,92.69,0,0,0-4.54,9.6,67.84,67.84,0,0,0-3.51,11.35s0,.09,0,.14c-.13-1.26-.6-4.78-.67-5-.94-3.74-5-10.43-9.3-10.71a5.12,5.12,0,0,0-5.29,5.48c.11,3.06,2.66,5.82,5,7.48,2.66,1.87,9.61,3.16,10.16,3.26a89.8,89.8,0,0,0-1.44,12c-.14,2.35-.2,4.72-.24,7.1-.14-1.09-.28-2.06-.32-2.19-.94-3.75-5-10.44-9.29-10.72a5.12,5.12,0,0,0-5.3,5.49c.11,3.05,2.66,5.82,5,7.47s8.3,2.9,9.86,3.2c0,.91,0,1.83,0,2.74,0,4.37,0,8.74-.1,13,0,1.51-.13,3-.22,4.48-.13-1-.25-1.77-.28-1.9-.95-3.75-5-10.43-9.3-10.71a5.12,5.12,0,0,0-5.3,5.48c.11,3.06,2.67,5.82,5,7.48s7.72,2.78,9.58,3.14c-.14,1.52-.27,3-.47,4.51-.16,1-.25,2-.46,3s-.39,2-.58,2.94c-.44,1.85-.87,3.76-1.34,5.56-.32,1.25-.64,2.44-1,3.63.06-1.5.11-4.44.09-4.69a20,20,0,0,0-3.8-9.29,6.12,6.12,0,0,0-.2-1.12,5.13,5.13,0,0,0-6.73-3.58c-4,1.6-5.79,9.21-5.54,13.07,0,.22.46,2.67.77,4.22-.32-.88-.62-1.74-1-2.64-.65-1.79-1.35-3.55-2.11-5.45l-1.19-2.74c-.38-.92-.9-1.85-1.35-2.78-1.09-2.15-2.3-4.28-3.56-6.39,1.56-.58,7.08-2.71,9.15-4.73s4.14-5.16,3.76-8.19a5.12,5.12,0,0,0-6.11-4.56c-4.22,1-7.12,8.23-7.45,12.08,0,.24.05,3,.12,4.56-.77-1.26-1.53-2.53-2.35-3.78-2.37-3.62-4.87-7.21-7.36-10.81-.76-1.1-1.51-2.2-2.26-3.31.56-.2,7.17-2.58,9.5-4.85,2.06-2,4.14-5.16,3.75-8.19a5.12,5.12,0,0,0-6.11-4.56c-4.22,1-7.12,8.23-7.45,12.08,0,.29.09,4.3.17,5.32-1.65-2.43-3.28-4.87-4.78-7.34a88.77,88.77,0,0,1-5.49-10.33c.26-.1,7.17-2.56,9.56-4.88,2.06-2,4.14-5.16,3.75-8.19a5.11,5.11,0,0,0-6.11-4.55c-4.22,1-7.12,8.22-7.45,12.07,0,.25.07,3.31.14,4.77l-.24.05A65.08,65.08,0,0,1,384.49,394c-.5-2.11-.85-4.15-1.15-6.14,1.33-.33,7.42-1.88,9.79-3.74s4.68-4.67,4.64-7.73a5.12,5.12,0,0,0-5.58-5.19c-4.3.5-8,7.39-8.73,11.18,0,.2-.22,2.35-.33,3.91-.12-.9-.26-1.83-.36-2.7-.38-3.25-.53-6.25-.64-8.91-.05-1.51-.07-2.88-.07-4.16,1.14-1,5.7-5.11,6.93-7.8s2-6.3.55-9a5.12,5.12,0,0,0-7.34-2c-3.59,2.42-3.68,10.23-2.6,13.94.1.32,2.14,5.17,2.2,5.12l.07-.06c0,1.23,0,2.55,0,4,0,2.66.13,5.68.44,8.95a92.65,92.65,0,0,0,1.51,10.51,67.28,67.28,0,0,0,3.33,11.4l.06.13c-.8-1-3.14-3.65-3.34-3.84-2.86-2.6-9.91-6-13.66-3.8a5.12,5.12,0,0,0-1.4,7.49c1.78,2.49,5.43,3.39,8.32,3.46,3.26.09,9.76-2.67,10.28-2.89a90.32,90.32,0,0,0,5.42,10.82c1.18,2,2.44,4.05,3.72,6.05-.72-.83-1.37-1.56-1.47-1.66-2.86-2.6-9.91-6-13.67-3.8A5.11,5.11,0,0,0,380,425c1.77,2.49,5.43,3.39,8.32,3.46s8.51-2.15,10-2.77L399.8,428c2.41,3.66,4.83,7.29,7.1,10.92.8,1.29,1.54,2.58,2.29,3.87-.65-.74-1.19-1.35-1.29-1.44-2.85-2.6-9.9-5.95-13.66-3.8a5.12,5.12,0,0,0-1.4,7.49c1.78,2.49,5.44,3.39,8.33,3.46S409.14,446.52,410.89,445.8Z" style="fill: rgb(38, 50, 56); transform-origin: 420.246px 414.72px;" id="eltq1z0t7bdii" class="animable"></path><g id="eligj6exjzdn"><path d="M371.91,387.42c3.24,1,10.77-.08,10.77-.08s-2.2-4.75-2.38-5c-2.07-3.27-8-8.36-12.18-7.28a5.12,5.12,0,0,0-3.32,6.86C365.86,384.76,369.14,386.59,371.91,387.42Z" style="fill: rgb(38, 50, 56); opacity: 0.3; transform-origin: 373.549px 381.379px;" class="animable" id="el5f2mhxfyxwp"></path></g><g id="elsziq2eb5w4c"><path d="M448.43,380c.07,0,.78-5.18.78-5.51.08-3.87-2-11.38-6.14-12.79a5.11,5.11,0,0,0-6.55,3.89c-.7,3,1,6.32,2.87,8.54C441.56,376.75,448.42,380,448.43,380Z" style="fill: rgb(38, 50, 56); opacity: 0.3; transform-origin: 442.786px 370.732px;" class="animable" id="elmgaafg8c3v9"></path></g><g id="elhd2cpumeu2j"><path d="M410.89,445.8c.72,1.34,1.45,2.69,2.09,4,.42.92.88,1.78,1.25,2.73l1.14,2.76c.66,1.79,1.35,3.63,1.95,5.38.42,1.22.81,2.39,1.2,3.57-.78-1.29-2.37-3.77-2.52-4-2.43-3-8.89-7.39-12.93-5.83a5.12,5.12,0,0,0-2.52,7.19c1.38,2.73,4.86,4.17,7.7,4.69,3.13.56,9.72-1.08,10.54-1.29.63,1.95,1.24,3.85,1.78,5.66,1,3.2,1.78,6.14,2.47,8.74h2.87c-.79-2.79-1.75-6-2.9-9.51-.64-2-1.36-4.09-2.12-6.24a56.06,56.06,0,0,0,5.55-3.46c2.48,2.12,8.45,4.23,9.22,4.5-.54,2-1.09,3.9-1.63,5.7-1,3.35-2,6.38-2.89,9h2.91c.77-2.48,1.6-5.24,2.44-8.3.56-2,1.12-4.16,1.67-6.38.83.08,7.61.63,10.61-.43,2.72-1,5.92-3,6.84-5.86a5.12,5.12,0,0,0-3.64-6.7c-4.24-.88-9.91,4.48-11.82,7.84-.11.2-1.1,2.49-1.69,3.94.22-.9.44-1.78.66-2.72.44-1.85.82-3.71,1.24-5.71l.51-2.94c.2-1,.28-2,.42-3.07.27-2.4.44-4.83.55-7.29,1.62.38,7.4,1.65,10.25,1.1s6.3-2,7.65-4.76a5.13,5.13,0,0,0-2.59-7.17c-4-1.51-10.47,2.93-12.87,6-.15.19-1.63,2.56-2.41,3.88.05-1.48.12-3,.12-4.46,0-4.32-.09-8.7-.18-13.07,0-1.34,0-2.67-.06-4,.58.15,7.41,1.8,10.6,1.2,2.84-.55,6.3-2,7.65-4.76a5.13,5.13,0,0,0-2.58-7.18c-4.06-1.51-10.48,2.94-12.87,6-.19.23-2.31,3.64-2.8,4.53,0-2.94-.05-5.87.05-8.76a93.27,93.27,0,0,1,1.13-11.65c.27.07,7.39,1.83,10.66,1.21,2.84-.54,6.3-2,7.66-4.76a5.13,5.13,0,0,0-2.59-7.17c-4.06-1.52-10.47,2.93-12.87,6-.16.2-1.78,2.8-2.52,4.05l-.23-.09a66.19,66.19,0,0,1,3.23-11.31c.75-2,1.58-3.93,2.43-5.76,1.29.46,7.22,2.52,10.23,2.29s6.48-1.32,8.13-3.89a5.13,5.13,0,0,0-1.79-7.42c-3.86-1.95-10.73,1.77-13.44,4.52-.15.15-1.49,1.83-2.44,3.07.4-.82.79-1.67,1.18-2.45,1.48-2.92,3-5.5,4.39-7.78.79-1.29,1.53-2.44,2.24-3.51,1.5-.2,7.57-1.11,10.08-2.68s5.14-4.15,5.42-7.2a5.11,5.11,0,0,0-5-5.75c-4.33.05-8.71,6.51-9.86,10.2-.09.32-1.07,5.49-1,5.48h.09c-.7,1-1.44,2.11-2.22,3.32-1.43,2.25-3,4.81-4.57,7.71a92.69,92.69,0,0,0-4.54,9.6,67.84,67.84,0,0,0-3.51,11.35s0,.09,0,.14c-.13-1.26-.6-4.78-.67-5-.94-3.74-5-10.43-9.3-10.71a5.12,5.12,0,0,0-5.29,5.48c.11,3.06,2.66,5.82,5,7.48,2.66,1.87,9.61,3.16,10.16,3.26a89.8,89.8,0,0,0-1.44,12c-.14,2.35-.2,4.72-.24,7.1-.14-1.09-.28-2.06-.32-2.19-.94-3.75-5-10.44-9.29-10.72a5.12,5.12,0,0,0-5.3,5.49c.11,3.05,2.66,5.82,5,7.47s8.3,2.9,9.86,3.2c0,.91,0,1.83,0,2.74,0,4.37,0,8.74-.1,13,0,1.51-.13,3-.22,4.48-.13-1-.25-1.77-.28-1.9-.95-3.75-5-10.43-9.3-10.71a5.12,5.12,0,0,0-5.3,5.48c.11,3.06,2.67,5.82,5,7.48s7.72,2.78,9.58,3.14c-.14,1.52-.27,3-.47,4.51-.16,1-.25,2-.46,3s-.39,2-.58,2.94c-.44,1.85-.87,3.76-1.34,5.56-.32,1.25-.64,2.44-1,3.63.06-1.5.11-4.44.09-4.69a20,20,0,0,0-3.8-9.29,6.12,6.12,0,0,0-.2-1.12,5.13,5.13,0,0,0-6.73-3.58c-4,1.6-5.79,9.21-5.54,13.07,0,.22.46,2.67.77,4.22-.32-.88-.62-1.74-1-2.64-.65-1.79-1.35-3.55-2.11-5.45l-1.19-2.74c-.38-.92-.9-1.85-1.35-2.78-1.09-2.15-2.3-4.28-3.56-6.39,1.56-.58,7.08-2.71,9.15-4.73s4.14-5.16,3.76-8.19a5.12,5.12,0,0,0-6.11-4.56c-4.22,1-7.12,8.23-7.45,12.08,0,.24.05,3,.12,4.56-.77-1.26-1.53-2.53-2.35-3.78-2.37-3.62-4.87-7.21-7.36-10.81-.76-1.1-1.51-2.2-2.26-3.31.56-.2,7.17-2.58,9.5-4.85,2.06-2,4.14-5.16,3.75-8.19a5.12,5.12,0,0,0-6.11-4.56c-4.22,1-7.12,8.23-7.45,12.08,0,.29.09,4.3.17,5.32-1.65-2.43-3.28-4.87-4.78-7.34a88.77,88.77,0,0,1-5.49-10.33c.26-.1,7.17-2.56,9.56-4.88,2.06-2,4.14-5.16,3.75-8.19a5.11,5.11,0,0,0-6.11-4.55c-4.22,1-7.12,8.22-7.45,12.07,0,.25.07,3.31.14,4.77l-.24.05A65.08,65.08,0,0,1,384.49,394c-.5-2.11-.85-4.15-1.15-6.14,1.33-.33,7.42-1.88,9.79-3.74s4.68-4.67,4.64-7.73a5.12,5.12,0,0,0-5.58-5.19c-4.3.5-8,7.39-8.73,11.18,0,.2-.22,2.35-.33,3.91-.12-.9-.26-1.83-.36-2.7-.38-3.25-.53-6.25-.64-8.91-.05-1.51-.07-2.88-.07-4.16,1.14-1,5.7-5.11,6.93-7.8s2-6.3.55-9a5.12,5.12,0,0,0-7.34-2c-3.59,2.42-3.68,10.23-2.6,13.94.1.32,2.14,5.17,2.2,5.12l.07-.06c0,1.23,0,2.55,0,4,0,2.66.13,5.68.44,8.95a92.65,92.65,0,0,0,1.51,10.51,67.28,67.28,0,0,0,3.33,11.4l.06.13c-.8-1-3.14-3.65-3.34-3.84-2.86-2.6-9.91-6-13.66-3.8a5.12,5.12,0,0,0-1.4,7.49c1.78,2.49,5.43,3.39,8.32,3.46,3.26.09,9.76-2.67,10.28-2.89a90.32,90.32,0,0,0,5.42,10.82c1.18,2,2.44,4.05,3.72,6.05-.72-.83-1.37-1.56-1.47-1.66-2.86-2.6-9.91-6-13.67-3.8A5.11,5.11,0,0,0,380,425c1.77,2.49,5.43,3.39,8.32,3.46s8.51-2.15,10-2.77L399.8,428c2.41,3.66,4.83,7.29,7.1,10.92.8,1.29,1.54,2.58,2.29,3.87-.65-.74-1.19-1.35-1.29-1.44-2.85-2.6-9.9-5.95-13.66-3.8a5.12,5.12,0,0,0-1.4,7.49c1.78,2.49,5.44,3.39,8.33,3.46S409.14,446.52,410.89,445.8Z" style="fill: rgb(38, 50, 56); opacity: 0.3; transform-origin: 420.246px 414.72px;" class="animable" id="elpql98g3dp3"></path></g><path d="M105,420.42s.46-3.07.47-3.27c0-2.29-1.22-6.75-3.65-7.59a3,3,0,0,0-3.89,2.31c-.41,1.77.61,3.75,1.71,5.07C100.93,418.49,105,420.42,105,420.42Z" style="fill: rgb(38, 50, 56); transform-origin: 101.654px 414.915px;" id="elwmuvsnlos5r" class="animable"></path><path d="M59.59,424.83c1.92.58,6.39-.05,6.39-.06s-1.31-2.81-1.41-3c-1.23-1.94-4.74-5-7.23-4.32a3,3,0,0,0-2,4.07C56,423.24,58,424.33,59.59,424.83Z" style="fill: rgb(38, 50, 56); transform-origin: 60.5415px 421.214px;" id="elzuu2xpw6rq" class="animable"></path><path d="M82.73,459.48c.43.8.86,1.6,1.24,2.39.25.54.52,1.05.74,1.62s.45,1.1.68,1.64c.39,1.06.8,2.15,1.15,3.19.26.72.49,1.42.72,2.12-.47-.77-1.41-2.24-1.5-2.35-1.44-1.79-5.28-4.39-7.67-3.47a3.05,3.05,0,0,0-1.5,4.28c.82,1.62,2.89,2.47,4.57,2.78,1.86.33,5.77-.64,6.26-.77.38,1.16.73,2.29,1,3.36.58,1.9,1.06,3.65,1.47,5.19h1.71c-.48-1.66-1-3.55-1.72-5.64-.38-1.18-.81-2.43-1.27-3.71a31.16,31.16,0,0,0,3.3-2.06c1.47,1.26,5,2.52,5.48,2.68-.33,1.17-.65,2.31-1,3.38-.59,2-1.18,3.79-1.71,5.35h1.72c.46-1.47,1-3.11,1.46-4.92.33-1.19.66-2.47,1-3.79.49,0,4.51.37,6.29-.26,1.62-.57,3.52-1.75,4.07-3.48a3,3,0,0,0-2.17-4c-2.51-.53-5.88,2.66-7,4.65-.07.12-.65,1.48-1,2.34.13-.54.27-1.06.4-1.62.26-1.09.48-2.2.73-3.39.1-.57.21-1.16.31-1.74s.16-1.21.24-1.83c.17-1.42.27-2.86.33-4.32,1,.22,4.39,1,6.08.65s3.74-1.19,4.55-2.82a3,3,0,0,0-1.54-4.26c-2.41-.9-6.22,1.74-7.64,3.54-.09.11-1,1.52-1.43,2.3,0-.88.07-1.75.07-2.64,0-2.57,0-5.17-.11-7.76l0-2.38c.34.08,4.4,1.07,6.29.7,1.68-.32,3.74-1.19,4.54-2.82a3,3,0,0,0-1.53-4.26c-2.41-.9-6.22,1.74-7.64,3.54-.11.14-1.37,2.16-1.66,2.69,0-1.74,0-3.48,0-5.2a53.22,53.22,0,0,1,.67-6.91c.16,0,4.39,1.08,6.33.71,1.68-.32,3.74-1.19,4.54-2.82a3,3,0,0,0-1.53-4.26c-2.41-.9-6.22,1.74-7.65,3.54-.09.12-1,1.66-1.49,2.4l-.14-.05a39.84,39.84,0,0,1,1.92-6.72c.45-1.2.94-2.33,1.44-3.41.77.27,4.29,1.49,6.08,1.35s3.84-.78,4.82-2.3a3,3,0,0,0-1.06-4.4c-2.29-1.16-6.37,1-8,2.67-.09.09-.88,1.09-1.45,1.83.24-.49.47-1,.71-1.45.87-1.74,1.78-3.27,2.6-4.62.47-.77.91-1.45,1.33-2.09.89-.12,4.49-.66,6-1.59s3.06-2.46,3.22-4.27a3,3,0,0,0-3-3.42c-2.57,0-5.17,3.87-5.85,6.06-.06.19-.63,3.26-.59,3.25h.06c-.42.61-.86,1.26-1.32,2-.85,1.33-1.8,2.85-2.71,4.58a53.09,53.09,0,0,0-2.7,5.69,39.62,39.62,0,0,0-2.08,6.74s0,.06,0,.08c-.07-.75-.35-2.83-.39-3-.56-2.23-3-6.2-5.52-6.36a3,3,0,0,0-3.15,3.25c.07,1.82,1.58,3.46,3,4.44,1.58,1.11,5.7,1.88,6,1.94a54.5,54.5,0,0,0-.85,7.13c-.08,1.39-.12,2.8-.14,4.21-.09-.65-.17-1.22-.19-1.3-.56-2.23-3-6.2-5.52-6.36a3,3,0,0,0-3.15,3.25c.07,1.82,1.58,3.46,3,4.44s4.92,1.72,5.85,1.9c0,.54,0,1.08,0,1.62,0,2.6,0,5.19-.06,7.74,0,.89-.08,1.78-.13,2.66-.08-.58-.15-1.06-.17-1.13-.56-2.23-2.95-6.2-5.52-6.36a3,3,0,0,0-3.14,3.25c.07,1.82,1.58,3.46,3,4.44s4.58,1.65,5.68,1.87c-.08.9-.16,1.8-.28,2.67-.09.6-.14,1.17-.27,1.76s-.23,1.17-.35,1.75c-.25,1.09-.51,2.23-.79,3.3-.19.74-.38,1.44-.58,2.15,0-.89.07-2.63,0-2.78a11.7,11.7,0,0,0-2.25-5.52,3.82,3.82,0,0,0-.12-.66,3,3,0,0,0-4-2.12c-2.38.95-3.43,5.46-3.28,7.75,0,.14.27,1.59.45,2.5-.19-.52-.36-1-.56-1.56-.39-1.06-.81-2.11-1.25-3.23L85.88,463c-.22-.55-.53-1.1-.8-1.66-.64-1.27-1.36-2.53-2.11-3.79.93-.34,4.2-1.6,5.43-2.8s2.46-3.07,2.24-4.87a3,3,0,0,0-3.63-2.7c-2.51.58-4.23,4.88-4.42,7.17,0,.14,0,1.8.07,2.71-.46-.75-.91-1.51-1.4-2.25-1.4-2.15-2.89-4.28-4.37-6.41l-1.34-2c.33-.12,4.26-1.53,5.64-2.88s2.46-3.06,2.23-4.86A3.05,3.05,0,0,0,79.79,436c-2.5.58-4.23,4.89-4.42,7.17,0,.17,0,2.56.1,3.16-1-1.44-2-2.89-2.84-4.35a52.68,52.68,0,0,1-3.26-6.14c.16-.06,4.26-1.52,5.68-2.89,1.22-1.2,2.45-3.07,2.23-4.87a3,3,0,0,0-3.63-2.7c-2.51.58-4.23,4.88-4.42,7.17,0,.15,0,2,.08,2.83l-.15,0a39,39,0,0,1-2.1-6.66c-.3-1.25-.51-2.46-.69-3.65.8-.19,4.41-1.12,5.82-2.22s2.78-2.77,2.75-4.58a3,3,0,0,0-3.31-3.09c-2.55.3-4.74,4.39-5.18,6.64,0,.12-.14,1.39-.2,2.32-.07-.54-.16-1.09-.22-1.6-.22-1.93-.31-3.71-.38-5.29,0-.9,0-1.71,0-2.47.68-.6,3.39-3,4.12-4.63s1.19-3.74.33-5.34a3.05,3.05,0,0,0-4.37-1.21c-2.12,1.44-2.18,6.07-1.53,8.28,0,.19,1.26,3.07,1.3,3l0,0c0,.73,0,1.52,0,2.37,0,1.59.08,3.37.26,5.32a53,53,0,0,0,.9,6.24,38.4,38.4,0,0,0,2,6.76l0,.08c-.48-.58-1.86-2.17-2-2.28-1.7-1.54-5.88-3.53-8.11-2.26a3,3,0,0,0-.83,4.45c1,1.48,3.22,2,4.94,2.06,1.93.05,5.79-1.59,6.1-1.72A52,52,0,0,0,72,442.32c.7,1.21,1.44,2.41,2.2,3.59-.42-.49-.81-.92-.87-1-1.7-1.54-5.88-3.53-8.11-2.26a3,3,0,0,0-.83,4.45c1,1.48,3.22,2,4.94,2.06s5-1.28,5.93-1.65c.3.45.59.91.88,1.36,1.44,2.17,2.87,4.33,4.22,6.48.47.76.91,1.53,1.36,2.3-.38-.44-.71-.8-.76-.85-1.7-1.55-5.89-3.54-8.12-2.26A3,3,0,0,0,72,459c1,1.47,3.22,2,4.94,2.05S81.69,459.91,82.73,459.48Z" style="fill: rgb(38, 50, 56); transform-origin: 88.2401px 441.015px;" id="el6lwjlexxjn8" class="animable"></path><g id="elbqxh40cgbvj"><path d="M59.59,424.83c1.92.58,6.39-.05,6.39-.06s-1.31-2.81-1.41-3c-1.23-1.94-4.74-5-7.23-4.32a3,3,0,0,0-2,4.07C56,423.24,58,424.33,59.59,424.83Z" style="fill: rgb(38, 50, 56); opacity: 0.3; transform-origin: 60.5415px 421.214px;" class="animable" id="el26tb19wwpkf"></path></g><g id="el1d1hdjjduye"><path d="M105,420.42s.46-3.07.47-3.27c0-2.29-1.22-6.75-3.65-7.59a3,3,0,0,0-3.89,2.31c-.41,1.77.61,3.75,1.71,5.07C100.93,418.49,105,420.42,105,420.42Z" style="fill: rgb(38, 50, 56); opacity: 0.3; transform-origin: 101.654px 414.915px;" class="animable" id="el0z01b6smmdrn"></path></g><g id="el6pqng883wkc"><path d="M82.73,459.48c.43.8.86,1.6,1.24,2.39.25.54.52,1.05.74,1.62s.45,1.1.68,1.64c.39,1.06.8,2.15,1.15,3.19.26.72.49,1.42.72,2.12-.47-.77-1.41-2.24-1.5-2.35-1.44-1.79-5.28-4.39-7.67-3.47a3.05,3.05,0,0,0-1.5,4.28c.82,1.62,2.89,2.47,4.57,2.78,1.86.33,5.77-.64,6.26-.77.38,1.16.73,2.29,1,3.36.58,1.9,1.06,3.65,1.47,5.19h1.71c-.48-1.66-1-3.55-1.72-5.64-.38-1.18-.81-2.43-1.27-3.71a31.16,31.16,0,0,0,3.3-2.06c1.47,1.26,5,2.52,5.48,2.68-.33,1.17-.65,2.31-1,3.38-.59,2-1.18,3.79-1.71,5.35h1.72c.46-1.47,1-3.11,1.46-4.92.33-1.19.66-2.47,1-3.79.49,0,4.51.37,6.29-.26,1.62-.57,3.52-1.75,4.07-3.48a3,3,0,0,0-2.17-4c-2.51-.53-5.88,2.66-7,4.65-.07.12-.65,1.48-1,2.34.13-.54.27-1.06.4-1.62.26-1.09.48-2.2.73-3.39.1-.57.21-1.16.31-1.74s.16-1.21.24-1.83c.17-1.42.27-2.86.33-4.32,1,.22,4.39,1,6.08.65s3.74-1.19,4.55-2.82a3,3,0,0,0-1.54-4.26c-2.41-.9-6.22,1.74-7.64,3.54-.09.11-1,1.52-1.43,2.3,0-.88.07-1.75.07-2.64,0-2.57,0-5.17-.11-7.76l0-2.38c.34.08,4.4,1.07,6.29.7,1.68-.32,3.74-1.19,4.54-2.82a3,3,0,0,0-1.53-4.26c-2.41-.9-6.22,1.74-7.64,3.54-.11.14-1.37,2.16-1.66,2.69,0-1.74,0-3.48,0-5.2a53.22,53.22,0,0,1,.67-6.91c.16,0,4.39,1.08,6.33.71,1.68-.32,3.74-1.19,4.54-2.82a3,3,0,0,0-1.53-4.26c-2.41-.9-6.22,1.74-7.65,3.54-.09.12-1,1.66-1.49,2.4l-.14-.05a39.84,39.84,0,0,1,1.92-6.72c.45-1.2.94-2.33,1.44-3.41.77.27,4.29,1.49,6.08,1.35s3.84-.78,4.82-2.3a3,3,0,0,0-1.06-4.4c-2.29-1.16-6.37,1-8,2.67-.09.09-.88,1.09-1.45,1.83.24-.49.47-1,.71-1.45.87-1.74,1.78-3.27,2.6-4.62.47-.77.91-1.45,1.33-2.09.89-.12,4.49-.66,6-1.59s3.06-2.46,3.22-4.27a3,3,0,0,0-3-3.42c-2.57,0-5.17,3.87-5.85,6.06-.06.19-.63,3.26-.59,3.25h.06c-.42.61-.86,1.26-1.32,2-.85,1.33-1.8,2.85-2.71,4.58a53.09,53.09,0,0,0-2.7,5.69,39.62,39.62,0,0,0-2.08,6.74s0,.06,0,.08c-.07-.75-.35-2.83-.39-3-.56-2.23-3-6.2-5.52-6.36a3,3,0,0,0-3.15,3.25c.07,1.82,1.58,3.46,3,4.44,1.58,1.11,5.7,1.88,6,1.94a54.5,54.5,0,0,0-.85,7.13c-.08,1.39-.12,2.8-.14,4.21-.09-.65-.17-1.22-.19-1.3-.56-2.23-3-6.2-5.52-6.36a3,3,0,0,0-3.15,3.25c.07,1.82,1.58,3.46,3,4.44s4.92,1.72,5.85,1.9c0,.54,0,1.08,0,1.62,0,2.6,0,5.19-.06,7.74,0,.89-.08,1.78-.13,2.66-.08-.58-.15-1.06-.17-1.13-.56-2.23-2.95-6.2-5.52-6.36a3,3,0,0,0-3.14,3.25c.07,1.82,1.58,3.46,3,4.44s4.58,1.65,5.68,1.87c-.08.9-.16,1.8-.28,2.67-.09.6-.14,1.17-.27,1.76s-.23,1.17-.35,1.75c-.25,1.09-.51,2.23-.79,3.3-.19.74-.38,1.44-.58,2.15,0-.89.07-2.63,0-2.78a11.7,11.7,0,0,0-2.25-5.52,3.82,3.82,0,0,0-.12-.66,3,3,0,0,0-4-2.12c-2.38.95-3.43,5.46-3.28,7.75,0,.14.27,1.59.45,2.5-.19-.52-.36-1-.56-1.56-.39-1.06-.81-2.11-1.25-3.23L85.88,463c-.22-.55-.53-1.1-.8-1.66-.64-1.27-1.36-2.53-2.11-3.79.93-.34,4.2-1.6,5.43-2.8s2.46-3.07,2.24-4.87a3,3,0,0,0-3.63-2.7c-2.51.58-4.23,4.88-4.42,7.17,0,.14,0,1.8.07,2.71-.46-.75-.91-1.51-1.4-2.25-1.4-2.15-2.89-4.28-4.37-6.41l-1.34-2c.33-.12,4.26-1.53,5.64-2.88s2.46-3.06,2.23-4.86A3.05,3.05,0,0,0,79.79,436c-2.5.58-4.23,4.89-4.42,7.17,0,.17,0,2.56.1,3.16-1-1.44-2-2.89-2.84-4.35a52.68,52.68,0,0,1-3.26-6.14c.16-.06,4.26-1.52,5.68-2.89,1.22-1.2,2.45-3.07,2.23-4.87a3,3,0,0,0-3.63-2.7c-2.51.58-4.23,4.88-4.42,7.17,0,.15,0,2,.08,2.83l-.15,0a39,39,0,0,1-2.1-6.66c-.3-1.25-.51-2.46-.69-3.65.8-.19,4.41-1.12,5.82-2.22s2.78-2.77,2.75-4.58a3,3,0,0,0-3.31-3.09c-2.55.3-4.74,4.39-5.18,6.64,0,.12-.14,1.39-.2,2.32-.07-.54-.16-1.09-.22-1.6-.22-1.93-.31-3.71-.38-5.29,0-.9,0-1.71,0-2.47.68-.6,3.39-3,4.12-4.63s1.19-3.74.33-5.34a3.05,3.05,0,0,0-4.37-1.21c-2.12,1.44-2.18,6.07-1.53,8.28,0,.19,1.26,3.07,1.3,3l0,0c0,.73,0,1.52,0,2.37,0,1.59.08,3.37.26,5.32a53,53,0,0,0,.9,6.24,38.4,38.4,0,0,0,2,6.76l0,.08c-.48-.58-1.86-2.17-2-2.28-1.7-1.54-5.88-3.53-8.11-2.26a3,3,0,0,0-.83,4.45c1,1.48,3.22,2,4.94,2.06,1.93.05,5.79-1.59,6.1-1.72A52,52,0,0,0,72,442.32c.7,1.21,1.44,2.41,2.2,3.59-.42-.49-.81-.92-.87-1-1.7-1.54-5.88-3.53-8.11-2.26a3,3,0,0,0-.83,4.45c1,1.48,3.22,2,4.94,2.06s5-1.28,5.93-1.65c.3.45.59.91.88,1.36,1.44,2.17,2.87,4.33,4.22,6.48.47.76.91,1.53,1.36,2.3-.38-.44-.71-.8-.76-.85-1.7-1.55-5.89-3.54-8.12-2.26A3,3,0,0,0,72,459c1,1.47,3.22,2,4.94,2.05S81.69,459.91,82.73,459.48Z" style="fill: rgb(38, 50, 56); opacity: 0.3; transform-origin: 88.2401px 441.015px;" class="animable" id="elzhv5a75agok"></path></g></g><g id="freepik--plant-1--inject-241" class="animable" style="transform-origin: 244.261px 292.07px;"><g id="el6q72tzxv14y"><g style="opacity: 0.2; transform-origin: 244.261px 292.07px;" class="animable" id="elvgzdqq1l3o"><path d="M330.68,191.58c.21.1,2.25-15,2.27-16,.22-11.19-5.92-32.94-17.77-37-8.53-2.94-17,2.82-19,11.25-2,8.62,3,18.29,8.33,24.72C310.79,182.13,330.67,191.57,330.68,191.58Z" id="elz5srneafsy" class="animable" style="transform-origin: 314.343px 164.692px;"></path><path d="M109.18,213c9.4,2.84,31.18-.24,31.2-.25.22,0-6.4-13.74-6.91-14.56-6-9.45-23.11-24.2-35.25-21.07C89.48,179.42,85.6,188.9,88.6,197,91.66,205.32,101.18,210.62,109.18,213Z" id="el9n63zbv8g4g" class="animable" style="transform-origin: 113.991px 195.447px;"></path><path d="M222,382c2.1,3.88,4.2,7.77,6.06,11.63,1.2,2.67,2.55,5.15,3.61,7.9l3.3,8c1.91,5.17,3.91,10.48,5.64,15.57,1.23,3.53,2.34,6.91,3.47,10.32-2.26-3.72-6.84-10.9-7.29-11.46-7-8.71-25.74-21.39-37.43-16.89-8.42,3.25-11.19,13.11-7.28,20.84,4,7.89,14.07,12.07,22.29,13.55,9.06,1.63,28.12-3.11,30.49-3.72,1.85,5.65,3.59,11.15,5.15,16.37,2.8,9.28,5.16,17.78,7.15,25.32h8.32c-2.3-8.09-5.07-17.34-8.38-27.53-1.85-5.74-4-11.83-6.16-18.07a160.52,160.52,0,0,0,16.07-10c7.19,6.14,24.47,12.28,26.7,13.05-1.57,5.73-3.15,11.28-4.73,16.5-2.91,9.7-5.75,18.45-8.35,26.08h8.4c2.24-7.17,4.64-15.18,7.08-24,1.62-5.81,3.24-12.05,4.84-18.47,2.4.21,22,1.83,30.7-1.25,7.88-2.79,17.14-8.54,19.81-17,2.61-8.26-1.71-17.54-10.55-19.39-12.26-2.56-28.68,13-34.21,22.71-.33.57-3.18,7.19-4.9,11.4.64-2.63,1.29-5.17,1.91-7.89,1.27-5.35,2.39-10.73,3.6-16.52l1.49-8.53c.55-2.83.78-5.9,1.19-8.88.8-6.93,1.28-14,1.6-21.11,4.69,1.11,21.41,4.78,29.66,3.21s18.23-5.84,22.15-13.77c3.84-7.77,1-17.6-7.48-20.77-11.74-4.38-30.32,8.49-37.26,17.26-.44.55-4.71,7.41-7,11.22.16-4.28.35-8.56.37-12.89.06-12.53-.26-25.2-.53-37.85-.09-3.87-.12-7.73-.17-11.6,1.66.41,21.44,5.21,30.68,3.45,8.21-1.56,18.23-5.84,22.15-13.77,3.83-7.77,1-17.6-7.49-20.76-11.74-4.39-30.31,8.48-37.26,17.26-.52.66-6.66,10.53-8.1,13.12-.11-8.51-.14-17,.17-25.36a261,261,0,0,1,3.27-33.72c.77.2,21.39,5.3,30.85,3.5,8.21-1.57,18.24-5.85,22.15-13.78,3.84-7.76,1-17.6-7.48-20.76C348.56,210.14,330,223,323,231.79c-.46.57-5.14,8.09-7.28,11.72l-.67-.25a190.24,190.24,0,0,1,9.34-32.76c2.17-5.87,4.57-11.37,7-16.66,3.74,1.34,20.91,7.3,29.6,6.61,8.34-.65,18.77-3.8,23.54-11.25,4.66-7.3,2.89-17.39-5.17-21.46-11.18-5.65-31.06,5.1-38.92,13.06-.43.43-4.29,5.32-7.06,8.91,1.15-2.37,2.29-4.84,3.43-7.09,4.28-8.46,8.71-15.94,12.69-22.53,2.3-3.73,4.44-7.06,6.49-10.16,4.36-.6,21.9-3.22,29.17-7.75,7.09-4.42,14.9-12,15.7-20.84.77-8.62-5.44-16.76-14.47-16.66-12.53.14-25.22,18.84-28.53,29.53-.29.92-3.11,15.88-2.88,15.86l.26,0c-2,2.94-4.16,6.11-6.42,9.62-4.14,6.52-8.75,13.93-13.22,22.33a262.38,262.38,0,0,0-13.15,27.78,193.46,193.46,0,0,0-10.16,32.85c0,.13,0,.27-.06.41-.37-3.66-1.74-13.83-1.94-14.6-2.74-10.85-14.41-30.21-26.91-31-9-.58-15.66,7.22-15.34,15.87.32,8.84,7.71,16.85,14.56,21.65,7.72,5.4,27.82,9.14,29.42,9.43a262.19,262.19,0,0,0-4.17,34.78c-.39,6.79-.58,13.65-.68,20.53-.42-3.14-.82-6-.92-6.34-2.74-10.85-14.41-30.21-26.92-31-9-.59-15.65,7.21-15.33,15.87.32,8.84,7.71,16.84,14.56,21.64s24,8.39,28.54,9.26c0,2.64-.05,5.28-.05,7.92,0,12.66,0,25.3-.29,37.7-.12,4.37-.39,8.67-.65,13-.38-2.79-.72-5.14-.81-5.5-2.74-10.85-14.41-30.2-26.91-31-9-.58-15.66,7.21-15.34,15.87.32,8.84,7.72,16.85,14.56,21.64,6.63,4.64,22.36,8,27.73,9.11-.39,4.39-.78,8.8-1.37,13-.46,2.89-.71,5.7-1.34,8.58s-1.11,5.69-1.66,8.49c-1.26,5.36-2.53,10.9-3.89,16.1-.92,3.62-1.86,7.06-2.79,10.52.16-4.35.31-12.86.24-13.58-.71-7.4-4.76-19.09-11-26.9a17.77,17.77,0,0,0-.59-3.24c-2.37-8.33-11.1-13.69-19.49-10.35-11.65,4.63-16.76,26.65-16,37.81,0,.66,1.32,7.75,2.2,12.22-.92-2.55-1.78-5-2.75-7.64-1.9-5.16-3.94-10.27-6.11-15.76-1.15-2.62-2.3-5.26-3.47-7.94s-2.61-5.35-3.91-8.06c-3.15-6.22-6.64-12.37-10.3-18.49,4.52-1.67,20.49-7.83,26.5-13.69s12-14.93,10.88-23.71c-1.08-8.59-8.9-15.21-17.7-13.18-12.21,2.81-20.6,23.8-21.55,34.95-.06.69.15,8.77.36,13.2-2.23-3.66-4.44-7.32-6.81-10.95-6.85-10.48-14.12-20.87-21.32-31.27-2.2-3.19-4.36-6.39-6.54-9.58,1.61-.58,20.76-7.49,27.49-14.05,6-5.84,12-14.93,10.88-23.71-1.08-8.59-8.9-15.21-17.7-13.18-12.21,2.81-20.6,23.79-21.55,34.94-.08.84.25,12.47.48,15.42-4.79-7-9.49-14.1-13.85-21.24a262.55,262.55,0,0,1-15.88-29.93c.76-.27,20.77-7.39,27.67-14.11,6-5.83,12-14.93,10.87-23.71-1.08-8.59-8.9-15.21-17.69-13.18-12.22,2.81-20.61,23.8-21.56,34.94-.06.74.18,9.6.39,13.8l-.69.16A189.75,189.75,0,0,1,145.6,232c-1.43-6.09-2.46-12-3.33-17.77,3.87-.95,21.48-5.46,28.35-10.82,6.59-5.15,13.55-13.53,13.42-22.37-.14-8.66-7.18-16.1-16.15-15.05-12.44,1.45-23.09,21.39-25.26,32.37-.12.59-.65,6.8-1,11.32-.35-2.61-.76-5.3-1-7.81-1.1-9.41-1.53-18.1-1.85-25.79-.14-4.38-.19-8.34-.19-12,3.31-2.9,16.49-14.77,20.06-22.56,3.47-7.6,5.79-18.25,1.59-26-4.11-7.62-13.78-11-21.26-5.92-10.37,7-10.63,29.63-7.5,40.38.27.92,6.17,15,6.35,14.81l.2-.18c-.07,3.57-.11,7.4-.06,11.58.15,7.71.39,16.44,1.29,25.91a263.79,263.79,0,0,0,4.36,30.42,192.29,192.29,0,0,0,9.66,33c.05.13.12.25.17.38-2.33-2.84-9.09-10.57-9.67-11.11-8.27-7.54-28.69-17.24-39.56-11-7.84,4.49-9.08,14.65-4,21.7s15.73,9.8,24.09,10c9.42.25,28.24-7.72,29.73-8.36a262.42,262.42,0,0,0,15.72,31.3c3.42,5.89,7,11.72,10.75,17.51-2.08-2.39-4-4.52-4.26-4.78-8.27-7.55-28.69-17.25-39.56-11-7.84,4.48-9.08,14.65-4,21.69,5.15,7.2,15.73,9.8,24.09,10s24.66-6.25,28.92-8c1.44,2.21,2.86,4.43,4.32,6.63,7,10.57,14,21.09,20.55,31.61,2.32,3.71,4.46,7.45,6.62,11.18-1.86-2.13-3.44-3.9-3.71-4.14-8.27-7.54-28.68-17.25-39.55-11-7.84,4.48-9.08,14.65-4,21.69,5.15,7.2,15.73,9.8,24.08,10C202,390,217,384.1,222,382Z" id="elwfalqibu5w" class="animable" style="transform-origin: 249.05px 292.07px;"></path><g id="el625as1o79y7"><path d="M109.18,213c9.4,2.84,31.18-.24,31.2-.25.22,0-6.4-13.74-6.91-14.56-6-9.45-23.11-24.2-35.25-21.07C89.48,179.42,85.6,188.9,88.6,197,91.66,205.32,101.18,210.62,109.18,213Z" style="opacity: 0.3; transform-origin: 113.991px 195.447px;" class="animable" id="elepyp4dunbqp"></path></g><g id="ellg50xaj4nfr"><path d="M330.68,191.58c.21.1,2.25-15,2.27-16,.22-11.19-5.92-32.94-17.77-37-8.53-2.94-17,2.82-19,11.25-2,8.62,3,18.29,8.33,24.72C310.79,182.13,330.67,191.57,330.68,191.58Z" style="opacity: 0.3; transform-origin: 314.343px 164.692px;" class="animable" id="elu8o2ta9ayfn"></path></g><g id="elxhuyigq4dgc"><path d="M222,382c2.1,3.88,4.2,7.77,6.06,11.63,1.2,2.67,2.55,5.15,3.61,7.9l3.3,8c1.91,5.17,3.91,10.48,5.64,15.57,1.23,3.53,2.34,6.91,3.47,10.32-2.26-3.72-6.84-10.9-7.29-11.46-7-8.71-25.74-21.39-37.43-16.89-8.42,3.25-11.19,13.11-7.28,20.84,4,7.89,14.07,12.07,22.29,13.55,9.06,1.63,28.12-3.11,30.49-3.72,1.85,5.65,3.59,11.15,5.15,16.37,2.8,9.28,5.16,17.78,7.15,25.32h8.32c-2.3-8.09-5.07-17.34-8.38-27.53-1.85-5.74-4-11.83-6.16-18.07a160.52,160.52,0,0,0,16.07-10c7.19,6.14,24.47,12.28,26.7,13.05-1.57,5.73-3.15,11.28-4.73,16.5-2.91,9.7-5.75,18.45-8.35,26.08h8.4c2.24-7.17,4.64-15.18,7.08-24,1.62-5.81,3.24-12.05,4.84-18.47,2.4.21,22,1.83,30.7-1.25,7.88-2.79,17.14-8.54,19.81-17,2.61-8.26-1.71-17.54-10.55-19.39-12.26-2.56-28.68,13-34.21,22.71-.33.57-3.18,7.19-4.9,11.4.64-2.63,1.29-5.17,1.91-7.89,1.27-5.35,2.39-10.73,3.6-16.52l1.49-8.53c.55-2.83.78-5.9,1.19-8.88.8-6.93,1.28-14,1.6-21.11,4.69,1.11,21.41,4.78,29.66,3.21s18.23-5.84,22.15-13.77c3.84-7.77,1-17.6-7.48-20.77-11.74-4.38-30.32,8.49-37.26,17.26-.44.55-4.71,7.41-7,11.22.16-4.28.35-8.56.37-12.89.06-12.53-.26-25.2-.53-37.85-.09-3.87-.12-7.73-.17-11.6,1.66.41,21.44,5.21,30.68,3.45,8.21-1.56,18.23-5.84,22.15-13.77,3.83-7.77,1-17.6-7.49-20.76-11.74-4.39-30.31,8.48-37.26,17.26-.52.66-6.66,10.53-8.1,13.12-.11-8.51-.14-17,.17-25.36a261,261,0,0,1,3.27-33.72c.77.2,21.39,5.3,30.85,3.5,8.21-1.57,18.24-5.85,22.15-13.78,3.84-7.76,1-17.6-7.48-20.76C348.56,210.14,330,223,323,231.79c-.46.57-5.14,8.09-7.28,11.72l-.67-.25a190.24,190.24,0,0,1,9.34-32.76c2.17-5.87,4.57-11.37,7-16.66,3.74,1.34,20.91,7.3,29.6,6.61,8.34-.65,18.77-3.8,23.54-11.25,4.66-7.3,2.89-17.39-5.17-21.46-11.18-5.65-31.06,5.1-38.92,13.06-.43.43-4.29,5.32-7.06,8.91,1.15-2.37,2.29-4.84,3.43-7.09,4.28-8.46,8.71-15.94,12.69-22.53,2.3-3.73,4.44-7.06,6.49-10.16,4.36-.6,21.9-3.22,29.17-7.75,7.09-4.42,14.9-12,15.7-20.84.77-8.62-5.44-16.76-14.47-16.66-12.53.14-25.22,18.84-28.53,29.53-.29.92-3.11,15.88-2.88,15.86l.26,0c-2,2.94-4.16,6.11-6.42,9.62-4.14,6.52-8.75,13.93-13.22,22.33a262.38,262.38,0,0,0-13.15,27.78,193.46,193.46,0,0,0-10.16,32.85c0,.13,0,.27-.06.41-.37-3.66-1.74-13.83-1.94-14.6-2.74-10.85-14.41-30.21-26.91-31-9-.58-15.66,7.22-15.34,15.87.32,8.84,7.71,16.85,14.56,21.65,7.72,5.4,27.82,9.14,29.42,9.43a262.19,262.19,0,0,0-4.17,34.78c-.39,6.79-.58,13.65-.68,20.53-.42-3.14-.82-6-.92-6.34-2.74-10.85-14.41-30.21-26.92-31-9-.59-15.65,7.21-15.33,15.87.32,8.84,7.71,16.84,14.56,21.64s24,8.39,28.54,9.26c0,2.64-.05,5.28-.05,7.92,0,12.66,0,25.3-.29,37.7-.12,4.37-.39,8.67-.65,13-.38-2.79-.72-5.14-.81-5.5-2.74-10.85-14.41-30.2-26.91-31-9-.58-15.66,7.21-15.34,15.87.32,8.84,7.72,16.85,14.56,21.64,6.63,4.64,22.36,8,27.73,9.11-.39,4.39-.78,8.8-1.37,13-.46,2.89-.71,5.7-1.34,8.58s-1.11,5.69-1.66,8.49c-1.26,5.36-2.53,10.9-3.89,16.1-.92,3.62-1.86,7.06-2.79,10.52.16-4.35.31-12.86.24-13.58-.71-7.4-4.76-19.09-11-26.9a17.77,17.77,0,0,0-.59-3.24c-2.37-8.33-11.1-13.69-19.49-10.35-11.65,4.63-16.76,26.65-16,37.81,0,.66,1.32,7.75,2.2,12.22-.92-2.55-1.78-5-2.75-7.64-1.9-5.16-3.94-10.27-6.11-15.76-1.15-2.62-2.3-5.26-3.47-7.94s-2.61-5.35-3.91-8.06c-3.15-6.22-6.64-12.37-10.3-18.49,4.52-1.67,20.49-7.83,26.5-13.69s12-14.93,10.88-23.71c-1.08-8.59-8.9-15.21-17.7-13.18-12.21,2.81-20.6,23.8-21.55,34.95-.06.69.15,8.77.36,13.2-2.23-3.66-4.44-7.32-6.81-10.95-6.85-10.48-14.12-20.87-21.32-31.27-2.2-3.19-4.36-6.39-6.54-9.58,1.61-.58,20.76-7.49,27.49-14.05,6-5.84,12-14.93,10.88-23.71-1.08-8.59-8.9-15.21-17.7-13.18-12.21,2.81-20.6,23.79-21.55,34.94-.08.84.25,12.47.48,15.42-4.79-7-9.49-14.1-13.85-21.24a262.55,262.55,0,0,1-15.88-29.93c.76-.27,20.77-7.39,27.67-14.11,6-5.83,12-14.93,10.87-23.71-1.08-8.59-8.9-15.21-17.69-13.18-12.22,2.81-20.61,23.8-21.56,34.94-.06.74.18,9.6.39,13.8l-.69.16A189.75,189.75,0,0,1,145.6,232c-1.43-6.09-2.46-12-3.33-17.77,3.87-.95,21.48-5.46,28.35-10.82,6.59-5.15,13.55-13.53,13.42-22.37-.14-8.66-7.18-16.1-16.15-15.05-12.44,1.45-23.09,21.39-25.26,32.37-.12.59-.65,6.8-1,11.32-.35-2.61-.76-5.3-1-7.81-1.1-9.41-1.53-18.1-1.85-25.79-.14-4.38-.19-8.34-.19-12,3.31-2.9,16.49-14.77,20.06-22.56,3.47-7.6,5.79-18.25,1.59-26-4.11-7.62-13.78-11-21.26-5.92-10.37,7-10.63,29.63-7.5,40.38.27.92,6.17,15,6.35,14.81l.2-.18c-.07,3.57-.11,7.4-.06,11.58.15,7.71.39,16.44,1.29,25.91a263.79,263.79,0,0,0,4.36,30.42,192.29,192.29,0,0,0,9.66,33c.05.13.12.25.17.38-2.33-2.84-9.09-10.57-9.67-11.11-8.27-7.54-28.69-17.24-39.56-11-7.84,4.49-9.08,14.65-4,21.7s15.73,9.8,24.09,10c9.42.25,28.24-7.72,29.73-8.36a262.42,262.42,0,0,0,15.72,31.3c3.42,5.89,7,11.72,10.75,17.51-2.08-2.39-4-4.52-4.26-4.78-8.27-7.55-28.69-17.25-39.56-11-7.84,4.48-9.08,14.65-4,21.69,5.15,7.2,15.73,9.8,24.09,10s24.66-6.25,28.92-8c1.44,2.21,2.86,4.43,4.32,6.63,7,10.57,14,21.09,20.55,31.61,2.32,3.71,4.46,7.45,6.62,11.18-1.86-2.13-3.44-3.9-3.71-4.14-8.27-7.54-28.68-17.25-39.55-11-7.84,4.48-9.08,14.65-4,21.69,5.15,7.2,15.73,9.8,24.08,10C202,390,217,384.1,222,382Z" style="opacity: 0.3; transform-origin: 249.05px 292.07px;" class="animable" id="elu1rj4nbse7e"></path></g></g></g></g><g id="freepik--Clouds--inject-241" class="animable" style="transform-origin: 249.535px 199.593px;"><path d="M119.81,50.32s-4.92-12.66-22.49-14.06S77.64,53.83,74.13,56.64s-10.55-4.92-17.58-2.11a19.36,19.36,0,0,0-9.84,9.14s-6.32-2.81-10.54-2.11-9.14,7-9.14,7H145.82s0-12-8.43-16.17-11.95,4.93-14.06,4.22S119.81,50.32,119.81,50.32Z" style="fill: none; stroke: rgb(38, 50, 56); stroke-miterlimit: 10; transform-origin: 86.425px 52.3731px;" id="elmw4gt7taz5" class="animable"></path><path d="M460.51,143.58s-4.18-10.76-19.13-12S424.64,146.57,421.65,149s-9-4.19-14.95-1.8a16.47,16.47,0,0,0-8.37,7.78s-5.38-2.39-9-1.8-7.77,6-7.77,6h101s0-10.16-7.17-13.75-10.17,4.19-12,3.59S460.51,143.58,460.51,143.58Z" style="fill: none; stroke: rgb(38, 50, 56); stroke-miterlimit: 10; transform-origin: 432.06px 145.346px;" id="elp695wbsix5" class="animable"></path><path d="M127.67,341.08s-5.89-15.16-26.95-16.84-23.58,21.05-27.79,24.42-12.63-5.89-21.05-2.52a23.14,23.14,0,0,0-11.79,10.94s-7.58-3.36-12.64-2.52S16.51,363,16.51,363H158.83s0-14.32-10.1-19.37-14.32,5.89-16.84,5.05S127.67,341.08,127.67,341.08Z" style="fill: none; stroke: rgb(38, 50, 56); stroke-miterlimit: 10; transform-origin: 87.67px 343.576px;" id="elqnh30xgsey" class="animable"></path></g><g id="freepik--Globe--inject-241" class="animable" style="transform-origin: 433.31px 248.79px;"><circle cx="433.31" cy="248.79" r="47.26" style="fill: none; stroke: rgb(38, 50, 56); stroke-miterlimit: 10; transform-origin: 433.31px 248.79px;" id="elvfaklw49v8f" class="animable"></circle><ellipse cx="433.31" cy="248.79" rx="27.17" ry="47.26" style="fill: none; stroke: rgb(38, 50, 56); stroke-miterlimit: 10; transform-origin: 433.31px 248.79px;" id="elk2etp9lqzxb" class="animable"></ellipse><line x1="433.31" y1="201.53" x2="433.31" y2="296.05" style="fill: none; stroke: rgb(38, 50, 56); stroke-miterlimit: 10; transform-origin: 433.31px 248.79px;" id="elcf8tuxzzxnp" class="animable"></line><line x1="405.57" y1="210.72" x2="460.76" y2="210.72" style="fill: none; stroke: rgb(38, 50, 56); stroke-miterlimit: 10; transform-origin: 433.165px 210.72px;" id="elzoophv3o2ej" class="animable"></line><line x1="405.57" y1="287.42" x2="460.76" y2="287.42" style="fill: none; stroke: rgb(38, 50, 56); stroke-miterlimit: 10; transform-origin: 433.165px 287.42px;" id="elit4k77z653" class="animable"></line><line x1="389.67" y1="229.58" x2="476.66" y2="229.58" style="fill: none; stroke: rgb(38, 50, 56); stroke-miterlimit: 10; transform-origin: 433.165px 229.58px;" id="elwe30mdhjx1k" class="animable"></line><line x1="389.67" y1="267.31" x2="476.66" y2="267.31" style="fill: none; stroke: rgb(38, 50, 56); stroke-miterlimit: 10; transform-origin: 433.165px 267.31px;" id="el29w9eetyysv" class="animable"></line><line x1="386.24" y1="248.45" x2="480.09" y2="248.45" style="fill: none; stroke: rgb(38, 50, 56); stroke-miterlimit: 10; transform-origin: 433.165px 248.45px;" id="elgn8000bujew" class="animable"></line></g><g id="freepik--search-bar--inject-241" class="animable" style="transform-origin: 368.22px 51.82px;"><rect x="305.9" y="38.49" width="124.64" height="26.24" rx="6.97" style="fill: none; stroke: rgb(38, 50, 56); stroke-miterlimit: 10; transform-origin: 368.22px 51.61px;" id="el13rw7sdqtza" class="animable"></rect><line x1="400.15" y1="38.4" x2="400.15" y2="65.24" style="fill: none; stroke: rgb(38, 50, 56); stroke-miterlimit: 10; transform-origin: 400.15px 51.82px;" id="elfybaw3qubho" class="animable"></line><path d="M427.65,59.14l-7.15-5.37a8.59,8.59,0,1,0-1.82,2.39l7.17,5.38a1.52,1.52,0,0,0,.9.3,1.5,1.5,0,0,0,.9-2.7Zm-14.74-3.71a5.53,5.53,0,1,1,5.52-5.53A5.54,5.54,0,0,1,412.91,55.43Z" style="fill: none; stroke: rgb(38, 50, 56); stroke-miterlimit: 10; transform-origin: 416.261px 51.5455px;" id="elw478yta205c" class="animable"></path></g><g id="freepik--magnifying-glass--inject-241" class="animable" style="transform-origin: 62.066px 130.965px;"><path d="M107,160.84,78.65,139.61a33.89,33.89,0,1,0-7.18,9.45l28.36,21.27a5.94,5.94,0,1,0,7.13-9.49ZM48.63,146.17A21.88,21.88,0,1,1,70.5,124.3,21.9,21.9,0,0,1,48.63,146.17Z" style="fill: none; stroke: rgb(38, 50, 56); stroke-miterlimit: 10; transform-origin: 62.066px 130.965px;" id="elrpve2w4qooi" class="animable"></path></g><g id="freepik--Character--inject-241" class="animable" style="transform-origin: 245.045px 249.125px;"><path d="M246.92,194.25c-54.15,0-100.1,30.67-116.36,73.21a1.94,1.94,0,0,0,.64,2.22l45.53,35a2,2,0,0,0,1.17.4h7.3a1.93,1.93,0,0,0,1.92-2q0-.81,0-1.62c0-28.88,26.78-52.3,59.83-52.3s59.83,23.42,59.83,52.3S280,353.74,246.92,353.74a68.51,68.51,0,0,1-15.1-1.69,5.93,5.93,0,0,0-1.39-.16h0a6.43,6.43,0,0,0-6,8.69l6.65,17.62v40.38h73.09v-16.7a8.9,8.9,0,0,1,4.8-7.94c36.27-18.63,60.62-53.07,60.62-92.49C369.57,242.24,314.66,194.25,246.92,194.25Z" style="fill: rgb(38, 50, 56); stroke: rgb(38, 50, 56); stroke-miterlimit: 10; transform-origin: 250.014px 306.415px;" id="elpj2fqrvn8cn" class="animable"></path><rect x="231.06" y="426.49" width="73.09" height="52.98" style="fill: rgb(38, 50, 56); stroke: rgb(38, 50, 56); stroke-miterlimit: 10; transform-origin: 267.605px 452.98px;" id="elv8mh152ebd" class="animable"></rect><path d="M359.57,301.45c0-59.21-54.91-107.2-122.65-107.2-54.1,0-100,30.6-116.31,73.08a2,2,0,0,0,.78,2.32l52.74,33.46a1.93,1.93,0,0,0,3-1.63v0c0-28.88,26.79-52.3,59.83-52.3s59.83,23.42,59.83,52.3S270,353.74,236.92,353.74a68.1,68.1,0,0,1-8.51-.53,6.42,6.42,0,0,0-7.27,6.36V378.2h-.08v40.38h73.09v-16.7a8.92,8.92,0,0,1,4.8-7.94C335.22,375.31,359.57,340.87,359.57,301.45Z" style="fill: #16A34A; stroke: rgb(38, 50, 56); stroke-miterlimit: 10; transform-origin: 240.035px 306.415px;" id="elbxubrfxdq8" class="animable"></path><rect x="221.06" y="426.49" width="73.09" height="52.98" style="fill: #16A34A; stroke: rgb(38, 50, 56); stroke-miterlimit: 10; transform-origin: 257.605px 452.98px;" id="elo160v4r870e" class="animable"></rect><path d="M230.5,90.8S223.28,94,220,95.49a34.9,34.9,0,0,1-5.78,2.16l5.51,2.89,15.52-2.44Z" style="fill: rgb(255, 255, 255); stroke: rgb(38, 50, 56); stroke-miterlimit: 10; transform-origin: 224.735px 95.67px;" id="elzptrxl9h6o" class="animable"></path><path d="M207.49,94.13a11.89,11.89,0,0,1-2.44-3.33c-.72-1.72-2.17-.91-2.17.36a6.29,6.29,0,0,0,1.18,3.43c.36.18,4.15.81,4.15.81Z" style="fill: none; stroke: rgb(38, 50, 56); stroke-miterlimit: 10; transform-origin: 205.545px 92.6088px;" id="elyp37csa0eh8" class="animable"></path><path d="M233.38,101.79l1.53,8.66s-3,17.19-3.58,27.08-1,16.33-.43,18.91,8,27.65,8,27.65-1.29,1.58-1.29,2-.14,2-.14,2a37.29,37.29,0,0,1-3.59,3.15c-1.57,1.15-4.87,2.15-4.29,3.3s4.44,0,8.74,0,7.3.57,8.88-.57.14-5.45.14-5.45.15-3,.29-3.87-1.86-5.3-1.72-6.59S242.5,151,242.5,151l7.16-26.5s11.75,29.8,13.19,31.23,20.77,26.08,20.77,26.08-1.29,1.43-.86,2.15a15.63,15.63,0,0,0,1.15,1.57s-1.44,3-2.3,4.3-3.29,2-2.86,2.87,4.87,1,6,.71,5.73-5.3,7-6.3,3.72-2.87,3.72-4.16-2.43-2.86-2.58-3.29-.43-2.29-1.29-2.87a26.34,26.34,0,0,0-2.58-1.43c-.57-.29-14.9-25.22-14.9-25.22s-6.44-38.39-8.16-42.83-11.49-17.21-11.49-17.21Z" style="fill: rgb(38, 50, 56); stroke: rgb(38, 50, 56); stroke-miterlimit: 10; transform-origin: 262.496px 142.576px;" id="el139ztmmxyd9" class="animable"></path><path d="M217.78,78s1.89,8.67,4.28,10.94,7.17,2.89,7.17,2.89l4.15,9.94s15.09-4.66,21.13-11.7c0,0-7-11.19-12.2-18.36S239.29,63.3,232,59s-13.21,1.64-13.21,1.64S213.26,60.91,217.78,78Z" style="fill: #16A34A; stroke: rgb(38, 50, 56); stroke-miterlimit: 10; transform-origin: 235.257px 79.6039px;" id="elu5z68g61g6k" class="animable"></path><path d="M208.87,36.27s-1.47-3-11-1.48A14.3,14.3,0,0,0,185.39,47c-.38,3,0,2.86-.92,3.61s-5,.26-4.28,4.66,5.92,1.88,6.67,3.39a4.37,4.37,0,0,0,4,2.64c2.13.13,4.15-2.39,4.4-3.39s2.39-1.89,6.16.38,8.8,6.28,14.09,1.88S213.9,40.16,208.87,36.27Z" style="fill: rgb(38, 50, 56); stroke: rgb(38, 50, 56); stroke-miterlimit: 10; transform-origin: 198.759px 48.2519px;" id="el7qfcyqxd8le" class="animable"></path><path d="M189.11,55a24.86,24.86,0,0,0,1.59,4c.79,1.36,3.73,2.61,3.85,4.64s-.57,3.4,0,3.74,3.28-.45,3.28-.45,6,4,7.47,3.39,4.3-4.53,4.3-4.53L216,70.34,217.78,78l2.27-3.65s-4.28-5.16-2.77-9.43l1.51-4.28s-9.64-1.33-10.89-2.91-3.51-5.55-5.54-6.12-2.83,2.27-2.61,2.95-3.39.56-5.66-.34l-2.26-.91C191.26,53.11,189.11,54,189.11,55Z" style="fill: rgb(255, 255, 255); stroke: rgb(38, 50, 56); stroke-miterlimit: 10; transform-origin: 204.58px 64.7675px;" id="el7z6ecfdsc0l" class="animable"></path><path d="M193.41,59.67s-.11-2,1.59-2.26" style="fill: none; stroke: rgb(38, 50, 56); stroke-miterlimit: 10; transform-origin: 194.204px 58.54px;" id="els6jnqucaav9" class="animable"></path><path d="M196.52,60.36c.56.46.78,1.1.5,1.44s-1,.24-1.5-.21-.79-1.11-.51-1.44S196,59.9,196.52,60.36Z" style="fill: rgb(38, 50, 56); transform-origin: 196.021px 60.9757px;" id="elrie4xb8pos" class="animable"></path><path d="M200.77,67s.68-.45.12-2.26" style="fill: none; stroke: rgb(38, 50, 56); stroke-miterlimit: 10; transform-origin: 200.941px 65.87px;" id="el4nv1lp3e5zo" class="animable"></path><path d="M205.53,54.35s1.58,1.7,1,2.6a3.93,3.93,0,0,1-1.14,1.25s1.48,1.47,1.59,2.38" style="fill: rgb(255, 255, 255); stroke: rgb(38, 50, 56); stroke-miterlimit: 10; transform-origin: 206.185px 57.465px;" id="eli5lyoeyxm1s" class="animable"></path><path d="M200.75,49.86s5.58,3.64,8.53,8.19,11.35,4.31,14.32,1.81,3.52-4.92,5.81-4.35,7.79,2.45,11.37-.18.9-7.86,4.54-6.91a9.52,9.52,0,0,0,10.5-4c2.46-3.82,4.35-10.34-2.54-18.86C248,19,240.09,20.72,237.72,21.05s-1.59-2.27-9.33-2.27c-8,0-11.77,6.81-12.29,8.71s1.64,3.19-4.55,1.07-9.21.23-9.1,3.41-6.88,4.27-8.19,4.78" style="fill: rgb(38, 50, 56); stroke: rgb(38, 50, 56); stroke-miterlimit: 10; transform-origin: 226.16px 40.206px;" id="elhldj72i13xq" class="animable"></path><path d="M272.15,115.39a3.69,3.69,0,0,1-.87-.1L193.59,95.24a2.54,2.54,0,1,1,1.21-4.94L273,108.22a3.64,3.64,0,0,1-.86,7.17Z" style="fill: rgb(143, 143, 143); stroke: rgb(38, 50, 56); stroke-miterlimit: 10; transform-origin: 233.702px 102.809px;" id="elzvl0chkdh6k" class="animable"></path><path d="M239.79,101.91l-2.39,1.76a11.11,11.11,0,0,1-2,2.52c-.88.63-1.38,1-.5,1.38s3-.5,3-.5-.76,3.27-.13,3.52,2,.38,2.39-.12a2.63,2.63,0,0,1,1-.76s.37.5,2.64-.12,2.39-4.53,2.64-6.29,10.31-23.9,10.94-26.79,0-4.66-.88-5.16-26-8.3-29-8.55-6.29,4-4.53,8.17,8.8,5.54,10.69,5.79,13,1.63,13,1.63-2.26,11.45-2.76,15.6A11.68,11.68,0,0,1,239.79,101.91Z" style="fill: rgb(255, 255, 255); stroke: rgb(38, 50, 56); stroke-miterlimit: 10; transform-origin: 240.056px 86.8004px;" id="elitsjr72c3nm" class="animable"></path><path d="M203.61,96a20.52,20.52,0,0,0-.27,3.7c.18.45,1.62,1.26,2-.09s.45-3.61-.18-4S204.15,95.13,203.61,96Z" style="fill: rgb(255, 255, 255); stroke: rgb(38, 50, 56); stroke-miterlimit: 10; transform-origin: 204.483px 97.8403px;" id="el7i4nin27sn" class="animable"></path><path d="M206,97.41a21.25,21.25,0,0,0,.48,3.68c.27.4,1.84.91,1.92-.49s-.28-3.63-1-3.85S206.31,96.42,206,97.41Z" style="fill: rgb(255, 255, 255); stroke: rgb(38, 50, 56); stroke-miterlimit: 10; transform-origin: 207.205px 99.0606px;" id="elp03haq86hol" class="animable"></path><path d="M208.3,97.77a22.28,22.28,0,0,0,.48,3.68c.27.4,1.85.91,1.93-.49s-.29-3.63-1-3.85S208.65,96.78,208.3,97.77Z" style="fill: rgb(255, 255, 255); stroke: rgb(38, 50, 56); stroke-miterlimit: 10; transform-origin: 209.51px 99.4206px;" id="el8xwu3e1nh9x" class="animable"></path><path d="M210.88,98.26a18.08,18.08,0,0,0,.41,3.13c.23.34,1.57.77,1.64-.42s-.25-3.08-.83-3.28S211.18,97.41,210.88,98.26Z" style="fill: rgb(255, 255, 255); stroke: rgb(38, 50, 56); stroke-miterlimit: 10; transform-origin: 211.91px 99.656px;" id="elgocvydab9vj" class="animable"></path><path d="M196.39,96.25l.22-4.3-3-4.44c-2-5.45-14.65-10.08-23.68-12.3s-19.69-.72-24.39,1.66-5.77,3.82-5.77,3.82l-.29,5.71c-1.28,6.47,10.4,14.24,26.1,17.35s29.46.38,30.74-6.1A5,5,0,0,0,196.39,96.25ZM182.81,97c-9.2,1.37-17.61.36-24.93-2.84a67.72,67.72,0,0,1-13.08-8c2-4.51,12.74-6.21,25-3.78,11.62,2.3,20.59,7.52,21.58,12.24A27.77,27.77,0,0,1,182.81,97Z" style="fill: rgb(143, 143, 143); stroke: rgb(38, 50, 56); stroke-miterlimit: 10; transform-origin: 167.997px 89.5793px;" id="eldlak1o3dn9w" class="animable"></path><path d="M170.51,74.6c-15.69-3.11-29.46-.38-30.74,6.09s10.4,14.25,26.1,17.35,29.46.38,30.74-6.09S186.21,77.71,170.51,74.6Zm21.22,15.89c-1,5.08-12.32,7.12-25.27,4.56s-22.63-8.76-21.62-13.84,12.32-7.12,25.27-4.56S192.73,85.41,191.73,90.49Z" style="fill: rgb(255, 255, 255); stroke: rgb(38, 50, 56); stroke-miterlimit: 10; transform-origin: 168.19px 86.3178px;" id="elfqs6s080kou" class="animable"></path></g><g id="freepik--Floor--inject-241" class="animable" style="transform-origin: 253.05px 479.46px;"><line x1="387.43" y1="479.46" x2="489.81" y2="479.46" style="fill: none; stroke: rgb(38, 50, 56); stroke-miterlimit: 10; transform-origin: 438.62px 479.46px;" id="elq9o7uwpn93o" class="animable"></line><line x1="16.29" y1="479.46" x2="379.2" y2="479.46" style="fill: none; stroke: rgb(38, 50, 56); stroke-miterlimit: 10; transform-origin: 197.745px 479.46px;" id="elzsclngix4v" class="animable"></line></g><defs>     <filter id="active" height="200%">         <feMorphology in="SourceAlpha" result="DILATED" operator="dilate" radius="2"></feMorphology>                <feFlood flood-color="#32DFEC" flood-opacity="1" result="PINK"></feFlood>        <feComposite in="PINK" in2="DILATED" operator="in" result="OUTLINE"></feComposite>        <feMerge>            <feMergeNode in="OUTLINE"></feMergeNode>            <feMergeNode in="SourceGraphic"></feMergeNode>        </feMerge>    </filter>    <filter id="hover" height="200%">        <feMorphology in="SourceAlpha" result="DILATED" operator="dilate" radius="2"></feMorphology>                <feFlood flood-color="#ff0000" flood-opacity="0.5" result="PINK"></feFlood>        <feComposite in="PINK" in2="DILATED" operator="in" result="OUTLINE"></feComposite>        <feMerge>            <feMergeNode in="OUTLINE"></feMergeNode>            <feMergeNode in="SourceGraphic"></feMergeNode>        </feMerge>            <feColorMatrix type="matrix" values="0   0   0   0   0                0   1   0   0   0                0   0   0   0   0                0   0   0   1   0 "></feColorMatrix>    </filter></defs></svg>