<svg class="animated" id="freepik_stories-woman-thinking" xmlns="http://www.w3.org/2000/svg" viewBox="0 0 500 500" version="1.1" xmlns:xlink="http://www.w3.org/1999/xlink" xmlns:svgjs="http://svgjs.com/svgjs"><style>svg#freepik_stories-woman-thinking:not(.animated) .animable {opacity: 0;}svg#freepik_stories-woman-thinking.animated #freepik--background-simple--inject-56 {animation: 1s 1 forwards cubic-bezier(.36,-0.01,.5,1.38) zoomIn;animation-delay: 0s;}svg#freepik_stories-woman-thinking.animated #freepik--Line--inject-56 {animation: 1s 1 forwards cubic-bezier(.36,-0.01,.5,1.38) zoomOut;animation-delay: 0s;}svg#freepik_stories-woman-thinking.animated #freepik--Plant--inject-56 {animation: 1s 1 forwards cubic-bezier(.36,-0.01,.5,1.38) slideUp;animation-delay: 0s;}svg#freepik_stories-woman-thinking.animated #freepik--Picture--inject-56 {animation: 1s 1 forwards cubic-bezier(.36,-0.01,.5,1.38) slideLeft;animation-delay: 0s;}svg#freepik_stories-woman-thinking.animated #freepik--Character--inject-56 {animation: 1s 1 forwards cubic-bezier(.36,-0.01,.5,1.38) zoomIn;animation-delay: 0s;}svg#freepik_stories-woman-thinking.animated #freepik--speech-bubble--inject-56 {animation: 1s 1 forwards cubic-bezier(.36,-0.01,.5,1.38) slideDown;animation-delay: 0s;}svg#freepik_stories-woman-thinking.animated #freepik--light-bulb--inject-56 {animation: 1s 1 forwards cubic-bezier(.36,-0.01,.5,1.38) zoomIn;animation-delay: 0s;}            @keyframes zoomIn {                0% {                    opacity: 0;                    transform: scale(0.5);                }                100% {                    opacity: 1;                    transform: scale(1);                }            }                    @keyframes zoomOut {                0% {                    opacity: 0;                    transform: scale(1.5);                }                100% {                    opacity: 1;                    transform: scale(1);                }            }                    @keyframes slideUp {                0% {                    opacity: 0;                    transform: translateY(30px);                }                100% {                    opacity: 1;                    transform: inherit;                }            }                    @keyframes slideLeft {                0% {                    opacity: 0;                    transform: translateX(-30px);                }                100% {                    opacity: 1;                    transform: translateX(0);                }            }                    @keyframes slideDown {                0% {                    opacity: 0;                    transform: translateY(-30px);                }                100% {                    opacity: 1;                    transform: translateY(0);                }            }        </style><g id="freepik--background-simple--inject-56" class="animable" style="transform-origin: 245.257px 243.246px;"><path d="M437.4,314.93s51.09-57.42,34.85-157.33-99.67-136.72-155-117.49-67.81,52.7-113,71.84-131.06,6-174,70.29,11.88,170.82,81.67,237.62S359.8,444.84,437.4,314.93Z" style="fill: #16A34A; transform-origin: 245.257px 243.246px;" id="elv804ruudphn" class="animable"></path><g id="eligp03zxvial"><path d="M437.4,314.93s51.09-57.42,34.85-157.33-99.67-136.72-155-117.49-67.81,52.7-113,71.84-131.06,6-174,70.29,11.88,170.82,81.67,237.62S359.8,444.84,437.4,314.93Z" style="fill: rgb(255, 255, 255); opacity: 0.7; transform-origin: 245.257px 243.246px;" class="animable" id="el6wpklbmo6o"></path></g></g><g id="freepik--Line--inject-56" class="animable" style="transform-origin: 244.46px 476.25px;"><line x1="27.19" y1="476.25" x2="461.73" y2="476.25" style="fill: none; stroke: rgb(38, 50, 56); stroke-miterlimit: 10; transform-origin: 244.46px 476.25px;" id="elrqbje4rmd5" class="animable"></line></g><g id="freepik--Plant--inject-56" class="animable" style="transform-origin: 106.589px 374.121px;"><line x1="85.32" y1="324.26" x2="101.2" y2="476.05" style="fill: none; stroke: rgb(38, 50, 56); stroke-miterlimit: 10; stroke-width: 2px; transform-origin: 93.26px 400.155px;" id="elsne7j2gm1o" class="animable"></line><line x1="98.38" y1="444.91" x2="91.32" y2="437.45" style="fill: none; stroke: rgb(38, 50, 56); stroke-miterlimit: 10; stroke-width: 2px; transform-origin: 94.85px 441.18px;" id="elv86keuatild" class="animable"></line><path d="M93.47,439.69a8,8,0,0,0-2.81-6c-1.81-1.62-11.35-5.63-12.26-2.27C77.42,435.08,87.18,442.26,93.47,439.69Z" style="fill: #16A34A; stroke: rgb(38, 50, 56); stroke-miterlimit: 10; transform-origin: 85.9008px 435.175px;" id="el1u9na9duxp7" class="animable"></path><line x1="93.47" y1="439.69" x2="84.39" y2="434.03" style="fill: none; stroke: rgb(38, 50, 56); stroke-miterlimit: 10; stroke-width: 0.5px; transform-origin: 88.93px 436.86px;" id="elzpcl9oj868m" class="animable"></line><line x1="100.15" y1="461.88" x2="93.09" y2="454.42" style="fill: none; stroke: rgb(38, 50, 56); stroke-miterlimit: 10; stroke-width: 2px; transform-origin: 96.62px 458.15px;" id="elnzupzmi3jw" class="animable"></line><path d="M95.24,456.66a8,8,0,0,0-2.81-6c-1.81-1.62-11.35-5.63-12.25-2.27C79.19,452.05,89,459.22,95.24,456.66Z" style="fill: #16A34A; stroke: rgb(38, 50, 56); stroke-miterlimit: 10; transform-origin: 87.6752px 452.144px;" id="elm5vwunwrcss" class="animable"></path><line x1="95.24" y1="456.66" x2="86.16" y2="451" style="fill: none; stroke: rgb(38, 50, 56); stroke-miterlimit: 10; stroke-width: 0.5px; transform-origin: 90.7px 453.83px;" id="el3wg7qgqrvub" class="animable"></line><line x1="94.06" y1="403.5" x2="87" y2="396.05" style="fill: none; stroke: rgb(38, 50, 56); stroke-miterlimit: 10; stroke-width: 2px; transform-origin: 90.53px 399.775px;" id="elenz2qoswc8k" class="animable"></line><path d="M89.15,398.28a8,8,0,0,0-2.81-6C84.52,390.68,75,386.66,74.08,390,73.1,393.68,82.86,400.85,89.15,398.28Z" style="fill: #16A34A; stroke: rgb(38, 50, 56); stroke-miterlimit: 10; transform-origin: 81.5808px 393.767px;" id="els8afaa78twc" class="animable"></path><line x1="89.15" y1="398.28" x2="80.07" y2="392.63" style="fill: none; stroke: rgb(38, 50, 56); stroke-miterlimit: 10; stroke-width: 0.5px; transform-origin: 84.61px 395.455px;" id="ell5ag8q143qd" class="animable"></line><line x1="95.83" y1="420.47" x2="88.77" y2="413.02" style="fill: none; stroke: rgb(38, 50, 56); stroke-miterlimit: 10; stroke-width: 2px; transform-origin: 92.3px 416.745px;" id="el6nq3aucbyif" class="animable"></line><path d="M90.92,415.25a8,8,0,0,0-2.81-6c-1.81-1.62-11.35-5.63-12.26-2.27C74.87,410.64,84.63,417.82,90.92,415.25Z" style="fill: #16A34A; stroke: rgb(38, 50, 56); stroke-miterlimit: 10; transform-origin: 83.3508px 410.735px;" id="elpibbqi4mr1d" class="animable"></path><line x1="90.92" y1="415.25" x2="81.84" y2="409.59" style="fill: none; stroke: rgb(38, 50, 56); stroke-miterlimit: 10; stroke-width: 0.5px; transform-origin: 86.38px 412.42px;" id="elx1in1fvd05" class="animable"></line><line x1="91.18" y1="375.94" x2="84.12" y2="368.48" style="fill: none; stroke: rgb(38, 50, 56); stroke-miterlimit: 10; stroke-width: 2px; transform-origin: 87.65px 372.21px;" id="elpi21qeawvdm" class="animable"></line><path d="M86.27,370.72a8,8,0,0,0-2.81-6c-1.81-1.62-11.35-5.63-12.25-2.27C70.22,366.11,80,373.29,86.27,370.72Z" style="fill: #16A34A; stroke: rgb(38, 50, 56); stroke-miterlimit: 10; transform-origin: 78.7051px 366.205px;" id="el9fwvhe17h76" class="animable"></path><line x1="86.27" y1="370.72" x2="77.19" y2="365.06" style="fill: none; stroke: rgb(38, 50, 56); stroke-miterlimit: 10; stroke-width: 0.5px; transform-origin: 81.73px 367.89px;" id="elwcyx2ywk3f" class="animable"></line><line x1="88.29" y1="348.26" x2="81.23" y2="340.8" style="fill: none; stroke: rgb(38, 50, 56); stroke-miterlimit: 10; stroke-width: 2px; transform-origin: 84.76px 344.53px;" id="el7q94na1cmwd" class="animable"></line><path d="M83.38,343a8,8,0,0,0-2.81-6c-1.81-1.62-11.35-5.63-12.25-2.27C67.33,338.43,77.09,345.6,83.38,343Z" style="fill: #16A34A; stroke: rgb(38, 50, 56); stroke-miterlimit: 10; transform-origin: 75.8151px 338.491px;" id="el6x68llqr14h" class="animable"></path><line x1="83.38" y1="343.03" x2="74.3" y2="337.38" style="fill: none; stroke: rgb(38, 50, 56); stroke-miterlimit: 10; stroke-width: 0.5px; transform-origin: 78.84px 340.205px;" id="ela9ewn7u0jtj" class="animable"></line><line x1="97.19" y1="434.87" x2="102.56" y2="426.12" style="fill: none; stroke: rgb(38, 50, 56); stroke-miterlimit: 10; stroke-width: 2px; transform-origin: 99.875px 430.495px;" id="el5sa3iggj49l" class="animable"></line><path d="M100.92,428.75a8,8,0,0,1,1.52-6.44c1.44-2,9.94-7.85,11.52-4.75C115.67,420.93,107.61,430,100.92,428.75Z" style="fill: #16A34A; stroke: rgb(38, 50, 56); stroke-miterlimit: 10; transform-origin: 107.481px 422.769px;" id="elttcwp86sxq8" class="animable"></path><line x1="100.92" y1="428.75" x2="109.1" y2="420.93" style="fill: none; stroke: rgb(38, 50, 56); stroke-miterlimit: 10; stroke-width: 0.5px; transform-origin: 105.01px 424.84px;" id="el80dxwcclat7" class="animable"></line><line x1="92.53" y1="390.22" x2="97.9" y2="381.47" style="fill: none; stroke: rgb(38, 50, 56); stroke-miterlimit: 10; stroke-width: 2px; transform-origin: 95.215px 385.845px;" id="eltp59g8ok3w" class="animable"></line><path d="M96.26,384.09a8,8,0,0,1,1.52-6.43c1.44-2,9.94-7.86,11.52-4.76C111,376.27,103,385.31,96.26,384.09Z" style="fill: #16A34A; stroke: rgb(38, 50, 56); stroke-miterlimit: 10; transform-origin: 102.821px 378.107px;" id="el7jo5vsqw6kv" class="animable"></path><line x1="96.26" y1="384.09" x2="104.44" y2="376.28" style="fill: none; stroke: rgb(38, 50, 56); stroke-miterlimit: 10; stroke-width: 0.5px; transform-origin: 100.35px 380.185px;" id="el8gvclxhern" class="animable"></line><line x1="90.49" y1="370.59" x2="95.85" y2="361.84" style="fill: none; stroke: rgb(38, 50, 56); stroke-miterlimit: 10; stroke-width: 2px; transform-origin: 93.17px 366.215px;" id="el529xo8ycv7n" class="animable"></line><path d="M94.22,364.47A8,8,0,0,1,95.73,358c1.44-1.95,9.94-7.85,11.52-4.75C109,356.65,100.9,365.69,94.22,364.47Z" style="fill: #16A34A; stroke: rgb(38, 50, 56); stroke-miterlimit: 10; transform-origin: 100.777px 358.474px;" id="el9bnap1j6wcq" class="animable"></path><line x1="94.22" y1="364.47" x2="102.39" y2="356.66" style="fill: none; stroke: rgb(38, 50, 56); stroke-miterlimit: 10; stroke-width: 0.5px; transform-origin: 98.305px 360.565px;" id="elv9vzvy7f3f" class="animable"></line><line x1="87.48" y1="341.83" x2="92.85" y2="333.08" style="fill: none; stroke: rgb(38, 50, 56); stroke-miterlimit: 10; stroke-width: 2px; transform-origin: 90.165px 337.455px;" id="el85ld303qr67" class="animable"></line><path d="M91.21,335.7a8,8,0,0,1,1.52-6.44c1.44-1.95,9.94-7.85,11.52-4.75C106,327.88,97.9,336.92,91.21,335.7Z" style="fill: #16A34A; stroke: rgb(38, 50, 56); stroke-miterlimit: 10; transform-origin: 97.7754px 329.719px;" id="eldr95mre5xdd" class="animable"></path><line x1="91.21" y1="335.7" x2="99.39" y2="327.89" style="fill: none; stroke: rgb(38, 50, 56); stroke-miterlimit: 10; stroke-width: 0.5px; transform-origin: 95.3px 331.795px;" id="ely2dzdo029dl" class="animable"></line><path d="M85.19,323.43A8,8,0,0,1,86.7,317c1.44-2,9.94-7.86,11.52-4.76C99.94,315.61,91.87,324.65,85.19,323.43Z" style="fill: #16A34A; stroke: rgb(38, 50, 56); stroke-miterlimit: 10; transform-origin: 91.7467px 317.447px;" id="elukb67od3zoi" class="animable"></path><line x1="85.19" y1="323.43" x2="93.36" y2="315.62" style="fill: none; stroke: rgb(38, 50, 56); stroke-miterlimit: 10; stroke-width: 0.5px; transform-origin: 89.275px 319.525px;" id="elpr36h1k83q" class="animable"></line><path d="M85.66,323.77a8,8,0,0,1-6.24-2.18c-1.8-1.63-6.77-10.71-3.52-11.95C79.43,308.28,87.57,317.26,85.66,323.77Z" style="fill: #16A34A; stroke: rgb(38, 50, 56); stroke-miterlimit: 10; transform-origin: 80.3846px 316.652px;" id="el2adnwy2bpdf" class="animable"></path><line x1="85.66" y1="323.77" x2="78.75" y2="314.82" style="fill: none; stroke: rgb(38, 50, 56); stroke-miterlimit: 10; stroke-width: 0.5px; transform-origin: 82.205px 319.295px;" id="ele51tnabe7sc" class="animable"></line><line x1="126.39" y1="344.81" x2="113.25" y2="476.05" style="fill: none; stroke: rgb(38, 50, 56); stroke-miterlimit: 10; stroke-width: 2px; transform-origin: 119.82px 410.43px;" id="el0brmhrda1g6v" class="animable"></line><line x1="114.33" y1="465.56" x2="108.96" y2="456.81" style="fill: none; stroke: rgb(38, 50, 56); stroke-miterlimit: 10; stroke-width: 2px; transform-origin: 111.645px 461.185px;" id="el09luiu7ey9xy" class="animable"></line><path d="M110.59,459.44a8,8,0,0,0-1.51-6.44c-1.44-1.95-10-7.84-11.52-4.74C95.84,451.63,103.91,460.66,110.59,459.44Z" style="fill: #16A34A; stroke: rgb(38, 50, 56); stroke-miterlimit: 10; transform-origin: 104.034px 453.464px;" id="elnn5oamre9f" class="animable"></path><line x1="110.59" y1="459.44" x2="102.88" y2="452.03" style="fill: none; stroke: rgb(38, 50, 56); stroke-miterlimit: 10; stroke-width: 0.5px; transform-origin: 106.735px 455.735px;" id="el08682t71ec08" class="animable"></line><line x1="118.63" y1="424.15" x2="113.25" y2="415.4" style="fill: none; stroke: rgb(38, 50, 56); stroke-miterlimit: 10; stroke-width: 2px; transform-origin: 115.94px 419.775px;" id="el8ne12zl86n" class="animable"></line><path d="M114.89,418a8,8,0,0,0-1.52-6.44c-1.43-1.95-9.94-7.84-11.52-4.74C100.14,410.22,108.21,419.25,114.89,418Z" style="fill: #16A34A; stroke: rgb(38, 50, 56); stroke-miterlimit: 10; transform-origin: 108.329px 412.027px;" id="elt4vfk2npa4r" class="animable"></path><line x1="114.89" y1="418.03" x2="107.17" y2="410.63" style="fill: none; stroke: rgb(38, 50, 56); stroke-miterlimit: 10; stroke-width: 0.5px; transform-origin: 111.03px 414.33px;" id="eliba2diw48qo" class="animable"></line><line x1="116.86" y1="441.12" x2="111.49" y2="432.37" style="fill: none; stroke: rgb(38, 50, 56); stroke-miterlimit: 10; stroke-width: 2px; transform-origin: 114.175px 436.745px;" id="elgr04o7zrsgu" class="animable"></line><path d="M113.13,435a8,8,0,0,0-1.52-6.44c-1.44-1.95-9.94-7.84-11.52-4.74C98.38,427.19,106.45,436.22,113.13,435Z" style="fill: #16A34A; stroke: rgb(38, 50, 56); stroke-miterlimit: 10; transform-origin: 106.569px 429.024px;" id="elrezajgwpj0g" class="animable"></path><line x1="113.13" y1="435" x2="105.41" y2="427.6" style="fill: none; stroke: rgb(38, 50, 56); stroke-miterlimit: 10; stroke-width: 0.5px; transform-origin: 109.27px 431.3px;" id="elm12jvwxpkss" class="animable"></line><line x1="121.49" y1="396.59" x2="116.11" y2="387.84" style="fill: none; stroke: rgb(38, 50, 56); stroke-miterlimit: 10; stroke-width: 2px; transform-origin: 118.8px 392.215px;" id="el7x49ug64fyg" class="animable"></line><path d="M117.75,390.47a8,8,0,0,0-1.51-6.44c-1.44-2-9.95-7.85-11.53-4.75C103,382.65,111.07,391.68,117.75,390.47Z" style="fill: #16A34A; stroke: rgb(38, 50, 56); stroke-miterlimit: 10; transform-origin: 111.19px 384.486px;" id="elp7kc8cq112q" class="animable"></path><line x1="117.75" y1="390.47" x2="110.03" y2="383.06" style="fill: none; stroke: rgb(38, 50, 56); stroke-miterlimit: 10; stroke-width: 0.5px; transform-origin: 113.89px 386.765px;" id="elihyy9wrf5q9" class="animable"></line><line x1="124.36" y1="368.9" x2="118.99" y2="360.15" style="fill: none; stroke: rgb(38, 50, 56); stroke-miterlimit: 10; stroke-width: 2px; transform-origin: 121.675px 364.525px;" id="eliqyqk290t7m" class="animable"></line><path d="M120.62,362.78a8,8,0,0,0-1.51-6.44c-1.44-1.95-10-7.84-11.52-4.74C105.87,355,113.94,364,120.62,362.78Z" style="fill: #16A34A; stroke: rgb(38, 50, 56); stroke-miterlimit: 10; transform-origin: 114.064px 356.804px;" id="elc3xevdndwqk" class="animable"></path><line x1="120.62" y1="362.78" x2="112.91" y2="355.38" style="fill: none; stroke: rgb(38, 50, 56); stroke-miterlimit: 10; stroke-width: 0.5px; transform-origin: 116.765px 359.08px;" id="elr1bucvatg8i" class="animable"></line><line x1="115.23" y1="455.49" x2="122.29" y2="448.03" style="fill: none; stroke: rgb(38, 50, 56); stroke-miterlimit: 10; stroke-width: 2px; transform-origin: 118.76px 451.76px;" id="el0ml2q7gounhq" class="animable"></line><path d="M120.15,450.27a8,8,0,0,1,2.8-6c1.81-1.62,11.35-5.64,12.25-2.28C136.19,445.65,126.43,452.83,120.15,450.27Z" style="fill: #16A34A; stroke: rgb(38, 50, 56); stroke-miterlimit: 10; transform-origin: 127.71px 445.749px;" id="ell3bpshqyine" class="animable"></path><line x1="120.15" y1="450.27" x2="129.75" y2="444.31" style="fill: none; stroke: rgb(38, 50, 56); stroke-miterlimit: 10; stroke-width: 0.5px; transform-origin: 124.95px 447.29px;" id="eloj2bg7h6cra" class="animable"></line><line x1="119.87" y1="410.84" x2="126.92" y2="403.38" style="fill: none; stroke: rgb(38, 50, 56); stroke-miterlimit: 10; stroke-width: 2px; transform-origin: 123.395px 407.11px;" id="elvzchn64h2q9" class="animable"></line><path d="M124.78,405.61a8,8,0,0,1,2.81-6c1.81-1.62,11.34-5.63,12.25-2.28C140.82,401,131.07,408.18,124.78,405.61Z" style="fill: #16A34A; stroke: rgb(38, 50, 56); stroke-miterlimit: 10; transform-origin: 132.344px 401.093px;" id="elv618kutigdo" class="animable"></path><line x1="124.78" y1="405.61" x2="134.39" y2="399.65" style="fill: none; stroke: rgb(38, 50, 56); stroke-miterlimit: 10; stroke-width: 0.5px; transform-origin: 129.585px 402.63px;" id="elc87ncotpp2" class="animable"></line><line x1="121.9" y1="391.21" x2="128.96" y2="383.75" style="fill: none; stroke: rgb(38, 50, 56); stroke-miterlimit: 10; stroke-width: 2px; transform-origin: 125.43px 387.48px;" id="elmfr34pokn1h" class="animable"></line><path d="M126.82,386a8,8,0,0,1,2.8-6c1.81-1.62,11.35-5.64,12.25-2.28C142.86,381.37,133.1,388.55,126.82,386Z" style="fill: #16A34A; stroke: rgb(38, 50, 56); stroke-miterlimit: 10; transform-origin: 134.38px 381.477px;" id="el3fth5hzq9ai" class="animable"></path><line x1="126.82" y1="385.99" x2="136.42" y2="380.03" style="fill: none; stroke: rgb(38, 50, 56); stroke-miterlimit: 10; stroke-width: 0.5px; transform-origin: 131.62px 383.01px;" id="elqhudpgmchyg" class="animable"></line><line x1="124.89" y1="362.44" x2="131.94" y2="354.98" style="fill: none; stroke: rgb(38, 50, 56); stroke-miterlimit: 10; stroke-width: 2px; transform-origin: 128.415px 358.71px;" id="el2g7m2zji3jb" class="animable"></line><path d="M129.8,357.22a8,8,0,0,1,2.81-6c1.81-1.62,11.34-5.64,12.25-2.28C145.84,352.6,136.09,359.78,129.8,357.22Z" style="fill: #16A34A; stroke: rgb(38, 50, 56); stroke-miterlimit: 10; transform-origin: 137.364px 352.699px;" id="elyzfct1aeka" class="animable"></path><line x1="129.8" y1="357.22" x2="139.41" y2="351.26" style="fill: none; stroke: rgb(38, 50, 56); stroke-miterlimit: 10; stroke-width: 0.5px; transform-origin: 134.605px 354.24px;" id="el23kxuzap17x" class="animable"></line><path d="M126.43,344a8,8,0,0,1,2.81-6c1.81-1.62,11.34-5.63,12.25-2.27C142.47,339.36,132.72,346.54,126.43,344Z" style="fill: #16A34A; stroke: rgb(38, 50, 56); stroke-miterlimit: 10; transform-origin: 133.994px 339.48px;" id="eldjl2fndmmra" class="animable"></path><line x1="126.43" y1="343.97" x2="136.04" y2="338.01" style="fill: none; stroke: rgb(38, 50, 56); stroke-miterlimit: 10; stroke-width: 0.5px; transform-origin: 131.235px 340.99px;" id="eldhxuy9943pa" class="animable"></line><path d="M126.82,344.4a8,8,0,0,1-5.66-3.42c-1.42-2-4.41-11.87-1-12.42C123.92,328,130,338.42,126.82,344.4Z" style="fill: #16A34A; stroke: rgb(38, 50, 56); stroke-miterlimit: 10; transform-origin: 123.149px 336.469px;" id="el6ogd3bq9j0a" class="animable"></path><line x1="126.82" y1="344.4" x2="121.9" y2="334.22" style="fill: none; stroke: rgb(38, 50, 56); stroke-miterlimit: 10; stroke-width: 0.5px; transform-origin: 124.36px 339.31px;" id="elea70tvpbxnj" class="animable"></line><line x1="108.65" y1="284.05" x2="107.67" y2="476.28" style="fill: none; stroke: rgb(38, 50, 56); stroke-miterlimit: 10; stroke-width: 2px; transform-origin: 108.16px 380.165px;" id="elagau90rzvr" class="animable"></line><line x1="108.8" y1="444.37" x2="102.55" y2="436.22" style="fill: none; stroke: rgb(38, 50, 56); stroke-miterlimit: 10; stroke-width: 2px; transform-origin: 105.675px 440.295px;" id="el5nd89veym8v" class="animable"></line><path d="M104.45,438.66a8,8,0,0,0-2.17-6.24c-1.64-1.8-10.7-6.78-12-3.54C89,432.42,97.93,440.56,104.45,438.66Z" style="fill: #16A34A; stroke: rgb(38, 50, 56); stroke-miterlimit: 10; transform-origin: 97.3197px 433.377px;" id="el4q2g8vcmdty" class="animable"></path><line x1="104.45" y1="438.66" x2="96.01" y2="432.09" style="fill: none; stroke: rgb(38, 50, 56); stroke-miterlimit: 10; stroke-width: 0.5px; transform-origin: 100.23px 435.375px;" id="el31dzx2p6fpd" class="animable"></line><line x1="108.8" y1="408.91" x2="102.55" y2="400.76" style="fill: none; stroke: rgb(38, 50, 56); stroke-miterlimit: 10; stroke-width: 2px; transform-origin: 105.675px 404.835px;" id="el42h6jic8n62" class="animable"></line><path d="M104.45,403.2a8,8,0,0,0-2.17-6.24c-1.64-1.8-10.7-6.78-12-3.53C89,397,97.93,405.1,104.45,403.2Z" style="fill: #16A34A; stroke: rgb(38, 50, 56); stroke-miterlimit: 10; transform-origin: 97.3197px 397.919px;" id="elhh7i81p5asd" class="animable"></path><line x1="104.45" y1="403.2" x2="96.01" y2="396.63" style="fill: none; stroke: rgb(38, 50, 56); stroke-miterlimit: 10; stroke-width: 0.5px; transform-origin: 100.23px 399.915px;" id="eliv0cwp2rnfs" class="animable"></line><line x1="108.8" y1="367.28" x2="102.55" y2="359.13" style="fill: none; stroke: rgb(38, 50, 56); stroke-miterlimit: 10; stroke-width: 2px; transform-origin: 105.675px 363.205px;" id="elldt9xne9tnl" class="animable"></line><path d="M104.45,361.57a8,8,0,0,0-2.17-6.24c-1.64-1.8-10.7-6.78-12-3.53C89,355.33,97.93,363.47,104.45,361.57Z" style="fill: #16A34A; stroke: rgb(38, 50, 56); stroke-miterlimit: 10; transform-origin: 97.3197px 356.289px;" id="eljp5opkw2wbs" class="animable"></path><line x1="104.45" y1="361.57" x2="96.01" y2="355" style="fill: none; stroke: rgb(38, 50, 56); stroke-miterlimit: 10; stroke-width: 0.5px; transform-origin: 100.23px 358.285px;" id="eltuf121emgb9" class="animable"></line><line x1="108.8" y1="339.56" x2="102.55" y2="331.42" style="fill: none; stroke: rgb(38, 50, 56); stroke-miterlimit: 10; stroke-width: 2px; transform-origin: 105.675px 335.49px;" id="elyghpliicjj" class="animable"></line><path d="M104.45,333.86a8,8,0,0,0-2.17-6.25c-1.64-1.79-10.7-6.77-12-3.53C89,327.61,97.93,335.76,104.45,333.86Z" style="fill: #16A34A; stroke: rgb(38, 50, 56); stroke-miterlimit: 10; transform-origin: 97.3201px 328.576px;" id="el64u6ewgasr3" class="animable"></path><line x1="104.45" y1="333.86" x2="96.01" y2="327.29" style="fill: none; stroke: rgb(38, 50, 56); stroke-miterlimit: 10; stroke-width: 0.5px; transform-origin: 100.23px 330.575px;" id="elmhkjf8qnu8" class="animable"></line><line x1="108.8" y1="311.73" x2="102.55" y2="303.58" style="fill: none; stroke: rgb(38, 50, 56); stroke-miterlimit: 10; stroke-width: 2px; transform-origin: 105.675px 307.655px;" id="elc2i8b1e4u6i" class="animable"></line><path d="M104.45,306a8,8,0,0,0-2.17-6.25c-1.64-1.8-10.7-6.78-12-3.53C89,299.78,97.93,307.93,104.45,306Z" style="fill: #16A34A; stroke: rgb(38, 50, 56); stroke-miterlimit: 10; transform-origin: 97.3201px 300.718px;" id="elaktrd6ae9rf" class="animable"></path><line x1="104.45" y1="306.03" x2="96.01" y2="299.46" style="fill: none; stroke: rgb(38, 50, 56); stroke-miterlimit: 10; stroke-width: 0.5px; transform-origin: 100.23px 302.745px;" id="eltuxgm2vj36l" class="animable"></line><line x1="108.66" y1="455.19" x2="114.9" y2="447.05" style="fill: none; stroke: rgb(38, 50, 56); stroke-miterlimit: 10; stroke-width: 2px; transform-origin: 111.78px 451.12px;" id="elxhvxrnflk0k" class="animable"></line><path d="M113,449.49a8,8,0,0,1,2.18-6.25c1.63-1.79,10.7-6.77,11.95-3.53C128.48,443.24,119.52,451.39,113,449.49Z" style="fill: #16A34A; stroke: rgb(38, 50, 56); stroke-miterlimit: 10; transform-origin: 120.117px 444.206px;" id="elzkxlbye0ila" class="animable"></path><line x1="113" y1="449.49" x2="121.94" y2="442.57" style="fill: none; stroke: rgb(38, 50, 56); stroke-miterlimit: 10; stroke-width: 0.5px; transform-origin: 117.47px 446.03px;" id="eluh15x7cphq9" class="animable"></line><line x1="108.66" y1="398.8" x2="114.9" y2="390.65" style="fill: none; stroke: rgb(38, 50, 56); stroke-miterlimit: 10; stroke-width: 2px; transform-origin: 111.78px 394.725px;" id="el9nsigbfrvrk" class="animable"></line><path d="M113,393.1a8,8,0,0,1,2.18-6.25c1.63-1.8,10.7-6.78,11.95-3.53C128.48,386.85,119.52,395,113,393.1Z" style="fill: #16A34A; stroke: rgb(38, 50, 56); stroke-miterlimit: 10; transform-origin: 120.117px 387.814px;" id="elvfm3kc2i9d8" class="animable"></path><line x1="113" y1="393.1" x2="121.94" y2="386.17" style="fill: none; stroke: rgb(38, 50, 56); stroke-miterlimit: 10; stroke-width: 0.5px; transform-origin: 117.47px 389.635px;" id="elvn5tn25mos9" class="animable"></line><line x1="108.66" y1="370.96" x2="114.9" y2="362.82" style="fill: none; stroke: rgb(38, 50, 56); stroke-miterlimit: 10; stroke-width: 2px; transform-origin: 111.78px 366.89px;" id="eluq2xki650eb" class="animable"></line><path d="M113,365.26a8,8,0,0,1,2.18-6.25c1.63-1.79,10.7-6.77,11.95-3.53C128.48,359,119.52,367.16,113,365.26Z" style="fill: #16A34A; stroke: rgb(38, 50, 56); stroke-miterlimit: 10; transform-origin: 120.117px 359.976px;" id="el06dek5xhwr" class="animable"></path><line x1="113" y1="365.26" x2="121.94" y2="358.34" style="fill: none; stroke: rgb(38, 50, 56); stroke-miterlimit: 10; stroke-width: 0.5px; transform-origin: 117.47px 361.8px;" id="elb9wr1du3xbu" class="animable"></line><line x1="108.66" y1="334.17" x2="114.9" y2="326.03" style="fill: none; stroke: rgb(38, 50, 56); stroke-miterlimit: 10; stroke-width: 2px; transform-origin: 111.78px 330.1px;" id="elbfbuuo45yt" class="animable"></line><path d="M113,328.47a8,8,0,0,1,2.18-6.25c1.63-1.79,10.7-6.77,11.95-3.53C128.48,322.22,119.52,330.37,113,328.47Z" style="fill: #16A34A; stroke: rgb(38, 50, 56); stroke-miterlimit: 10; transform-origin: 120.117px 323.186px;" id="el0se7ibwqxzm" class="animable"></path><line x1="113" y1="328.47" x2="121.94" y2="321.55" style="fill: none; stroke: rgb(38, 50, 56); stroke-miterlimit: 10; stroke-width: 0.5px; transform-origin: 117.47px 325.01px;" id="el8i99qw7896t" class="animable"></line><line x1="108.66" y1="305.25" x2="114.9" y2="297.1" style="fill: none; stroke: rgb(38, 50, 56); stroke-miterlimit: 10; stroke-width: 2px; transform-origin: 111.78px 301.175px;" id="elrqc2w5aluk" class="animable"></line><path d="M113,299.55a8,8,0,0,1,2.18-6.25c1.63-1.8,10.7-6.78,11.95-3.53C128.48,293.3,119.52,301.45,113,299.55Z" style="fill: #16A34A; stroke: rgb(38, 50, 56); stroke-miterlimit: 10; transform-origin: 120.117px 294.264px;" id="els9i5jxmk8a" class="animable"></path><line x1="113" y1="299.55" x2="121.94" y2="292.63" style="fill: none; stroke: rgb(38, 50, 56); stroke-miterlimit: 10; stroke-width: 0.5px; transform-origin: 117.47px 296.09px;" id="elq1j3k12qulo" class="animable"></line><path d="M108.28,286.72a8,8,0,0,1,2.18-6.25c1.63-1.8,10.7-6.77,12-3.53C123.76,280.47,114.8,288.62,108.28,286.72Z" style="fill: #16A34A; stroke: rgb(38, 50, 56); stroke-miterlimit: 10; transform-origin: 115.417px 281.436px;" id="el432t9u598oe" class="animable"></path><line x1="108.28" y1="286.72" x2="117.22" y2="279.8" style="fill: none; stroke: rgb(38, 50, 56); stroke-miterlimit: 10; stroke-width: 0.5px; transform-origin: 112.75px 283.26px;" id="el7ycshuygfzf" class="animable"></line><path d="M108.72,287.1a8,8,0,0,1-6-2.81c-1.61-1.82-5.61-11.36-2.25-12.26C104.13,271.05,111.29,280.82,108.72,287.1Z" style="fill: #16A34A; stroke: rgb(38, 50, 56); stroke-miterlimit: 10; transform-origin: 104.215px 279.531px;" id="elawtjh7u3qn" class="animable"></path><line x1="108.72" y1="287.1" x2="102.77" y2="277.49" style="fill: none; stroke: rgb(38, 50, 56); stroke-miterlimit: 10; stroke-width: 0.5px; transform-origin: 105.745px 282.295px;" id="elgk5iex88low" class="animable"></line></g><g id="freepik--Picture--inject-56" class="animable" style="transform-origin: 369.765px 167.7px;"><rect x="289.18" y="55.8" width="161.17" height="223.8" style="fill: none; stroke: rgb(38, 50, 56); stroke-miterlimit: 10; transform-origin: 369.765px 167.7px;" id="elbimuysevy1" class="animable"></rect><rect x="295.52" y="64.6" width="148.49" height="206.19" style="fill: none; stroke: rgb(38, 50, 56); stroke-miterlimit: 10; transform-origin: 369.765px 167.695px;" id="elwfwwbozjcq" class="animable"></rect><rect x="336.22" y="121.11" width="67.1" height="93.17" style="fill: none; stroke: rgb(38, 50, 56); stroke-miterlimit: 10; transform-origin: 369.77px 167.695px;" id="elz7ja946jv6s" class="animable"></rect></g><g id="freepik--Character--inject-56" class="animable" style="transform-origin: 301.152px 292.407px;"><path d="M266.31,113.39s-10.16-2-19.07,12.11-8.37,33-7.84,51-.46,41.3-1,49.5-9.47,16.09-9.47,16.09l127.52,3a438.79,438.79,0,0,0-16.31-42.28C330.36,181,321.89,146,321.89,146s12.48,2.85,11.41-4.27-8.2-15.15-27.8-25.3S272.9,106.62,266.31,113.39Z" style="fill: rgb(38, 50, 56); stroke: rgb(38, 50, 56); stroke-miterlimit: 10; transform-origin: 292.69px 176.807px;" id="elsnellpm2hc" class="animable"></path><polygon points="218.79 476 223.81 439.4 374.35 428.18 387.05 476.29 218.79 476" style="fill: rgb(38, 50, 56); stroke: rgb(38, 50, 56); stroke-miterlimit: 10; transform-origin: 302.92px 452.235px;" id="elmmo24xv17ac" class="animable"></polygon><path d="M366.05,386.54a228,228,0,0,1-9.9-23.22c2.65-6.39,11.55-22.67,11.55-22.67l5.28-9.51s-1-2.93-.75-10.71a87.35,87.35,0,0,0-.31-12s5.55-45.17,5.55-51.51,0-13.73-1.58-15.85-12.42-9.5-34.6-16.64-29.59-7.39-31.17-7.92-29.58,1.85-29.58,1.85-43.85,7.39-46,9.77S240.39,347,240.39,347s-3.29,8.51-4.07,14.89c-3.74,10.63-15.27,44.45-16.6,60.58-1.58,19.28-1.32,24.83-1.32,24.83s34.86,15.84,52,19.28,32.23,6.34,32.23,6.34l5.81-15.59,7.39,15.32s29.58-11.09,39.88-18.49,23.78-24.56,23.78-24.56S372.38,399.22,366.05,386.54Z" style="fill: #16A34A; stroke: rgb(38, 50, 56); stroke-miterlimit: 10; transform-origin: 298.937px 344.676px;" id="elhe9atzc7ltf" class="animable"></path><path d="M360,244s-9.06,12-11,18.11" style="fill: none; stroke: rgb(38, 50, 56); stroke-miterlimit: 10; transform-origin: 354.5px 253.055px;" id="elgbfwf0mlk5" class="animable"></path><path d="M318.57,367.76s13.08,2.95,15.61,4.85,12.45,4.85,16.67,4.85a87.08,87.08,0,0,0,10.76-1l-6.75-7.6S328.7,365,324.69,365A8,8,0,0,0,318.57,367.76Z" style="fill: rgb(38, 50, 56); stroke: rgb(38, 50, 56); stroke-miterlimit: 10; transform-origin: 340.09px 371.23px;" id="elq6kwxt7q3a" class="animable"></path><path d="M306.81,438.48c.54,5.45.89,9,.89,9.37" style="fill: none; stroke: rgb(38, 50, 56); stroke-miterlimit: 10; transform-origin: 307.255px 443.165px;" id="elumqqxgk2zwt" class="animable"></path><path d="M300.12,373.52s4,38.5,6.2,60.09" style="fill: none; stroke: rgb(38, 50, 56); stroke-miterlimit: 10; transform-origin: 303.22px 403.565px;" id="elcdxdgyjc8s8" class="animable"></path><path d="M306.83,310.3c.12,1,.25,1.91.38,2.62,1.06,5.54-.26,12.41-2.9,14.26s-5,10-4,11.09" style="fill: none; stroke: rgb(38, 50, 56); stroke-miterlimit: 10; transform-origin: 303.826px 324.285px;" id="el2jz6k7jnu7y" class="animable"></path><path d="M305.63,290.73s.25,7.87.75,14.59" style="fill: none; stroke: rgb(38, 50, 56); stroke-miterlimit: 10; transform-origin: 306.005px 298.025px;" id="el8wj00l5aa83" class="animable"></path><path d="M287.32,208.37s-3.55-.22-4.44.89-7.75,9.53-8,11.3-.67,29-.67,31.24,3.1,9.31,4.65,5.32,2.66-9.08,4.22-11.74,5.53,2.88,5.53,2.88l26.15,7.09s8.42-4.88,10-8,1.33,9.31,3.33,9.75,3.77-2.88,1.77-10.41-1.55-21.94-4.43-30.58-4.88-9.31-9.53-9.53S287.32,208.37,287.32,208.37Z" style="fill: #16A34A; stroke: rgb(38, 50, 56); stroke-miterlimit: 10; transform-origin: 302.474px 232.44px;" id="el9sqhvwgy58g" class="animable"></path><path d="M283.77,192.26s1.78,21,1.78,24.59-.89,18.17,2.67,27.79,13.72,41.16,15.86,42.41,4.45-1.78,8.37-11.94S325.28,250,323.68,235s-8.56-44.72-8.56-44.72Z" style="fill: rgb(255, 255, 255); stroke: rgb(38, 50, 56); stroke-miterlimit: 10; transform-origin: 303.82px 238.798px;" id="el6etb97t16p7" class="animable"></path><polygon points="305.57 210.68 285.54 218.81 284.38 206.03 305.57 210.68" style="fill: rgb(38, 50, 56); stroke: rgb(38, 50, 56); stroke-miterlimit: 10; transform-origin: 294.975px 212.42px;" id="elxzn3cnhg04" class="animable"></polygon><path d="M291.16,253c4.5,13.05,11.22,33.05,12.92,34,2.14,1.25,4.45-1.78,8.37-11.94,2.07-5.35,5.51-12,8.08-19.35A29.92,29.92,0,0,1,291.16,253Z" style="fill: rgb(38, 50, 56); stroke: rgb(38, 50, 56); stroke-miterlimit: 10; transform-origin: 305.845px 270.133px;" id="elwea617mrok" class="animable"></path><path d="M261.86,172s11.08,27.39,16,31.34,21.69,10.29,27.54,9.82,11.87-4.28,13.46-7.92,8.23-13,7.12-20.57-8.39-35.46-8.39-35.46S302.69,147,292.4,143.5s-16.14-13-16.14-13-1.9,18.36-6.33,28.33S261.86,172,261.86,172Z" style="fill: rgb(255, 255, 255); stroke: rgb(38, 50, 56); stroke-miterlimit: 10; transform-origin: 293.982px 171.842px;" id="ellana6a537p" class="animable"></path><path d="M300.28,164.42s1.52,8.28,4.35,10,3.93,2.62,2.84,4.58-4.36,3-5.23,3" style="fill: none; stroke: rgb(38, 50, 56); stroke-miterlimit: 10; transform-origin: 304.082px 173.21px;" id="elzjnjukm96q" class="animable"></path><path d="M291.34,186.21s6.54,6.32,13.08,5.23" style="fill: none; stroke: rgb(38, 50, 56); stroke-miterlimit: 10; transform-origin: 297.88px 188.888px;" id="elwh0wwoq3t7b" class="animable"></path><path d="M275.4,165.46s7.21-4.2,12.7-2.08" style="fill: none; stroke: rgb(38, 50, 56); stroke-miterlimit: 10; transform-origin: 281.75px 164.121px;" id="elslculqp34w" class="animable"></path><path d="M300.84,163.09s-1.72-7.37,6.92-9.44" style="fill: none; stroke: rgb(38, 50, 56); stroke-miterlimit: 10; transform-origin: 304.23px 158.37px;" id="el37cj1xxgjw4" class="animable"></path><path d="M291.53,172c.64,1.76.29,3.51-.78,3.9s-2.47-.72-3.11-2.49-.29-3.5.79-3.89S290.89,170.22,291.53,172Z" style="fill: rgb(38, 50, 56); transform-origin: 289.585px 172.71px;" id="el9byn7ktvmw5" class="animable"></path><path d="M311.24,165.19c.64,1.76.29,3.51-.79,3.9s-2.46-.72-3.1-2.48-.29-3.51.78-3.9S310.6,163.43,311.24,165.19Z" style="fill: rgb(38, 50, 56); transform-origin: 309.295px 165.9px;" id="el765pmyolrd" class="animable"></path><path d="M261.86,172l-4,11.29s4.27,6.24,6.77,7.31,5.34-1.25,5.34-1.25Z" style="fill: rgb(255, 255, 255); stroke: rgb(38, 50, 56); stroke-miterlimit: 10; transform-origin: 263.915px 181.441px;" id="el68i71e12k5u" class="animable"></path><path d="M260.73,339.06s53.09,8.72,65,8.72,22.45-.53,23.77-1.06,18-2.11,19.28.27.8,6.87.8,6.87a29.88,29.88,0,0,1,.79,7.92,12,12,0,0,1-2.11,6.07,3.72,3.72,0,0,1-.53,4c-1.59,2.11-1.85,4-4.76,4.49s-9.5-1.06-10.56-1.32-12.15-1.59-15.06-3.17a37.79,37.79,0,0,0-6.34-2.91,52.81,52.81,0,0,0-6.6-1.06S272.61,371,265,370.49s-12.41-.52-12.41-.52Z" style="fill: rgb(255, 255, 255); stroke: rgb(38, 50, 56); stroke-miterlimit: 10; transform-origin: 311.489px 357.748px;" id="el0rgfr7iub2z" class="animable"></path><path d="M335.63,328.28s4.29,18.75,8,24.28,11.78,13.74,19.1,10.89,9.28-2.14,10.53-15.71.89-23.56-1.07-27.31a43.46,43.46,0,0,0-5.36-7.5Z" style="fill: #16A34A; stroke: rgb(38, 50, 56); stroke-miterlimit: 10; transform-origin: 354.809px 338.482px;" id="elahytyp0ker9" class="animable"></path><path d="M340.63,230.64s-10-8.74-15-12.67a169.23,169.23,0,0,1-15.17-13.92c-3.57-3.75-5.72-5.71-6.07-2.32s4.82,11.42,5.89,12.85,7.14,8.21,7.14,8.21-7.14,5-8.93,6.43-1.78,3-2.32,7.14,1.43,5.89,4.46,6.78a6.65,6.65,0,0,0,5.54-1.07s7.14,4.82,11.6,5.53,8.57,4.11,8.57,4.11-1.43,66-1.61,67.65,9.46,1.25,18.74-1.79,11.79-6.6,11.79-6.6-12-56.76-15-64.8S344,232.61,340.63,230.64Z" style="fill: rgb(255, 255, 255); stroke: rgb(38, 50, 56); stroke-miterlimit: 10; transform-origin: 334.817px 260.152px;" id="elbt0ma545nei" class="animable"></path><path d="M316.18,242.07l-4.64-3.75s-.18,1.61-1.07,2.14" style="fill: rgb(255, 255, 255); stroke: rgb(38, 50, 56); stroke-miterlimit: 10; transform-origin: 313.325px 240.195px;" id="elshq1al9tii" class="animable"></path><path d="M331.53,315.08s.53,14.27,2.32,15.35,15.35-2.15,22.49-4.65,12.32-5.53,12.5-7.85-1.61-8-2.86-11.07-3-2.32-3.75-1.6-7.14,3-16.78,5.53S331.35,312.4,331.53,315.08Z" style="fill: #16A34A; stroke: rgb(38, 50, 56); stroke-miterlimit: 10; transform-origin: 350.189px 317.632px;" id="elwl0642zfkc9" class="animable"></path><path d="M243.84,285.12c-.33-3.63-.6-6.94-.81-9.71" style="fill: #16A34A; stroke: rgb(38, 50, 56); stroke-miterlimit: 10; transform-origin: 243.435px 280.265px;" id="el1upbbrqhakr" class="animable"></path><path d="M249.11,225.49s-27.21,1.59-28.27,6.08-4.22,40.14-5.28,75.27.79,60.75,3.17,61.54,29.58.79,29.58.79l3.44-30.63-2.91-4.49s-2.76-34.78-4.58-53.77" style="fill: #16A34A; stroke: rgb(38, 50, 56); stroke-miterlimit: 10; transform-origin: 233.502px 297.33px;" id="eltdep37le94n" class="animable"></path><path d="M246.2,332.73s-5.28,34.6-6.07,36.18-1.32,4.49,1.84,4.23,11.89,2.11,12.95-.27,9.51-28.26,8.71-32-4.49-5-5.81-5.54S247.79,331.4,246.2,332.73Z" style="fill: #16A34A; stroke: rgb(38, 50, 56); stroke-miterlimit: 10; transform-origin: 251.605px 353.182px;" id="el6s1f3s91tcy" class="animable"></path><path d="M234.61,317.53c-1.19-1.52-2.16-2.72-2.67-3.29" style="fill: none; stroke: rgb(38, 50, 56); stroke-miterlimit: 10; transform-origin: 233.275px 315.885px;" id="ele56k6tslzq6" class="animable"></path><path d="M227.45,328.5l18.75,4.23s-4.89-6.52-9-11.89" style="fill: none; stroke: rgb(38, 50, 56); stroke-miterlimit: 10; transform-origin: 236.825px 326.785px;" id="eltsofvcosjgh" class="animable"></path><path d="M252.6,193.78s-7.74,45.06-8,65.78,8,32.65,19.4,36.44,21.3-2.84,18.93-6.15-11.83,3.31-15.14-8.52,8.52-21.77,9-45,0-29.34,0-29.34" style="fill: rgb(38, 50, 56); stroke: rgb(38, 50, 56); stroke-miterlimit: 10; transform-origin: 263.939px 245.458px;" id="el0wr20ftaqowm" class="animable"></path></g><g id="freepik--speech-bubble--inject-56" class="animable" style="transform-origin: 139.455px 105.815px;"><path d="M233.49,86a28,28,0,0,0-39.41-25.6,28,28,0,0,0-41.23-10.05,28,28,0,0,0-38.19-15.4A28,28,0,0,0,67.57,61.37,38.85,38.85,0,0,0,55.29,127a28,28,0,0,0,44.49,30.29,38.86,38.86,0,0,0,70.22,3.6,31.1,31.1,0,0,0,37-47A28,28,0,0,0,233.49,86Z" style="fill: rgb(38, 50, 56); stroke: rgb(38, 50, 56); stroke-miterlimit: 10; transform-origin: 137.8px 104.025px;" id="elz242aug26fa" class="animable"></path><g id="el0h4qn0413zgb"><ellipse cx="210.24" cy="165.5" rx="12.23" ry="9.25" style="fill: rgb(38, 50, 56); stroke: rgb(38, 50, 56); stroke-miterlimit: 10; transform-origin: 210.24px 165.5px; transform: rotate(-26.02deg);" class="animable" id="el0sruddev21mk"></ellipse></g><path d="M213.45,187.59c1.68,3.44,6.73,4.43,11.28,2.21s6.87-6.81,5.19-10.25-6.73-4.43-11.28-2.21S211.77,184.15,213.45,187.59Z" style="fill: rgb(38, 50, 56); stroke: rgb(38, 50, 56); stroke-miterlimit: 10; transform-origin: 221.685px 183.57px;" id="elfqxu11pr4lj" class="animable"></path><path d="M236.8,80a28,28,0,0,0-39.41-25.6,28,28,0,0,0-41.24-10A28,28,0,0,0,118,29,28,28,0,0,0,70.88,55.42a38.86,38.86,0,0,0-12.29,65.66,28,28,0,0,0,44.5,30.29A38.86,38.86,0,0,0,173.3,155a31.1,31.1,0,0,0,37-47A28,28,0,0,0,236.8,80Z" style="fill: rgb(255, 255, 255); stroke: rgb(38, 50, 56); stroke-miterlimit: 10; transform-origin: 141.099px 98.0727px;" id="elypyf7teib4j" class="animable"></path><g id="elnditiz2ud3"><ellipse cx="213.54" cy="159.55" rx="12.23" ry="9.25" style="fill: rgb(255, 255, 255); stroke: rgb(38, 50, 56); stroke-miterlimit: 10; transform-origin: 213.54px 159.55px; transform: rotate(-26.02deg);" class="animable" id="elj9ehww4dbrh"></ellipse></g><path d="M216.76,181.64c1.68,3.44,6.73,4.43,11.27,2.22s6.87-6.81,5.19-10.26-6.72-4.43-11.27-2.21S215.08,178.2,216.76,181.64Z" style="fill: rgb(255, 255, 255); stroke: rgb(38, 50, 56); stroke-miterlimit: 10; transform-origin: 224.989px 177.62px;" id="elhxzpp9maf2b" class="animable"></path></g><g id="freepik--light-bulb--inject-56" class="animable" style="transform-origin: 135.54px 94.69px;"><path d="M166.26,85.78A30.07,30.07,0,1,0,113.08,105a29.54,29.54,0,0,1,6.85,18.92v4.12h32.51v-4.12a29.45,29.45,0,0,1,6.84-18.9A30,30,0,0,0,166.26,85.78Z" style="fill: #16A34A; stroke: rgb(38, 50, 56); stroke-miterlimit: 10; transform-origin: 136.19px 91.8656px;" id="elxjvjfh757ed" class="animable"></path><g id="elono8sawoy3s"><circle cx="136.16" cy="87.84" r="19.07" style="fill: rgb(255, 255, 255); opacity: 0.44; transform-origin: 136.16px 87.84px;" class="animable" id="eltqu7r0g91a"></circle></g><rect x="119.93" y="128.07" width="32.51" height="8.04" style="fill: rgb(125, 125, 125); stroke: rgb(38, 50, 56); stroke-linecap: round; stroke-linejoin: round; transform-origin: 136.185px 132.09px;" id="elp047bamqn8p" class="animable"></rect><path d="M119.93,136.13h32.51a0,0,0,0,1,0,0v3.32a4.73,4.73,0,0,1-4.73,4.73H124.66a4.73,4.73,0,0,1-4.73-4.73v-3.32A0,0,0,0,1,119.93,136.13Z" style="fill: rgb(125, 125, 125); stroke: rgb(38, 50, 56); stroke-linecap: round; stroke-linejoin: round; transform-origin: 136.185px 140.155px;" id="el1x1b4l5ivow" class="animable"></path><path d="M124,144.16h24.3a0,0,0,0,1,0,0v1.63a6.41,6.41,0,0,1-6.41,6.41H130.44a6.41,6.41,0,0,1-6.41-6.41v-1.63A0,0,0,0,1,124,144.16Z" style="fill: rgb(255, 255, 255); stroke: rgb(38, 50, 56); stroke-linecap: round; stroke-linejoin: round; transform-origin: 136.15px 148.18px;" id="elksp6tza0rk" class="animable"></path><line x1="170.52" y1="85.94" x2="184.3" y2="85.94" style="fill: none; stroke: rgb(38, 50, 56); stroke-linecap: round; stroke-linejoin: round; transform-origin: 177.41px 85.94px;" id="elloxc3rwjbla" class="animable"></line><line x1="86.78" y1="85.94" x2="100.73" y2="85.94" style="fill: none; stroke: rgb(38, 50, 56); stroke-linecap: round; stroke-linejoin: round; transform-origin: 93.755px 85.94px;" id="elz5s50p1ck5g" class="animable"></line><line x1="135.54" y1="51" x2="135.54" y2="37.18" style="fill: none; stroke: rgb(38, 50, 56); stroke-linecap: round; stroke-linejoin: round; transform-origin: 135.54px 44.09px;" id="elee25v8rt3o8" class="animable"></line><line x1="160.51" y1="60.97" x2="170.02" y2="51.46" style="fill: none; stroke: rgb(38, 50, 56); stroke-linecap: round; stroke-linejoin: round; transform-origin: 165.265px 56.215px;" id="el8fp621e4dz8" class="animable"></line><line x1="101.06" y1="120.42" x2="110.71" y2="110.77" style="fill: none; stroke: rgb(38, 50, 56); stroke-linecap: round; stroke-linejoin: round; transform-origin: 105.885px 115.595px;" id="elrzj296xdz8" class="animable"></line><line x1="110.3" y1="60.7" x2="101.06" y2="51.46" style="fill: none; stroke: rgb(38, 50, 56); stroke-linecap: round; stroke-linejoin: round; transform-origin: 105.68px 56.08px;" id="elf4hhlwv3rba" class="animable"></line><line x1="170.02" y1="120.42" x2="160.82" y2="111.22" style="fill: none; stroke: rgb(38, 50, 56); stroke-linecap: round; stroke-linejoin: round; transform-origin: 165.42px 115.82px;" id="elzc6h1spkxgg" class="animable"></line></g><defs>     <filter id="active" height="200%">         <feMorphology in="SourceAlpha" result="DILATED" operator="dilate" radius="2"></feMorphology>                <feFlood flood-color="#32DFEC" flood-opacity="1" result="PINK"></feFlood>        <feComposite in="PINK" in2="DILATED" operator="in" result="OUTLINE"></feComposite>        <feMerge>            <feMergeNode in="OUTLINE"></feMergeNode>            <feMergeNode in="SourceGraphic"></feMergeNode>        </feMerge>    </filter>    <filter id="hover" height="200%">        <feMorphology in="SourceAlpha" result="DILATED" operator="dilate" radius="2"></feMorphology>                <feFlood flood-color="#ff0000" flood-opacity="0.5" result="PINK"></feFlood>        <feComposite in="PINK" in2="DILATED" operator="in" result="OUTLINE"></feComposite>        <feMerge>            <feMergeNode in="OUTLINE"></feMergeNode>            <feMergeNode in="SourceGraphic"></feMergeNode>        </feMerge>            <feColorMatrix type="matrix" values="0   0   0   0   0                0   1   0   0   0                0   0   0   0   0                0   0   0   1   0 "></feColorMatrix>    </filter></defs></svg>