<svg class="animated" id="freepik_stories-mobile-inbox" xmlns="http://www.w3.org/2000/svg" xmlns:xlink="http://www.w3.org/1999/xlink" viewBox="0 0 500 500" version="1.1" xmlns:svgjs="http://svgjs.com/svgjs"><style>svg#freepik_stories-mobile-inbox:not(.animated) .animable {opacity: 0;}svg#freepik_stories-mobile-inbox.animated #freepik--background-simple--inject-124 {animation: 1s 1 forwards cubic-bezier(.36,-0.01,.5,1.38) slideLeft;animation-delay: 0s;}svg#freepik_stories-mobile-inbox.animated #freepik--Graphics--inject-124 {animation: 1s 1 forwards cubic-bezier(.36,-0.01,.5,1.38) zoomOut;animation-delay: 0s;}svg#freepik_stories-mobile-inbox.animated #freepik--Device--inject-124 {animation: 1s 1 forwards cubic-bezier(.36,-0.01,.5,1.38) zoomOut;animation-delay: 0s;}svg#freepik_stories-mobile-inbox.animated #freepik--speech-bubble--inject-124 {animation: 1s 1 forwards cubic-bezier(.36,-0.01,.5,1.38) slideUp;animation-delay: 0s;}svg#freepik_stories-mobile-inbox.animated #freepik--Character--inject-124 {animation: 1s 1 forwards cubic-bezier(.36,-0.01,.5,1.38) slideLeft;animation-delay: 0s;}            @keyframes slideLeft {                0% {                    opacity: 0;                    transform: translateX(-30px);                }                100% {                    opacity: 1;                    transform: translateX(0);                }            }                    @keyframes zoomOut {                0% {                    opacity: 0;                    transform: scale(1.5);                }                100% {                    opacity: 1;                    transform: scale(1);                }            }                    @keyframes slideUp {                0% {                    opacity: 0;                    transform: translateY(30px);                }                100% {                    opacity: 1;                    transform: inherit;                }            }        </style><g id="freepik--background-simple--inject-124" class="animable" style="transform-origin: 252.765px 257.661px;"><path d="M236,56.1c124-11.05,124.25,58.93,180.13,124.13S484,275,463,350.13,370.89,484.2,283.06,450.82s-138.14-1.32-193.54-31-76-86.91-35.42-154.41S83.1,69.72,236,56.1Z" style="fill: #01C568; transform-origin: 252.765px 257.661px;" id="elcc54cmrmcc5" class="animable"></path><g id="el8awx2kdxcxd"><path d="M236,56.1c124-11.05,124.25,58.93,180.13,124.13S484,275,463,350.13,370.89,484.2,283.06,450.82s-138.14-1.32-193.54-31-76-86.91-35.42-154.41S83.1,69.72,236,56.1Z" style="fill: rgb(255, 255, 255); opacity: 0.7; transform-origin: 252.765px 257.661px;" class="animable" id="el8vyzmkqlsua"></path></g></g><g id="freepik--Graphics--inject-124" class="animable" style="transform-origin: 248.943px 251.536px;"><path d="M198,422a18.09,18.09,0,0,0-35.61,4.47A18.36,18.36,0,0,0,163,431a18.12,18.12,0,0,0,17.49,13.6,18.44,18.44,0,0,0,4.53-.57,18,18,0,0,0,7.85-4.3,7.45,7.45,0,0,1-.49-.87v0a17.08,17.08,0,0,1-20.13,2.61l-.42-.23A17.08,17.08,0,0,1,176.27,410a17.09,17.09,0,0,1,21.15,19.08,7.36,7.36,0,0,1,1-.11A18,18,0,0,0,198,422Z" style="fill: rgb(38, 50, 56); transform-origin: 180.487px 426.508px;" id="el9fbj8c2cwwc" class="animable"></path><path d="M192.37,438.89a23.41,23.41,0,0,1-6.14,4.21,9.32,9.32,0,0,1-1.34.47,9.22,9.22,0,0,1-1.41.24c-5,.52-11.69-2-11.69-2l.44-.33a22.48,22.48,0,0,1,4-2.51c1-.27,2.79-1.52,2-4.22a16.5,16.5,0,0,1-5.74-9.38c-.62-2.74-2-8.05,3.57-10.26h0a13.64,13.64,0,0,1,1.36-.43c.48-.12.95-.21,1.39-.28v0c6-.76,7.29,4.57,8.07,7.26a16.53,16.53,0,0,1-.52,11c.62,2.74,2.76,3,3.79,2.73a6.64,6.64,0,0,1,1.51-.05,7,7,0,0,0,.2,2.31,7.07,7.07,0,0,0,.44,1.22Z" style="fill: rgb(38, 50, 56); transform-origin: 182.08px 429.104px;" id="el0lvh2kkl58if" class="animable"></path><path d="M198.64,443.36a7.45,7.45,0,1,1,7.22-9.3h0a7.47,7.47,0,0,1-7.22,9.3Zm0-13.9a6.3,6.3,0,0,0-1.61.21,6.35,6.35,0,1,0,1.61-.21Z" style="fill: rgb(38, 50, 56); transform-origin: 198.64px 435.91px;" id="eljqx4xj3u1np" class="animable"></path><path d="M198.21,435.61,197,432.75l1.63-.42.29,3.1,2.35-2.05.9,1.41-2.83,1.27,2.66,1.57-1.06,1.3-2.08-2.32-.71,3-1.54-.62,1.57-2.66-3.1.25.11-1.67Z" style="fill: rgb(38, 50, 56); transform-origin: 198.625px 435.97px;" id="elvh8cy2i1jl" class="animable"></path><path d="M186.06,414.8c-5.13-5.62-8.93-1.45-8.93-1.45s-5.33-1.83-7.13,5.57,3.44,13.21-1,15.66c0,0,5.64,2.4,13.66.34s11.81-6.87,11.81-6.87C189.41,428,191.2,420.41,186.06,414.8Z" style="fill: rgb(38, 50, 56); transform-origin: 181.735px 423.808px;" id="elrswe5shpkfj" class="animable"></path><path d="M470.74,250.58a12.41,12.41,0,0,0-23.11-8.45,12.83,12.83,0,0,0-1.07,2.93A12.4,12.4,0,0,0,462,259.76a5.08,5.08,0,0,1,0-.68s0,0,0,0a11.79,11.79,0,0,1-6,.19,11.58,11.58,0,0,1-7.13-4.92,2.75,2.75,0,0,1-.19-.28,11.62,11.62,0,0,1-1.63-4.26,12,12,0,0,1,.13-4.58,11.72,11.72,0,0,1,14-8.8,11.79,11.79,0,0,1,2.78,1,11.72,11.72,0,0,1,4.12,17.27,4.42,4.42,0,0,1,.67.25A12.35,12.35,0,0,0,470.74,250.58Z" style="fill: rgb(38, 50, 56); transform-origin: 458.643px 247.846px;" id="elpvx1qkdn0tt" class="animable"></path><path d="M462,259.08a16.17,16.17,0,0,1-5.06.64,7.3,7.3,0,0,1-1-.14,6.64,6.64,0,0,1-.93-.29c-3.2-1.25-6.5-4.9-6.5-4.9l.38-.06a14.84,14.84,0,0,1,3.25-.26,2.16,2.16,0,0,0,2.55-1.95,11.32,11.32,0,0,1-.56-7.52c.49-1.86,1.29-5.54,5.4-5.13h0a9.6,9.6,0,0,1,1,.16q.5.12.93.27h0c3.88,1.41,3,5.08,2.64,7a11.36,11.36,0,0,1-3.76,6.54,2.13,2.13,0,0,0,1.45,2.85,4.48,4.48,0,0,1,.93.44,5,5,0,0,0-.6,1.47,4.51,4.51,0,0,0-.11.89S462,259.07,462,259.08Z" style="fill: rgb(38, 50, 56); transform-origin: 456.478px 249.583px;" id="els2flivqlo3i" class="animable"></path><path d="M464.42,263.77a5.16,5.16,0,0,1-2-1.82,5.11,5.11,0,1,1,9.3-1.58h0a5.09,5.09,0,0,1-6.11,3.84A5,5,0,0,1,464.42,263.77Zm4.38-8.46a4.72,4.72,0,0,0-1.05-.39,4.42,4.42,0,1,0,1.37,8.06,4.42,4.42,0,0,0,1.39-6.1A4.37,4.37,0,0,0,468.8,255.31Z" style="fill: rgb(38, 50, 56); transform-origin: 466.741px 259.226px;" id="elbclahilqyu" class="animable"></path><path d="M466.59,258.91l.15-2.13,1.12.25-.8,2,2.08-.51.11,1.14-2.13-.12,1.13,1.8-1.05.45-.54-2.07-1.39,1.63-.74-.86,1.79-1.13-2-.82.6-1Z" style="fill: rgb(38, 50, 56); transform-origin: 466.785px 259.285px;" id="eltt9k2pbfw6p" class="animable"></path><path d="M465.72,242.41c-1.36-5-5-3.69-5-3.69s-2.67-2.78-6.09,1.16-2.05,9.13-5.53,9.24a17.22,17.22,0,0,0,17.58,4C463.61,251.53,467.09,247.45,465.72,242.41Z" style="fill: rgb(38, 50, 56); transform-origin: 457.89px 245.901px;" id="elgy5kh6snlcl" class="animable"></path><path d="M335.13,80.31a18.08,18.08,0,1,0-25.22,13.5,18.43,18.43,0,0,0,4.37,1.32,18.05,18.05,0,0,0,8.92-.73,8.47,8.47,0,0,1-.1-1s0,0,0,0a17.07,17.07,0,0,1-19.45-5.81c-.1-.12-.2-.25-.29-.38a17.19,17.19,0,0,1-2.74-6.08,17.37,17.37,0,0,1-.18-6.67,17.09,17.09,0,0,1,19.71-14,16.67,16.67,0,0,1,4.12,1.24,17.1,17.1,0,0,1,7.43,24.8,7.64,7.64,0,0,1,1,.32A18.1,18.1,0,0,0,335.13,80.31Z" style="fill: rgb(38, 50, 56); transform-origin: 317.301px 77.3082px;" id="el8dbw6is836p" class="animable"></path><path d="M323.1,93.4a23.37,23.37,0,0,1-7.32,1.35,9,9,0,0,1-1.41-.12,8.84,8.84,0,0,1-1.39-.35c-4.76-1.55-9.86-6.6-9.86-6.6l.54-.12a23,23,0,0,1,4.71-.65c1.05.18,3.17-.25,3.55-3A16.5,16.5,0,0,1,310.5,73c.55-2.75,1.42-8.18,7.43-7.92h0a12.86,12.86,0,0,1,1.42.16,13.34,13.34,0,0,1,1.38.31v0c5.76,1.73,4.8,7.14,4.42,9.91a16.52,16.52,0,0,1-5,9.83c-.55,2.76,1.3,3.86,2.35,4a6.35,6.35,0,0,1,1.4.57,6.78,6.78,0,0,0-.76,2.19,7.06,7.06,0,0,0-.09,1.29S323.11,93.39,323.1,93.4Z" style="fill: rgb(38, 50, 56); transform-origin: 314.287px 79.9105px;" id="el7u2jegkea5" class="animable"></path><path d="M327,100a7.46,7.46,0,0,1-1.27-12.88,7.45,7.45,0,0,1,11.66,7.32h0a7.46,7.46,0,0,1-8.59,6.1A7.81,7.81,0,0,1,327,100Zm5.68-12.69a6.27,6.27,0,0,0-1.56-.47,6.42,6.42,0,1,0,1.56.47Z" style="fill: rgb(38, 50, 56); transform-origin: 330.047px 93.1931px;" id="el571jmyl5wpo" class="animable"></path><path d="M329.77,92.78l0-3.12,1.65.28-1,3,3-.92.25,1.66h-3.11l1.79,2.52-1.49.75-1-3-1.88,2.48-1.16-1.2,2.52-1.79-2.93-1,.78-1.47Z" style="fill: rgb(38, 50, 56); transform-origin: 330.04px 93.305px;" id="el0bghrfk22y6d" class="animable"></path><g id="el816hxetec9l"><rect x="167.64" y="60.98" width="32.42" height="21.14" rx="1.9" style="fill: none; stroke: rgb(38, 50, 56); stroke-linecap: round; stroke-linejoin: round; transform-origin: 183.85px 71.55px; transform: rotate(-9.41deg);" class="animable" id="elhjkor923wd8"></rect></g><path d="M166.54,66.27,182,73a3.83,3.83,0,0,0,4.12-.69L198.52,61" style="fill: none; stroke: rgb(38, 50, 56); stroke-linecap: round; stroke-linejoin: round; transform-origin: 182.53px 67.1594px;" id="elc0ddan3rsyb" class="animable"></path><path d="M171.89,79.94l6.8-5.45" style="fill: none; stroke: rgb(38, 50, 56); stroke-linecap: round; stroke-linejoin: round; transform-origin: 175.29px 77.215px;" id="el9zanfccwk7" class="animable"></path><path d="M197.87,75.64l-8.2-3" style="fill: none; stroke: rgb(38, 50, 56); stroke-linecap: round; stroke-linejoin: round; transform-origin: 193.77px 74.14px;" id="el7s39n8dz30c" class="animable"></path><g id="elwt83qzrotg"><rect x="282.58" y="408.39" width="32.42" height="21.14" rx="1.9" style="fill: none; stroke: rgb(38, 50, 56); stroke-linecap: round; stroke-linejoin: round; transform-origin: 298.79px 418.96px; transform: rotate(30.1735deg);" class="animable" id="el073yn7wuvrr"></rect></g><path d="M288.82,403.86l7.59,15A3.83,3.83,0,0,0,300,421l16.82-.82" style="fill: none; stroke: rgb(38, 50, 56); stroke-linecap: round; stroke-linejoin: round; transform-origin: 302.82px 412.431px;" id="eli0y0us50j3e" class="animable"></path><path d="M284.22,417.81l8.72.13" style="fill: none; stroke: rgb(38, 50, 56); stroke-linecap: round; stroke-linejoin: round; transform-origin: 288.58px 417.875px;" id="elrnlkfixe2b" class="animable"></path><path d="M307,431.06l-4.42-7.52" style="fill: none; stroke: rgb(38, 50, 56); stroke-linecap: round; stroke-linejoin: round; transform-origin: 304.79px 427.3px;" id="elt9gaz7mfxh9" class="animable"></path><g id="el870jva7fwcf"><rect x="29.11" y="297.4" width="32.42" height="21.14" rx="1.9" style="fill: none; stroke: rgb(38, 50, 56); stroke-linecap: round; stroke-linejoin: round; transform-origin: 45.32px 307.97px; transform: rotate(-28.34deg);" class="animable" id="elwsnzq9rfauh"></rect></g><path d="M27.23,308.58,44,310a3.85,3.85,0,0,0,3.67-2l8.08-14.77" style="fill: none; stroke: rgb(38, 50, 56); stroke-linecap: round; stroke-linejoin: round; transform-origin: 41.49px 301.62px;" id="el4czno35wqzc" class="animable"></path><path d="M36.73,319.79l4.66-7.37" style="fill: none; stroke: rgb(38, 50, 56); stroke-linecap: round; stroke-linejoin: round; transform-origin: 39.06px 316.105px;" id="eltg9ket23ghd" class="animable"></path><path d="M59.91,307.29l-8.72-.15" style="fill: none; stroke: rgb(38, 50, 56); stroke-linecap: round; stroke-linejoin: round; transform-origin: 55.55px 307.215px;" id="elhuvq205a7zp" class="animable"></path></g><g id="freepik--Device--inject-124" class="animable" style="transform-origin: 163.165px 253.085px;"><path d="M74.55,113.87V395.92a2.87,2.87,0,0,0,2.86,2.87h171.5a2.87,2.87,0,0,0,2.87-2.87v-282a6.56,6.56,0,0,0-6.54-6.54H204.39a3.68,3.68,0,0,0-3.52,2.63,3.64,3.64,0,0,1-1.32,1.9,3.7,3.7,0,0,1-2.2.73H129a3.67,3.67,0,0,1-3.52-2.63,3.6,3.6,0,0,0-1.33-1.9,3.7,3.7,0,0,0-2.2-.73H81.09A6.56,6.56,0,0,0,74.55,113.87Z" style="fill: rgb(38, 50, 56); stroke: rgb(38, 50, 56); stroke-linecap: round; stroke-linejoin: round; transform-origin: 163.165px 253.085px;" id="elrg09olugf4" class="animable"></path><g id="elr8socsl5z0l"><rect x="74.55" y="130.14" width="177.23" height="35.3" style="fill: #01C568; stroke: rgb(38, 50, 56); stroke-linecap: round; stroke-linejoin: round; transform-origin: 163.165px 147.79px; transform: rotate(180deg);" class="animable" id="elbo1xjt227j"></rect></g><g id="elmy4cwrl1voo"><rect x="74.55" y="165.44" width="177.23" height="196.95" style="fill: rgb(255, 255, 255); stroke: rgb(38, 50, 56); stroke-linecap: round; stroke-linejoin: round; transform-origin: 163.165px 263.915px; transform: rotate(180deg);" class="animable" id="el5ibx1168zga"></rect></g><g id="el6cwaen8ddy"><rect x="159.44" y="372.08" width="12.13" height="12.13" rx="3.3" style="fill: rgb(255, 255, 255); stroke: rgb(38, 50, 56); stroke-linecap: round; stroke-linejoin: round; transform-origin: 165.505px 378.145px; transform: rotate(180deg);" class="animable" id="el35bqxhkgpt4"></rect></g><line x1="93.38" y1="142.78" x2="84.68" y2="142.78" style="fill: none; stroke: rgb(38, 50, 56); stroke-linecap: round; stroke-linejoin: round; transform-origin: 89.03px 142.78px;" id="elubwxjwl995l" class="animable"></line><line x1="93.38" y1="147.56" x2="84.68" y2="147.56" style="fill: none; stroke: rgb(38, 50, 56); stroke-linecap: round; stroke-linejoin: round; transform-origin: 89.03px 147.56px;" id="el34fkqb9llqa" class="animable"></line><line x1="93.38" y1="152.34" x2="84.68" y2="152.34" style="fill: none; stroke: rgb(38, 50, 56); stroke-linecap: round; stroke-linejoin: round; transform-origin: 89.03px 152.34px;" id="elmd88wejs3k" class="animable"></line><path d="M147.32,185.48H118a2,2,0,0,1-2-2h0a2,2,0,0,1,2-2h29.28a2,2,0,0,1,2,2h0A2,2,0,0,1,147.32,185.48Z" style="fill: rgb(38, 50, 56); transform-origin: 132.64px 183.48px;" id="elv8ry6ojm7hf" class="animable"></path><path d="M218.79,190.39H117.12a1.05,1.05,0,0,1-1.06-1.06h0a1.05,1.05,0,0,1,1.06-1.05H218.79a1,1,0,0,1,1.05,1.05h0A1.05,1.05,0,0,1,218.79,190.39Z" style="fill: rgb(38, 50, 56); transform-origin: 167.951px 189.334px;" id="els3j2vy9bz6" class="animable"></path><g id="eljhpdtfgu5n"><circle cx="98.91" cy="186.28" r="10.88" style="fill: rgb(255, 255, 255); stroke: rgb(38, 50, 56); stroke-linecap: round; stroke-linejoin: round; transform-origin: 98.91px 186.28px; transform: rotate(-42.62deg);" class="animable" id="elp99geatyjda"></circle></g><path d="M99.79,197.08h0c3.06-.45,6.7-3,6.7-3a17.46,17.46,0,0,0-3.13-1,1.93,1.93,0,0,1-1.85-2.22,10.19,10.19,0,0,0,2-6.5c-.05-1.74,0-5.13-3.72-5.6h0c-.28,0-.57,0-.88,0h0c-.31,0-.6,0-.88,0h0c-3.69.47-3.66,3.86-3.72,5.6a10.19,10.19,0,0,0,2,6.5,1.93,1.93,0,0,1-1.85,2.22,17.31,17.31,0,0,0-3.12,1s3.63,2.55,6.69,3h0a5.43,5.43,0,0,0,.88.08h0a5.33,5.33,0,0,0,.88-.08Z" style="fill: rgb(38, 50, 56); transform-origin: 98.915px 187.96px;" id="elkci2oxeeamf" class="animable"></path><circle cx="108.34" cy="194.69" r="4.3" style="fill: #01C568; stroke: rgb(38, 50, 56); stroke-linecap: round; stroke-linejoin: round; transform-origin: 108.34px 194.69px;" id="ell5p4wlnk4pf" class="animable"></circle><path d="M108.12,194.44l-.3-1.91h1l-.3,1.91,1.72-.87.32,1-1.89.33,1.35,1.35-.83.61-.89-1.71-.89,1.71-.83-.61,1.35-1.35-1.9-.33.33-1Z" style="fill: rgb(38, 50, 56); transform-origin: 108.295px 194.695px;" id="el17itfgrcnae" class="animable"></path><path d="M104,180.1c-2.21-4.15-5.13-2.24-5.13-2.24S96,176,93.78,180.1s0,8.45-3,9.23a15.46,15.46,0,0,0,16.26,0C104,188.55,106.25,184.25,104,180.1Z" style="fill: rgb(38, 50, 56); transform-origin: 98.91px 184.531px;" id="elqfm0855yc1f" class="animable"></path><g id="elh0d3o2s3pjb"><rect x="100.86" y="122.27" width="1.98" height="4.04" style="fill: rgb(255, 255, 255); transform-origin: 101.85px 124.29px; transform: rotate(180deg);" class="animable" id="elguuqmb5iv7d"></rect></g><g id="el8czlk39oyh9"><rect x="97.22" y="120.64" width="1.98" height="5.68" style="fill: rgb(255, 255, 255); transform-origin: 98.21px 123.48px; transform: rotate(180deg);" class="animable" id="el26yiz4wi2v9"></rect></g><g id="eln92bjhg4zmh"><rect x="93.58" y="119" width="1.98" height="7.31" style="fill: rgb(255, 255, 255); transform-origin: 94.57px 122.655px; transform: rotate(180deg);" class="animable" id="elfntoryg2thw"></rect></g><g id="elr9nes43xedn"><rect x="89.94" y="117.37" width="1.98" height="8.94" style="fill: rgb(255, 255, 255); transform-origin: 90.93px 121.84px; transform: rotate(180deg);" class="animable" id="elsgm7g0jhxwh"></rect></g><g id="elbqfe48veyif"><rect x="226.8" y="118.19" width="13.04" height="7.31" rx="1.19" style="fill: rgb(255, 255, 255); transform-origin: 233.32px 121.845px; transform: rotate(180deg);" class="animable" id="el1lroku12l7a"></rect></g><g id="elmqb36mjcrpm"><path d="M223.27,119.72h1a1,1,0,0,1,1,1V123a1,1,0,0,1-1,1h-1a0,0,0,0,1,0,0v-4.25A0,0,0,0,1,223.27,119.72Z" style="fill: rgb(255, 255, 255); transform-origin: 224.27px 121.86px; transform: rotate(180deg);" class="animable" id="el4vg9n2jgg4d"></path></g><path d="M239.68,142.8a4.39,4.39,0,1,1-6.21,0A4.38,4.38,0,0,1,239.68,142.8Z" style="fill: none; stroke: rgb(38, 50, 56); stroke-linecap: round; stroke-linejoin: round; transform-origin: 236.575px 145.901px;" id="elm2c66xqh8a" class="animable"></path><line x1="239.68" y1="149.01" x2="244.29" y2="153.62" style="fill: none; stroke: rgb(38, 50, 56); stroke-linecap: round; stroke-linejoin: round; transform-origin: 241.985px 151.315px;" id="elc7inc8odpw" class="animable"></line><rect x="152.47" y="139.63" width="24.33" height="15.87" rx="1.9" style="fill: rgb(38, 50, 56); stroke: #01C568; stroke-linecap: round; stroke-linejoin: round; transform-origin: 164.635px 147.565px;" id="elqbmpv8efrx" class="animable"></rect><path d="M152.47,141.53l10.6,6.89a2.91,2.91,0,0,0,3.13,0l10.6-6.89" style="fill: rgb(38, 50, 56); stroke: #01C568; stroke-linecap: round; stroke-linejoin: round; transform-origin: 164.635px 145.203px;" id="elwnr3u3flqna" class="animable"></path><path d="M154.75,152.32l5.71-3.21" style="fill: rgb(38, 50, 56); stroke: #01C568; stroke-linecap: round; stroke-linejoin: round; transform-origin: 157.605px 150.715px;" id="elra3kodnqaca" class="animable"></path><path d="M174.52,152.32l-5.7-3.21" style="fill: rgb(38, 50, 56); stroke: #01C568; stroke-linecap: round; stroke-linejoin: round; transform-origin: 171.67px 150.715px;" id="elgulfcmrb9tt" class="animable"></path><path d="M137.32,220.34H118a2,2,0,0,1-2-2h0a2,2,0,0,1,2-2h19.28a2,2,0,0,1,2,2h0A2,2,0,0,1,137.32,220.34Z" style="fill: rgb(38, 50, 56); transform-origin: 127.64px 218.34px;" id="elrvjbsajcfwb" class="animable"></path><path d="M178.79,225.26H117.12a1.06,1.06,0,0,1-1.06-1.06h0a1.05,1.05,0,0,1,1.06-1h61.67a1,1,0,0,1,1.05,1h0A1.06,1.06,0,0,1,178.79,225.26Z" style="fill: rgb(38, 50, 56); transform-origin: 147.95px 224.229px;" id="elbgzguihqcwc" class="animable"></path><g id="elsxzze2pyn9"><circle cx="98.91" cy="221.15" r="10.88" style="fill: rgb(255, 255, 255); stroke: rgb(38, 50, 56); stroke-linecap: round; stroke-linejoin: round; transform-origin: 98.91px 221.15px; transform: rotate(-44.21deg);" class="animable" id="el76zmskqvi7g"></circle></g><path d="M99.79,232h0c3.06-.45,6.7-3,6.7-3a17.46,17.46,0,0,0-3.13-1,1.93,1.93,0,0,1-1.85-2.22,10.23,10.23,0,0,0,2-6.5c-.05-1.74,0-5.14-3.72-5.6h0a8.26,8.26,0,0,0-.88,0h0a8.26,8.26,0,0,0-.88,0h0c-3.69.46-3.66,3.86-3.72,5.6a10.23,10.23,0,0,0,2,6.5,1.93,1.93,0,0,1-1.85,2.22,17.31,17.31,0,0,0-3.12,1S95,231.5,98,232h0a5.43,5.43,0,0,0,.88.08h0a5.33,5.33,0,0,0,.88-.08Z" style="fill: rgb(38, 50, 56); transform-origin: 98.915px 222.874px;" id="elxnj2tfn78m" class="animable"></path><circle cx="108.34" cy="229.55" r="4.3" style="fill: #01C568; stroke: rgb(38, 50, 56); stroke-linecap: round; stroke-linejoin: round; transform-origin: 108.34px 229.55px;" id="el4lqp2jw887i" class="animable"></circle><path d="M108.12,229.31l-.3-1.91h1l-.3,1.91,1.72-.87.32,1-1.89.32,1.35,1.36-.83.61-.89-1.71-.89,1.71-.83-.61,1.35-1.36-1.9-.32.33-1Z" style="fill: rgb(38, 50, 56); transform-origin: 108.295px 229.565px;" id="elrl16cpugyg" class="animable"></path><path d="M157.32,255.21H118a2,2,0,0,1-2-2h0a2,2,0,0,1,2-2h39.28a2,2,0,0,1,2,2h0A2,2,0,0,1,157.32,255.21Z" style="fill: rgb(38, 50, 56); transform-origin: 137.64px 253.21px;" id="elfvael2gbxvg" class="animable"></path><path d="M198.79,260.13H117.12a1.06,1.06,0,0,1-1.06-1.06h0a1.05,1.05,0,0,1,1.06-1.05h81.67a1,1,0,0,1,1.05,1.05h0A1.06,1.06,0,0,1,198.79,260.13Z" style="fill: rgb(38, 50, 56); transform-origin: 157.951px 259.074px;" id="elle5wt0hu1b" class="animable"></path><g id="elb6laerh294g"><circle cx="98.91" cy="256.02" r="10.88" style="fill: rgb(255, 255, 255); stroke: rgb(38, 50, 56); stroke-linecap: round; stroke-linejoin: round; transform-origin: 98.91px 256.02px; transform: rotate(-13.78deg);" class="animable" id="elx5v8pf2k4i9"></circle></g><path d="M99.79,266.82h0c3.06-.45,6.7-3,6.7-3a17.46,17.46,0,0,0-3.13-1,1.93,1.93,0,0,1-1.85-2.22,10.23,10.23,0,0,0,2-6.5c-.05-1.74,0-5.14-3.72-5.6h0a8.26,8.26,0,0,0-.88,0h0a8.26,8.26,0,0,0-.88,0h0c-3.69.46-3.66,3.86-3.72,5.6a10.23,10.23,0,0,0,2,6.5,1.93,1.93,0,0,1-1.85,2.22,17.31,17.31,0,0,0-3.12,1s3.63,2.55,6.69,3h0a5.43,5.43,0,0,0,.88.08h0a5.33,5.33,0,0,0,.88-.08Z" style="fill: rgb(38, 50, 56); transform-origin: 98.915px 257.694px;" id="eltbbfsl1wms" class="animable"></path><path d="M98.91,247.81c-3.91,0-6.65,2.71-7.16,12.48a22.49,22.49,0,0,0,14.32,0C105.56,250.52,102.82,247.81,98.91,247.81Z" style="fill: rgb(38, 50, 56); transform-origin: 98.91px 254.635px;" id="elcxop9crn68b" class="animable"></path><path d="M147.32,290.08H118a2,2,0,0,1-2-2h0a2,2,0,0,1,2-2h29.28a2,2,0,0,1,2,2h0A2,2,0,0,1,147.32,290.08Z" style="fill: rgb(38, 50, 56); transform-origin: 132.64px 288.08px;" id="eln3cq90ktsci" class="animable"></path><path d="M218.79,295H117.12a1.05,1.05,0,0,1-1.06-1.05h0a1.06,1.06,0,0,1,1.06-1.06H218.79a1.06,1.06,0,0,1,1.05,1.06h0A1,1,0,0,1,218.79,295Z" style="fill: rgb(38, 50, 56); transform-origin: 167.951px 293.946px;" id="elwyfzh4mfz4" class="animable"></path><g id="el7iv3tr5nxxb"><circle cx="98.91" cy="290.89" r="10.88" style="fill: rgb(255, 255, 255); stroke: rgb(38, 50, 56); stroke-linecap: round; stroke-linejoin: round; transform-origin: 98.91px 290.89px; transform: rotate(-44.21deg);" class="animable" id="elo26i0elj01"></circle></g><path d="M99.79,301.69h0c3.06-.45,6.7-3,6.7-3a17.46,17.46,0,0,0-3.13-1,1.93,1.93,0,0,1-1.85-2.22,10.24,10.24,0,0,0,2-6.51c-.05-1.73,0-5.13-3.72-5.59h0a8.18,8.18,0,0,0-.88-.05h0a8.18,8.18,0,0,0-.88.05h0c-3.69.46-3.66,3.86-3.72,5.59a10.24,10.24,0,0,0,2,6.51,1.93,1.93,0,0,1-1.85,2.22,17.31,17.31,0,0,0-3.12,1s3.63,2.55,6.69,3h0a6.85,6.85,0,0,0,.88.08h0a6.69,6.69,0,0,0,.88-.08Z" style="fill: rgb(38, 50, 56); transform-origin: 98.915px 292.545px;" id="elf1sray2dppr" class="animable"></path><circle cx="108.34" cy="299.29" r="4.3" style="fill: #01C568; stroke: rgb(38, 50, 56); stroke-linecap: round; stroke-linejoin: round; transform-origin: 108.34px 299.29px;" id="el3q3sa1uakb9" class="animable"></circle><path d="M108.12,299l-.3-1.9h1l-.3,1.9,1.72-.86.32,1-1.89.32,1.35,1.35-.83.62-.89-1.71-.89,1.71-.83-.62,1.35-1.35-1.9-.32.33-1Z" style="fill: rgb(38, 50, 56); transform-origin: 108.295px 299.265px;" id="el6bbw629bmud" class="animable"></path><path d="M127.32,325H118a2,2,0,0,1-2-2h0a2,2,0,0,1,2-2h9.28a2,2,0,0,1,2,2h0A2,2,0,0,1,127.32,325Z" style="fill: rgb(38, 50, 56); transform-origin: 122.64px 323px;" id="el4jbwyokal3l" class="animable"></path><path d="M208.79,329.86H117.12a1.05,1.05,0,0,1-1.06-1.05h0a1.06,1.06,0,0,1,1.06-1.06h91.67a1.06,1.06,0,0,1,1.05,1.06h0A1,1,0,0,1,208.79,329.86Z" style="fill: rgb(38, 50, 56); transform-origin: 162.951px 328.806px;" id="elahjibgw56k" class="animable"></path><g id="ele1jkrw5h2e8"><circle cx="98.91" cy="325.76" r="10.88" style="fill: rgb(255, 255, 255); stroke: rgb(38, 50, 56); stroke-linecap: round; stroke-linejoin: round; transform-origin: 98.91px 325.76px; transform: rotate(-44.21deg);" class="animable" id="elctgr5pxgbwo"></circle></g><path d="M99.79,336.56h0c3.06-.46,6.7-3,6.7-3a17.46,17.46,0,0,0-3.13-1,1.94,1.94,0,0,1-1.85-2.22,10.24,10.24,0,0,0,2-6.51c-.05-1.73,0-5.13-3.72-5.59h0a8.18,8.18,0,0,0-.88-.05h0a8.18,8.18,0,0,0-.88.05h0c-3.69.46-3.66,3.86-3.72,5.59a10.24,10.24,0,0,0,2,6.51,1.94,1.94,0,0,1-1.85,2.22,17.31,17.31,0,0,0-3.12,1s3.63,2.54,6.69,3h0a6.79,6.79,0,0,0,.88.07h0a6.65,6.65,0,0,0,.88-.07Z" style="fill: rgb(38, 50, 56); transform-origin: 98.915px 327.41px;" id="elg0jnmfc6itt" class="animable"></path><path d="M147.32,359.82H118a2,2,0,0,1-2-2h0a2,2,0,0,1,2-2h29.28a2,2,0,0,1,2,2h0A2,2,0,0,1,147.32,359.82Z" style="fill: rgb(38, 50, 56); transform-origin: 132.64px 357.82px;" id="elxd7bfkj4t4h" class="animable"></path><path d="M109.79,360.62a10.43,10.43,0,0,1-.15,1.78H88.18a10.43,10.43,0,0,1-.15-1.78,10.88,10.88,0,0,1,21.76,0Z" style="fill: rgb(255, 255, 255); stroke: rgb(38, 50, 56); stroke-linecap: round; stroke-linejoin: round; transform-origin: 98.91px 356.07px;" id="elibnyocank2e" class="animable"></path><path d="M103.51,358.69a10.22,10.22,0,0,1-.55,3.71h-8.1a10.22,10.22,0,0,1-.55-3.71c.06-1.73,0-5.13,3.72-5.59h0a7.77,7.77,0,0,1,1.76,0h0C103.49,353.56,103.46,357,103.51,358.69Z" style="fill: rgb(38, 50, 56); transform-origin: 98.91px 357.725px;" id="elpaivif8jili" class="animable"></path><circle cx="222.55" cy="342.71" r="14.37" style="fill: #01C568; stroke: rgb(38, 50, 56); stroke-linecap: round; stroke-linejoin: round; transform-origin: 222.55px 342.71px;" id="el9eet5locx4n" class="animable"></circle><g id="elzbmhdle3j5l"><rect x="222.15" y="335.6" width="2.73" height="12.28" style="fill: rgb(38, 50, 56); transform-origin: 223.515px 341.74px; transform: rotate(45deg);" class="animable" id="eluyb61x6lwio"></rect></g><polygon points="217.34 345.99 216.28 348.98 219.27 347.92 217.34 345.99" style="fill: rgb(38, 50, 56); transform-origin: 217.775px 347.485px;" id="elbnjrg7n6ogo" class="animable"></polygon></g><g id="freepik--speech-bubble--inject-124" class="animable" style="transform-origin: 302.975px 159.965px;"><path d="M278.08,133.19h49.79a6.5,6.5,0,0,1,6.5,6.5v29.66a6.5,6.5,0,0,1-6.5,6.51h-6.21l5.74,10.88-13.26-10.88H278.08a6.5,6.5,0,0,1-6.5-6.51V139.69A6.5,6.5,0,0,1,278.08,133.19Z" style="fill: none; stroke: rgb(38, 50, 56); stroke-linecap: round; stroke-linejoin: round; transform-origin: 302.975px 159.965px;" id="elmrb1t6ji92a" class="animable"></path><g id="eltovc81qa3"><g style="opacity: 0.5; transform-origin: 302.98px 154.285px;" class="animable" id="elg3879jzbecm"><g id="el19cls98nqgs"><rect x="279.93" y="143.17" width="46.1" height="2" rx="0.82" style="fill: rgb(38, 50, 56); transform-origin: 302.98px 144.17px; transform: rotate(180deg);" class="animable" id="ela2gh73y8no"></rect></g><g id="el1urwkp7d4cy"><rect x="279.93" y="149.92" width="46.1" height="2" rx="0.82" style="fill: rgb(38, 50, 56); transform-origin: 302.98px 150.92px; transform: rotate(180deg);" class="animable" id="ela8yhm3xxos"></rect></g><g id="eli3qerfap18j"><rect x="279.93" y="156.66" width="46.1" height="2" rx="0.82" style="fill: rgb(38, 50, 56); transform-origin: 302.98px 157.66px; transform: rotate(-180deg);" class="animable" id="elxulv9tsdqe"></rect></g><g id="elhjx8hlbvz94"><rect x="300.94" y="163.4" width="25.09" height="2" rx="0.82" style="fill: rgb(38, 50, 56); transform-origin: 313.485px 164.4px; transform: rotate(-180deg);" class="animable" id="eldina449psnr"></rect></g></g></g></g><g id="freepik--Character--inject-124" class="animable" style="transform-origin: 362.575px 316.205px;"><path d="M340.22,326.29a.32.32,0,0,0,0,.06c-.48,1-7.4,15.79-15.83,30-2.21,3.73-4.52,7.41-6.85,10.8-5.07,7.38-10.21,13.35-14.48,15.21-14,6.09-6-41.63-6-41.63a103.74,103.74,0,0,0,13.09-19.8c1.67-3.3,3.61-7.13,5.64-11,1.56-2.95,3.16-5.9,4.73-8.63,3.55-6.2,6.86-11.2,8.87-12.18,2.2-1.08,5.24,10.07,7.54,20.44C338.8,318.2,340.22,326.29,340.22,326.29Z" style="fill: rgb(255, 255, 255); stroke: rgb(38, 50, 56); stroke-linecap: round; stroke-linejoin: round; transform-origin: 317.502px 335.972px;" id="elhu8eh0varh4" class="animable"></path><path d="M340.22,326.29a.32.32,0,0,0,0,.06c-.48,1-7.4,15.79-15.83,30,2.54-22.71.16-37.9.16-37.9-5.41-8.18-8.8-8.49-8.8-8.49,1.56-2.95,3.16-5.9,4.73-8.63l7.16-6.69,9.25,14.95C338.8,318.2,340.22,326.29,340.22,326.29Z" style="fill: rgb(38, 50, 56); transform-origin: 327.985px 325.495px;" id="ele9g1sro4vgc" class="animable"></path><path d="M404.74,173.57c12.64,9.15,23.7,41.47,19.48,62.47s17.49,27,17.41,60.15c0,9.24-28.62,46.8-61.85,26.76s-42.46-29.9-39.3-50,3.3-33.32-2.7-50.19S381.81,157,404.74,173.57Z" style="fill: rgb(38, 50, 56); transform-origin: 389.457px 249.472px;" id="elb74tqkp1oua" class="animable"></path><path d="M453.36,315.32l-7.06,4.79a148.52,148.52,0,0,1-9.55,33.75c-8.89,20.87-16.76,33.31-19.51,37.42a0,0,0,0,1,0,0c-.68,1-1.05,1.5-1.05,1.5l7.38,27.67S374.32,471.66,320,464.27l3.63-29,4.89-39,1.59-12.67s-.67-9.09-1.74-20.28c-.73-7.71-1.65-16.42-2.69-23.84a6.31,6.31,0,0,1-.05-1c.08-4.68,3.75-14.52,3.75-14.52-3.1-4.91-6-9.43-8.39-13-3.16-4.79-5.25-7.87-5.25-7.87s11-13.52,11.62-15.06c3.48-9.11,15.64-7.41,15.64-7.41a6.82,6.82,0,0,1,3.28-1.76c5.78-1.45,22.21,10.07,31.18,10.16s53-11.77,53-11.77l4.48,1.61s6.07-.72,10.81,8.06C448,291.17,453.36,315.32,453.36,315.32Z" style="fill: #01C568; transform-origin: 384.55px 371.125px;" id="el56uk4st4jim" class="animable"></path><g id="elx3cw545z1vm"><path d="M374.3,429.36s-30.6,10.33-50.72,5.92l4.89-39C332.83,400.61,358.11,425,374.3,429.36Z" style="fill-opacity: 0.7; opacity: 0.3; transform-origin: 348.94px 416.328px;" class="animable" id="elt22iqs19vze"></path></g><g id="ell0iiotojid"><path d="M329.33,324c-3.1-4.91-6-9.43-8.39-13,2.08-5,5.17-9.63,9.45-9.36C330.39,301.64,327.4,314.92,329.33,324Z" style="fill-opacity: 0.7; opacity: 0.3; transform-origin: 325.665px 312.814px;" class="animable" id="elev9vkxhehiq"></path></g><g id="el6tswcwf2o5x"><path d="M428.57,315.32c-5.49,1.82-17.93,7.33-17.93,7.33l-2.3-2.67,8.85-12.68s-6.23,2.52-8.85,5.69-3.31,10.24-3.41,10.21-2.29-7.44-2.29-7.44a57.75,57.75,0,0,0-1.46,9.39c-.29,3.35,3.39,8.8,6.58,12.85l-5.56,29.59L381,354.7l-10-6.06a24,24,0,0,1-2.53-1.54c-1.16-.94-1.92-2.16-3.27-3a17.33,17.33,0,0,0-4.94-1.85A43.94,43.94,0,0,0,341,342.1c-2.68.58-5.43,1.41-8.09.78s-4.94-2.76-7.28-4.36a6.31,6.31,0,0,0,.05,1c1,7.42,2,16.13,2.69,23.84h1.14a8.09,8.09,0,0,1,2.2.18c1.53.42,4.57,7.88,5.62,9.06,7.67,8.56,20.5,23,29.82,29.75-1.86-5-11.59-22.5-11.41-28,2.09.7,3.72,2.31,5.4,3.74,5.06,4.34,11.1,7.36,17.06,10.34L391.33,395c4,2,9.27,5.13,13.87,3.9,3.77-1,8.52-4.79,11.53-7.18l.5-.4a0,0,0,0,0,0,0c2.75-4.11,10.62-16.55,19.51-37.42a148.52,148.52,0,0,0,9.55-33.75l7.06-4.79S434.06,313.5,428.57,315.32Z" style="fill-opacity: 0.7; opacity: 0.3; transform-origin: 389.489px 354.825px;" class="animable" id="elspf52awpnvs"></path></g><path d="M320,464.27l10.11-80.62s-1.9-25.92-4.43-44.12c-.57-4.08,3.7-15.53,3.7-15.53-7.27-11.5-13.64-20.87-13.64-20.87s11-13.52,11.62-15.06c3.48-9.11,15.64-7.41,15.64-7.41a6.82,6.82,0,0,1,3.28-1.76c5.78-1.45,22.21,10.07,31.18,10.16s53-11.77,53-11.77l4.48,1.61s6.07-.72,10.81,8.06c2.28,4.21,7.65,28.36,7.65,28.36l-7.06,4.79a148.52,148.52,0,0,1-9.55,33.75c-11.08,26-20.57,38.94-20.57,38.94l7.38,27.67" style="fill: none; stroke: rgb(38, 50, 56); stroke-linecap: round; stroke-linejoin: round; transform-origin: 384.57px 370.78px;" id="elbgklotfw53h" class="animable"></path><path d="M418.35,305.77S405.82,322,406.13,325s6.11,6.09,6.11,6.09" style="fill: none; stroke: rgb(38, 50, 56); stroke-linecap: round; stroke-linejoin: round; transform-origin: 412.237px 318.43px;" id="elpf0qohls2b8" class="animable"></path><path d="M402.2,312.28A106.23,106.23,0,0,1,403.25,325c0,5.56,15.1,14.79,15.1,14.79" style="fill: none; stroke: rgb(38, 50, 56); stroke-linecap: round; stroke-linejoin: round; transform-origin: 410.275px 326.035px;" id="elz86pd99fvjc" class="animable"></path><path d="M329.33,324s-1.05-21.4,2.28-25.09" style="fill: none; stroke: rgb(38, 50, 56); stroke-linecap: round; stroke-linejoin: round; transform-origin: 330.391px 311.455px;" id="eljrx46oi8asd" class="animable"></path><path d="M325.63,306.82s1.72,11.08,3.54,13.19" style="fill: none; stroke: rgb(38, 50, 56); stroke-linecap: round; stroke-linejoin: round; transform-origin: 327.4px 313.415px;" id="elnuyn56x47ia" class="animable"></path><path d="M381.89,315.32s-21.63,13.92-41.67,15.77" style="fill: none; stroke: rgb(38, 50, 56); stroke-linecap: round; stroke-linejoin: round; transform-origin: 361.055px 323.205px;" id="elecnso4vo7y8" class="animable"></path><path d="M340.22,376.19s24.26,29.27,40.09,33.23" style="fill: none; stroke: rgb(38, 50, 56); stroke-linecap: round; stroke-linejoin: round; transform-origin: 360.265px 392.805px;" id="el03dsi906735k" class="animable"></path><path d="M416.18,392.8s-5.51-4-3.94-6.34" style="fill: none; stroke: rgb(38, 50, 56); stroke-linecap: round; stroke-linejoin: round; transform-origin: 414.069px 389.63px;" id="ell8qgmgd32db" class="animable"></path><path d="M402.2,416.6s-34.42,19.19-52,17.61" style="fill: none; stroke: rgb(38, 50, 56); stroke-linecap: round; stroke-linejoin: round; transform-origin: 376.2px 425.451px;" id="elupw46afc8jm" class="animable"></path><path d="M309.84,355.08c-4.49-16.5-11.84-21.88-16.69-39.55-1.44-5.23-5.71-21.18-5.71-21.18s5.45-17-5.44-26.68c0,0-3,0-8.11,11.77a28,28,0,0,0-1.59,16.26s3.39,20.73,4.13,26.3c1.78,13.43,5.64,35.92,11,47.21,5.75,12.07,11.81,14.77,16.35,12.28" style="fill: rgb(255, 255, 255); stroke: rgb(38, 50, 56); stroke-linecap: round; stroke-linejoin: round; transform-origin: 290.795px 325.003px;" id="elpfe6ga4vg1" class="animable"></path><path d="M289.34,290.73,301,294.58c1.23.32,3.65-1.73,3.54-3L301.05,251a3.87,3.87,0,0,0-2.89-3.42l-12.87-2.8c-1.23-.31-4.32,1.16-4.21,2.42l5.36,40.11A3.87,3.87,0,0,0,289.34,290.73Z" style="fill: #01C568; transform-origin: 292.81px 269.676px;" id="eluv4x4e82iu8" class="animable"></path><g style="clip-path: url(&quot;#freepik--clip-path--inject-124&quot;); transform-origin: 292.81px 269.676px;" id="ellofcd2duqqm" class="animable"><g id="elhyg5kxsbyav"><path d="M289.34,290.73,301,294.58c1.23.32,3.65-1.73,3.54-3L301.05,251a3.87,3.87,0,0,0-2.89-3.42l-12.87-2.8c-1.23-.31-4.32,1.16-4.21,2.42l5.36,40.11A3.87,3.87,0,0,0,289.34,290.73Z" style="fill-opacity: 0.7; opacity: 0.3; transform-origin: 292.81px 269.676px;" class="animable" id="elzcec6ahopo"></path></g></g><path d="M289.34,290.73,301,294.58c1.23.32,3.65-1.73,3.54-3L301.05,251a3.87,3.87,0,0,0-2.89-3.42l-12.87-2.8c-1.23-.31-4.32,1.16-4.21,2.42l5.36,40.11A3.87,3.87,0,0,0,289.34,290.73Z" style="fill: none; stroke: rgb(38, 50, 56); stroke-linecap: round; stroke-linejoin: round; transform-origin: 292.81px 269.676px;" id="ele1d0079lf19" class="animable"></path><path d="M287.42,291.73l12.87,2.79a1.83,1.83,0,0,0,2.29-1.93L299.14,252a3.87,3.87,0,0,0-2.9-3.42l-12.86-2.8a1.84,1.84,0,0,0-2.29,1.94l3.44,40.59A3.87,3.87,0,0,0,287.42,291.73Z" style="fill: #01C568; stroke: rgb(38, 50, 56); stroke-linecap: round; stroke-linejoin: round; transform-origin: 291.835px 270.152px;" id="eldnim5um9qdv" class="animable"></path><g id="elwfw9ix5qqyn"><path d="M294.56,259.51l2.07.45a.3.3,0,0,0,.37-.31l-.55-6.55a.63.63,0,0,0-.47-.55l-2.08-.45a.3.3,0,0,0-.37.31l.56,6.55A.63.63,0,0,0,294.56,259.51Z" style="fill-opacity: 0.7; opacity: 0.3; transform-origin: 295.265px 256.03px;" class="animable" id="elk87ddqunyk9"></path></g><path d="M276.46,279.85c-.5-5.69,4.68-14.23,8.13-14.23s13.93,8.08,13.93,8.08c4.06,2.94,2.05,5.74,2.05,5.74,2.39,1.58,3,3.72,1.95,4.71s-4.56,0-4.56,0,3.48,2.54,2.61,3.79c-2.05,2.95-8.79-.94-8.79-.94s3.91,2.58,3.69,3.07c-1.48,3.22-7.87-.53-7.87-.53l-4.49,2.3A3.84,3.84,0,0,1,279,295.7" style="fill: rgb(255, 255, 255); stroke: rgb(38, 50, 56); stroke-linecap: round; stroke-linejoin: round; transform-origin: 289.72px 280.665px;" id="elcrei3f16y5o" class="animable"></path><path d="M300.57,279.44s-9.82-6.34-11.06-6.51-5.79-1.16-5.79-1.16" style="fill: rgb(255, 255, 255); stroke: rgb(38, 50, 56); stroke-linecap: round; stroke-linejoin: round; transform-origin: 292.145px 275.605px;" id="eld9myyccabds" class="animable"></path><path d="M298,284.15s-8-4.12-9.44-4.12A54.28,54.28,0,0,1,282,278.9" style="fill: rgb(255, 255, 255); stroke: rgb(38, 50, 56); stroke-linecap: round; stroke-linejoin: round; transform-origin: 290px 281.525px;" id="elbvte7ptzg9" class="animable"></path><path d="M291.78,287a20,20,0,0,0-2.95-1.74,40,40,0,0,0-5.72,0" style="fill: rgb(255, 255, 255); stroke: rgb(38, 50, 56); stroke-linecap: round; stroke-linejoin: round; transform-origin: 287.445px 286.079px;" id="elne2et375vsa" class="animable"></path><path d="M391.78,350.87s6.2-3.49,11.74-16.51,7.12-11.71,7.12-11.71,12.13-5.95,17.93-7.33,16.35,0,16.35,0-9,26.11-18.19,43.09-16.59,27-21.5,28S391.78,350.87,391.78,350.87Z" style="fill: rgb(255, 255, 255); stroke: rgb(38, 50, 56); stroke-linecap: round; stroke-linejoin: round; transform-origin: 418.35px 350.568px;" id="elxlnp0hrvafq" class="animable"></path><path d="M427.78,279s-44.14,23.51-56.9,23.38-20.71-22-20.71-22,23.6-.53,20.86-11.81c0-.19-.09-.4-.15-.6-1.13-3.94-5.46-10.84-7.07-13.32-.38-.59-.61-.93-.61-.93l34.93-26.08c-2,26.37,1.86,37.93,4.23,42.27C406.43,277.34,427.78,279,427.78,279Z" style="fill: rgb(255, 255, 255); stroke: rgb(38, 50, 56); stroke-linecap: round; stroke-linejoin: round; transform-origin: 388.975px 265.01px;" id="el7ht7w134n5u" class="animable"></path><path d="M388.22,242.42S380.94,263,371,268.57c0-.19-.09-.4-.15-.6-1.13-3.94-5.46-10.84-7.07-13.32Z" style="fill: rgb(38, 50, 56); transform-origin: 376px 255.495px;" id="elh3c76nt3ozc" class="animable"></path><path d="M373.09,296.11s2.47-4.77,6.16-5.33,13.85-.66,32.64-3.78" style="fill: none; stroke: rgb(38, 50, 56); stroke-linecap: round; stroke-linejoin: round; transform-origin: 392.49px 291.555px;" id="eleryd039icl5" class="animable"></path><path d="M367.42,296.11s-1.58-3.71-2-5.33-10.24-3.66-13.5-6.34" style="fill: none; stroke: rgb(38, 50, 56); stroke-linecap: round; stroke-linejoin: round; transform-origin: 359.67px 290.275px;" id="el8pcko0ivwrr" class="animable"></path><path d="M340.71,184.23c-6.47,7.05-8.4,30.06-5.17,40,0,0,16.21,2.32,20-.6S340.71,184.23,340.71,184.23Z" style="fill: rgb(38, 50, 56); transform-origin: 345.026px 204.667px;" id="el60myripw8sg" class="animable"></path><path d="M401.67,230.7c1.56-6.89,9.83-40.29-9.64-55.07s-43.22,4.93-46.55,9.58c-13.43,18.76-7.48,33.67-5,42.66s1.26,19.88,13.82,34.85c5.28,6.29,14.78,2.94,24.14-3.57,5.61-3.9,13.51-10.76,13.71-17.37" style="fill: rgb(255, 255, 255); stroke: rgb(38, 50, 56); stroke-linecap: round; stroke-linejoin: round; transform-origin: 370.877px 218.148px;" id="elypwut4reea8" class="animable"></path><path d="M357.16,216.06s10.55-1.88,16.52,1.86" style="fill: none; stroke: rgb(38, 50, 56); stroke-linecap: round; stroke-linejoin: round; transform-origin: 365.42px 216.754px;" id="elk6lkr84444" class="animable"></path><path d="M368.32,226.26c.26,1.62-.31,3.06-1.28,3.22s-2-1-2.24-2.64.31-3.06,1.28-3.22S368.05,224.64,368.32,226.26Z" style="fill: rgb(38, 50, 56); transform-origin: 366.563px 226.55px;" id="elbxicnudwix" class="animable"></path><path d="M347.24,226.26c.26,1.62-.31,3.06-1.28,3.22s-2-1-2.24-2.64.31-3.06,1.28-3.22S347,224.64,347.24,226.26Z" style="fill: rgb(38, 50, 56); transform-origin: 345.483px 226.55px;" id="elscf9licn8h" class="animable"></path><path d="M345.48,216.16s-5.82-2.08-7.7.59" style="fill: none; stroke: rgb(38, 50, 56); stroke-linecap: round; stroke-linejoin: round; transform-origin: 341.63px 216.069px;" id="el54syvnpdn1e" class="animable"></path><path d="M349.15,225.46c.6,2.28-4,12.56-3.67,13.45s2.59,2.47,6.64,2.87" style="fill: none; stroke: rgb(38, 50, 56); stroke-linecap: round; stroke-linejoin: round; transform-origin: 348.792px 233.62px;" id="elgoux0i3nhpw" class="animable"></path><path d="M354.12,248.85s8.44,0,13.3-3.43" style="fill: none; stroke: rgb(38, 50, 56); stroke-linecap: round; stroke-linejoin: round; transform-origin: 360.77px 247.135px;" id="elr5m6xafdkaj" class="animable"></path><path d="M343.12,179.27s-8.9,8.27-3.16,24.53a28.68,28.68,0,0,0,5.52,9c5.95-3.35,8.92,1.88,12.48.17s9.23,1.92,12.92,1.2a12.14,12.14,0,0,1,10.42,2.53c2.77,2.48,2.77,7.91,6.92,10.53,0,0,2.42-8.49,7.52-7.26s.59,16,.59,16a51.91,51.91,0,0,0,11.47-27.29c2-17-4.72-31.85-16-35,0,0-3.76-7.32-16.62-6.14S350.66,168,343.12,179.27Z" style="fill: rgb(38, 50, 56); transform-origin: 373.091px 201.691px;" id="elte5x11qh4el" class="animable"></path><path d="M391.78,222.2s4.75-11.64,11.67-6.81-1.38,19.66-4.75,23.42-4.35-.39-4.74-1.58" style="fill: rgb(255, 255, 255); stroke: rgb(38, 50, 56); stroke-linecap: round; stroke-linejoin: round; transform-origin: 398.953px 227.284px;" id="el9037zrgut4n" class="animable"></path><g id="el2mmb7ltcy58"><g style="opacity: 0.2; transform-origin: 374.05px 195.99px;" class="animable" id="el0omdoenbgpe9"><path d="M346.24,187.73a18.87,18.87,0,0,1,2.55-8.26" style="fill: none; stroke: rgb(255, 255, 255); stroke-linecap: round; stroke-linejoin: round; transform-origin: 347.515px 183.6px;" id="elrrat82nhrz" class="animable"></path><path d="M354.12,207.76c-4.28-4.78-7.54-11.21-7.89-17.67" style="fill: none; stroke: rgb(255, 255, 255); stroke-linecap: round; stroke-linejoin: round; transform-origin: 350.175px 198.925px;" id="el40jw979il3c" class="animable"></path><path d="M363.2,199.72a26.45,26.45,0,0,0,9.89,9.42" style="fill: none; stroke: rgb(255, 255, 255); stroke-linecap: round; stroke-linejoin: round; transform-origin: 368.145px 204.43px;" id="elxnmzxgu8qjn" class="animable"></path><path d="M360.77,179.47c-3.28,5.27-1.39,12.83,1.17,18" style="fill: none; stroke: rgb(255, 255, 255); stroke-linecap: round; stroke-linejoin: round; transform-origin: 360.482px 188.47px;" id="elzlftj08wiuj" class="animable"></path><path d="M394.1,209.44a40.92,40.92,0,0,0,7.77,3.07" style="fill: none; stroke: rgb(255, 255, 255); stroke-linecap: round; stroke-linejoin: round; transform-origin: 397.985px 210.975px;" id="eli2tz1zhujh" class="animable"></path><path d="M370.88,186.4A58.82,58.82,0,0,0,392,208.29" style="fill: none; stroke: rgb(255, 255, 255); stroke-linecap: round; stroke-linejoin: round; transform-origin: 381.44px 197.345px;" id="elgqk8sgtdid" class="animable"></path></g></g><path d="M321.13,273.14s-3,0-3.27,2.19,4.2,5.05,4.2,5.05" style="fill: rgb(255, 255, 255); stroke: rgb(38, 50, 56); stroke-linecap: round; stroke-linejoin: round; transform-origin: 319.954px 276.76px;" id="elh958uu94jsj" class="animable"></path><path d="M405.4,352.69c-6.76-10.31-16.3-16.76-24.83-28.2a311.18,311.18,0,0,1-19.51-29.6l-9.05-17s-11.08-13.36-15.56-15-29-2.42-29-2.42-1,2.66,2.79,4,15.4,2.43,15.4,2.43-3.42,1.47-4.21,2.68,0,11.15,1.58,13.17,7.65,3.86,7.65,3.86.8,7,6.73,10.47,8.83,3.51,8.83,3.51,5.58,9.48,7.91,16.25c5,14.43,17.61,47.24,26.72,59.07,10.78,14,24.75,14.54,29.8,5.63" style="fill: rgb(255, 255, 255); stroke: rgb(38, 50, 56); stroke-linecap: round; stroke-linejoin: round; transform-origin: 358.99px 323.972px;" id="el3lbm90o5l4w" class="animable"></path><path d="M336,272.18s-8.6,1-9.69,1.78-.57,6.93,0,9.08a3.89,3.89,0,0,0,1.88,2.7" style="fill: none; stroke: rgb(38, 50, 56); stroke-linecap: round; stroke-linejoin: round; transform-origin: 330.836px 278.96px;" id="eleyhoqh225ya" class="animable"></path><path d="M332.45,267.1s-8.46,2.11-9,3.2a21.32,21.32,0,0,0-.39,9.12c.69,3.34.89,4.39,2.18,5" style="fill: none; stroke: rgb(38, 50, 56); stroke-linecap: round; stroke-linejoin: round; transform-origin: 327.596px 275.76px;" id="eldz13pgds0gc" class="animable"></path><path d="M325.63,266.91a28.79,28.79,0,0,1,3.7-1.26" style="fill: none; stroke: rgb(38, 50, 56); stroke-linecap: round; stroke-linejoin: round; transform-origin: 327.48px 266.28px;" id="elvvviv75quir" class="animable"></path><path d="M330.79,279a7.76,7.76,0,0,0,5.79,2.65s-1.85,7.12,1.45,11.74" style="fill: none; stroke: rgb(38, 50, 56); stroke-linecap: round; stroke-linejoin: round; transform-origin: 334.41px 286.195px;" id="el457ofjfc3ii" class="animable"></path><path d="M332.45,280.38s-1.91,1.55-1.66,2.38" style="fill: none; stroke: rgb(38, 50, 56); stroke-linecap: round; stroke-linejoin: round; transform-origin: 331.609px 281.57px;" id="elv74civc51io" class="animable"></path><path d="M410.64,322.65s17-7.44,19.46-7.94,20.89.41,20.89.41a26.76,26.76,0,0,1-7.77,5s-.41-3.39-5-3.78S410.64,322.65,410.64,322.65Z" style="fill: rgb(38, 50, 56); transform-origin: 430.815px 318.605px;" id="elfq6rr0cnlo7" class="animable"></path></g><defs><clipPath id="freepik--clip-path--inject-124"><path d="M289.34,290.73,301,294.58c1.23.32,3.65-1.73,3.54-3L301.05,251a3.87,3.87,0,0,0-2.89-3.42l-12.87-2.8c-1.23-.31-4.32,1.16-4.21,2.42l5.36,40.11A3.87,3.87,0,0,0,289.34,290.73Z" style="fill:#92E3A9;stroke:#263238;stroke-linecap:round;stroke-linejoin:round"></path></clipPath></defs><defs>     <filter id="active" height="200%">         <feMorphology in="SourceAlpha" result="DILATED" operator="dilate" radius="2"></feMorphology>                <feFlood flood-color="#32DFEC" flood-opacity="1" result="PINK"></feFlood>        <feComposite in="PINK" in2="DILATED" operator="in" result="OUTLINE"></feComposite>        <feMerge>            <feMergeNode in="OUTLINE"></feMergeNode>            <feMergeNode in="SourceGraphic"></feMergeNode>        </feMerge>    </filter>    <filter id="hover" height="200%">        <feMorphology in="SourceAlpha" result="DILATED" operator="dilate" radius="2"></feMorphology>                <feFlood flood-color="#ff0000" flood-opacity="0.5" result="PINK"></feFlood>        <feComposite in="PINK" in2="DILATED" operator="in" result="OUTLINE"></feComposite>        <feMerge>            <feMergeNode in="OUTLINE"></feMergeNode>            <feMergeNode in="SourceGraphic"></feMergeNode>        </feMerge>            <feColorMatrix type="matrix" values="0   0   0   0   0                0   1   0   0   0                0   0   0   0   0                0   0   0   1   0 "></feColorMatrix>    </filter></defs></svg>